<svg width="1328" height="529" viewBox="0 0 1328 529" fill="none" xmlns="http://www.w3.org/2000/svg">
<g opacity="0.4">
<path d="M1328 0.943604H0V751.26H1328V0.943604Z" fill="#080F1F"/>
<mask id="mask0_365_5277" style="mask-type:luminance" maskUnits="userSpaceOnUse" x="0" y="0" width="1328" height="752">
<path d="M1328 0.943604H0V751.26H1328V0.943604Z" fill="white"/>
</mask>
<g mask="url(#mask0_365_5277)">
<g style="mix-blend-mode:screen">
<path d="M166.128 582.169L165.607 582.019L-536.436 380.1L648.327 -550.308L648.44 -548.31L688.348 172.056L687.922 172.388L166.128 582.169ZM-531.968 379.23L165.674 579.886L686.185 171.101L646.434 -546.195L-531.968 379.23Z" fill="url(#paint0_linear_365_5277)"/>
<path d="M-474.77 332.286L-475.451 334.242L191.655 561.488L192.336 559.532L-474.77 332.286Z" fill="url(#paint1_linear_365_5277)"/>
<path d="M-415.646 285.916L-416.43 287.833L217.667 541.014L218.45 539.096L-415.646 285.916Z" fill="url(#paint2_linear_365_5277)"/>
<path d="M-356.521 239.541L-357.41 241.413L243.657 520.563L244.546 518.691L-356.521 239.541Z" fill="url(#paint3_linear_365_5277)"/>
<path d="M-297.388 193.171L-298.387 194.989L269.665 500.071L270.663 498.253L-297.388 193.171Z" fill="url(#paint4_linear_365_5277)"/>
<path d="M-238.256 146.811L-239.365 148.565L295.696 479.529L296.805 477.776L-238.256 146.811Z" fill="url(#paint5_linear_365_5277)"/>
<path d="M-179.111 100.45L-180.332 102.129L321.684 459.066L322.905 457.387L-179.111 100.45Z" fill="url(#paint6_linear_365_5277)"/>
<path d="M-119.981 54.0965L-121.312 55.6914L347.717 438.521L349.048 436.926L-119.981 54.0965Z" fill="url(#paint7_linear_365_5277)"/>
<path d="M-60.8657 7.74566L-62.3047 9.24658L373.751 417.961L375.19 416.46L-60.8657 7.74566Z" fill="url(#paint8_linear_365_5277)"/>
<path d="M-1.71395 -38.5967L-3.25586 -37.1992L399.739 397.489L401.281 396.092L-1.71395 -38.5967Z" fill="url(#paint9_linear_365_5277)"/>
<path d="M57.3976 -84.9365L55.7598 -83.6501L425.771 376.941L427.409 375.654L57.3976 -84.9365Z" fill="url(#paint10_linear_365_5277)"/>
<path d="M116.503 -131.281L114.777 -130.112L451.806 356.383L453.532 355.215L116.503 -131.281Z" fill="url(#paint11_linear_365_5277)"/>
<path d="M175.664 -177.6L173.859 -176.554L477.818 335.904L479.622 334.858L175.664 -177.6Z" fill="url(#paint12_linear_365_5277)"/>
<path d="M234.74 -223.95L232.867 -223.029L503.863 315.327L505.736 314.406L234.74 -223.95Z" fill="url(#paint13_linear_365_5277)"/>
<path d="M293.895 -270.258L291.965 -269.463L529.888 294.844L531.819 294.048L293.895 -270.258Z" fill="url(#paint14_linear_365_5277)"/>
<path d="M352.965 -316.61L350.986 -315.938L555.944 274.274L557.923 273.603L352.965 -316.61Z" fill="url(#paint15_linear_365_5277)"/>
<path d="M412.024 -362.973L410.008 -362.423L582 253.701L584.016 253.151L412.024 -362.973Z" fill="url(#paint16_linear_365_5277)"/>
<path d="M471.125 -409.311L469.08 -408.879L608.054 233.173L610.099 232.74L471.125 -409.311Z" fill="url(#paint17_linear_365_5277)"/>
<path d="M530.252 -455.621L528.186 -455.301L634.102 212.689L636.168 212.369L530.252 -455.621Z" fill="url(#paint18_linear_365_5277)"/>
<path d="M589.346 -501.949L587.266 -501.736L660.162 192.176L662.243 191.962L589.346 -501.949Z" fill="url(#paint19_linear_365_5277)"/>
<path d="M685.666 153.537L148.502 575.401L149.803 577.021L686.967 155.156L685.666 153.537Z" fill="url(#paint20_linear_365_5277)"/>
<path d="M684.654 135.229L130.707 570.273L132.008 571.893L685.955 136.848L684.654 135.229Z" fill="url(#paint21_linear_365_5277)"/>
<path d="M683.569 115.757L111.758 564.832L113.059 566.451L684.87 117.376L683.569 115.757Z" fill="url(#paint22_linear_365_5277)"/>
<path d="M682.416 94.9597L91.5469 559.002L92.8478 560.621L683.717 96.5791L682.416 94.9597Z" fill="url(#paint23_linear_365_5277)"/>
<path d="M681.188 72.8021L69.9453 552.845L71.2463 554.464L682.489 74.4216L681.188 72.8021Z" fill="url(#paint24_linear_365_5277)"/>
<path d="M679.865 48.9578L46.7969 546.142L48.0978 547.761L681.166 50.5773L679.865 48.9578Z" fill="url(#paint25_linear_365_5277)"/>
<path d="M678.498 23.4918L21.8965 538.972L23.1972 540.592L679.798 25.1115L678.498 23.4918Z" fill="url(#paint26_linear_365_5277)"/>
<path d="M676.924 -4.12734L-4.83203 531.294L-3.53106 532.913L678.225 -2.50788L676.924 -4.12734Z" fill="url(#paint27_linear_365_5277)"/>
<path d="M675.278 -33.8197L-33.7441 523.015L-32.4432 524.634L676.579 -32.2003L675.278 -33.8197Z" fill="url(#paint28_linear_365_5277)"/>
<path d="M673.493 -66.0309L-65.0664 514.001L-63.7655 515.62L674.794 -64.4115L673.493 -66.0309Z" fill="url(#paint29_linear_365_5277)"/>
<path d="M671.606 -100.97L-99.1621 504.139L-97.8614 505.759L672.907 -99.3507L671.606 -100.97Z" fill="url(#paint30_linear_365_5277)"/>
<path d="M669.437 -139.22L-136.25 493.53L-134.949 495.149L670.738 -137.601L669.437 -139.22Z" fill="url(#paint31_linear_365_5277)"/>
<path d="M667.112 -181.078L-176.932 481.796L-175.631 483.416L668.412 -179.458L667.112 -181.078Z" fill="url(#paint32_linear_365_5277)"/>
<path d="M664.563 -227.072L-221.672 468.937L-220.371 470.556L665.864 -225.453L664.563 -227.072Z" fill="url(#paint33_linear_365_5277)"/>
<path d="M661.739 -277.924L-271.127 454.708L-269.826 456.327L663.04 -276.304L661.739 -277.924Z" fill="url(#paint34_linear_365_5277)"/>
<path d="M658.611 -334.415L-326.07 438.91L-324.769 440.53L659.912 -332.795L658.611 -334.415Z" fill="url(#paint35_linear_365_5277)"/>
<path d="M655.191 -397.452L-387.539 421.168L-386.238 422.788L656.492 -395.833L655.191 -397.452Z" fill="url(#paint36_linear_365_5277)"/>
<path d="M651.179 -468.577L-456.551 401.385L-455.25 403.004L652.48 -466.958L651.179 -468.577Z" fill="url(#paint37_linear_365_5277)"/>
</g>
<g style="mix-blend-mode:screen">
<path d="M1161.55 139.799L1162.06 139.949L1864.11 341.868L679.367 1272.28L679.258 1270.28L639.336 549.912L639.757 549.58L1161.55 139.799ZM1859.64 342.734L1162 142.083L641.47 550.867L681.222 1268.16L1859.64 342.734Z" fill="url(#paint38_linear_365_5277)"/>
<path d="M1135.96 160.409L1135.28 162.364L1802.39 389.61L1803.07 387.655L1135.96 160.409Z" fill="url(#paint39_linear_365_5277)"/>
<path d="M1109.96 180.904L1109.18 182.821L1743.28 436.002L1744.06 434.084L1109.96 180.904Z" fill="url(#paint40_linear_365_5277)"/>
<path d="M1084.05 201.435L1083.16 203.307L1684.22 482.457L1685.11 480.585L1084.05 201.435Z" fill="url(#paint41_linear_365_5277)"/>
<path d="M1058.05 221.951L1057.05 223.768L1625.1 528.85L1626.1 527.033L1058.05 221.951Z" fill="url(#paint42_linear_365_5277)"/>
<path d="M1031.96 242.405L1030.85 244.158L1565.91 575.123L1567.02 573.37L1031.96 242.405Z" fill="url(#paint43_linear_365_5277)"/>
<path d="M1006.04 262.995L1004.82 264.674L1506.83 621.611L1508.06 619.932L1006.04 262.995Z" fill="url(#paint44_linear_365_5277)"/>
<path d="M979.964 283.459L978.633 285.054L1447.66 667.883L1448.99 666.288L979.964 283.459Z" fill="url(#paint45_linear_365_5277)"/>
<path d="M953.884 303.891L952.445 305.392L1388.5 714.106L1389.94 712.605L953.884 303.891Z" fill="url(#paint46_linear_365_5277)"/>
<path d="M927.948 324.53L926.406 325.927L1329.4 760.616L1330.94 759.218L927.948 324.53Z" fill="url(#paint47_linear_365_5277)"/>
<path d="M901.896 345.003L900.258 346.289L1270.27 806.88L1271.91 805.593L901.896 345.003Z" fill="url(#paint48_linear_365_5277)"/>
<path d="M875.858 365.475L874.133 366.644L1211.16 853.139L1212.89 851.97L875.858 365.475Z" fill="url(#paint49_linear_365_5277)"/>
<path d="M849.863 386.13L848.059 387.176L1152.02 899.634L1153.82 898.588L849.863 386.13Z" fill="url(#paint50_linear_365_5277)"/>
<path d="M823.812 406.578L821.939 407.5L1092.94 945.856L1094.81 944.934L823.812 406.578Z" fill="url(#paint51_linear_365_5277)"/>
<path d="M797.778 427.222L795.848 428.018L1033.77 992.324L1035.7 991.529L797.778 427.222Z" fill="url(#paint52_linear_365_5277)"/>
<path d="M771.732 447.681L769.754 448.353L974.712 1038.57L976.69 1037.89L771.732 447.681Z" fill="url(#paint53_linear_365_5277)"/>
<path d="M745.7 468.149L743.684 468.699L915.676 1084.82L917.692 1084.27L745.7 468.149Z" fill="url(#paint54_linear_365_5277)"/>
<path d="M719.649 488.699L717.604 489.132L856.577 1131.18L858.623 1130.75L719.649 488.699Z" fill="url(#paint55_linear_365_5277)"/>
<path d="M693.565 509.292L691.498 509.613L797.414 1177.6L799.481 1177.28L693.565 509.292Z" fill="url(#paint56_linear_365_5277)"/>
<path d="M1177.89 145.018L640.729 566.883L642.029 568.502L1179.19 146.637L1177.89 145.018Z" fill="url(#paint57_linear_365_5277)"/>
<path d="M1195.67 150.055L641.719 585.1L643.02 586.72L1196.97 151.675L1195.67 150.055Z" fill="url(#paint58_linear_365_5277)"/>
<path d="M1214.64 155.583L642.824 604.658L644.125 606.278L1215.94 157.203L1214.64 155.583Z" fill="url(#paint59_linear_365_5277)"/>
<path d="M1234.88 161.435L643.93 625.375L645.23 626.995L1236.18 163.054L1234.88 161.435Z" fill="url(#paint60_linear_365_5277)"/>
<path d="M1256.49 167.646L645.16 647.583L646.461 649.203L1257.79 169.266L1256.49 167.646Z" fill="url(#paint61_linear_365_5277)"/>
<path d="M1279.57 174.189L646.504 671.372L647.805 672.992L1280.87 175.808L1279.57 174.189Z" fill="url(#paint62_linear_365_5277)"/>
<path d="M1304.43 181.314L647.918 696.908L649.219 698.527L1305.73 182.934L1304.43 181.314Z" fill="url(#paint63_linear_365_5277)"/>
<path d="M1331.2 189.021L649.441 724.442L650.742 726.061L1332.5 190.64L1331.2 189.021Z" fill="url(#paint64_linear_365_5277)"/>
<path d="M1360.12 197.352L651.094 754.186L652.395 755.806L1361.42 198.971L1360.12 197.352Z" fill="url(#paint65_linear_365_5277)"/>
<path d="M1391.44 206.362L652.881 786.394L654.182 788.013L1392.74 207.982L1391.44 206.362Z" fill="url(#paint66_linear_365_5277)"/>
<path d="M1425.55 216.297L654.783 821.407L656.084 823.027L1426.85 217.917L1425.55 216.297Z" fill="url(#paint67_linear_365_5277)"/>
<path d="M1462.69 226.982L656.895 859.593L658.195 861.212L1463.99 228.601L1462.69 226.982Z" fill="url(#paint68_linear_365_5277)"/>
<path d="M1503.37 238.664L659.207 901.393L660.508 903.012L1504.67 240.284L1503.37 238.664Z" fill="url(#paint69_linear_365_5277)"/>
<path d="M1541.76 252.815L658.971 946.622L660.268 948.235L1543.06 254.428L1541.76 252.815Z" fill="url(#paint70_linear_365_5277)"/>
<path d="M1597.57 265.792L664.578 998.262L665.879 999.882L1598.87 267.411L1597.57 265.792Z" fill="url(#paint71_linear_365_5277)"/>
<path d="M1652.52 281.599L667.703 1054.75L669.004 1056.37L1653.82 283.219L1652.52 281.599Z" fill="url(#paint72_linear_365_5277)"/>
<path d="M1713.93 299.292L671.203 1117.91L672.504 1119.53L1715.23 300.912L1713.93 299.292Z" fill="url(#paint73_linear_365_5277)"/>
<path d="M1782.93 318.955L675.201 1188.92L676.502 1190.54L1784.23 320.574L1782.93 318.955Z" fill="url(#paint74_linear_365_5277)"/>
</g>
</g>
</g>
<defs>
<linearGradient id="paint0_linear_365_5277" x1="109.87" y1="-12.6211" x2="369.993" y2="344.95" gradientUnits="userSpaceOnUse">
<stop stop-color="#CCCCCC"/>
<stop offset="1"/>
</linearGradient>
<linearGradient id="paint1_linear_365_5277" x1="-275.132" y1="267.416" x2="-15.0037" y2="624.993" gradientUnits="userSpaceOnUse">
<stop stop-color="#CCCCCC"/>
<stop offset="1"/>
</linearGradient>
<linearGradient id="paint2_linear_365_5277" x1="-231.363" y1="235.591" x2="28.7595" y2="593.167" gradientUnits="userSpaceOnUse">
<stop stop-color="#CCCCCC"/>
<stop offset="1"/>
</linearGradient>
<linearGradient id="paint3_linear_365_5277" x1="-187.59" y1="203.785" x2="72.5329" y2="561.361" gradientUnits="userSpaceOnUse">
<stop stop-color="#CCCCCC"/>
<stop offset="1"/>
</linearGradient>
<linearGradient id="paint4_linear_365_5277" x1="-143.825" y1="171.95" x2="116.298" y2="529.526" gradientUnits="userSpaceOnUse">
<stop stop-color="#CCCCCC"/>
<stop offset="1"/>
</linearGradient>
<linearGradient id="paint5_linear_365_5277" x1="-100.075" y1="140.099" x2="160.047" y2="497.676" gradientUnits="userSpaceOnUse">
<stop stop-color="#CCCCCC"/>
<stop offset="1"/>
</linearGradient>
<linearGradient id="paint6_linear_365_5277" x1="-56.2899" y1="108.281" x2="203.833" y2="465.857" gradientUnits="userSpaceOnUse">
<stop stop-color="#CCCCCC"/>
<stop offset="1"/>
</linearGradient>
<linearGradient id="paint7_linear_365_5277" x1="-12.5396" y1="76.4286" x2="247.583" y2="434.005" gradientUnits="userSpaceOnUse">
<stop stop-color="#CCCCCC"/>
<stop offset="1"/>
</linearGradient>
<linearGradient id="paint8_linear_365_5277" x1="31.2068" y1="44.5863" x2="291.329" y2="402.162" gradientUnits="userSpaceOnUse">
<stop stop-color="#CCCCCC"/>
<stop offset="1"/>
</linearGradient>
<linearGradient id="paint9_linear_365_5277" x1="74.9858" y1="12.7574" x2="335.113" y2="370.334" gradientUnits="userSpaceOnUse">
<stop stop-color="#CCCCCC"/>
<stop offset="1"/>
</linearGradient>
<linearGradient id="paint10_linear_365_5277" x1="118.739" y1="-19.0769" x2="378.862" y2="338.499" gradientUnits="userSpaceOnUse">
<stop stop-color="#CCCCCC"/>
<stop offset="1"/>
</linearGradient>
<linearGradient id="paint11_linear_365_5277" x1="162.496" y1="-50.9157" x2="422.618" y2="306.66" gradientUnits="userSpaceOnUse">
<stop stop-color="#CCCCCC"/>
<stop offset="1"/>
</linearGradient>
<linearGradient id="paint12_linear_365_5277" x1="206.275" y1="-82.7491" x2="466.402" y2="274.827" gradientUnits="userSpaceOnUse">
<stop stop-color="#CCCCCC"/>
<stop offset="1"/>
</linearGradient>
<linearGradient id="paint13_linear_365_5277" x1="250.025" y1="-114.58" x2="510.148" y2="242.992" gradientUnits="userSpaceOnUse">
<stop stop-color="#CCCCCC"/>
<stop offset="1"/>
</linearGradient>
<linearGradient id="paint14_linear_365_5277" x1="293.809" y1="-146.42" x2="553.932" y2="211.151" gradientUnits="userSpaceOnUse">
<stop stop-color="#CCCCCC"/>
<stop offset="1"/>
</linearGradient>
<linearGradient id="paint15_linear_365_5277" x1="337.556" y1="-178.258" x2="597.683" y2="179.32" gradientUnits="userSpaceOnUse">
<stop stop-color="#CCCCCC"/>
<stop offset="1"/>
</linearGradient>
<linearGradient id="paint16_linear_365_5277" x1="381.31" y1="-210.096" x2="641.432" y2="147.482" gradientUnits="userSpaceOnUse">
<stop stop-color="#CCCCCC"/>
<stop offset="1"/>
</linearGradient>
<linearGradient id="paint17_linear_365_5277" x1="425.081" y1="-241.927" x2="685.205" y2="115.647" gradientUnits="userSpaceOnUse">
<stop stop-color="#CCCCCC"/>
<stop offset="1"/>
</linearGradient>
<linearGradient id="paint18_linear_365_5277" x1="468.843" y1="-273.766" x2="728.97" y2="83.8078" gradientUnits="userSpaceOnUse">
<stop stop-color="#CCCCCC"/>
<stop offset="1"/>
</linearGradient>
<linearGradient id="paint19_linear_365_5277" x1="512.613" y1="-305.597" x2="772.735" y2="51.9771" gradientUnits="userSpaceOnUse">
<stop stop-color="#CCCCCC"/>
<stop offset="1"/>
</linearGradient>
<linearGradient id="paint20_linear_365_5277" x1="127.161" y1="-25.2056" x2="387.287" y2="332.374" gradientUnits="userSpaceOnUse">
<stop stop-color="#CCCCCC"/>
<stop offset="1"/>
</linearGradient>
<linearGradient id="paint21_linear_365_5277" x1="126.709" y1="-24.8773" x2="386.831" y2="332.697" gradientUnits="userSpaceOnUse">
<stop stop-color="#CCCCCC"/>
<stop offset="1"/>
</linearGradient>
<linearGradient id="paint22_linear_365_5277" x1="126.221" y1="-24.5412" x2="386.356" y2="333.043" gradientUnits="userSpaceOnUse">
<stop stop-color="#CCCCCC"/>
<stop offset="1"/>
</linearGradient>
<linearGradient id="paint23_linear_365_5277" x1="125.708" y1="-24.1605" x2="385.83" y2="333.41" gradientUnits="userSpaceOnUse">
<stop stop-color="#CCCCCC"/>
<stop offset="1"/>
</linearGradient>
<linearGradient id="paint24_linear_365_5277" x1="125.208" y1="-23.7513" x2="385.33" y2="333.828" gradientUnits="userSpaceOnUse">
<stop stop-color="#CCCCCC"/>
<stop offset="1"/>
</linearGradient>
<linearGradient id="paint25_linear_365_5277" x1="124.584" y1="-23.3393" x2="384.71" y2="334.235" gradientUnits="userSpaceOnUse">
<stop stop-color="#CCCCCC"/>
<stop offset="1"/>
</linearGradient>
<linearGradient id="paint26_linear_365_5277" x1="123.986" y1="-22.8699" x2="384.108" y2="334.705" gradientUnits="userSpaceOnUse">
<stop stop-color="#CCCCCC"/>
<stop offset="1"/>
</linearGradient>
<linearGradient id="paint27_linear_365_5277" x1="123.282" y1="-22.3946" x2="383.412" y2="335.19" gradientUnits="userSpaceOnUse">
<stop stop-color="#CCCCCC"/>
<stop offset="1"/>
</linearGradient>
<linearGradient id="paint28_linear_365_5277" x1="122.576" y1="-21.8516" x2="382.703" y2="335.728" gradientUnits="userSpaceOnUse">
<stop stop-color="#CCCCCC"/>
<stop offset="1"/>
</linearGradient>
<linearGradient id="paint29_linear_365_5277" x1="121.78" y1="-21.2786" x2="381.906" y2="336.301" gradientUnits="userSpaceOnUse">
<stop stop-color="#CCCCCC"/>
<stop offset="1"/>
</linearGradient>
<linearGradient id="paint30_linear_365_5277" x1="120.921" y1="-20.6531" x2="381.047" y2="336.926" gradientUnits="userSpaceOnUse">
<stop stop-color="#CCCCCC"/>
<stop offset="1"/>
</linearGradient>
<linearGradient id="paint31_linear_365_5277" x1="119.986" y1="-19.9686" x2="380.112" y2="337.611" gradientUnits="userSpaceOnUse">
<stop stop-color="#CCCCCC"/>
<stop offset="1"/>
</linearGradient>
<linearGradient id="paint32_linear_365_5277" x1="118.937" y1="-19.2257" x2="379.065" y2="338.356" gradientUnits="userSpaceOnUse">
<stop stop-color="#CCCCCC"/>
<stop offset="1"/>
</linearGradient>
<linearGradient id="paint33_linear_365_5277" x1="117.81" y1="-18.3994" x2="377.937" y2="339.177" gradientUnits="userSpaceOnUse">
<stop stop-color="#CCCCCC"/>
<stop offset="1"/>
</linearGradient>
<linearGradient id="paint34_linear_365_5277" x1="116.558" y1="-17.4969" x2="376.686" y2="340.08" gradientUnits="userSpaceOnUse">
<stop stop-color="#CCCCCC"/>
<stop offset="1"/>
</linearGradient>
<linearGradient id="paint35_linear_365_5277" x1="114.764" y1="-16.378" x2="373.827" y2="340.003" gradientUnits="userSpaceOnUse">
<stop stop-color="#CCCCCC"/>
<stop offset="1"/>
</linearGradient>
<linearGradient id="paint36_linear_365_5277" x1="113.63" y1="-15.3551" x2="373.757" y2="342.226" gradientUnits="userSpaceOnUse">
<stop stop-color="#CCCCCC"/>
<stop offset="1"/>
</linearGradient>
<linearGradient id="paint37_linear_365_5277" x1="111.886" y1="-14.0864" x2="372.009" y2="343.49" gradientUnits="userSpaceOnUse">
<stop stop-color="#CCCCCC"/>
<stop offset="1"/>
</linearGradient>
<linearGradient id="paint38_linear_365_5277" x1="1217.8" y1="734.589" x2="957.677" y2="377.013" gradientUnits="userSpaceOnUse">
<stop stop-color="#CCCCCC"/>
<stop offset="1"/>
</linearGradient>
<linearGradient id="paint39_linear_365_5277" x1="1602.65" y1="454.567" x2="1342.53" y2="96.9906" gradientUnits="userSpaceOnUse">
<stop stop-color="#CCCCCC"/>
<stop offset="1"/>
</linearGradient>
<linearGradient id="paint40_linear_365_5277" x1="1558.92" y1="486.385" x2="1298.8" y2="128.808" gradientUnits="userSpaceOnUse">
<stop stop-color="#CCCCCC"/>
<stop offset="1"/>
</linearGradient>
<linearGradient id="paint41_linear_365_5277" x1="1515.33" y1="518.172" x2="1255.22" y2="160.596" gradientUnits="userSpaceOnUse">
<stop stop-color="#CCCCCC"/>
<stop offset="1"/>
</linearGradient>
<linearGradient id="paint42_linear_365_5277" x1="1471.6" y1="550.009" x2="1211.48" y2="192.432" gradientUnits="userSpaceOnUse">
<stop stop-color="#CCCCCC"/>
<stop offset="1"/>
</linearGradient>
<linearGradient id="paint43_linear_365_5277" x1="1427.68" y1="581.876" x2="1167.55" y2="224.301" gradientUnits="userSpaceOnUse">
<stop stop-color="#CCCCCC"/>
<stop offset="1"/>
</linearGradient>
<linearGradient id="paint44_linear_365_5277" x1="1384.12" y1="613.687" x2="1124" y2="256.113" gradientUnits="userSpaceOnUse">
<stop stop-color="#CCCCCC"/>
<stop offset="1"/>
</linearGradient>
<linearGradient id="paint45_linear_365_5277" x1="1340.23" y1="645.538" x2="1080.11" y2="287.961" gradientUnits="userSpaceOnUse">
<stop stop-color="#CCCCCC"/>
<stop offset="1"/>
</linearGradient>
<linearGradient id="paint46_linear_365_5277" x1="1296.3" y1="677.377" x2="1036.18" y2="319.805" gradientUnits="userSpaceOnUse">
<stop stop-color="#CCCCCC"/>
<stop offset="1"/>
</linearGradient>
<linearGradient id="paint47_linear_365_5277" x1="1252.76" y1="709.209" x2="992.633" y2="351.633" gradientUnits="userSpaceOnUse">
<stop stop-color="#CCCCCC"/>
<stop offset="1"/>
</linearGradient>
<linearGradient id="paint48_linear_365_5277" x1="1208.89" y1="741.046" x2="948.773" y2="383.47" gradientUnits="userSpaceOnUse">
<stop stop-color="#CCCCCC"/>
<stop offset="1"/>
</linearGradient>
<linearGradient id="paint49_linear_365_5277" x1="1165.05" y1="772.875" x2="904.925" y2="415.299" gradientUnits="userSpaceOnUse">
<stop stop-color="#CCCCCC"/>
<stop offset="1"/>
</linearGradient>
<linearGradient id="paint50_linear_365_5277" x1="1121.47" y1="804.723" x2="861.347" y2="447.145" gradientUnits="userSpaceOnUse">
<stop stop-color="#CCCCCC"/>
<stop offset="1"/>
</linearGradient>
<linearGradient id="paint51_linear_365_5277" x1="1077.58" y1="836.548" x2="817.458" y2="478.976" gradientUnits="userSpaceOnUse">
<stop stop-color="#CCCCCC"/>
<stop offset="1"/>
</linearGradient>
<linearGradient id="paint52_linear_365_5277" x1="1033.97" y1="868.391" x2="773.84" y2="510.819" gradientUnits="userSpaceOnUse">
<stop stop-color="#CCCCCC"/>
<stop offset="1"/>
</linearGradient>
<linearGradient id="paint53_linear_365_5277" x1="990.107" y1="900.221" x2="729.985" y2="542.648" gradientUnits="userSpaceOnUse">
<stop stop-color="#CCCCCC"/>
<stop offset="1"/>
</linearGradient>
<linearGradient id="paint54_linear_365_5277" x1="946.26" y1="932.05" x2="686.136" y2="574.481" gradientUnits="userSpaceOnUse">
<stop stop-color="#CCCCCC"/>
<stop offset="1"/>
</linearGradient>
<linearGradient id="paint55_linear_365_5277" x1="902.523" y1="963.889" x2="642.401" y2="606.315" gradientUnits="userSpaceOnUse">
<stop stop-color="#CCCCCC"/>
<stop offset="1"/>
</linearGradient>
<linearGradient id="paint56_linear_365_5277" x1="858.835" y1="995.733" x2="598.713" y2="638.159" gradientUnits="userSpaceOnUse">
<stop stop-color="#CCCCCC"/>
<stop offset="1"/>
</linearGradient>
<linearGradient id="paint57_linear_365_5277" x1="1200.63" y1="747.171" x2="940.5" y2="389.592" gradientUnits="userSpaceOnUse">
<stop stop-color="#CCCCCC"/>
<stop offset="1"/>
</linearGradient>
<linearGradient id="paint58_linear_365_5277" x1="1200.96" y1="746.85" x2="940.826" y2="389.265" gradientUnits="userSpaceOnUse">
<stop stop-color="#CCCCCC"/>
<stop offset="1"/>
</linearGradient>
<linearGradient id="paint59_linear_365_5277" x1="1201.55" y1="746.489" x2="941.426" y2="388.914" gradientUnits="userSpaceOnUse">
<stop stop-color="#CCCCCC"/>
<stop offset="1"/>
</linearGradient>
<linearGradient id="paint60_linear_365_5277" x1="1202.05" y1="746.128" x2="941.918" y2="388.548" gradientUnits="userSpaceOnUse">
<stop stop-color="#CCCCCC"/>
<stop offset="1"/>
</linearGradient>
<linearGradient id="paint61_linear_365_5277" x1="1202.59" y1="745.724" x2="942.462" y2="388.145" gradientUnits="userSpaceOnUse">
<stop stop-color="#CCCCCC"/>
<stop offset="1"/>
</linearGradient>
<linearGradient id="paint62_linear_365_5277" x1="1203.07" y1="745.307" x2="942.943" y2="387.732" gradientUnits="userSpaceOnUse">
<stop stop-color="#CCCCCC"/>
<stop offset="1"/>
</linearGradient>
<linearGradient id="paint63_linear_365_5277" x1="1203.66" y1="744.844" x2="943.538" y2="387.269" gradientUnits="userSpaceOnUse">
<stop stop-color="#CCCCCC"/>
<stop offset="1"/>
</linearGradient>
<linearGradient id="paint64_linear_365_5277" x1="1204.35" y1="744.352" x2="944.215" y2="386.777" gradientUnits="userSpaceOnUse">
<stop stop-color="#CCCCCC"/>
<stop offset="1"/>
</linearGradient>
<linearGradient id="paint65_linear_365_5277" x1="1205.09" y1="743.823" x2="944.973" y2="386.248" gradientUnits="userSpaceOnUse">
<stop stop-color="#CCCCCC"/>
<stop offset="1"/>
</linearGradient>
<linearGradient id="paint66_linear_365_5277" x1="1205.9" y1="743.254" x2="945.771" y2="385.67" gradientUnits="userSpaceOnUse">
<stop stop-color="#CCCCCC"/>
<stop offset="1"/>
</linearGradient>
<linearGradient id="paint67_linear_365_5277" x1="1206.87" y1="742.618" x2="946.736" y2="385.038" gradientUnits="userSpaceOnUse">
<stop stop-color="#CCCCCC"/>
<stop offset="1"/>
</linearGradient>
<linearGradient id="paint68_linear_365_5277" x1="1207.8" y1="741.939" x2="947.675" y2="384.355" gradientUnits="userSpaceOnUse">
<stop stop-color="#CCCCCC"/>
<stop offset="1"/>
</linearGradient>
<linearGradient id="paint69_linear_365_5277" x1="1208.8" y1="741.188" x2="948.68" y2="383.613" gradientUnits="userSpaceOnUse">
<stop stop-color="#CCCCCC"/>
<stop offset="1"/>
</linearGradient>
<linearGradient id="paint70_linear_365_5277" x1="1204.94" y1="740.152" x2="945.624" y2="383.951" gradientUnits="userSpaceOnUse">
<stop stop-color="#CCCCCC"/>
<stop offset="1"/>
</linearGradient>
<linearGradient id="paint71_linear_365_5277" x1="1211.22" y1="739.465" x2="951.087" y2="381.88" gradientUnits="userSpaceOnUse">
<stop stop-color="#CCCCCC"/>
<stop offset="1"/>
</linearGradient>
<linearGradient id="paint72_linear_365_5277" x1="1212.61" y1="738.455" x2="952.476" y2="380.875" gradientUnits="userSpaceOnUse">
<stop stop-color="#CCCCCC"/>
<stop offset="1"/>
</linearGradient>
<linearGradient id="paint73_linear_365_5277" x1="1214.18" y1="737.327" x2="954.057" y2="379.743" gradientUnits="userSpaceOnUse">
<stop stop-color="#CCCCCC"/>
<stop offset="1"/>
</linearGradient>
<linearGradient id="paint74_linear_365_5277" x1="1210.48" y1="730.797" x2="951.418" y2="374.417" gradientUnits="userSpaceOnUse">
<stop stop-color="#CCCCCC"/>
<stop offset="1"/>
</linearGradient>
</defs>
</svg>
