<svg width="120" height="49" viewBox="0 0 120 49" fill="none" xmlns="http://www.w3.org/2000/svg">
<g clip-path="url(#clip0_737_5571)">
<path d="M7 9.07872H6.9C5.9 9.07872 4.9 9.48723 4.2 10.2021V0.704254H0V34.7128V34.8149V38.3894H3.8H7C9.1 38.3894 10.8 36.5511 10.8 34.4064V13.0617C10.8 10.917 9.1 9.18085 7 9.07872ZM6.7 32.7723C6.7 33.3851 6.1 33.8957 5.5 33.8957C4.8 33.8957 4.3 33.3851 4.3 32.7723V14.1851C4.3 13.5723 4.9 13.0617 5.5 13.0617C6.2 13.0617 6.7 13.5723 6.7 14.1851V32.7723Z" fill="#484848"/>
<path fill-rule="evenodd" clip-rule="evenodd" d="M29.5 6.01489C28.4 6.01489 27.5 5.09574 27.5 3.97233C27.5 2.84893 28.4 1.92978 29.5 1.92978C30.6 1.92978 31.5 2.84893 31.5 3.97233C31.4 5.09574 30.5 6.01489 29.5 6.01489Z" fill="#484848"/>
<path fill-rule="evenodd" clip-rule="evenodd" d="M49.8 6.01489C48.4 6.01489 47.2 4.78936 47.2 3.35957C47.2 1.92979 48.4 0.704254 49.8 0.704254C51.2 0.704254 52.4 1.92979 52.4 3.35957C52.4 4.78936 51.2 6.01489 49.8 6.01489Z" fill="#484848"/>
<path d="M27.5 8.46594V39.9213V41.4532C27.5 42.2702 26.8 42.9851 26 42.9851C25.2 42.9851 24.5 42.2702 24.5 41.4532V40.6362H20.6V41.9638C20.6 44.7213 22.8 46.9681 25.5 46.9681H26.3C29.2 46.9681 31.5 44.6191 31.5 41.6574V8.46594H27.5Z" fill="#484848"/>
<path d="M47.8 8.46594V39.9213V41.4532C47.8 42.2702 47.1 42.9851 46.3 42.9851C45.5 42.9851 44.8 42.2702 44.8 41.4532V40.6362H40.9V41.9638C40.9 44.7213 43.1 46.9681 45.8 46.9681H46.6C49.5 46.9681 51.8 44.6191 51.8 41.6574V8.46594H47.8Z" fill="#484848"/>
<path d="M39.6 8.46594C39.5 8.46594 39.5 8.46594 39.5 8.46594H39.4C39.1 8.46594 38.8 8.46594 38.6 8.46594C38.4 8.46594 38.3 8.56807 38.1 8.56807C36.3 8.87445 34.9 9.99786 34.3 11.734C34.2 11.9383 34.2 12.1425 34.1 12.3468V12.4489C34 12.8574 34 13.1638 34 13.5723L34.1 18.5766H37C36.9 18.4745 36.7 18.4745 36.6 18.3723C36.7 18.4745 36.8 18.5766 37 18.5766H38.5V13.5723C38.5 12.8574 39.1 12.3468 39.9 12.3468C40.6 12.3468 41.3 12.8574 41.3 13.5723V18.4745V21.0276H38.8C38.5 21.0276 38.2 21.0276 37.9 21.0276C35.8 21.0276 34.1 22.8659 34.1 25.0106V25.2149C34.1 25.5213 34.1 25.8276 34.1 26.2362V33.6915V34.3042C34.1 36.4489 35.7 38.2872 37.9 38.2872C39.2 38.2872 41.1 38.2872 41.1 38.2872H45.1V34.7128V34.6106V33.5893C45.1 30.934 45.1 28.2787 45.1 25.5213V24.5V24.3979V21.8447V13.2659C45 13.5723 45.2 8.46594 39.6 8.46594ZM40.8 26.5425V30.117V33.7936C40.8 34.4064 40.2 34.917 39.6 34.917C38.9 34.917 38.4 34.4064 38.4 33.7936V30.117V27.3596V26.2362C38.4 25.5213 39 25.0106 39.6 25.0106C40.3 25.0106 40.8 25.6234 40.8 26.2362V26.5425Z" fill="#484848"/>
<path d="M19.2 8.46594C19.1 8.46594 19.1 8.46594 19.1 8.46594H19C18.7 8.46594 18.4 8.46594 18.2 8.46594C18 8.46594 17.9 8.56807 17.7 8.56807C15.9 8.87445 14.5 9.99786 13.9 11.734C13.8 11.9383 13.8 12.1425 13.7 12.3468V12.4489C13.6 12.8574 13.6 13.1638 13.6 13.5723L13.7 18.5766H16.6C16.5 18.4745 16.3 18.4745 16.2 18.3723C16.3 18.4745 16.4 18.5766 16.6 18.5766H18V13.5723C18 12.8574 18.6 12.3468 19.4 12.3468C20.1 12.3468 20.8 12.8574 20.8 13.5723V18.4745V21.0276H18.3C18 21.0276 17.7 21.0276 17.4 21.0276C15.3 21.0276 13.6 22.8659 13.6 25.0106V25.2149C13.6 25.5213 13.6 25.8276 13.6 26.2362V33.6915V34.3042C13.6 36.4489 15.2 38.2872 17.4 38.2872C18.7 38.2872 20.6 38.2872 20.6 38.2872H24.6V34.7128V34.6106V33.5893C24.6 30.934 24.6 28.2787 24.6 25.5213V24.5V24.3979V21.8447V13.2659C24.5 13.5723 24.8 8.46594 19.2 8.46594ZM20.4 26.5425V30.117V33.7936C20.4 34.4064 19.8 34.917 19.2 34.917C18.5 34.917 18 34.4064 18 33.7936V30.117V27.3596V26.2362C18 25.5213 18.6 25.0106 19.2 25.0106C19.8 25.0106 20.4 25.6234 20.4 26.2362V26.5425Z" fill="#484848"/>
<path d="M65.1 38.2872H63.4C63.3 37.9809 63.3 37.266 63.3 36.9596C62.9 38.1851 61.9 38.5936 60.8 38.5936C58.4 38.5936 57.7 36.8574 57.7 33.9979V25.8277C57.7 23.0702 58.8 21.1298 61.5 21.1298C64.7 21.1298 65.2 23.4787 65.2 25.5213V26.0319H63V25.4192C63 24.3979 62.9 23.2745 61.5 23.2745C60.5 23.2745 60 23.9894 60 25.5213V34.2021C60 35.734 60.4 36.5511 61.4 36.5511C62.7 36.5511 62.9 35.4277 62.9 33.4872V30.934H61.3V28.9936H65.1V38.2872Z" fill="#484848"/>
<path d="M70.5 30.6277V38.2872H68.3V21.334H71.6C74.1 21.334 75.5 22.3553 75.5 25.317V26.0319C75.5 28.483 74.6 29.3 73.8 29.6064C74.8 30.0149 75.3 30.8319 75.3 33.0787C75.3 34.5085 75.3 37.266 75.5 38.2872H73.3C73.1 37.266 73.1 34.4064 73.1 33.1809C73.1 31.0362 72.8 30.5255 71.3 30.5255H70.5V30.6277ZM70.5 28.6872H71.3C72.7 28.6872 73.2 27.9723 73.2 26.134V25.5213C73.2 24.0915 72.9 23.2745 71.3 23.2745H70.5V28.6872Z" fill="#484848"/>
<path d="M85.7 25.7255V33.8957C85.7 37.0617 84.4 38.5936 81.7 38.5936C79.1 38.5936 78 36.9596 78 33.9979V25.8276C78 22.7638 79.5 21.2319 81.9 21.2319C84.4 21.1298 85.7 22.7638 85.7 25.7255ZM80.3 25.5213V34.2021C80.3 35.8362 80.9 36.5511 81.9 36.5511C83 36.5511 83.5 35.8362 83.5 34.2021V25.6234C83.5 24.0915 83 23.2745 81.9 23.2745C80.8 23.1723 80.3 23.9894 80.3 25.5213Z" fill="#484848"/>
<path d="M90.8 21.334V34.3043C90.8 35.6319 91.2 36.4489 92.3 36.4489C93.4 36.4489 93.8 35.6319 93.8 34.3043V21.334H96V34.3043C96 36.9596 94.8 38.4915 92.2 38.4915C89.7 38.4915 88.5 37.0617 88.5 34.3043V21.334H90.8Z" fill="#484848"/>
<path d="M99.3 21.334H102.7C105.3 21.334 106.5 22.6617 106.5 25.5213V26.5426C106.5 29.1979 105.6 31.1383 102.5 31.1383H101.4V38.2872H99.2V21.334H99.3ZM101.6 29.3H102.4C104.1 29.3 104.4 28.2787 104.4 26.5426V25.7255C104.4 24.3979 104.1 23.3766 102.6 23.3766H101.6V29.3Z" fill="#484848"/>
<path d="M58.8 43.5979H57.6V42.883H61.1V43.5979H59.9V48.8064H58.8V43.5979Z" fill="#484848"/>
<path d="M62.1 42.883H63.1V45.2319H64.5V42.883H65.5V48.8064H64.5V45.9468H63.1V48.8064H62.1V42.883Z" fill="#484848"/>
<path d="M68 42.883H67V48.8064H68V42.883Z" fill="#484848"/>
<path d="M69.5 48.8064V42.883H70.7C71 43.8021 72 46.866 72.1 47.1724C72.1 46.4575 72 45.5383 72 44.6192V42.883H73V48.8064H71.9C71.6 47.8872 70.6 44.7213 70.4 44.3128C70.5 45.0277 70.5 45.8447 70.5 46.9681V48.8064H69.5Z" fill="#484848"/>
<path d="M74.6 42.883H75.6V45.6404C75.9 45.0277 76.6 43.7 77.1 42.883H78.2L76.8 45.2319L78.3 48.8064H77.2L76.1 46.049L75.6 46.866V48.8064H74.6V42.883Z" fill="#484848"/>
<path d="M81.7 43.5979H80.5V42.883H83.9V43.5979H82.7V48.8064H81.7V43.5979Z" fill="#484848"/>
<path d="M88.3 44.3128V47.1723C88.3 48.2957 87.7 48.8064 86.5 48.8064C85.3 48.8064 84.8 48.1936 84.8 47.1723V44.3128C84.8 43.1894 85.5 42.6787 86.6 42.6787C87.7 42.7808 88.3 43.2915 88.3 44.3128ZM85.8 44.3128V47.3766C85.8 47.9894 86.1 48.1936 86.5 48.1936C87 48.1936 87.2 47.9894 87.2 47.3766V44.4149C87.2 43.9042 87 43.5979 86.5 43.5979C86 43.4957 85.8 43.7 85.8 44.3128Z" fill="#484848"/>
<path d="M93.4 46.4574C93.4 45.4362 93.4 44.2106 93.4 43.4957C93.2 44.517 92.7 46.9681 92.4 48.7043H91.4C91.1 47.1723 90.6 44.517 90.5 43.4957C90.5 44.2106 90.6 45.5383 90.6 46.5596V48.7043H89.7V42.7809H91.2C91.5 44.4149 91.9 46.2532 92 47.0702C92.1 46.2532 92.6 44.3128 93 42.7809H94.5V48.7043H93.5V46.4574H93.4Z" fill="#484848"/>
<path d="M99.2 44.3128V47.1723C99.2 48.2957 98.6 48.8064 97.4 48.8064C96.2 48.8064 95.7 48.1936 95.7 47.1723V44.3128C95.7 43.1894 96.4 42.6787 97.5 42.6787C98.6 42.7808 99.2 43.2915 99.2 44.3128ZM96.8 44.3128V47.3766C96.8 47.9894 97.1 48.1936 97.5 48.1936C98 48.1936 98.2 47.9894 98.2 47.3766V44.4149C98.2 43.9042 98 43.5979 97.5 43.5979C97 43.4957 96.8 43.7 96.8 44.3128Z" fill="#484848"/>
<path d="M101.6 46.0489V48.7043H100.6V42.7809H102.1C103.2 42.7809 103.9 43.1894 103.9 44.2106V44.4149C103.9 45.2319 103.5 45.5383 103.1 45.6404C103.6 45.7426 103.8 46.0489 103.8 46.866C103.8 47.3766 103.8 48.2957 103.9 48.7043H102.9C102.8 48.2957 102.8 47.3766 102.8 46.9681C102.8 46.2532 102.7 46.0489 102 46.0489H101.6ZM101.6 45.4362H102C102.7 45.4362 102.9 45.2319 102.9 44.517V44.3128C102.9 43.8021 102.8 43.4957 102 43.4957H101.6V45.4362Z" fill="#484848"/>
<path d="M106.2 46.0489V48.7043H105.2V42.7809H106.7C107.8 42.7809 108.5 43.1894 108.5 44.2106V44.4149C108.5 45.2319 108.1 45.5383 107.7 45.6404C108.2 45.7426 108.4 46.0489 108.4 46.866C108.4 47.3766 108.4 48.2957 108.5 48.7043H107.5C107.4 48.2957 107.4 47.3766 107.4 46.9681C107.4 46.2532 107.3 46.0489 106.6 46.0489H106.2ZM106.2 45.4362H106.6C107.3 45.4362 107.5 45.2319 107.5 44.517V44.3128C107.5 43.8021 107.4 43.4957 106.6 43.4957H106.2V45.4362Z" fill="#484848"/>
<path d="M113.2 44.3128V47.1723C113.2 48.2957 112.6 48.8064 111.4 48.8064C110.2 48.8064 109.7 48.1936 109.7 47.1723V44.3128C109.7 43.1894 110.4 42.6787 111.5 42.6787C112.6 42.7808 113.2 43.2915 113.2 44.3128ZM110.7 44.3128V47.3766C110.7 47.9894 111 48.1936 111.4 48.1936C111.9 48.1936 112.1 47.9894 112.1 47.3766V44.4149C112.1 43.9042 111.9 43.5979 111.4 43.5979C111 43.4957 110.7 43.7 110.7 44.3128Z" fill="#484848"/>
<path d="M115.2 48.8064L114.2 42.883H115.3C115.5 44.2107 115.8 46.4575 115.9 47.4787C116 46.3553 116.4 44.2107 116.7 42.883H117.7C117.9 44.2107 118.3 46.2532 118.5 47.3766C118.6 46.2532 118.9 44.2107 119.1 42.883H120.1L119 48.8064H117.9C117.7 47.4787 117.3 45.5383 117.2 44.4149C117 45.5383 116.6 47.4787 116.4 48.8064H115.2Z" fill="#484848"/>
</g>
<defs>
<clipPath id="clip0_737_5571">
<rect width="120" height="48" fill="white" transform="translate(0 0.5)"/>
</clipPath>
</defs>
</svg>
