<svg width="108" height="32" viewBox="0 0 108 32" fill="none" xmlns="http://www.w3.org/2000/svg">
<g style="mix-blend-mode:luminosity" clip-path="url(#clip0_737_5868)">
<path d="M12.7708 1.45456H17.816L20.2598 7.12729L22.7825 1.45456H27.9066L23.8861 9.74547L26.3299 14.4727L32.1635 1.45456H38.1547L28.9314 19.2727H24.2015L20.3387 12.2909L16.5547 19.2727H11.746L2.44379 1.45456H8.43503L14.4263 14.4727L16.7912 9.74547L12.7708 1.45456Z" fill="#484848"/>
<path fill-rule="evenodd" clip-rule="evenodd" d="M44.3036 1.45456H50.216L58.4146 19.2727H52.8175L51.2409 15.2727H43.4365L41.8598 19.2727H36.2628L44.3036 1.45456ZM49.9795 12.4364L47.2204 5.60001L44.4613 12.4364H49.9795Z" fill="#484848"/>
<path d="M62.2774 1.45456L67.8744 14.4727L73.3927 1.45456H79.2263L70.5547 19.2727H65.1941L56.4438 1.45456H62.2774ZM98.0671 15.6364V19.2727H81.3547V1.45456H97.7518V5.09092H86.7942V8.58183H96.1752V11.9273H86.7942V15.7091L98.0671 15.6364Z" fill="#484848"/>
<path d="M10.9577 21.8909C11.1942 21.8909 11.4307 21.9637 11.5883 22.1091C11.746 22.2546 11.8248 22.4727 11.8248 22.6909C11.8248 22.9091 11.746 23.1273 11.5883 23.2727C11.4307 23.4182 11.1942 23.4909 10.9577 23.4909C10.7212 23.4909 10.4847 23.4182 10.327 23.2727C10.1693 23.1273 10.0905 22.9091 10.0905 22.6909C10.0905 22.4727 10.1693 22.2546 10.327 22.1091C10.4847 21.9637 10.7212 21.8909 10.9577 21.8909ZM11.5883 30.4H10.2482V24.8H11.5883V30.4ZM20.0234 24.6546C20.4175 24.6546 20.7329 24.7273 20.9693 24.8C21.2847 24.9455 21.5212 25.0909 21.6788 25.2364C21.9153 25.4546 21.9942 25.6727 22.1518 25.9637C22.2307 26.2546 22.3095 26.5455 22.3095 26.8364V30.3273H20.9693V26.9818C20.9693 26.6182 20.8905 26.2546 20.654 26.0364C20.4175 25.8182 20.1022 25.6727 19.708 25.6727C19.3139 25.6727 18.9985 25.8182 18.6832 26.0364C18.4467 26.2546 18.2891 26.6182 18.2891 26.9818V30.3273H16.9489V24.7273H18.1314V25.3091C18.3679 25.0909 18.6044 24.9455 18.9197 24.8C19.235 24.7273 19.6292 24.6546 20.0234 24.6546Z" fill="#484848"/>
<path fill-rule="evenodd" clip-rule="evenodd" d="M32.3212 30.4V29.6C32.0847 29.8909 31.7694 30.1091 31.454 30.2546C31.0336 30.4 30.6394 30.4728 30.2716 30.4728C29.7986 30.4728 29.4044 30.4 29.0891 30.2546C28.7738 30.1091 28.3796 29.8909 28.1431 29.6728C27.9066 29.3818 27.6701 29.0909 27.5124 28.7273C27.3548 28.3637 27.2759 28 27.2759 27.5637C27.2759 27.1273 27.3548 26.7637 27.5124 26.4C27.6701 26.0364 27.9066 25.7455 28.1431 25.4546C28.3796 25.1637 28.6949 25.0182 29.0891 24.8728C29.457 24.7273 29.8511 24.6546 30.2716 24.6546C30.6394 24.6546 31.0336 24.7273 31.454 24.8728C31.8482 25.0182 32.0847 25.2364 32.3212 25.4546V21.8182H33.6613V30.4H32.3212ZM30.3504 25.8182C30.1139 25.8182 29.8774 25.8909 29.6409 25.9637C29.4044 26.0364 29.2467 26.1818 29.0891 26.3273C28.9314 26.4728 28.7738 26.6909 28.6949 26.9091C28.6161 27.1273 28.5373 27.4182 28.5373 27.6364C28.5373 27.9273 28.6161 28.1455 28.6949 28.3637C28.7738 28.5818 28.9314 28.8 29.0891 28.9455C29.2467 29.0909 29.4832 29.2364 29.6409 29.3091C29.8774 29.3818 30.1139 29.4546 30.3504 29.4546C30.5869 29.4546 30.8234 29.4546 30.981 29.3818C31.2175 29.3091 31.3752 29.2364 31.5329 29.0909C31.6905 28.9455 31.8482 28.7273 31.927 28.5091C32.0059 28.2909 32.0847 28 32.0847 27.7091C32.0847 27.4182 32.0059 27.1273 31.927 26.9091C31.8482 26.6909 31.6905 26.4728 31.5329 26.3273C31.3752 26.1818 31.1387 26.0364 30.981 25.9637C30.8234 25.8909 30.5869 25.8182 30.3504 25.8182Z" fill="#484848"/>
<path d="M44.146 28.0727C44.146 28.4364 44.0672 28.8 43.9095 29.0909C43.7518 29.3818 43.5942 29.6727 43.3577 29.8909C43.1212 30.1091 42.8058 30.2546 42.4905 30.4C42.1752 30.5455 41.781 30.5455 41.4657 30.5455C41.0715 30.5455 40.7562 30.4727 40.4409 30.4C40.1255 30.2546 39.8102 30.1091 39.5737 29.8909C39.3372 29.6727 39.1796 29.3818 39.0219 29.0909C38.8642 28.8 38.7854 28.4364 38.7854 28.0727V24.8H40.1255V28.1455C40.1255 28.5091 40.2832 28.8727 40.5197 29.0909C40.7562 29.3091 41.0715 29.4546 41.4657 29.4546C41.8599 29.4546 42.1752 29.3091 42.4117 29.0909C42.6482 28.8727 42.8058 28.5818 42.8058 28.1455V24.8H44.146V28.0727ZM51.3197 24.6546C51.7927 24.6546 52.1869 24.7273 52.5022 24.8727C52.8175 25.0182 53.1328 25.2364 53.4482 25.5273L52.7387 26.2546C52.5022 26.0364 52.3445 25.9637 52.108 25.8182C51.8715 25.7455 51.635 25.6727 51.3197 25.6727C51.0832 25.6727 50.8467 25.7455 50.6891 25.8182C50.5314 25.8667 50.4526 26.0121 50.4526 26.2546C50.4526 26.4 50.5314 26.5455 50.6891 26.6182C50.8467 26.6909 51.0044 26.8364 51.3197 26.9091L51.8715 27.1273C52.4234 27.3455 52.8175 27.5637 53.1328 27.8546C53.4482 28.0727 53.527 28.4364 53.527 28.8727C53.527 29.1637 53.4482 29.3818 53.3693 29.6C53.2117 29.8182 53.054 29.9637 52.8963 30.1091C52.6599 30.2546 52.4234 30.3273 52.1869 30.4C51.8715 30.5455 51.5562 30.5455 51.2409 30.5455C50.689 30.5455 50.2161 30.4727 49.8219 30.2546C49.4277 30.0364 49.0336 29.8182 48.7971 29.4546L49.5066 28.7273C49.7431 28.9455 49.9796 29.1637 50.2949 29.3091C50.6102 29.4546 50.8467 29.5273 51.2409 29.5273C51.4774 29.5273 51.7139 29.4546 51.9504 29.3818C52.1869 29.3091 52.2657 29.0909 52.2657 28.8727C52.2657 28.6546 52.1869 28.5818 52.0292 28.4364C51.8715 28.3637 51.635 28.2182 51.3985 28.1455L50.7679 27.9273C50.5314 27.8546 50.2949 27.7091 50.1372 27.6364C49.9796 27.5637 49.7431 27.4182 49.6642 27.2727C49.5066 27.1273 49.4277 26.9818 49.3489 26.8364C49.2701 26.6909 49.2701 26.4727 49.2701 26.2546C49.2701 25.9637 49.3489 25.7455 49.4277 25.5273C49.5066 25.3091 49.6642 25.1637 49.9007 25.0182C50.0584 24.8727 50.2949 24.8 50.6102 24.7273C50.7679 24.7273 51.0044 24.6546 51.3197 24.6546ZM61.962 25.8182H60.1489V28.4364C60.1489 28.8 60.2277 29.0909 60.4642 29.2364C60.7007 29.3818 60.9372 29.4546 61.3314 29.4546H61.7255C61.8832 29.4546 62.0409 29.4546 62.1985 29.3818V30.4C62.0409 30.4727 61.8832 30.4727 61.7255 30.4727H61.1737C60.4642 30.4727 59.9912 30.3273 59.5182 30.0364C59.1241 29.7455 58.8876 29.2364 58.8876 28.5818V25.8182H57.8628V24.8H58.8876V23.3455H60.2277V24.8H62.0409L61.962 25.8182ZM69.9241 24.7273H70.2394C70.3182 24.7273 70.3971 24.7273 70.4759 24.8V25.8909H70.0818C69.8453 25.8909 69.6088 25.8909 69.3723 25.9637C69.1358 26.0364 68.9781 26.1091 68.8204 26.2546C68.6628 26.4 68.5051 26.5455 68.4263 26.7637C68.3474 26.9818 68.2686 27.2 68.2686 27.4182V30.4H66.9285V24.8H68.1109V25.5273C68.3474 25.2364 68.5839 25.0909 68.8993 24.9455C69.2146 24.8 69.5299 24.7273 69.9241 24.7273ZM75.6788 21.8909C75.9153 21.8909 76.1518 21.9637 76.3095 22.1091C76.4672 22.2546 76.546 22.4727 76.546 22.6909C76.546 22.9091 76.4672 23.1273 76.3095 23.2727C76.1518 23.4182 75.9153 23.4909 75.6788 23.4909C75.4423 23.4909 75.2058 23.4182 75.0482 23.2727C74.8905 23.1273 74.8117 22.9091 74.8117 22.6909C74.8117 22.4727 74.8905 22.2546 75.0482 22.1091C75.2058 21.9637 75.4423 21.8909 75.6788 21.8909ZM76.3095 30.4H74.9693V24.8H76.3095V30.4Z" fill="#484848"/>
<path fill-rule="evenodd" clip-rule="evenodd" d="M84.4292 24.6546C84.8234 24.6546 85.2176 24.7273 85.5329 24.8728C85.8482 25.0182 86.1635 25.1637 86.4 25.3818C86.6365 25.6 86.873 25.8909 86.9519 26.1818C87.1095 26.4728 87.1884 26.8364 87.1884 27.2V27.6364C87.1884 27.7818 87.1095 27.8546 87.1095 27.9273H82.5373C82.6161 28.3637 82.8526 28.7273 83.1679 29.0182C83.5621 29.3091 83.9562 29.3818 84.5081 29.3818C84.9022 29.3818 85.2176 29.3091 85.4541 29.2364C85.7694 29.0909 86.0059 28.9455 86.2424 28.7273L86.873 29.5273C86.5577 29.8182 86.1635 30.0364 85.7694 30.1818C85.3752 30.3273 84.9022 30.4 84.4292 30.4C83.9562 30.4 83.4832 30.3273 83.0891 30.1818C82.6949 30.0364 82.3008 29.8182 82.0643 29.6C81.7489 29.3091 81.5124 29.0182 81.3548 28.6546C81.1971 28.2909 81.1183 27.9273 81.1183 27.4909C81.1183 27.0546 81.1971 26.6909 81.3548 26.3273C81.5124 25.9637 81.7489 25.6728 81.9854 25.3818C82.3008 25.0909 82.6161 24.9455 83.0103 24.7273C83.5621 24.7273 84.0351 24.6546 84.4292 24.6546ZM84.4292 25.6728C83.9562 25.6728 83.6409 25.8182 83.3256 26.0364C83.0103 26.2546 82.7738 26.6182 82.6949 27.0546H86.0059C86.0059 26.6182 85.8482 26.2546 85.5329 26.0364C85.2176 25.8182 84.8234 25.6728 84.4292 25.6728Z" fill="#484848"/>
<path d="M94.2044 24.6546C94.6774 24.6546 95.0716 24.7273 95.3869 24.8728C95.7022 25.0182 96.0176 25.2364 96.3329 25.5273L95.6234 26.2546C95.3869 26.0364 95.2292 25.9637 94.9927 25.8182C94.7562 25.7455 94.5197 25.6728 94.2044 25.6728C93.9679 25.6728 93.7314 25.7455 93.5738 25.8182C93.4161 25.8667 93.3373 26.0121 93.3373 26.2546C93.3373 26.4 93.4161 26.5455 93.5738 26.6182C93.7314 26.6909 93.8891 26.8364 94.2044 26.9091L94.7562 27.1273C95.3081 27.3455 95.7022 27.5637 96.0176 27.8546C96.3329 28.0728 96.4117 28.4364 96.4117 28.8728C96.4117 29.1637 96.3329 29.3818 96.254 29.6C96.0964 29.8182 95.9387 29.9637 95.7811 30.1091C95.5446 30.2546 95.3081 30.3273 95.0716 30.4C94.8351 30.4728 94.5197 30.4728 94.2044 30.4728C93.6526 30.4728 93.1796 30.4 92.7854 30.1818C92.3913 29.9637 91.9971 29.7455 91.7606 29.3818L92.4701 28.6546C92.7066 28.8728 92.9431 29.0909 93.2584 29.2364C93.5738 29.3818 93.8103 29.4546 94.2044 29.4546C94.4409 29.4546 94.6774 29.3818 94.9139 29.3091C95.1504 29.2364 95.2292 29.0182 95.2292 28.8C95.2292 28.5818 95.1504 28.5091 94.9927 28.3637C94.8351 28.2909 94.5986 28.1455 94.3621 28.0728L93.7314 27.8546C93.4949 27.7818 93.2584 27.6364 93.1008 27.5637C92.9431 27.4909 92.7066 27.3455 92.6278 27.2C92.4701 27.0546 92.3913 26.9091 92.3124 26.7637C92.2336 26.6182 92.2336 26.4 92.2336 26.1818C92.2336 25.8909 92.3124 25.6728 92.3913 25.4546C92.4701 25.2364 92.6278 25.0909 92.8643 24.9455C93.0219 24.8 93.2584 24.7273 93.5738 24.6546C93.5738 24.7273 93.8891 24.6546 94.2044 24.6546Z" fill="#484848"/>
</g>
<defs>
<clipPath id="clip0_737_5868">
<rect width="108" height="32" fill="white"/>
</clipPath>
</defs>
</svg>
