<svg width="32" height="32" viewBox="0 0 32 32" fill="none" xmlns="http://www.w3.org/2000/svg">
<path d="M22.6667 8C22.2667 8 22 8.13333 21.7333 8.4L8.4 21.7333C7.86667 22.2667 7.86667 23.0667 8.4 23.6C8.93333 24.1333 9.73333 24.1333 10.2667 23.6L23.6 10.2667C24.1333 9.73333 24.1333 8.93333 23.6 8.4C23.3333 8.13333 23.0667 8 22.6667 8Z" fill="white"/>
<path d="M22.6667 8.00008H10.6667C9.86666 8.00008 9.33333 8.53341 9.33333 9.33341C9.33333 10.1334 9.86666 10.6667 10.6667 10.6667H21.3333V21.3334C21.3333 22.1334 21.8667 22.6667 22.6667 22.6667C23.4667 22.6667 24 22.1334 24 21.3334V9.33341C24 8.53341 23.4667 8.00008 22.6667 8.00008Z" fill="white"/>
</svg>
