<svg width="24" height="24" viewBox="0 0 24 24" fill="none" xmlns="http://www.w3.org/2000/svg">
<g clip-path="url(#clip0_784_2703)">
<path d="M24 12C24 5.37258 18.6274 0 12 0C5.37258 0 0 5.37258 0 12C0 17.9895 4.3882 22.954 10.125 23.8542V15.4688H7.07812V12H10.125V9.35625C10.125 6.34875 11.9166 4.6875 14.6576 4.6875C15.9701 4.6875 17.3438 4.92188 17.3438 4.92188V7.875H15.8306C14.34 7.875 13.875 8.80008 13.875 9.75V12H17.2031L16.6711 15.4688H13.875V23.8542C19.6118 22.954 24 17.9895 24 12Z" fill="white"/>
<path d="M16.6711 12.7812L17.2031 9.3125H13.875V7.0625C13.875 6.11352 14.34 5.1875 15.8306 5.1875H17.3438V2.23438C17.3438 2.23438 15.9705 2 14.6576 2C11.9166 2 10.125 3.66125 10.125 6.66875V9.3125H7.07812V12.7812H10.125V21.1667C11.3674 21.3611 12.6326 21.3611 13.875 21.1667V12.7812H16.6711Z" fill="#19191A"/>
</g>
<defs>
<clipPath id="clip0_784_2703">
<rect width="24" height="24" fill="white"/>
</clipPath>
</defs>
</svg>
