<svg width="48" height="48" viewBox="0 0 48 48" fill="none" xmlns="http://www.w3.org/2000/svg">
<g clip-path="url(#clip0_1252_698)">
<path d="M48 1.875V13.0437C48 15.0298 47.5844 16.7395 46.7648 18.1255C45.9059 19.578 44.2404 21.2663 41.0625 21.7493V46.125C41.0625 47.1606 40.2231 48 39.1875 48C38.1519 48 37.3125 47.1606 37.3125 46.125V21.7477C34.1363 21.2592 32.4684 19.5525 31.607 18.0843C30.7895 16.6911 30.375 14.9952 30.375 13.0437V1.875C30.375 0.839438 31.2144 0 32.25 0C33.2856 0 34.125 0.839438 34.125 1.875V13.0437C34.125 18.1349 37.9354 18.1349 39.1875 18.1349C42.6413 18.1349 44.25 16.5172 44.25 13.0437V1.875C44.25 0.839438 45.0894 0 46.125 0C47.1606 0 48 0.839438 48 1.875ZM39.1875 14.9062C40.2231 14.9062 41.0625 14.0668 41.0625 13.0312V1.875C41.0625 0.839438 40.2231 0 39.1875 0C38.1519 0 37.3125 0.839438 37.3125 1.875V13.0312C37.3125 14.0668 38.1519 14.9062 39.1875 14.9062ZM30.7788 43.0881C28.6078 43.8591 26.3271 44.25 24 44.25C12.8341 44.25 3.75 35.1659 3.75 24C3.75 12.8341 12.8341 3.75 24 3.75C24.3432 3.75 24.6902 3.75863 25.0312 3.77578C26.066 3.82791 26.9459 3.03131 26.9978 1.99697C27.0496 0.962719 26.2532 0.0823125 25.2189 0.0304687C24.8156 0.0102187 24.4056 0 24 0C17.5894 0 11.5625 2.49647 7.02938 7.02938C2.49647 11.5625 0 17.5894 0 24C0 30.4106 2.49647 36.4376 7.02938 40.9706C11.5625 45.5035 17.5894 48 24 48C26.7558 48 29.4588 47.5364 32.0337 46.6219C33.0096 46.2754 33.5197 45.2033 33.1732 44.2275C32.8266 43.2518 31.7545 42.7413 30.7788 43.0881ZM24 13.2188C25.0356 13.2188 25.875 12.3793 25.875 11.3438C25.875 10.3082 25.0356 9.46875 24 9.46875C15.9875 9.46875 9.46875 15.9875 9.46875 24C9.46875 32.0125 15.9875 38.5312 24 38.5312C25.0356 38.5312 25.875 37.6918 25.875 36.6562C25.875 35.6207 25.0356 34.7812 24 34.7812C18.0552 34.7812 13.2188 29.9448 13.2188 24C13.2188 18.0552 18.0552 13.2188 24 13.2188Z" fill="url(#paint0_linear_1252_698)"/>
</g>
<defs>
<linearGradient id="paint0_linear_1252_698" x1="4.08339e-07" y1="24" x2="48" y2="24" gradientUnits="userSpaceOnUse">
<stop stop-color="#3F6FEA"/>
<stop offset="0.0666667" stop-color="#3F70EA"/>
<stop offset="0.133333" stop-color="#3E72E9"/>
<stop offset="0.2" stop-color="#3D77E9"/>
<stop offset="0.266667" stop-color="#3C7DE7"/>
<stop offset="0.333333" stop-color="#3B85E6"/>
<stop offset="0.4" stop-color="#398FE4"/>
<stop offset="0.466667" stop-color="#3799E2"/>
<stop offset="0.533333" stop-color="#34A4E1"/>
<stop offset="0.6" stop-color="#32AFDF"/>
<stop offset="0.666667" stop-color="#30B8DD"/>
<stop offset="0.733333" stop-color="#2FC1DC"/>
<stop offset="0.8" stop-color="#2EC7DA"/>
<stop offset="0.866667" stop-color="#2DCBDA"/>
<stop offset="0.933333" stop-color="#2CCED9"/>
<stop offset="1" stop-color="#2CCFD9"/>
</linearGradient>
<clipPath id="clip0_1252_698">
<rect width="48" height="48" fill="white"/>
</clipPath>
</defs>
</svg>
