<svg width="752" height="654" viewBox="0 0 752 654" fill="none" xmlns="http://www.w3.org/2000/svg">
<path d="M752 0H0V654H752V0Z" fill="white"/>
<path d="M692.445 415.552L666.726 430.495L663.862 432.157L598.304 470.236L595.44 471.897L528.355 510.866L525.488 512.527L460.159 550.475L457.298 552.139L391.714 590.232L388.853 591.896L349.517 614.744L291.838 580.925L288.99 579.254L223.965 541.126L221.114 539.455L154.343 500.307L151.495 498.632L87.0424 460.844L125.09 438.791L127.958 437.13L193.611 399.081L196.478 397.419L261.879 359.517L264.746 357.852L331.903 318.93L334.771 317.268L400.401 279.232L403.268 277.571L429.974 262.094L494.254 299.676L497.108 301.347L563.974 340.44L566.828 342.107L631.945 380.183L634.799 381.848L692.445 415.552Z" fill="#E8EAF7"/>
<path d="M429.899 244.642L87.0456 429.907L87.0522 443.54L349.592 597.325L692.435 397.989L692.429 384.359L429.899 244.642Z" fill="#4070EA"/>
<path d="M692.445 384.487L666.726 399.431L663.862 401.092L598.304 439.171L595.44 440.832L528.355 479.801L525.488 481.462L460.159 519.41L457.298 521.075L391.714 559.167L388.853 560.831L349.517 583.679L291.838 549.86L288.99 548.189L223.965 510.061L221.114 508.39L154.343 469.242L151.495 467.568L87.0424 429.779L125.09 407.727L127.958 406.065L193.611 368.016L196.478 366.354L261.879 328.452L264.746 326.787L331.903 287.865L334.771 286.204L400.401 248.167L403.268 246.506L429.974 231.029L494.254 268.611L497.108 270.282L563.974 309.375L566.828 311.042L631.945 349.118L634.799 350.783L692.445 384.487Z" fill="white"/>
<path d="M608.858 365.838L634.799 350.796L631.945 349.132L605.998 364.174L540.642 326.242L566.828 311.039L563.974 309.372L537.781 324.577L470.67 285.628L497.108 270.282L494.254 268.611L467.806 283.964L403.268 246.506L400.401 248.167L464.932 285.628L399.361 323.694L334.771 286.204L331.903 287.865L396.497 325.365L329.389 364.311L264.747 326.788L261.879 328.452L326.525 365.972L261.173 403.904L196.478 366.355L193.611 368.016L258.296 405.568L192.705 443.651L127.968 406.066L125.1 407.727L189.837 445.312L151.495 467.568L154.343 469.242L192.705 446.976L259.813 485.922L221.114 508.384L223.965 510.055L262.677 487.587L328.029 525.519L288.99 548.183L291.838 549.854L330.88 527.186L388.84 560.831L391.7 559.167L333.741 525.525L399.348 487.443L457.285 521.075L460.146 519.41L402.212 485.782L467.564 447.85L525.475 481.465L528.342 479.804L470.428 446.188L537.539 407.233L595.427 440.835L598.291 439.174L540.4 405.572L605.985 367.506L663.856 401.095L666.717 399.434L608.858 365.838ZM467.806 287.289L534.917 326.245L469.336 364.311L402.225 325.365L467.806 287.289ZM399.361 327.017L466.469 365.972L399.361 404.924L332.25 365.972L399.361 327.017ZM329.392 367.633L396.5 406.589L331.145 444.521L264.034 405.568L329.392 367.633ZM195.569 445.312L261.173 407.23L328.281 446.185L262.677 484.268L195.569 445.312ZM330.88 523.854L265.538 485.922L331.142 447.84L396.497 485.772L330.88 523.854ZM399.348 484.107L333.996 446.175L399.348 408.243L464.7 446.175L399.348 484.107ZM467.564 444.511L402.212 406.579L469.323 367.623L534.672 405.555L467.564 444.511ZM537.533 403.894L472.178 365.962L537.762 327.896L603.114 365.828L537.533 403.894Z" fill="#E8EAF7"/>
<path d="M513.227 453.016C527.223 453.016 538.569 445.974 538.569 437.287C538.569 428.601 527.223 421.559 513.227 421.559C499.231 421.559 487.885 428.601 487.885 437.287C487.885 445.974 499.231 453.016 513.227 453.016Z" fill="#E8EAF7"/>
<path d="M189.717 457.042C211.237 457.042 228.683 446.214 228.683 432.857C228.683 419.5 211.237 408.672 189.717 408.672C168.196 408.672 150.75 419.5 150.75 432.857C150.75 446.214 168.196 457.042 189.717 457.042Z" fill="#E8EAF7"/>
<path d="M343.157 549.38C366.243 549.38 384.959 537.764 384.959 523.435C384.959 509.107 366.243 497.491 343.157 497.491C320.071 497.491 301.356 509.107 301.356 523.435C301.356 537.764 320.071 549.38 343.157 549.38Z" fill="#E8EAF7"/>
<path d="M466.475 423.858L453.351 431.379L453.005 431.107L413.969 408.544L363.51 372.27L355.402 366.436L307.257 331.82L305.907 312.285L305.704 309.296L302.085 256.901V256.852L300.617 235.515V235.476L292.953 124.201L292.842 48.4125L307.064 41.624L467.083 134.744V135.244L466.475 423.858Z" fill="#3F5893"/>
<path d="M452.926 430.8L452.008 430.6L412.975 408.05L292.263 338.327L291.943 123.704L291.835 47.9155L452.501 141.248L452.926 430.8Z" fill="#4070EA"/>
<path d="M443.353 380.046L443.258 175.926C443.257 173.385 442.587 170.889 441.317 168.689C440.046 166.488 438.219 164.66 436.019 163.389L310.171 90.6806C309.226 90.1359 308.155 89.8495 307.064 89.8501C305.974 89.8507 304.903 90.1384 303.959 90.6842C303.015 91.23 302.231 92.0147 301.686 92.9595C301.141 93.9042 300.855 94.9757 300.856 96.0663L301.156 299.303C301.159 301.834 301.825 304.319 303.087 306.513C304.349 308.706 306.163 310.53 308.349 311.805L434.437 385.177C435.339 385.702 436.363 385.98 437.406 385.983C438.45 385.986 439.475 385.713 440.38 385.193C441.284 384.672 442.035 383.922 442.557 383.019C443.079 382.115 443.354 381.09 443.353 380.046Z" fill="white"/>
<path d="M466.076 134.243V134.747L452.357 141.248L291.835 47.9155L306.057 41.127L466.076 134.243Z" fill="#4070EA"/>
<path d="M402.346 121.667L387.578 113.074V122.864L402.353 131.399L402.346 121.667Z" fill="white"/>
<path d="M341.431 96.2101L378.161 117.426V107.593L341.415 86.2104L341.431 96.2101Z" fill="white"/>
<path d="M366.224 244.39V301.546L360.95 304.928L360.672 305.107L355.402 302.06V250.77L360.924 247.513L366.224 244.39Z" fill="#FB95E1"/>
<path d="M366.224 244.39L360.924 247.513L355.402 250.77L245.168 187.054V181.106L245.659 180.854L251.09 178.075L366.224 244.39Z" fill="#F4BBC4"/>
<path d="M360.95 247.529V305.268L360.672 305.107L355.402 302.06L245.168 238.311V180.573L245.659 180.854L360.924 247.513L360.95 247.529Z" fill="#F8778D"/>
<path d="M258.636 217.063L258.145 216.782V223.439L258.636 223.724L347.849 275.318V268.657L258.636 217.063Z" fill="white"/>
<path d="M258.145 229.822V236.48L258.636 236.764L347.849 288.359V281.698L258.636 230.103L258.145 229.822Z" fill="white"/>
<path d="M321.447 234.799L284.55 213.459V220.117L321.447 241.457V234.799Z" fill="white"/>
<path d="M493.283 213.61V270.769L488.012 274.147L487.731 274.327L482.464 271.283V219.99L487.983 216.733L493.283 213.61Z" fill="#3066C8"/>
<path d="M493.283 213.61L487.983 216.732L482.464 219.989L372.227 156.273V150.329L372.721 150.073L378.148 147.294L493.283 213.61Z" fill="#4D86ED"/>
<path d="M488.012 216.752V274.487L487.731 274.327L482.464 271.283L372.227 207.531V149.792L372.721 150.074L487.983 216.733L488.012 216.752Z" fill="#4070EA"/>
<path d="M385.698 186.285L385.207 186.001V192.659L385.698 192.943L474.911 244.537V237.876L385.698 186.285Z" fill="white"/>
<path d="M385.207 199.042V205.703L385.698 205.984L474.911 257.578V250.921L385.698 199.326L385.207 199.042Z" fill="white"/>
<path d="M448.509 204.019L411.609 182.679V189.34L448.509 210.676V204.019Z" fill="white"/>
<path d="M466.077 266.365L466.557 424.08L601.914 344.946L466.077 266.365Z" fill="#E8EAF7"/>
<path d="M308.572 365.864C297.069 365.148 302.824 369.883 302.824 369.883C292.09 376.361 301.951 384.86 312.959 374.118" fill="#FFBD8B"/>
<path d="M336.733 342.555L314.205 359.635L307.199 364.948L312.306 375.942C312.306 375.942 330.844 367.506 348.251 355.874C365.475 344.367 383.236 323.22 375.326 311.317C375.246 311.186 375.158 311.059 375.062 310.935H372.573C355.036 312.445 336.733 342.555 336.733 342.555Z" fill="#F8778D"/>
<path d="M320.744 516.006C319.083 517.409 302.137 517.337 301.817 524.943C302.248 528.939 325.972 532.101 330.494 530.921C335.016 529.74 335.869 519.94 335.869 519.94L320.744 516.006Z" fill="#F8778D"/>
<path d="M371.929 519.276C374.954 530.214 372.05 531.519 368.094 532.137C364.138 532.755 349.585 525.215 349.392 522.746C349.199 520.277 360.156 518.39 360.156 518.39L371.929 519.276Z" fill="#F8778D"/>
<path d="M346.407 439.789C347.061 441.346 356.183 512.661 356.183 512.661L356.837 520.437C356.837 520.437 366.783 522.854 373.051 521.546V457.339C373.051 457.339 377.717 416.464 375.052 399.133C372.387 381.802 350.837 403.132 350.837 403.132L346.407 439.789Z" fill="#4070EA"/>
<path d="M329.647 379.206L365.887 392.102C360.983 403.721 351.361 416.869 351.361 416.869L339.319 468.405L337.079 519.547C325.567 521.402 321.529 519.992 321.529 519.992C321.529 519.992 317.086 491.331 316.33 460.442C315.693 434.344 324.736 404.571 329.647 379.206Z" fill="#5385F4"/>
<path d="M323.971 399.594C347.074 421.366 372.4 408.923 378.174 399.594C378.174 396.483 378.148 393.463 378.096 390.533C377.556 354.282 374.607 331.758 376.059 328.138C376.719 326.492 377.227 324.789 377.576 323.05C378.05 320.64 378.557 318.119 377.991 315.712C376.396 308.727 369.065 302.285 357.736 307.616C342.225 314.917 326.195 318.282 323.079 330.277C322.392 332.922 321.987 337.206 321.787 342.405C321.071 360.773 322.932 390.572 323.971 399.594Z" fill="#F8778D"/>
<path d="M330.922 306.978C332.711 310.552 338.197 308.721 340.358 307.825C340.914 307.596 341.251 307.426 341.251 307.426L340.993 312.563L340.803 316.409C340.803 316.409 355.166 323.145 355.166 312.367V302.475C357.774 300.324 359.799 297.552 361.056 294.413C362.313 291.274 362.761 287.87 362.359 284.513C361.012 272.839 342.153 264.308 333.175 275.534C328.228 282.731 329.317 303.783 330.922 306.978Z" fill="#FFBD8B"/>
<g style="mix-blend-mode:multiply">
<path d="M341.251 307.426L340.993 312.563C342.354 311.603 343.499 310.369 344.356 308.941C345.212 307.512 345.76 305.92 345.966 304.267C344.183 305.583 342.311 306.772 340.362 307.825C340.914 307.596 341.251 307.426 341.251 307.426Z" fill="#FFBD8B"/>
</g>
<g style="mix-blend-mode:multiply" opacity="0.46">
<path d="M323.971 399.594C347.074 421.366 372.4 408.924 378.174 399.594C378.174 396.483 378.148 393.463 378.096 390.533C371.792 397.518 356.657 400.85 348.853 393.375C338.413 383.375 347.519 356.937 338.854 337.386L321.794 342.405C321.071 360.773 322.932 390.572 323.971 399.594Z" fill="#9F66F5"/>
</g>
<path d="M330.553 282.767C317.968 266.499 330.409 256.934 341.071 267.833L330.553 282.767Z" fill="#364085"/>
<path d="M312.865 404.689C304.204 411.798 310.645 411.576 310.645 411.576C303.981 426.461 321.529 430.015 321.529 408.243" fill="#FFBD8B"/>
<path d="M319.531 370.253C319.531 370.253 314.826 335.329 327.506 323.132L329.438 321.559C343.52 325.375 343.076 353.366 336.857 373.362C330.638 393.358 321.529 411.576 321.529 411.576L310.645 406.242L319.531 370.253Z" fill="#F8778D"/>
<path d="M339.005 292.61C339.005 288.12 331.812 285.416 329.575 281.384C327.339 277.352 327.78 270.158 327.78 270.158C327.78 270.158 331.822 269.262 333.169 268.362C334.516 267.463 353.371 258.932 362.353 276.894C371.331 285.425 363.7 299.346 355.16 302.488C355.16 306.978 343.039 305.631 342.592 302.488C342.144 299.346 339.005 292.61 339.005 292.61Z" fill="#364085"/>
<path d="M339.678 298.45C342.035 298.45 343.945 296.539 343.945 294.182C343.945 291.826 342.035 289.915 339.678 289.915C337.322 289.915 335.412 291.826 335.412 294.182C335.412 296.539 337.322 298.45 339.678 298.45Z" fill="#FFBD8B"/>
<path d="M226.198 307.252C232.273 315.297 226.689 313.74 226.689 313.74C229.373 328.161 213.284 327.566 217.861 308.531" fill="#FFBD8B"/>
<path d="M200.379 227.681C221.853 232.651 229.046 308.574 229.046 308.574C229.046 308.574 219.257 311.573 216.458 310.775L207.869 272.81" fill="#2ED4E2"/>
<path d="M199.283 417.036L189.148 419.462C185.126 420.793 187.536 429.698 187.536 429.698L189.625 431.149C189.625 431.149 206.627 443.32 211.995 439.324C217.364 435.329 211.361 426.64 199.283 417.036Z" fill="#2ED4E2"/>
<path d="M178.243 428.203L169.036 429.377C165.338 430.172 166.617 438.301 166.617 438.301L168.33 439.789C168.33 439.789 182.232 452.215 187.382 449.187C192.531 446.159 188.026 437.886 178.243 428.203Z" fill="#2ED4E2"/>
<path d="M210.923 312.118L201.34 419.973C201.34 419.973 193.921 425.031 184.57 420.564L180.938 317.932L210.923 312.118Z" fill="#4070EA"/>
<path d="M166.964 322.458C167.016 331.941 165.515 430.653 165.515 430.653C176.305 435.45 181.497 429.855 181.497 429.855C181.497 429.855 187.601 377.561 190.289 367.918C193.686 355.727 203.475 334.75 209.667 309.512L166.964 322.458Z" fill="#5385F4"/>
<path d="M212.064 316.366C212.064 316.366 195.883 331.153 168.71 327.955C167.781 317.305 167.699 310.787 167.304 304.018C166.988 298.385 166.39 292.771 165.512 287.198C163.115 271.613 153.725 255.629 155.723 252.83C157.685 250.103 159.077 235.401 192.669 228.187C193.515 228.004 194.381 227.826 195.268 227.654C207.657 225.257 209.654 239.243 212.051 255.227C214.448 271.211 212.064 316.366 212.064 316.366Z" fill="#F8778D"/>
<path d="M214.66 319.152C210.864 322.148 203.674 324.548 203.674 324.548C203.674 324.548 205.146 298.031 201.811 271.999C199.653 255.155 195.477 238.511 187.591 229.384C187.591 229.384 189.171 228.436 192.607 227.91C195.18 227.541 197.787 227.459 200.379 227.668C200.379 227.668 223.851 227.654 214.66 319.152Z" fill="#2ED4E2"/>
<path d="M193.284 328.155C190.508 329.152 187.668 329.958 184.783 330.568C179.224 331.768 171.848 332.641 165.525 330.954C165.326 295.19 165.525 287.198 165.525 287.198L161.713 263.503L158.934 246.238C158.934 246.238 165.178 236.663 175.968 233.03C176.759 232.762 177.573 232.527 178.414 232.331C185.133 241.451 188.883 257.745 190.943 274.353C194.268 300.867 193.284 328.155 193.284 328.155Z" fill="#2ED4E2"/>
<path d="M190.943 274.353C182.02 267.587 176.883 255.443 176.883 255.443L179.28 250.047H175.105C175.105 250.047 173.598 245.822 175.958 233.043C176.749 232.775 177.564 232.539 178.404 232.343C185.133 241.45 188.883 257.745 190.943 274.353Z" fill="#E8EAF7"/>
<path d="M201.811 272.012C199.653 255.168 195.477 238.524 187.591 229.397C187.591 229.397 189.171 228.449 192.607 227.922C201.713 237.811 202.693 242.31 202.693 242.31L199.117 244.537L204.021 247.866C204.021 247.866 206.172 261.443 201.811 272.012Z" fill="#E8EAF7"/>
<g style="mix-blend-mode:multiply" opacity="0.31">
<path d="M184.773 330.568C179.215 331.768 171.839 332.641 165.515 330.954C165.316 295.19 165.515 287.198 165.515 287.198L161.703 263.503L170.511 263.222C175.706 283.002 168.713 292.391 170.511 310.964C171.606 322.308 179.097 327.919 184.773 330.568Z" fill="#DD2265"/>
</g>
<path d="M163.07 325.633C169.144 333.678 163.56 332.124 163.56 332.124C166.244 346.542 150.155 345.947 154.732 326.912" fill="#FFBD8B"/>
<path d="M164.917 325.957C158.325 329.554 153.33 327.755 153.33 327.755C153.33 327.755 144.94 269.814 158.724 246.231L160.359 246.963C163.792 248.513 166.401 252.195 168.533 255.22C173.146 261.76 172.329 270.589 172.329 270.589C172.329 270.589 166.136 283.578 165.136 287.374C165.113 294.99 164.917 325.957 164.917 325.957Z" fill="#2ED4E2"/>
<path d="M192.577 240.234C185.679 244.416 177.318 233.543 177.318 233.543L178.365 221.209L179.162 221.52L190.697 226.016V231.248C190.697 231.248 191.119 231.611 191.678 232.203C193.395 234.001 196.38 237.928 192.577 240.234Z" fill="#FFBD8B"/>
<g style="mix-blend-mode:multiply">
<path d="M191.682 232.199C189.066 237.216 181.52 234.06 178.567 222.255L179.159 221.52L190.694 226.016V231.248C190.694 231.248 191.116 231.607 191.682 232.199Z" fill="#FFBD8B"/>
</g>
<path d="M197.743 201.785C197.743 201.785 202.716 228.043 187.856 230.107C171.672 232.356 171.672 207.629 171.672 207.629L186.957 197.74L193.248 196.39L197.743 201.785Z" fill="#FFBD8B"/>
<path d="M196.612 204.012C199.273 206.919 198.541 209.427 198.541 209.427C198.541 209.427 202.687 208.528 201.34 198.636C199.094 183.8 176.347 185.419 171.737 195.023C165.077 202.711 171.672 214.82 171.672 214.82L179.136 216.262C179.136 216.262 181.216 214.879 180.961 210.778C181.301 208.775 182.344 206.959 183.903 205.657C186.467 203.61 190.364 205.827 196.612 204.012Z" fill="#0F183F"/>
<path d="M177.593 220.006C179.786 219.11 180.838 216.605 179.942 214.412C179.045 212.218 176.541 211.166 174.348 212.063C172.155 212.959 171.103 215.464 171.999 217.657C172.895 219.851 175.4 220.902 177.593 220.006Z" fill="#FFBD8B"/>
<path d="M198.505 209.375C210.799 204.761 206.702 188.369 200.169 185.933C193.637 183.496 188.399 188.496 193.509 193.49C198.62 198.483 196.828 202.201 196.828 202.201" fill="#0F183F"/>
<path d="M428.029 302.73C428.029 287.456 417.239 268.843 403.932 261.159C397.514 257.454 391.684 256.966 387.365 259.167V259.144L383.628 261.227L385.364 264.206C384.497 266.809 384.076 269.54 384.118 272.283C384.118 287.557 394.908 306.167 408.215 313.851C410.627 315.296 413.267 316.319 416.023 316.876L417.792 319.914L420.293 318.57C425.043 316.271 428.029 310.761 428.029 302.73Z" fill="#F4BBC4"/>
<path d="M417.719 319.983C427.071 314.515 426.976 296.949 417.506 280.749C408.037 264.548 392.779 255.847 383.427 261.315C374.076 266.782 374.171 284.348 383.64 300.549C393.11 316.75 408.368 325.45 417.719 319.983Z" fill="#F8778D"/>
<path d="M415.205 315.68C423.185 311.015 423.103 296.025 415.022 282.201C406.942 268.376 393.922 260.951 385.942 265.617C377.962 270.283 378.044 285.272 386.124 299.097C394.205 312.921 407.225 320.346 415.205 315.68Z" fill="white"/>
<path d="M361.202 176.093C361.202 160.819 350.412 142.209 337.105 134.521C330.687 130.816 324.857 130.329 320.538 132.53V132.507L316.801 134.59L318.537 137.569C317.67 140.172 317.249 142.903 317.292 145.646C317.292 160.92 328.081 179.53 341.388 187.214C343.8 188.659 346.44 189.682 349.196 190.239L350.965 193.277L353.44 191.949C358.217 189.634 361.202 184.124 361.202 176.093Z" fill="#4D86ED"/>
<path d="M350.893 193.345C360.245 187.877 360.15 170.312 350.68 154.111C341.211 137.91 325.953 129.209 316.601 134.677C307.25 140.145 307.345 157.71 316.814 173.911C326.284 190.112 341.541 198.813 350.893 193.345Z" fill="#2ED4E2"/>
<path d="M348.379 189.042C356.359 184.377 356.277 169.387 348.196 155.563C340.116 141.738 327.096 134.313 319.116 138.979C311.136 143.645 311.218 158.634 319.298 172.458C327.379 186.283 340.399 193.708 348.379 189.042Z" fill="white"/>
<path d="M534.901 382.917L530.225 417.579L530.173 417.988L530.127 418.315L527.028 441.264L526.452 445.515V445.593L526.436 445.704H526.233C520.449 450.508 512.056 453.526 502.715 453.526C493.374 453.526 484.984 450.508 479.201 445.704H479.05V445.57L479.011 445.243L478.965 444.861L475.869 418.269L475.817 417.844V417.7L471.726 382.917H534.901Z" fill="#F8778D"/>
<path d="M503.317 406.402C520.764 406.402 534.907 395.869 534.907 382.875C534.907 369.881 520.764 359.347 503.317 359.347C485.87 359.347 471.726 369.881 471.726 382.875C471.726 395.869 485.87 406.402 503.317 406.402Z" fill="#F4BBC4"/>
<path d="M503.781 399.588C517.252 399.588 528.172 391.455 528.172 381.423C528.172 371.391 517.252 363.258 503.781 363.258C490.31 363.258 479.39 371.391 479.39 381.423C479.39 391.455 490.31 399.588 503.781 399.588Z" fill="#364085"/>
<path d="M502.346 372.78C514.443 372.78 524.5 379.353 526.407 387.966C527.559 385.884 528.167 383.544 528.175 381.164C528.175 371.132 517.258 363 503.788 363C490.317 363 479.397 371.132 479.397 381.164C479.396 382.166 479.506 383.165 479.724 384.143C483.34 377.469 492.106 372.78 502.346 372.78Z" fill="#4346A3"/>
<path d="M593.524 348.909C586.956 337.278 578.854 329.456 570.157 324.619L565.229 328.429L567.626 323.302C553.537 316.474 538.151 317.089 525.285 321.86L523.157 327.311L521.666 323.338C499.926 333.053 487.139 354.579 504.17 369.772H505.272C516.356 371.694 524.281 368.402 531.618 363.64L525.203 361.754L535.032 361.315C546.361 353.274 557.235 343.075 577.579 345.207L575.094 341.283L581.306 345.734C585.458 346.46 589.544 347.522 593.524 348.909Z" fill="#3CEBCE"/>
<path d="M502.307 383.169H502.287C502.238 383.166 502.19 383.153 502.146 383.132C502.102 383.11 502.062 383.08 502.03 383.044C501.997 383.007 501.972 382.964 501.957 382.918C501.941 382.871 501.934 382.822 501.937 382.773C503.039 364.134 509.3 350.505 520.551 342.225C539.779 328.082 567.276 334.704 567.551 334.766C567.598 334.778 567.643 334.798 567.683 334.827C567.722 334.856 567.756 334.893 567.781 334.935C567.806 334.977 567.823 335.024 567.83 335.072C567.837 335.121 567.834 335.17 567.822 335.217C567.797 335.313 567.736 335.395 567.652 335.445C567.568 335.496 567.467 335.512 567.371 335.489C567.1 335.42 539.933 328.893 520.989 342.827C509.928 350.966 503.768 364.409 502.679 382.812C502.674 382.908 502.633 382.998 502.564 383.064C502.494 383.131 502.402 383.168 502.307 383.169Z" fill="#364085"/>
<path d="M483.781 331.905L482.29 335.234L481.447 330.159C471.694 323.4 459.214 320.974 448.071 323.367L450.638 328.639L444.89 324.195C433.371 327.736 423.827 336.787 421.179 351.944C425.58 354.325 430.162 356.357 434.882 358.02L444.481 355.021L439.282 359.478C449.814 362.709 460.28 364.184 469.411 364.739L484.491 359.419L476.644 365.011C489.555 365.184 498.396 363.703 498.396 363.703C498.455 349.625 492.462 338.897 483.781 331.905Z" fill="#2ED4E2"/>
<path d="M503.395 380.53C503.294 380.53 503.195 380.495 503.117 380.43C503.038 380.366 502.984 380.276 502.964 380.177C499.112 361.054 491.095 348.481 479.129 342.801C459.979 333.71 437.004 345.62 436.771 345.744C436.669 345.795 436.55 345.804 436.441 345.769C436.332 345.734 436.241 345.658 436.187 345.557C436.134 345.455 436.122 345.337 436.155 345.227C436.188 345.117 436.262 345.024 436.363 344.969C436.595 344.845 459.946 332.729 479.501 342.006C491.733 347.81 499.917 360.596 503.827 380.007C503.849 380.121 503.825 380.24 503.76 380.337C503.695 380.433 503.595 380.501 503.48 380.524L503.395 380.53Z" fill="#364085"/>
<path d="M535.882 360.6L535.274 363.216L538.04 360.6C546.802 360.982 555.241 365.135 560.727 371.525L556.863 373.487L562.231 373.441C567.433 380.677 569.006 390.272 563.791 400.379C560.133 399.816 556.525 398.964 553.001 397.832L548.689 391.773L549.758 396.72C542.676 394.064 535.931 390.582 529.663 386.348L523.163 376.472L525.272 383.267C517.592 377.597 513.05 372.767 513.05 372.767C519.334 364.468 527.662 360.829 535.882 360.6Z" fill="#2ED4E2"/>
<path d="M502.614 380.458C502.672 380.505 502.744 380.53 502.818 380.53C502.893 380.53 502.965 380.505 503.023 380.458C513.838 370.919 524.183 367.1 533.757 369.108C549.097 372.319 557.297 389.604 557.382 389.778C557.396 389.822 557.419 389.863 557.45 389.898C557.481 389.933 557.519 389.961 557.562 389.98C557.604 389.999 557.65 390.009 557.697 390.008C557.743 390.008 557.789 389.998 557.832 389.978C557.874 389.959 557.912 389.931 557.942 389.895C557.973 389.86 557.995 389.819 558.009 389.774C558.022 389.729 558.025 389.682 558.019 389.636C558.012 389.59 557.996 389.546 557.971 389.506C557.889 389.326 549.555 371.753 533.891 368.47C524.082 366.42 513.56 370.288 502.581 379.971C502.517 380.028 502.478 380.108 502.473 380.194C502.467 380.279 502.496 380.364 502.552 380.429C502.571 380.442 502.592 380.452 502.614 380.458Z" fill="#364085"/>
<path d="M466.377 372.813L467.914 375.03L464.38 373.627C456.379 377.224 450.075 384.202 447.339 392.168L451.654 392.557L446.649 394.5C444.494 403.145 446.58 412.645 455.15 420.107C458.338 418.23 461.374 416.104 464.229 413.75L465.995 406.527L466.832 411.52C472.427 406.43 477.406 400.701 481.666 394.45L484.053 382.868L484.605 389.961C489.644 381.854 492.079 375.687 492.079 375.687C483.196 370.285 474.113 369.984 466.377 372.813Z" fill="#3CEBCE"/>
<path d="M504.644 378.954C504.606 379.018 504.546 379.067 504.476 379.092C504.406 379.118 504.329 379.119 504.258 379.094C490.68 374.232 479.658 374.516 471.494 379.918C458.416 388.574 457.196 407.671 457.187 407.864C457.181 407.951 457.142 408.032 457.077 408.089C457.012 408.147 456.927 408.176 456.84 408.171C456.753 408.166 456.672 408.126 456.615 408.061C456.557 407.996 456.527 407.911 456.533 407.825C456.533 407.632 457.788 388.205 471.125 379.376C479.472 373.843 490.69 373.542 504.474 378.476C504.556 378.506 504.622 378.566 504.659 378.645C504.696 378.723 504.7 378.813 504.67 378.895C504.664 378.915 504.655 378.935 504.644 378.954Z" fill="#364085"/>
<path d="M496.359 399.437L491.85 402.445C490.523 408.947 491.064 415.692 493.41 421.899L498.56 418.344L494.845 425.28C497.723 431.257 502.509 437.526 509.99 443.85C513.371 438.775 517.383 432.575 520.106 425.881L517.023 420.976L521.443 422.216C524.321 413.256 524.406 403.649 517.399 394.823L511.308 392.835C511.308 392.835 513.099 392.567 515.143 392.272C511.873 388.924 507.518 385.713 501.77 382.721C497.474 387.594 494.318 393.364 492.531 399.61L496.359 399.437Z" fill="#3CEBCE"/>
<path d="M509.552 421.425H509.503C509.445 421.419 509.39 421.401 509.339 421.374C509.289 421.346 509.244 421.309 509.208 421.264C509.172 421.219 509.145 421.167 509.129 421.112C509.112 421.056 509.107 420.998 509.114 420.941C510.575 407.037 504.536 391.21 500.94 381.753C498.586 375.583 497.883 373.601 498.795 372.983C499.449 372.548 500.449 373.114 502.663 375.154C502.706 375.193 502.741 375.24 502.765 375.293C502.79 375.346 502.804 375.402 502.807 375.46C502.81 375.518 502.801 375.576 502.781 375.631C502.762 375.686 502.731 375.736 502.692 375.779C502.653 375.822 502.606 375.857 502.554 375.881C502.501 375.906 502.444 375.92 502.386 375.923C502.328 375.926 502.27 375.917 502.216 375.897C502.161 375.878 502.111 375.847 502.068 375.808C500.136 374.029 499.488 373.768 499.299 373.738C499.093 374.448 500.449 377.989 501.761 381.446C505.4 390.974 511.484 406.926 510 421.039C509.987 421.147 509.934 421.247 509.851 421.319C509.768 421.39 509.661 421.428 509.552 421.425Z" fill="#364085"/>
</svg>
