<svg width="116" height="40" viewBox="0 0 116 40" fill="none" xmlns="http://www.w3.org/2000/svg">
<path fill-rule="evenodd" clip-rule="evenodd" d="M34.921 10.3788C33.9772 10.9334 32.877 11.2516 31.7022 11.2516C28.3718 11.2516 25.6404 8.69458 25.3753 5.44223L15.4015 24.8654C14.0459 27.5053 15.087 30.7442 17.7269 32.0998C20.3668 33.4554 23.6058 32.4143 24.9614 29.7744L34.921 10.3788Z" fill="url(#paint0_linear_393_211)"/>
<path d="M49.374 23.2535L42.7617 6.73453H45.4161L50.6538 20.3147H49.9428L55.1094 6.73453H57.7638L51.1989 23.2535H49.374Z" fill="#1D1D1D"/>
<path d="M58.5017 23.2535V11.5693H60.8243V23.2535H58.5017ZM58.3358 9.55484V6.73453H60.9665V9.55484H58.3358Z" fill="#1D1D1D"/>
<path d="M68.7738 23.4668C68.0786 23.4668 67.4387 23.3325 66.8541 23.0639C66.2853 22.7795 65.7955 22.3766 65.3847 21.8552C64.9897 21.318 64.6895 20.6702 64.4841 19.9118L65.1714 19.8881V23.2535H62.8488V6.73453H65.1714V14.9348L64.5789 14.7926C64.7369 14.1132 65.0134 13.5207 65.4084 13.0151C65.8034 12.4937 66.2853 12.0907 66.8541 11.8063C67.4387 11.5061 68.0786 11.356 68.7738 11.356C69.7376 11.356 70.6145 11.6009 71.4045 12.0907C72.1945 12.5806 72.8186 13.2758 73.2768 14.1764C73.7351 15.077 73.9642 16.1514 73.9642 17.3996C73.9642 18.5372 73.7509 19.5721 73.3242 20.5043C72.8976 21.4207 72.2893 22.1475 71.4993 22.6847C70.7251 23.2061 69.8166 23.4668 68.7738 23.4668ZM68.2761 21.3338C68.9555 21.3338 69.5401 21.1679 70.0299 20.8361C70.5355 20.5043 70.9305 20.0461 71.2149 19.4615C71.4993 18.8611 71.6415 18.1738 71.6415 17.3996C71.6415 16.6254 71.4993 15.946 71.2149 15.3614C70.9305 14.761 70.5355 14.3028 70.0299 13.9868C69.5401 13.655 68.9555 13.4891 68.2761 13.4891C67.6125 13.4891 67.0279 13.655 66.5223 13.9868C66.0325 14.3028 65.6454 14.761 65.361 15.3614C65.0924 15.946 64.9581 16.6254 64.9581 17.3996C64.9581 18.1738 65.0924 18.8611 65.361 19.4615C65.6454 20.0461 66.0325 20.5043 66.5223 20.8361C67.0279 21.1679 67.6125 21.3338 68.2761 21.3338Z" fill="#1D1D1D"/>
<path d="M75.4811 23.2535V11.5693H77.8274V14.7215L77.3297 14.8163C77.4087 14.1211 77.6457 13.5207 78.0407 13.0151C78.4516 12.4937 78.9335 12.0907 79.4865 11.8063C80.0395 11.5061 80.5846 11.356 81.1218 11.356C81.501 11.356 81.8565 11.4034 82.1883 11.4982C82.5359 11.5772 82.8835 11.7194 83.2311 11.9248L82.0935 14.0105C81.9197 13.9157 81.6985 13.8367 81.4299 13.7735C81.1613 13.7103 80.9085 13.6787 80.6715 13.6787C80.3081 13.6787 79.9526 13.7419 79.605 13.8683C79.2574 13.9947 78.9414 14.2001 78.657 14.4845C78.3884 14.7689 78.1829 15.1402 78.0407 15.5984C77.9776 15.8196 77.9222 16.1119 77.8749 16.4753C77.8433 16.8229 77.8274 17.3048 77.8274 17.921V23.2535H75.4811Z" fill="#1D1D1D"/>
<path d="M91.44 23.2535L91.2504 21.0968V15.9065C91.2504 15.0849 91.0134 14.4529 90.5394 14.0105C90.0654 13.5681 89.3781 13.3469 88.4775 13.3469C87.8455 13.3469 87.2372 13.4733 86.6526 13.7261C86.0838 13.9789 85.5387 14.3897 85.0173 14.9585L83.5716 13.4654C84.2668 12.7386 85.0331 12.2092 85.8705 11.8774C86.7237 11.5298 87.648 11.356 88.6434 11.356C90.2076 11.356 91.4163 11.7589 92.2695 12.5648C93.1385 13.3548 93.573 14.4687 93.573 15.9065V23.2535H91.44ZM87.6717 23.4668C86.8027 23.4668 86.0364 23.3088 85.3728 22.9928C84.7092 22.6768 84.1957 22.2423 83.8323 21.6893C83.4689 21.1205 83.2872 20.4648 83.2872 19.7222C83.2872 19.0744 83.4215 18.5214 83.6901 18.0632C83.9587 17.5892 84.3063 17.2258 84.7329 16.973C85.1279 16.7202 85.5782 16.5464 86.0838 16.4516C86.6052 16.341 87.1582 16.2857 87.7428 16.2857H91.4637V18.0395H88.0746C87.7586 18.0395 87.4268 18.0711 87.0792 18.1343C86.7474 18.1817 86.463 18.2923 86.226 18.4661C86.0364 18.6083 85.8863 18.79 85.7757 19.0112C85.6651 19.2166 85.6098 19.4615 85.6098 19.7459C85.6098 20.2989 85.8231 20.7413 86.2497 21.0731C86.6763 21.4049 87.2451 21.5708 87.9561 21.5708C88.5565 21.5708 89.1016 21.4365 89.5914 21.1679C90.097 20.8835 90.4999 20.5043 90.8001 20.0303C91.1003 19.5405 91.2504 18.9875 91.2504 18.3713L92.0799 19.4615C91.9377 20.2831 91.6612 21.002 91.2504 21.6182C90.8396 22.2186 90.3261 22.6768 89.7099 22.9928C89.1095 23.3088 88.4301 23.4668 87.6717 23.4668Z" fill="#1D1D1D"/>
<path d="M95.4688 23.2535V11.5693H97.8151V14.1053L97.3411 14.2475C97.5465 13.5997 97.8388 13.0704 98.218 12.6596C98.613 12.2329 99.0712 11.909 99.5926 11.6878C100.13 11.4666 100.707 11.356 101.323 11.356C102.618 11.356 103.63 11.7352 104.356 12.4937C105.099 13.2363 105.47 14.3265 105.47 15.7643V23.2535H103.148V16.6175C103.148 15.4957 102.942 14.6741 102.531 14.1527C102.136 13.6313 101.52 13.3706 100.683 13.3706C100.051 13.3706 99.5215 13.5128 99.0949 13.7972C98.6841 14.0816 98.3681 14.5319 98.1469 15.1481C97.9257 15.7643 97.8151 16.5464 97.8151 17.4944V23.2535H95.4688Z" fill="#1D1D1D"/>
<path d="M111.46 23.4668C110.891 23.4668 110.362 23.3562 109.872 23.135C109.398 22.9138 109.019 22.5583 108.735 22.0685C108.466 21.5629 108.332 20.9151 108.332 20.1251V8.58314L110.678 7.27963V19.5089C110.678 20.1567 110.773 20.6623 110.962 21.0257C111.168 21.3733 111.539 21.5471 112.076 21.5471C112.234 21.5471 112.416 21.5313 112.621 21.4997C112.843 21.4523 113.08 21.397 113.332 21.3338V23.135C113.016 23.2456 112.7 23.3246 112.384 23.372C112.068 23.4352 111.76 23.4668 111.46 23.4668ZM106.009 13.3706V11.5693H113.332V13.3706H106.009Z" fill="#1D1D1D"/>
<path d="M43.5529 39.8436V29.9322H44.8043V39.8436H43.5529Z" fill="#1D1D1D"/>
<path d="M49.4698 39.8436V31.0556H46.1423V29.9322H54.0487V31.0556H50.7354V39.8436H49.4698Z" fill="#1D1D1D"/>
<path d="M62.1211 40C61.1257 40 60.3104 39.7393 59.6752 39.2179C59.0401 38.6965 58.6514 38.0045 58.5092 37.1418L59.7321 36.8432C59.8364 37.5068 60.1066 38.014 60.5427 38.3647C60.9882 38.706 61.5286 38.8767 62.1637 38.8767C62.5335 38.8767 62.8653 38.8056 63.1592 38.6634C63.453 38.5212 63.6853 38.3221 63.8559 38.0661C64.0266 37.8007 64.1119 37.502 64.1119 37.1702C64.1119 36.8195 64.0171 36.5303 63.8275 36.3028C63.6379 36.0753 63.3725 35.8762 63.0312 35.7056C62.6994 35.5349 62.3107 35.3643 61.8651 35.1937C61.3153 34.9851 60.8318 34.7576 60.4147 34.5111C60.007 34.2646 59.6895 33.9707 59.4619 33.6295C59.2344 33.2787 59.1207 32.8521 59.1207 32.3496C59.1207 31.8472 59.2439 31.4016 59.4904 31.013C59.7369 30.6243 60.0829 30.3209 60.5284 30.1029C60.974 29.8754 61.4907 29.7616 62.0784 29.7616C62.7041 29.7616 63.2587 29.9038 63.7422 30.1882C64.2257 30.4726 64.6143 30.8945 64.9082 31.4538L63.9128 32.0652C63.6948 31.6766 63.4293 31.3827 63.1165 31.1836C62.8036 30.975 62.4434 30.8708 62.0358 30.8708C61.7134 30.8708 61.4243 30.9324 61.1683 31.0556C60.9219 31.1789 60.7275 31.3495 60.5853 31.5675C60.4431 31.7856 60.372 32.0368 60.372 32.3212C60.372 32.6246 60.4573 32.8853 60.628 33.1033C60.7986 33.3119 61.0451 33.4967 61.3674 33.6579C61.6897 33.8191 62.0784 33.985 62.5335 34.1556C63.1117 34.3736 63.6095 34.6106 64.0266 34.8666C64.4437 35.1226 64.766 35.4307 64.9935 35.7909C65.2305 36.1417 65.349 36.5777 65.349 37.0991C65.349 37.6585 65.2116 38.1562 64.9367 38.5923C64.6617 39.0283 64.2825 39.3744 63.7991 39.6303C63.3156 39.8768 62.7562 40 62.1211 40Z" fill="#1D1D1D"/>
<path d="M70.105 39.9574C69.4509 39.9574 68.8631 39.8057 68.3417 39.5023C67.8298 39.1895 67.4269 38.7582 67.133 38.2083C66.8391 37.6585 66.6922 37.0328 66.6922 36.3313C66.6922 35.6297 66.8344 35.0088 67.1188 34.4684C67.4126 33.9186 67.8155 33.492 68.3275 33.1886C68.8489 32.8758 69.4414 32.7194 70.105 32.7194C70.7686 32.7194 71.3516 32.8758 71.854 33.1886C72.366 33.492 72.7689 33.9186 73.0628 34.4684C73.3566 35.0088 73.5036 35.6297 73.5036 36.3313C73.5036 37.0328 73.3566 37.6585 73.0628 38.2083C72.7689 38.7487 72.366 39.1753 71.854 39.4881C71.3421 39.801 70.7591 39.9574 70.105 39.9574ZM70.105 38.8909C70.5505 38.8909 70.9345 38.7866 71.2568 38.578C71.5886 38.36 71.8446 38.0614 72.0247 37.6822C72.2048 37.2935 72.2949 36.8432 72.2949 36.3313C72.2949 35.8099 72.2048 35.3596 72.0247 34.9804C71.8446 34.5917 71.5886 34.2931 71.2568 34.0845C70.9345 33.8759 70.5505 33.7717 70.105 33.7717C69.6499 33.7717 69.2565 33.8807 68.9247 34.0987C68.5929 34.3073 68.337 34.6012 68.1568 34.9804C67.9767 35.3596 67.8867 35.8099 67.8867 36.3313C67.8867 36.8432 67.9767 37.2935 68.1568 37.6822C68.337 38.0614 68.5929 38.36 68.9247 38.578C69.2565 38.7866 69.6499 38.8909 70.105 38.8909Z" fill="#1D1D1D"/>
<path d="M76.6341 39.9574C76.2075 39.9574 75.8615 39.8247 75.596 39.5592C75.3306 39.2938 75.1979 38.8719 75.1979 38.2936V29.9322H76.3924V38.0661C76.3924 38.341 76.4492 38.5401 76.563 38.6634C76.6768 38.7866 76.8284 38.8482 77.018 38.8482C77.1034 38.8482 77.1982 38.8387 77.3024 38.8198C77.4067 38.8008 77.5157 38.7724 77.6295 38.7345V39.7583C77.4683 39.8247 77.2977 39.8721 77.1176 39.9005C76.9375 39.9384 76.7763 39.9574 76.6341 39.9574Z" fill="#1D1D1D"/>
<path d="M81.3502 39.9574C80.8477 39.9574 80.4116 39.8578 80.0419 39.6588C79.6722 39.4502 79.3878 39.1468 79.1887 38.7487C78.9991 38.3505 78.9043 37.8575 78.9043 37.2698V32.8331H80.0988V36.8432C80.0988 37.3077 80.1557 37.6964 80.2694 38.0092C80.3927 38.3126 80.5728 38.5401 80.8098 38.6918C81.0468 38.834 81.3407 38.9051 81.6914 38.9051C82.0801 38.9051 82.4072 38.815 82.6726 38.6349C82.9475 38.4453 83.1561 38.1609 83.2983 37.7817C83.4405 37.4025 83.5116 36.9143 83.5116 36.317V32.8331H84.7061V39.8436H83.5116V38.3505H83.8102C83.6111 38.8719 83.2936 39.2701 82.8575 39.545C82.4214 39.8199 81.919 39.9574 81.3502 39.9574Z" fill="#1D1D1D"/>
<path d="M89.0983 39.9574C88.7665 39.9574 88.4631 39.8958 88.1882 39.7725C87.9228 39.6398 87.7142 39.4312 87.5625 39.1468C87.4109 38.8624 87.335 38.4975 87.335 38.0519V30.9561L88.5579 30.2735V37.739C88.5579 38.1277 88.6196 38.4311 88.7428 38.6491C88.866 38.8577 89.0888 38.962 89.4111 38.962C89.5059 38.962 89.6197 38.9525 89.7524 38.9335C89.8851 38.9051 90.0273 38.8719 90.179 38.834V39.7725C89.9989 39.8389 89.814 39.8863 89.6244 39.9147C89.4443 39.9432 89.2689 39.9574 89.0983 39.9574ZM85.8846 33.7717V32.8331H90.179V33.7717H85.8846Z" fill="#1D1D1D"/>
<path d="M91.6679 39.8436V32.8331H92.8624V39.8436H91.6679ZM91.5542 31.5675V29.9322H92.9762V31.5675H91.5542Z" fill="#1D1D1D"/>
<path d="M97.9757 39.9574C97.3216 39.9574 96.7338 39.8057 96.2124 39.5023C95.7005 39.1895 95.2976 38.7582 95.0037 38.2083C94.7099 37.6585 94.5629 37.0328 94.5629 36.3313C94.5629 35.6297 94.7051 35.0088 94.9895 34.4684C95.2834 33.9186 95.6863 33.492 96.1982 33.1886C96.7196 32.8758 97.3121 32.7194 97.9757 32.7194C98.6393 32.7194 99.2224 32.8758 99.7248 33.1886C100.237 33.492 100.64 33.9186 100.934 34.4684C101.227 35.0088 101.374 35.6297 101.374 36.3313C101.374 37.0328 101.227 37.6585 100.934 38.2083C100.64 38.7487 100.237 39.1753 99.7248 39.4881C99.2129 39.801 98.6299 39.9574 97.9757 39.9574ZM97.9757 38.8909C98.4213 38.8909 98.8052 38.7866 99.1276 38.578C99.4594 38.36 99.7153 38.0614 99.8954 37.6822C100.076 37.2935 100.166 36.8432 100.166 36.3313C100.166 35.8099 100.076 35.3596 99.8954 34.9804C99.7153 34.5917 99.4594 34.2931 99.1276 34.0845C98.8052 33.8759 98.4213 33.7717 97.9757 33.7717C97.5207 33.7717 97.1273 33.8807 96.7955 34.0987C96.4637 34.3073 96.2077 34.6012 96.0276 34.9804C95.8475 35.3596 95.7574 35.8099 95.7574 36.3313C95.7574 36.8432 95.8475 37.2935 96.0276 37.6822C96.2077 38.0614 96.4637 38.36 96.7955 38.578C97.1273 38.7866 97.5207 38.8909 97.9757 38.8909Z" fill="#1D1D1D"/>
<path d="M103.097 39.8436V32.8331H104.306V34.3262L104.021 34.4258C104.154 34.0655 104.334 33.7622 104.562 33.5157C104.789 33.2597 105.064 33.0654 105.386 32.9327C105.709 32.7905 106.064 32.7194 106.453 32.7194C107.221 32.7194 107.823 32.9469 108.259 33.4019C108.695 33.8475 108.913 34.5111 108.913 35.3927V39.8436H107.704V35.8336C107.704 35.1226 107.572 34.6012 107.306 34.2694C107.05 33.9281 106.657 33.7574 106.126 33.7574C105.737 33.7574 105.405 33.8475 105.131 34.0276C104.865 34.2077 104.661 34.4921 104.519 34.8808C104.377 35.26 104.306 35.7482 104.306 36.3455V39.8436H103.097Z" fill="#1D1D1D"/>
<path d="M113.192 39.9574C112.718 39.9574 112.291 39.8863 111.912 39.7441C111.533 39.6019 111.205 39.4123 110.931 39.1753C110.665 38.9383 110.452 38.6871 110.291 38.4216L111.13 37.7106C111.31 38.0708 111.575 38.3695 111.926 38.6065C112.286 38.834 112.713 38.9478 113.206 38.9478C113.651 38.9478 114.007 38.853 114.272 38.6634C114.538 38.4738 114.67 38.2178 114.67 37.8955C114.67 37.63 114.59 37.4215 114.429 37.2698C114.268 37.1181 114.054 36.9949 113.789 36.9001C113.523 36.8053 113.234 36.7199 112.921 36.6441C112.656 36.5777 112.386 36.4972 112.111 36.4024C111.845 36.3076 111.604 36.1891 111.386 36.0469C111.168 35.9047 110.992 35.7198 110.859 35.4923C110.727 35.2648 110.66 34.9851 110.66 34.6533C110.66 34.075 110.883 33.6105 111.329 33.2597C111.784 32.8995 112.376 32.7194 113.106 32.7194C113.637 32.7194 114.121 32.8331 114.557 33.0606C115.002 33.2787 115.348 33.6105 115.595 34.0561L114.827 34.6249C114.637 34.2931 114.386 34.0561 114.073 33.9139C113.77 33.7622 113.433 33.6863 113.064 33.6863C112.694 33.6863 112.386 33.7622 112.139 33.9139C111.893 34.0655 111.77 34.2741 111.77 34.5395C111.77 34.7386 111.826 34.8998 111.94 35.023C112.054 35.1463 112.22 35.2505 112.438 35.3359C112.665 35.4212 112.94 35.5018 113.263 35.5776C113.557 35.644 113.855 35.7245 114.158 35.8193C114.462 35.9141 114.742 36.0374 114.997 36.1891C115.253 36.3407 115.457 36.5446 115.609 36.8005C115.77 37.047 115.851 37.3693 115.851 37.7675C115.851 38.2036 115.742 38.5875 115.524 38.9193C115.306 39.2511 114.997 39.5071 114.599 39.6872C114.201 39.8673 113.732 39.9574 113.192 39.9574Z" fill="#1D1D1D"/>
<mask id="mask0_393_211" style="mask-type:luminance" maskUnits="userSpaceOnUse" x="0" y="6" width="25" height="34">
<path d="M24.8387 30.0352C23.7872 32.0893 21.5797 31.6611 20.8899 30.2822L16.737 22.182L15.2419 19.2669L12.9011 14.7007C11.5467 12.103 12.5547 8.90036 15.1524 7.54577C15.9611 7.12428 16.8293 6.9314 17.6817 6.94487H5.38218C4.52994 6.9314 3.66177 7.12428 2.85311 7.54577C0.255424 8.90036 -0.75243 12.103 0.601986 14.7007L11.9328 36.8045C13.9069 40.6152 19.3578 40.6152 21.3318 36.8045L24.8387 30.0352Z" fill="white"/>
</mask>
<g mask="url(#mask0_393_211)">
<path d="M24.8387 30.0352C23.7872 32.0893 21.5797 31.6611 20.8899 30.2822L16.737 22.182L15.2419 19.2669L12.9011 14.7007C11.5467 12.103 12.5547 8.90036 15.1524 7.54577C15.9611 7.12428 16.8293 6.9314 17.6817 6.94487H5.38218C4.52994 6.9314 3.66177 7.12428 2.85311 7.54577C0.255424 8.90036 -0.75243 12.103 0.601986 14.7007L11.9328 36.8045C13.9069 40.6152 19.3578 40.6152 21.3318 36.8045L24.8387 30.0352Z" fill="url(#paint1_linear_393_211)"/>
</g>
<mask id="mask1_393_211" style="mask-type:luminance" maskUnits="userSpaceOnUse" x="12" y="6" width="15" height="14">
<path d="M15.2184 19.2669L24.9616 19.2621C25.9017 19.2617 26.5134 18.2738 26.0942 17.4322L22.2834 9.79724C21.3511 8.00839 19.5423 6.97358 17.6582 6.94487C16.8058 6.9314 15.9377 7.12428 15.129 7.54577C12.5313 8.90036 11.5233 12.103 12.8777 14.7007L15.2184 19.2669Z" fill="white"/>
</mask>
<g mask="url(#mask1_393_211)">
<path d="M15.2184 19.2669L24.9616 19.2621C25.9017 19.2617 26.5134 18.2738 26.0942 17.4322L22.2834 9.79724C21.3511 8.00839 19.5423 6.97358 17.6582 6.94487C16.8058 6.9314 15.9377 7.12428 15.129 7.54577C12.5313 8.90036 11.5233 12.103 12.8777 14.7007L15.2184 19.2669Z" fill="url(#paint2_linear_393_211)"/>
</g>
<circle cx="31.7076" cy="4.98507" r="4.98507" fill="url(#paint3_linear_393_211)"/>
<defs>
<linearGradient id="paint0_linear_393_211" x1="27.9519" y1="1.0121" x2="18.5656" y2="28.3202" gradientUnits="userSpaceOnUse">
<stop stop-color="#30C2DD"/>
<stop offset="0.9999" stop-color="#093B9E"/>
</linearGradient>
<linearGradient id="paint1_linear_393_211" x1="12.4193" y1="6.86033" x2="12.4193" y2="39.5095" gradientUnits="userSpaceOnUse">
<stop stop-color="#3F6FEA"/>
<stop offset="0.34375" stop-color="#2D6EEC"/>
<stop offset="0.697917" stop-color="#2CCFD9"/>
</linearGradient>
<linearGradient id="paint2_linear_393_211" x1="24.5046" y1="17.5001" x2="12.3962" y2="10.4369" gradientUnits="userSpaceOnUse">
<stop stop-color="#2ADDE9"/>
<stop offset="1" stop-color="#07349A"/>
</linearGradient>
<linearGradient id="paint3_linear_393_211" x1="28.3694" y1="2.25147" x2="28.7474" y2="9.24595" gradientUnits="userSpaceOnUse">
<stop stop-color="#30C2DD"/>
<stop offset="0.9999" stop-color="#093B9E"/>
</linearGradient>
</defs>
</svg>
