<svg width="152" height="32" viewBox="0 0 152 32" fill="none" xmlns="http://www.w3.org/2000/svg">
<g clip-path="url(#clip0_737_5637)">
<path d="M0.562683 0.690987H151.585V31.3169H0.562683V0.690987Z" fill="black"/>
<path d="M25.7341 0.690987H151.585V31.3169H25.7341V0.690987Z" fill="black"/>
<path d="M33.7375 23.2492V8.75845H37.6554V13.649H41.3264V8.75845H45.2505V23.2492H41.3264V17.627H37.6554V23.2492H33.7375Z" fill="white"/>
<path d="M51.4499 12.359H52.4658C53.1968 12.359 53.7316 12.4514 54.0734 12.6362C54.3265 12.771 54.5322 12.9713 54.7126 13.2716C54.8772 13.5682 55.0101 13.9418 55.1082 14.4116C55.1968 14.8775 55.2443 15.3703 55.2443 15.8902C55.2443 16.7374 55.1493 17.446 54.9436 18.0198C54.7443 18.5935 54.4563 19.0055 54.086 19.2597C53.7158 19.5177 53.1651 19.6409 52.4373 19.6409L51.4499 19.6487V12.359ZM52.9625 23.2492C53.8866 23.2492 54.6525 23.1568 55.2791 22.9527C55.9089 22.7563 56.4215 22.4944 56.8139 22.1825C57.2127 21.8629 57.5735 21.4317 57.9057 20.8964C58.2349 20.3419 58.5228 19.6449 58.7475 18.79C58.9785 17.9389 59.0893 16.98 59.0893 15.8941C59.0893 14.2998 58.8393 12.952 58.333 11.8276C57.8203 10.7262 57.1241 9.92913 56.2349 9.45933C55.3488 8.98952 54.2917 8.75845 53.0639 8.75845H47.6175V23.2492H52.9625Z" fill="white"/>
<path d="M60.8838 23.2492V8.75845H70.1752V12.3321H64.7509V14.6541H69.0896V18.1314H64.7509V23.2492H60.8838Z" fill="white"/>
<path d="M83.2957 14.2999H79.5962C79.5266 13.5798 79.3114 13.0099 78.9538 12.6017C78.593 12.2013 78.1404 12.0049 77.5835 12.0049C76.8904 12.0049 76.3271 12.3322 75.8936 12.9791C75.4568 13.6337 75.2385 14.6927 75.2385 16.1484C75.2385 17.165 75.3366 17.9274 75.517 18.4473C75.7037 18.9825 75.9664 19.3676 76.2923 19.6256C76.6278 19.8836 77.0361 20.0031 77.5392 20.0031C78.1405 20.0031 78.6215 19.8182 78.9728 19.3946C79.3336 18.9979 79.5424 18.405 79.6121 17.6117H83.378C83.2957 18.5128 83.1469 19.2676 82.9317 19.8837C82.726 20.496 82.359 21.1043 81.8621 21.7166C81.3589 22.3366 80.7577 22.8141 80.0646 23.1453C79.3716 23.4803 78.5708 23.6383 77.6531 23.6383C76.748 23.6383 75.9031 23.4804 75.1404 23.1569C74.3683 22.8258 73.7163 22.3559 73.1973 21.7667C72.6688 21.1544 72.2575 20.469 71.9632 19.695C71.5391 18.6052 71.3397 17.4076 71.3397 16.0714C71.3397 14.9546 71.4884 13.8956 71.789 12.9252C72.0897 11.9624 72.5043 11.1422 73.0328 10.4798C73.5644 9.82133 74.1435 9.3285 74.7891 8.99732C75.6056 8.57373 76.5044 8.36966 77.5013 8.36966C78.3684 8.36966 79.1721 8.52358 79.9316 8.8355C80.688 9.14742 81.3083 9.60189 81.7925 10.2065C82.283 10.8111 82.6596 11.5042 82.9222 12.2936C83.1121 12.8443 83.2324 13.5105 83.2957 14.2999Z" fill="white"/>
<path d="M95.8435 12.0202C96.3973 12.0202 96.7549 12.0509 96.9322 12.1126C97.16 12.1934 97.3498 12.3513 97.4859 12.5592C97.6252 12.7749 97.698 13.0253 97.698 13.3141C97.698 13.6838 97.5778 13.9879 97.3468 14.219C97.0999 14.4616 96.679 14.5733 96.0746 14.5733H94.5998V12.0202H95.8435ZM96.8278 23.2492C97.755 23.2492 98.4069 23.1953 98.7898 23.0952C99.1664 22.9873 99.5557 22.818 99.9512 22.5947C100.337 22.3482 100.635 22.1171 100.831 21.863C101.135 21.5203 101.359 21.1043 101.524 20.6037C101.689 20.0992 101.771 19.5293 101.771 18.917C101.771 18.0429 101.594 17.3227 101.233 16.7374C100.872 16.1482 100.388 15.7593 99.7771 15.5475C100.812 14.7542 101.328 13.7299 101.328 12.4823C101.328 11.1922 100.872 10.2064 99.9702 9.5363C99.274 9.02029 98.1885 8.75845 96.717 8.75845H90.8086V23.2492H96.8278ZM96.198 17.1803C96.9733 17.1803 97.4765 17.2958 97.7297 17.5384C97.9639 17.7733 98.0904 18.0968 98.0904 18.5319C98.0904 18.9709 97.9638 19.3175 97.7075 19.5601C97.4638 19.8181 96.9543 19.9259 96.198 19.9259H94.5998V17.1803H96.198Z" fill="white"/>
<path d="M110.375 18.378H107.885L109.113 13.1061L110.375 18.378ZM106.714 23.2492L107.167 21.347H111.065L111.521 23.2492H115.417L111.144 8.75845H107.167L102.891 23.2492H106.714Z" fill="white"/>
<path d="M117.062 23.2492V8.75845H120.711L124.828 16.518V8.75845H128.582V23.2492H124.854L120.825 15.6823V23.2492H117.062Z" fill="white"/>
<path d="M131.192 23.2492V8.75845H134.987V13.5374L138.528 8.75845H143.129L138.765 14.2151L143.582 23.2492H138.892L136.028 17.4768L134.987 18.7283V23.2492H131.192Z" fill="white"/>
<path d="M0.562683 0.690987H25.731V31.3169H0.562683V0.690987Z" fill="#757575"/>
<path d="M4.96777 6.05132H21.329V25.9603H4.96777V6.05132Z" fill="white"/>
<path d="M11.8889 0.690987H14.4047V31.3169H11.8889V0.690987Z" fill="white"/>
<path d="M0.562683 14.4771H25.731V17.5385H0.562683V14.4771Z" fill="white"/>
<path d="M9.37299 11.4118H16.9238V20.6H9.37299V11.4118Z" fill="black"/>
</g>
<defs>
<clipPath id="clip0_737_5637">
<rect width="152" height="32" fill="white"/>
</clipPath>
</defs>
</svg>
