<svg width="80" height="80" viewBox="0 0 80 80" fill="none" xmlns="http://www.w3.org/2000/svg">
<g clip-path="url(#clip0_817_141)">
<path d="M80 53.3332V33.3332H56.6667C56.672 28.9145 58.4296 24.6784 61.5541 21.5539C64.6785 18.4294 68.9147 16.6718 73.3333 16.6665V6.6665C66.2633 6.67445 59.4852 9.48652 54.4859 14.4858C49.4867 19.485 46.6746 26.2632 46.6667 33.3332V66.6665H66.6667C70.2029 66.6665 73.5943 65.2617 76.0948 62.7613C78.5952 60.2608 80 56.8694 80 53.3332Z" fill="url(#paint0_linear_817_141)"/>
<path d="M20 66.6665C23.5362 66.6665 26.9276 65.2617 29.4281 62.7613C31.9286 60.2608 33.3333 56.8694 33.3333 53.3332V33.3332H10C10.0053 28.9145 11.7629 24.6784 14.8874 21.5539C18.0119 18.4294 22.248 16.6718 26.6667 16.6665V6.6665C19.5967 6.67445 12.8185 9.48652 7.81926 14.4858C2.82001 19.485 0.00793839 26.2632 0 33.3332V66.6665H20Z" fill="url(#paint1_linear_817_141)"/>
</g>
<defs>
<linearGradient id="paint0_linear_817_141" x1="80" y1="36.6665" x2="46.6667" y2="36.6665" gradientUnits="userSpaceOnUse">
<stop stop-color="#3F6FEA"/>
<stop offset="0.0666667" stop-color="#3F70EA"/>
<stop offset="0.133333" stop-color="#3E72E9"/>
<stop offset="0.2" stop-color="#3D77E9"/>
<stop offset="0.266667" stop-color="#3C7DE7"/>
<stop offset="0.333333" stop-color="#3B85E6"/>
<stop offset="0.4" stop-color="#398FE4"/>
<stop offset="0.466667" stop-color="#3799E2"/>
<stop offset="0.533333" stop-color="#34A4E1"/>
<stop offset="0.6" stop-color="#32AFDF"/>
<stop offset="0.666667" stop-color="#30B8DD"/>
<stop offset="0.733333" stop-color="#2FC1DC"/>
<stop offset="0.8" stop-color="#2EC7DA"/>
<stop offset="0.866667" stop-color="#2DCBDA"/>
<stop offset="0.933333" stop-color="#2CCED9"/>
<stop offset="1" stop-color="#2CCFD9"/>
</linearGradient>
<linearGradient id="paint1_linear_817_141" x1="33.3333" y1="36.6665" x2="-2.83569e-07" y2="36.6665" gradientUnits="userSpaceOnUse">
<stop stop-color="#3F6FEA"/>
<stop offset="0.0666667" stop-color="#3F70EA"/>
<stop offset="0.133333" stop-color="#3E72E9"/>
<stop offset="0.2" stop-color="#3D77E9"/>
<stop offset="0.266667" stop-color="#3C7DE7"/>
<stop offset="0.333333" stop-color="#3B85E6"/>
<stop offset="0.4" stop-color="#398FE4"/>
<stop offset="0.466667" stop-color="#3799E2"/>
<stop offset="0.533333" stop-color="#34A4E1"/>
<stop offset="0.6" stop-color="#32AFDF"/>
<stop offset="0.666667" stop-color="#30B8DD"/>
<stop offset="0.733333" stop-color="#2FC1DC"/>
<stop offset="0.8" stop-color="#2EC7DA"/>
<stop offset="0.866667" stop-color="#2DCBDA"/>
<stop offset="0.933333" stop-color="#2CCED9"/>
<stop offset="1" stop-color="#2CCFD9"/>
</linearGradient>
<clipPath id="clip0_817_141">
<rect width="80" height="80" fill="white" transform="matrix(-1 0 0 -1 80 80)"/>
</clipPath>
</defs>
</svg>
