<svg width="91" height="32" viewBox="0 0 91 32" fill="none" xmlns="http://www.w3.org/2000/svg">
<path fill-rule="evenodd" clip-rule="evenodd" d="M27.4303 8.15201C26.689 8.58767 25.8247 8.83759 24.9019 8.83759C22.2859 8.83759 20.1404 6.82909 19.9321 4.27441L12.0978 19.5311C11.033 21.6048 11.8508 24.1489 13.9244 25.2138C15.998 26.2786 18.5422 25.4607 19.607 23.3871L27.4303 8.15201Z" fill="url(#paint0_linear_508_6358)"/>
<path d="M38.783 18.2656L33.5891 5.29004H35.6741L39.7883 15.9572H39.2298L43.2882 5.29004H45.3732L40.2165 18.2656H38.783Z" fill="white"/>
<path d="M45.9528 18.2656V9.08776H47.7772V18.2656H45.9528ZM45.8225 7.50538V5.29004H47.8889V7.50538H45.8225Z" fill="white"/>
<path d="M54.0215 18.4331C53.4754 18.4331 52.9728 18.3276 52.5136 18.1167C52.0668 17.8933 51.682 17.5768 51.3594 17.1672C51.0491 16.7453 50.8133 16.2364 50.6519 15.6407L51.1918 15.6221V18.2656H49.3674V5.29004H51.1918V11.7313L50.7264 11.6196C50.8505 11.0859 51.0677 10.6205 51.378 10.2234C51.6882 9.8138 52.0668 9.49732 52.5136 9.27393C52.9728 9.03812 53.4754 8.92022 54.0215 8.92022C54.7785 8.92022 55.4673 9.11258 56.0879 9.49732C56.7084 9.88206 57.1987 10.4281 57.5586 11.1356C57.9185 11.843 58.0984 12.6869 58.0984 13.6674C58.0984 14.561 57.9309 15.3739 57.5958 16.1061C57.2607 16.8259 56.7829 17.3968 56.1624 17.8188C55.5542 18.2284 54.8406 18.4331 54.0215 18.4331ZM53.6305 16.7577C54.1642 16.7577 54.6234 16.6274 55.0081 16.3667C55.4053 16.1061 55.7156 15.7462 55.939 15.287C56.1624 14.8154 56.274 14.2755 56.274 13.6674C56.274 13.0592 56.1624 12.5256 55.939 12.0664C55.7156 11.5948 55.4053 11.2348 55.0081 10.9866C54.6234 10.726 54.1642 10.5957 53.6305 10.5957C53.1093 10.5957 52.6501 10.726 52.2529 10.9866C51.8682 11.2348 51.5641 11.5948 51.3407 12.0664C51.1297 12.5256 51.0243 13.0592 51.0243 13.6674C51.0243 14.2755 51.1297 14.8154 51.3407 15.287C51.5641 15.7462 51.8682 16.1061 52.2529 16.3667C52.6501 16.6274 53.1093 16.7577 53.6305 16.7577Z" fill="white"/>
<path d="M59.29 18.2656V9.08776H61.133V11.5637L60.7421 11.6382C60.8042 11.0921 60.9903 10.6205 61.3006 10.2234C61.6233 9.8138 62.0018 9.49732 62.4362 9.27393C62.8706 9.03812 63.2987 8.92022 63.7207 8.92022C64.0186 8.92022 64.2978 8.95745 64.5584 9.03191C64.8315 9.09397 65.1045 9.20567 65.3776 9.36701L64.484 11.0052C64.3475 10.9308 64.1737 10.8687 63.9627 10.8191C63.7517 10.7694 63.5532 10.7446 63.367 10.7446C63.0816 10.7446 62.8023 10.7943 62.5293 10.8935C62.2562 10.9928 62.008 11.1542 61.7846 11.3776C61.5736 11.601 61.4123 11.8926 61.3006 12.2525C61.2509 12.4263 61.2075 12.6559 61.1703 12.9413C61.1455 13.2144 61.133 13.5929 61.133 14.0769V18.2656H59.29Z" fill="white"/>
<path d="M71.8256 18.2656L71.6767 16.5715V12.4945C71.6767 11.8492 71.4905 11.3527 71.1182 11.0052C70.7459 10.6577 70.206 10.484 69.4986 10.484C69.0022 10.484 68.5243 10.5833 68.0651 10.7818C67.6183 10.9804 67.1902 11.3031 66.7806 11.7499L65.645 10.5771C66.1911 10.0062 66.793 9.5904 67.4508 9.32977C68.121 9.05674 68.847 8.92022 69.6289 8.92022C70.8576 8.92022 71.807 9.23669 72.4772 9.86965C73.1598 10.4902 73.5011 11.3652 73.5011 12.4945V18.2656H71.8256ZM68.8656 18.4331C68.183 18.4331 67.5811 18.309 67.0599 18.0608C66.5386 17.8126 66.1353 17.4713 65.8498 17.0369C65.5644 16.5901 65.4216 16.0751 65.4216 15.4918C65.4216 14.9829 65.5271 14.5485 65.7381 14.1886C65.9491 13.8163 66.2221 13.5309 66.5572 13.3323C66.8675 13.1337 67.2212 12.9972 67.6183 12.9227C68.0279 12.8358 68.4623 12.7924 68.9215 12.7924H71.8442V14.17H69.1821C68.9339 14.17 68.6733 14.1948 68.4002 14.2445C68.1396 14.2817 67.9162 14.3686 67.73 14.5051C67.5811 14.6168 67.4632 14.7595 67.3763 14.9333C67.2895 15.0946 67.246 15.287 67.246 15.5104C67.246 15.9448 67.4136 16.2923 67.7487 16.5529C68.0838 16.8135 68.5305 16.9438 69.089 16.9438C69.5606 16.9438 69.9888 16.8383 70.3736 16.6274C70.7707 16.404 71.0872 16.1061 71.323 15.7338C71.5588 15.349 71.6767 14.9147 71.6767 14.4306L72.3283 15.287C72.2166 15.9324 71.9994 16.497 71.6767 16.9811C71.354 17.4527 70.9507 17.8126 70.4666 18.0608C69.995 18.309 69.4614 18.4331 68.8656 18.4331Z" fill="white"/>
<path d="M74.9902 18.2656V9.08776H76.8333V11.0797L76.4609 11.1914C76.6223 10.6826 76.8519 10.2668 77.1497 9.94411C77.46 9.60902 77.8199 9.3546 78.2295 9.18084C78.6515 9.00709 79.1045 8.92022 79.5885 8.92022C80.6062 8.92022 81.4005 9.21808 81.9714 9.8138C82.5547 10.3971 82.8463 11.2535 82.8463 12.3828V18.2656H81.0219V13.053C81.0219 12.1719 80.8606 11.5265 80.5379 11.1169C80.2276 10.7074 79.7436 10.5026 79.0858 10.5026C78.5894 10.5026 78.1736 10.6143 77.8385 10.8377C77.5159 11.0611 77.2676 11.4148 77.0939 11.8988C76.9201 12.3828 76.8333 12.9972 76.8333 13.7418V18.2656H74.9902Z" fill="white"/>
<path d="M87.5513 18.4331C87.1045 18.4331 86.6887 18.3463 86.304 18.1725C85.9317 17.9988 85.6338 17.7195 85.4104 17.3348C85.1994 16.9376 85.0939 16.4288 85.0939 15.8082V6.74211L86.937 5.71821V15.3242C86.937 15.8331 87.0114 16.2302 87.1604 16.5157C87.3217 16.7887 87.6134 16.9252 88.0353 16.9252C88.1594 16.9252 88.3022 16.9128 88.4635 16.888C88.6372 16.8508 88.8234 16.8073 89.022 16.7577V18.1725C88.7738 18.2594 88.5256 18.3214 88.2773 18.3587C88.0291 18.4083 87.7871 18.4331 87.5513 18.4331ZM83.2696 10.5026V9.08776H89.022V10.5026H83.2696Z" fill="white"/>
<path d="M34.2106 31.2973V23.512H35.1935V31.2973H34.2106Z" fill="white"/>
<path d="M38.8583 31.2973V24.3944H36.2445V23.512H42.4549V24.3944H39.8524V31.2973H38.8583Z" fill="white"/>
<path d="M48.7958 31.4202C48.0139 31.4202 47.3735 31.2154 46.8746 30.8058C46.3757 30.3963 46.0704 29.8527 45.9587 29.175L46.9193 28.9405C47.0012 29.4617 47.2134 29.8601 47.5559 30.1356C47.9059 30.4037 48.3304 30.5378 48.8293 30.5378C49.1197 30.5378 49.3803 30.4819 49.6112 30.3702C49.842 30.2585 50.0245 30.1021 50.1585 29.9011C50.2925 29.6926 50.3596 29.458 50.3596 29.1974C50.3596 28.9219 50.2851 28.6947 50.1362 28.516C49.9872 28.3373 49.7787 28.1809 49.5107 28.0469C49.25 27.9129 48.9447 27.7788 48.5947 27.6448C48.1628 27.481 47.7831 27.3022 47.4554 27.1086C47.1352 26.915 46.8858 26.6842 46.707 26.4161C46.5283 26.1406 46.439 25.8055 46.439 25.4108C46.439 25.0162 46.5358 24.6662 46.7294 24.3609C46.923 24.0556 47.1948 23.8173 47.5448 23.646C47.8948 23.4673 48.3006 23.3779 48.7623 23.3779C49.2537 23.3779 49.6894 23.4896 50.0691 23.713C50.4489 23.9364 50.7542 24.2678 50.9851 24.7071L50.2032 25.1874C50.0319 24.8821 49.8234 24.6513 49.5777 24.4949C49.3319 24.3311 49.049 24.2492 48.7288 24.2492C48.4756 24.2492 48.2485 24.2976 48.0474 24.3944C47.8538 24.4912 47.7011 24.6252 47.5895 24.7965C47.4778 24.9678 47.4219 25.1651 47.4219 25.3885C47.4219 25.6268 47.4889 25.8316 47.623 26.0028C47.757 26.1666 47.9506 26.3119 48.2038 26.4384C48.457 26.565 48.7623 26.6954 49.1197 26.8294C49.5739 27.0007 49.9649 27.1868 50.2925 27.3879C50.6202 27.5889 50.8734 27.8309 51.0521 28.1139C51.2382 28.3894 51.3313 28.732 51.3313 29.1415C51.3313 29.5809 51.2234 29.9718 51.0074 30.3144C50.7915 30.6569 50.4936 30.9287 50.1138 31.1298C49.734 31.3234 49.2947 31.4202 48.7958 31.4202Z" fill="white"/>
<path d="M55.0671 31.3867C54.5533 31.3867 54.0916 31.2675 53.682 31.0292C53.2799 30.7835 52.9634 30.4447 52.7326 30.0128C52.5018 29.5809 52.3863 29.0894 52.3863 28.5384C52.3863 27.9873 52.498 27.4996 52.7214 27.0751C52.9523 26.6432 53.2688 26.3081 53.6709 26.0698C54.0804 25.8241 54.5458 25.7012 55.0671 25.7012C55.5883 25.7012 56.0463 25.8241 56.441 26.0698C56.8431 26.3081 57.1596 26.6432 57.3904 27.0751C57.6212 27.4996 57.7367 27.9873 57.7367 28.5384C57.7367 29.0894 57.6212 29.5809 57.3904 30.0128C57.1596 30.4372 56.8431 30.7723 56.441 31.0181C56.0389 31.2638 55.5809 31.3867 55.0671 31.3867ZM55.0671 30.5489C55.4171 30.5489 55.7187 30.467 55.9718 30.3032C56.2325 30.1319 56.4335 29.8974 56.575 29.5995C56.7165 29.2942 56.7872 28.9405 56.7872 28.5384C56.7872 28.1288 56.7165 27.7751 56.575 27.4772C56.4335 27.1719 56.2325 26.9374 55.9718 26.7735C55.7187 26.6097 55.4171 26.5278 55.0671 26.5278C54.7097 26.5278 54.4006 26.6134 54.14 26.7847C53.8794 26.9485 53.6783 27.1794 53.5368 27.4772C53.3953 27.7751 53.3246 28.1288 53.3246 28.5384C53.3246 28.9405 53.3953 29.2942 53.5368 29.5995C53.6783 29.8974 53.8794 30.1319 54.14 30.3032C54.4006 30.467 54.7097 30.5489 55.0671 30.5489Z" fill="white"/>
<path d="M60.1957 31.3867C59.8606 31.3867 59.5888 31.2824 59.3803 31.0739C59.1718 30.8654 59.0675 30.534 59.0675 30.0798V23.512H60.0058V29.9011C60.0058 30.117 60.0505 30.2734 60.1398 30.3702C60.2292 30.467 60.3483 30.5154 60.4973 30.5154C60.5643 30.5154 60.6387 30.508 60.7207 30.4931C60.8026 30.4782 60.8882 30.4558 60.9776 30.4261V31.2303C60.851 31.2824 60.7169 31.3196 60.5754 31.342C60.434 31.3718 60.3074 31.3867 60.1957 31.3867Z" fill="white"/>
<path d="M63.9001 31.3867C63.5054 31.3867 63.1629 31.3085 62.8725 31.1521C62.5821 30.9883 62.3587 30.75 62.2023 30.4372C62.0534 30.1245 61.9789 29.7373 61.9789 29.2756V25.7906H62.9172V28.9405C62.9172 29.3054 62.9618 29.6107 63.0512 29.8564C63.148 30.0947 63.2895 30.2734 63.4757 30.3925C63.6618 30.5042 63.8927 30.5601 64.1682 30.5601C64.4735 30.5601 64.7304 30.4894 64.9389 30.3479C65.1548 30.1989 65.3187 29.9755 65.4304 29.6777C65.5421 29.3798 65.5979 28.9963 65.5979 28.5272V25.7906H66.5362V31.2973H65.5979V30.1245H65.8325C65.6761 30.534 65.4266 30.8468 65.0841 31.0627C64.7416 31.2787 64.3469 31.3867 63.9001 31.3867Z" fill="white"/>
<path d="M69.9862 31.3867C69.7256 31.3867 69.4873 31.3383 69.2714 31.2414C69.0629 31.1372 68.8991 30.9734 68.7799 30.75C68.6608 30.5266 68.6012 30.2399 68.6012 29.8899V24.3162L69.5618 23.78V29.6442C69.5618 29.9495 69.6102 30.1878 69.707 30.359C69.8038 30.5229 69.9788 30.6048 70.232 30.6048C70.3064 30.6048 70.3958 30.5973 70.5 30.5824C70.6043 30.5601 70.716 30.534 70.8351 30.5042V31.2414C70.6937 31.2936 70.5485 31.3308 70.3995 31.3531C70.258 31.3755 70.1203 31.3867 69.9862 31.3867ZM67.4619 26.5278V25.7906H70.8351V26.5278H67.4619Z" fill="white"/>
<path d="M72.0047 31.2973V25.7906H72.9429V31.2973H72.0047ZM71.9153 24.7965V23.512H73.0323V24.7965H71.9153Z" fill="white"/>
<path d="M76.9594 31.3867C76.4456 31.3867 75.9839 31.2675 75.5744 31.0292C75.1722 30.7835 74.8558 30.4447 74.6249 30.0128C74.3941 29.5809 74.2787 29.0894 74.2787 28.5384C74.2787 27.9873 74.3904 27.4996 74.6138 27.0751C74.8446 26.6432 75.1611 26.3081 75.5632 26.0698C75.9727 25.8241 76.4382 25.7012 76.9594 25.7012C77.4807 25.7012 77.9386 25.8241 78.3333 26.0698C78.7354 26.3081 79.0519 26.6432 79.2827 27.0751C79.5136 27.4996 79.629 27.9873 79.629 28.5384C79.629 29.0894 79.5136 29.5809 79.2827 30.0128C79.0519 30.4372 78.7354 30.7723 78.3333 31.0181C77.9312 31.2638 77.4732 31.3867 76.9594 31.3867ZM76.9594 30.5489C77.3094 30.5489 77.611 30.467 77.8642 30.3032C78.1248 30.1319 78.3258 29.8974 78.4673 29.5995C78.6088 29.2942 78.6796 28.9405 78.6796 28.5384C78.6796 28.1288 78.6088 27.7751 78.4673 27.4772C78.3258 27.1719 78.1248 26.9374 77.8642 26.7735C77.611 26.6097 77.3094 26.5278 76.9594 26.5278C76.602 26.5278 76.2929 26.6134 76.0323 26.7847C75.7717 26.9485 75.5706 27.1794 75.4291 27.4772C75.2877 27.7751 75.2169 28.1288 75.2169 28.5384C75.2169 28.9405 75.2877 29.2942 75.4291 29.5995C75.5706 29.8974 75.7717 30.1319 76.0323 30.3032C76.2929 30.467 76.602 30.5489 76.9594 30.5489Z" fill="white"/>
<path d="M80.9822 31.2973V25.7906H81.9316V26.9634L81.7082 27.0416C81.8125 26.7586 81.954 26.5204 82.1327 26.3267C82.3114 26.1257 82.5273 25.973 82.7805 25.8688C83.0337 25.7571 83.3129 25.7012 83.6182 25.7012C84.2214 25.7012 84.6943 25.88 85.0368 26.2374C85.3794 26.5874 85.5506 27.1086 85.5506 27.8012V31.2973H84.6012V28.1474C84.6012 27.5889 84.4969 27.1794 84.2884 26.9187C84.0874 26.6507 83.7784 26.5166 83.3613 26.5166C83.056 26.5166 82.7954 26.5874 82.5795 26.7289C82.371 26.8703 82.2109 27.0937 82.0992 27.399C81.9875 27.6969 81.9316 28.0804 81.9316 28.5495V31.2973H80.9822Z" fill="white"/>
<path d="M88.9113 31.3867C88.539 31.3867 88.2039 31.3308 87.906 31.2191C87.6082 31.1074 87.3513 30.9585 87.1353 30.7723C86.9268 30.5862 86.7593 30.3888 86.6327 30.1803L87.2917 29.6218C87.4332 29.9048 87.6417 30.1394 87.9172 30.3255C88.2002 30.5042 88.5353 30.5936 88.9225 30.5936C89.2725 30.5936 89.5517 30.5191 89.7602 30.3702C89.9687 30.2213 90.073 30.0202 90.073 29.767C90.073 29.5585 90.0097 29.3947 89.8831 29.2756C89.7565 29.1564 89.589 29.0596 89.3805 28.9852C89.172 28.9107 88.9448 28.8437 88.6991 28.7841C88.4906 28.732 88.2784 28.6687 88.0624 28.5942C87.8539 28.5197 87.664 28.4267 87.4928 28.315C87.3215 28.2033 87.1837 28.0581 87.0795 27.8793C86.9752 27.7006 86.9231 27.481 86.9231 27.2203C86.9231 26.7661 87.0981 26.4012 87.4481 26.1257C87.8055 25.8427 88.2709 25.7012 88.8443 25.7012C89.2613 25.7012 89.6411 25.7906 89.9836 25.9693C90.3336 26.1406 90.6054 26.4012 90.799 26.7512L90.1959 27.198C90.0469 26.9374 89.8496 26.7512 89.6038 26.6395C89.3656 26.5204 89.1012 26.4608 88.8108 26.4608C88.5204 26.4608 88.2784 26.5204 88.0848 26.6395C87.8912 26.7586 87.7943 26.9225 87.7943 27.131C87.7943 27.2873 87.839 27.4139 87.9284 27.5107C88.0177 27.6076 88.1481 27.6895 88.3193 27.7565C88.498 27.8235 88.714 27.8868 88.9672 27.9464C89.198 27.9985 89.4326 28.0618 89.6709 28.1363C89.9092 28.2107 90.1288 28.3075 90.3299 28.4267C90.5309 28.5458 90.691 28.7059 90.8102 28.907C90.9368 29.1006 91.0001 29.3538 91.0001 29.6665C91.0001 30.0091 90.9144 30.3106 90.7432 30.5713C90.5719 30.8319 90.3299 31.0329 90.0171 31.1744C89.7044 31.3159 89.3358 31.3867 88.9113 31.3867Z" fill="white"/>
<mask id="mask0_508_6358" style="mask-type:luminance" maskUnits="userSpaceOnUse" x="0" y="5" width="20" height="27">
<path d="M19.5106 23.593C18.6847 25.2064 16.9507 24.8701 16.4089 23.7869L13.1468 17.4243L11.9724 15.1345L10.1337 11.5477C9.06985 9.50725 9.86165 6.99162 11.9021 5.9276C12.5373 5.59652 13.2193 5.44501 13.8888 5.4556H4.22765C3.55822 5.44501 2.87628 5.59652 2.24108 5.9276C0.200613 6.99162 -0.591051 9.50725 0.472836 11.5477L9.37316 28.9102C10.9238 31.9035 15.2054 31.9035 16.756 28.9102L19.5106 23.593Z" fill="white"/>
</mask>
<g mask="url(#mask0_508_6358)">
<path d="M19.5106 23.593C18.6847 25.2064 16.9507 24.8701 16.4089 23.7869L13.1468 17.4243L11.9724 15.1345L10.1337 11.5477C9.06985 9.50725 9.86165 6.99162 11.9021 5.9276C12.5373 5.59652 13.2193 5.44501 13.8888 5.4556H4.22765C3.55822 5.44501 2.87628 5.59652 2.24108 5.9276C0.200613 6.99162 -0.591051 9.50725 0.472836 11.5477L9.37316 28.9102C10.9238 31.9035 15.2054 31.9035 16.756 28.9102L19.5106 23.593Z" fill="url(#paint1_linear_508_6358)"/>
</g>
<mask id="mask1_508_6358" style="mask-type:luminance" maskUnits="userSpaceOnUse" x="9" y="5" width="12" height="11">
<path d="M11.954 15.1345L19.6071 15.1307C20.3456 15.1304 20.8261 14.3544 20.4968 13.6934L17.5034 7.69611C16.7712 6.29098 15.3504 5.47814 13.8704 5.4556C13.2009 5.44501 12.5189 5.59652 11.8837 5.9276C9.84325 6.99162 9.05145 9.50725 10.1153 11.5477L11.954 15.1345Z" fill="white"/>
</mask>
<g mask="url(#mask1_508_6358)">
<path d="M11.954 15.1345L19.6071 15.1307C20.3456 15.1304 20.8261 14.3544 20.4968 13.6934L17.5034 7.69611C16.7712 6.29098 15.3504 5.47814 13.8704 5.4556C13.2009 5.44501 12.5189 5.59652 11.8837 5.9276C9.84325 6.99162 9.05145 9.50725 10.1153 11.5477L11.954 15.1345Z" fill="url(#paint2_linear_508_6358)"/>
</g>
<circle cx="24.9061" cy="3.91575" r="3.91575" fill="url(#paint3_linear_508_6358)"/>
<defs>
<linearGradient id="paint0_linear_508_6358" x1="21.9561" y1="0.794574" x2="14.5832" y2="22.2449" gradientUnits="userSpaceOnUse">
<stop stop-color="#30C2DD"/>
<stop offset="0.9999" stop-color="#093B9E"/>
</linearGradient>
<linearGradient id="paint1_linear_508_6358" x1="9.75524" y1="5.38919" x2="9.75524" y2="31.0349" gradientUnits="userSpaceOnUse">
<stop stop-color="#3F6FEA"/>
<stop offset="0.34375" stop-color="#2D6EEC"/>
<stop offset="0.697917" stop-color="#2CCFD9"/>
</linearGradient>
<linearGradient id="paint2_linear_508_6358" x1="19.2482" y1="13.7466" x2="9.73715" y2="8.19852" gradientUnits="userSpaceOnUse">
<stop stop-color="#2ADDE9"/>
<stop offset="1" stop-color="#07349A"/>
</linearGradient>
<linearGradient id="paint3_linear_508_6358" x1="22.284" y1="1.76852" x2="22.5809" y2="7.26264" gradientUnits="userSpaceOnUse">
<stop stop-color="#30C2DD"/>
<stop offset="0.9999" stop-color="#093B9E"/>
</linearGradient>
</defs>
</svg>
