<svg width="606" height="574" viewBox="0 0 606 574" fill="none" xmlns="http://www.w3.org/2000/svg">
<path d="M605.403 374.425L579.684 389.369L576.82 391.03L511.262 429.109L508.398 430.77L441.313 469.739L438.445 471.4L373.116 509.348L370.255 511.013L304.671 549.105L301.81 550.769L262.474 573.617L204.796 539.798L201.948 538.127L136.923 499.999L134.072 498.328L67.3007 459.18L64.4529 457.506L-4.76837e-07 419.717L38.0479 397.665L40.9153 396.003L106.568 357.954L109.436 356.292L174.837 318.39L177.704 316.725L244.861 277.803L247.728 276.142L313.358 238.105L316.226 236.444L342.932 220.967L407.211 258.549L410.066 260.22L476.931 299.313L479.786 300.98L544.902 339.056L547.757 340.721L605.403 374.425Z" fill="url(#paint0_linear_784_1613)"/>
<path d="M342.856 203.515L0.00327229 388.78L0.00980783 402.413L262.549 556.198L605.393 356.862L605.386 343.232L342.856 203.515Z" fill="url(#paint1_linear_784_1613)"/>
<path d="M605.403 343.36L579.684 358.304L576.82 359.965L511.262 398.044L508.398 399.705L441.313 438.674L438.445 440.335L373.116 478.283L370.255 479.948L304.671 518.04L301.81 519.704L262.474 542.552L204.796 508.733L201.948 507.062L136.923 468.934L134.072 467.263L67.3007 428.115L64.4529 426.441L-4.76837e-07 388.652L38.0479 366.6L40.9153 364.938L106.568 326.889L109.436 325.228L174.837 287.325L177.704 285.661L244.861 246.738L247.728 245.077L313.358 207.04L316.226 205.379L342.932 189.902L407.211 227.484L410.066 229.155L476.931 268.248L479.786 269.915L544.902 307.991L547.757 309.656L605.403 343.36Z" fill="#F6F5FB"/>
<path d="M521.816 324.711L547.757 309.669L544.903 308.005L518.955 323.047L453.6 285.115L479.786 269.912L476.932 268.245L450.739 283.45L383.628 244.501L410.066 229.155L407.211 227.484L380.764 242.837L316.226 205.379L313.358 207.04L377.89 244.501L312.319 282.567L247.728 245.077L244.861 246.738L309.455 284.238L242.347 323.184L177.704 285.661L174.837 287.325L239.483 324.845L174.131 362.777L109.436 325.228L106.568 326.889L171.253 364.442L105.663 402.524L40.9252 364.939L38.0577 366.6L102.795 404.185L64.4529 426.441L67.3007 428.115L105.663 405.85L172.77 444.795L134.072 467.257L136.923 468.928L175.635 446.46L240.987 484.392L201.948 507.056L204.796 508.727L243.838 486.059L301.797 519.704L304.658 518.04L246.699 484.398L312.306 446.316L370.242 479.948L373.103 478.283L315.17 444.655L380.522 406.723L438.432 440.338L441.3 438.677L383.386 405.061L450.497 366.106L508.385 399.708L511.249 398.047L453.358 364.445L518.942 326.379L576.813 359.968L579.674 358.307L521.816 324.711ZM380.764 246.162L447.875 285.118L382.294 323.184L315.183 284.238L380.764 246.162ZM312.319 285.89L379.427 324.845L312.319 363.797L245.208 324.845L312.319 285.89ZM242.35 326.506L309.458 365.462L244.102 403.394L176.991 364.442L242.35 326.506ZM108.527 404.185L174.131 366.103L241.238 405.058L175.635 443.141L108.527 404.185ZM243.838 482.727L178.495 444.795L244.099 406.713L309.455 444.645L243.838 482.727ZM312.306 442.98L246.954 405.048L312.306 367.116L377.658 405.048L312.306 442.98ZM380.522 403.384L315.17 365.452L382.281 326.496L447.63 364.428L380.522 403.384ZM450.491 362.767L385.135 324.835L450.719 286.769L516.071 324.701L450.491 362.767Z" fill="#E8EAF7"/>
<path d="M426.185 411.889C440.181 411.889 451.527 404.847 451.527 396.16C451.527 387.474 440.181 380.432 426.185 380.432C412.188 380.432 400.842 387.474 400.842 396.16C400.842 404.847 412.188 411.889 426.185 411.889Z" fill="#E8EAF7"/>
<path d="M102.674 415.915C124.195 415.915 141.641 405.087 141.641 391.73C141.641 378.373 124.195 367.545 102.674 367.545C81.1535 367.545 63.7075 378.373 63.7075 391.73C63.7075 405.087 81.1535 415.915 102.674 415.915Z" fill="#94CFF1" fill-opacity="0.22"/>
<path d="M256.115 508.253C279.201 508.253 297.916 496.637 297.916 482.308C297.916 467.98 279.201 456.364 256.115 456.364C233.029 456.364 214.313 467.98 214.313 482.308C214.313 496.637 233.029 508.253 256.115 508.253Z" fill="#94CFF1" fill-opacity="0.22"/>
<path d="M379.433 382.731L366.309 390.252L365.962 389.98L326.927 367.417L276.468 331.143L268.359 325.309L220.215 290.693L218.865 271.158L218.662 268.169L215.043 215.774V215.725L213.575 194.388V194.349L205.911 83.0744L205.799 7.28559L220.022 0.49707L380.041 93.6169V94.1172L379.433 382.731Z" fill="#4C7AC5"/>
<path d="M365.884 389.673L364.965 389.473L325.933 366.923L205.221 297.201L204.9 82.5774L204.792 6.78857L365.459 100.121L365.884 389.673Z" fill="url(#paint2_linear_784_1613)"/>
<path d="M356.311 338.919L356.216 134.799C356.214 132.258 355.545 129.762 354.274 127.562C353.004 125.361 351.177 123.533 348.977 122.262L223.128 49.5536C222.184 49.0089 221.112 48.7225 220.022 48.7231C218.931 48.7238 217.86 49.0115 216.916 49.5573C215.972 50.1031 215.189 50.8878 214.644 51.8325C214.099 52.7773 213.813 53.8488 213.813 54.9393L214.114 258.176C214.117 260.707 214.783 263.192 216.045 265.386C217.307 267.579 219.121 269.403 221.307 270.678L347.395 344.05C348.296 344.575 349.32 344.853 350.364 344.856C351.407 344.859 352.433 344.586 353.337 344.066C354.242 343.545 354.993 342.795 355.515 341.892C356.037 340.988 356.312 339.963 356.311 338.919Z" fill="white"/>
<path d="M379.034 93.1165V93.6201L365.315 100.121L204.792 6.78852L219.015 0L379.034 93.1165Z" fill="url(#paint3_linear_784_1613)"/>
<path d="M315.304 80.5403L300.535 71.9468V81.7372L315.31 90.2719L315.304 80.5403Z" fill="white"/>
<path d="M254.389 55.0832L291.119 76.2989V66.466L254.372 45.0835L254.389 55.0832Z" fill="white"/>
<path d="M279.182 203.263V260.42L273.908 263.801L273.63 263.981L268.359 260.933V209.643L273.882 206.386L279.182 203.263Z" fill="#6C9DDA"/>
<path d="M279.182 203.263L273.882 206.386L268.359 209.643L158.126 145.927V139.979L158.616 139.727L164.047 136.948L279.182 203.263Z" fill="#85A9FF"/>
<path d="M273.908 206.402V264.141L273.63 263.98L268.359 260.933L158.126 197.184V139.446L158.616 139.727L273.882 206.386L273.908 206.402Z" fill="#3777C4"/>
<path d="M171.593 175.936L171.103 175.655V182.312L171.593 182.597L260.807 234.191V227.53L171.593 175.936Z" fill="white"/>
<path d="M171.103 188.695V195.353L171.593 195.638L260.807 247.232V240.571L171.593 188.977L171.103 188.695Z" fill="white"/>
<path d="M234.405 193.672L197.508 172.332V178.99L234.405 200.33V193.672Z" fill="white"/>
<path d="M406.24 172.483V229.643L400.97 233.02L400.688 233.2L395.421 230.156V178.863L400.94 175.606L406.24 172.483Z" fill="#3066C8"/>
<path d="M406.24 172.483L400.94 175.605L395.421 178.862L285.185 115.146V109.202L285.678 108.946L291.106 106.167L406.24 172.483Z" fill="#4D86ED"/>
<path d="M400.97 175.625V233.36L400.688 233.2L395.421 230.156L285.185 166.404V108.666L285.678 108.947L400.94 175.606L400.97 175.625Z" fill="#4070EA"/>
<path d="M298.655 145.159L298.165 144.874V151.532L298.655 151.816L387.869 203.41V196.749L298.655 145.159Z" fill="white"/>
<path d="M298.165 157.915V164.576L298.655 164.857L387.869 216.451V209.794L298.655 158.2L298.165 157.915Z" fill="white"/>
<path d="M361.467 162.892L324.566 141.552V148.213L361.467 169.549V162.892Z" fill="white"/>
<path d="M379.034 225.238L379.515 382.953L514.871 303.819L379.034 225.238Z" fill="#3777C4" fill-opacity="0.08"/>
<path d="M221.529 324.737C210.027 324.021 215.781 328.756 215.781 328.756C205.047 335.234 214.909 343.733 225.917 332.991" fill="#FFBD8B"/>
<path d="M249.69 301.429L227.163 318.508L220.156 323.821L225.263 334.815C225.263 334.815 243.802 326.379 261.209 314.747C278.433 303.24 296.193 282.093 288.284 270.19C288.203 270.059 288.115 269.932 288.019 269.808H285.531C267.993 271.318 249.69 301.429 249.69 301.429Z" fill="#94CFF1"/>
<path d="M233.702 474.879C232.041 476.282 215.095 476.21 214.774 483.816C215.206 487.812 238.93 490.974 243.452 489.794C247.974 488.613 248.827 478.813 248.827 478.813L233.702 474.879Z" fill="#0D3885"/>
<path d="M284.887 478.149C287.911 489.087 285.008 490.392 281.052 491.01C277.096 491.628 262.543 484.088 262.35 481.619C262.157 479.15 273.113 477.263 273.113 477.263L284.887 478.149Z" fill="#0D3885"/>
<path d="M259.365 398.662C260.019 400.219 269.141 471.534 269.141 471.534L269.795 479.31C269.795 479.31 279.741 481.727 286.008 480.419V416.212C286.008 416.212 290.674 375.337 288.009 358.006C285.345 340.675 263.795 362.005 263.795 362.005L259.365 398.662Z" fill="#4070EA"/>
<path d="M242.605 338.079L278.845 350.975C273.94 362.594 264.318 375.742 264.318 375.742L252.276 427.278L250.037 478.42C238.525 480.275 234.487 478.865 234.487 478.865C234.487 478.865 230.043 450.204 229.288 419.315C228.65 393.217 237.694 363.444 242.605 338.079Z" fill="#5385F4"/>
<path d="M236.929 358.467C260.032 380.239 285.358 367.796 291.132 358.467C291.132 355.356 291.106 352.336 291.053 349.406C290.514 313.155 287.565 290.631 289.017 287.011C289.676 285.365 290.184 283.662 290.534 281.923C291.008 279.513 291.514 276.992 290.949 274.585C289.353 267.6 282.023 261.158 270.694 266.489C255.183 273.79 239.152 277.155 236.036 289.15C235.35 291.795 234.944 296.079 234.745 301.278C234.029 319.646 235.889 349.445 236.929 358.467Z" fill="#94CFF1"/>
<path d="M243.88 265.851C245.669 269.425 251.155 267.594 253.316 266.698C253.872 266.469 254.209 266.299 254.209 266.299L253.95 271.436L253.761 275.282C253.761 275.282 268.124 282.018 268.124 271.24V261.348C270.732 259.197 272.757 256.425 274.014 253.286C275.271 250.147 275.719 246.743 275.317 243.386C273.97 231.712 255.111 223.181 246.133 234.407C241.186 241.604 242.275 262.656 243.88 265.851Z" fill="#FFBD8B"/>
<g style="mix-blend-mode:multiply">
<path d="M254.209 266.299L253.95 271.436C255.311 270.476 256.457 269.242 257.313 267.814C258.17 266.385 258.718 264.793 258.923 263.14C257.141 264.456 255.268 265.645 253.319 266.698C253.872 266.469 254.209 266.299 254.209 266.299Z" fill="#FFBD8B"/>
</g>
<g style="mix-blend-mode:multiply" opacity="0.46">
<path d="M236.929 358.467C260.032 380.239 285.358 367.797 291.132 358.467C291.132 355.356 291.106 352.336 291.053 349.406C284.75 356.391 269.615 359.723 261.81 352.248C251.371 342.248 260.476 315.81 251.812 296.259L234.752 301.278C234.029 319.646 235.889 349.445 236.929 358.467Z" fill="#94CFF1"/>
</g>
<path d="M243.511 241.64C230.926 225.372 243.367 215.807 254.029 226.706L243.511 241.64Z" fill="#364085"/>
<path d="M225.822 363.562C217.161 370.671 223.602 370.449 223.602 370.449C216.939 385.334 234.487 388.888 234.487 367.117" fill="#FFBD8B"/>
<path d="M232.489 329.126C232.489 329.126 227.784 294.202 240.463 282.005L242.396 280.432C256.478 284.248 256.033 312.239 249.814 332.235C243.596 352.232 234.487 370.449 234.487 370.449L223.602 365.115L232.489 329.126Z" fill="#94CFF1"/>
<path d="M251.962 251.483C251.962 246.993 244.769 244.289 242.533 240.257C240.297 236.225 240.738 229.031 240.738 229.031C240.738 229.031 244.779 228.135 246.126 227.236C247.473 226.336 266.329 217.805 275.31 235.767C284.289 244.298 276.658 258.219 268.117 261.361C268.117 265.851 255.997 264.504 255.549 261.361C255.101 258.219 251.962 251.483 251.962 251.483Z" fill="#364085"/>
<path d="M252.636 257.323C254.993 257.323 256.903 255.412 256.903 253.055C256.903 250.699 254.993 248.788 252.636 248.788C250.28 248.788 248.369 250.699 248.369 253.055C248.369 255.412 250.28 257.323 252.636 257.323Z" fill="#FFBD8B"/>
<path d="M139.156 266.125C145.231 274.17 139.646 272.613 139.646 272.613C142.331 287.034 126.241 286.439 130.819 267.404" fill="#FFBD8B"/>
<path d="M113.336 186.554C134.811 191.524 142.004 267.447 142.004 267.447C142.004 267.447 132.215 270.446 129.416 269.648L120.827 231.683" fill="#0D3885"/>
<path d="M112.241 375.909L102.105 378.336C98.0837 379.666 100.493 388.571 100.493 388.571L102.583 390.023C102.583 390.023 119.584 402.193 124.953 398.198C130.322 394.202 124.319 385.513 112.241 375.909Z" fill="#2C2B2B"/>
<path d="M91.201 387.076L81.9939 388.25C78.2961 389.045 79.5745 397.174 79.5745 397.174L81.2877 398.662C81.2877 398.662 95.1899 411.088 100.339 408.06C105.489 405.032 100.984 396.759 91.201 387.076Z" fill="#2C2B2B"/>
<path d="M123.881 270.991L114.297 378.846C114.297 378.846 106.879 383.904 97.5279 379.437L93.8954 276.805L123.881 270.991Z" fill="#263136"/>
<path d="M79.9213 281.331C79.9736 290.814 78.4728 389.526 78.4728 389.526C89.2624 394.323 94.4545 388.728 94.4545 388.728C94.4545 388.728 100.559 336.434 103.246 326.791C106.643 314.6 116.432 293.623 122.625 268.385L79.9213 281.331Z" fill="#354045"/>
<path d="M125.022 275.239C125.022 275.239 108.841 290.026 81.6672 286.828C80.7386 276.178 80.6569 269.66 80.2613 262.892C79.9459 257.258 79.3479 251.644 78.4696 246.071C76.073 230.486 66.6828 214.502 68.6805 211.703C70.6422 208.976 72.0351 194.274 105.627 187.06C106.472 186.877 107.339 186.699 108.226 186.527C120.614 184.13 122.612 198.116 125.009 214.1C127.405 230.084 125.022 275.239 125.022 275.239Z" fill="#94CFF1"/>
<path d="M127.618 278.025C123.822 281.021 116.632 283.421 116.632 283.421C116.632 283.421 118.103 256.904 114.768 230.872C112.61 214.028 108.435 197.384 100.549 188.257C100.549 188.257 102.128 187.309 105.564 186.783C108.138 186.414 110.745 186.332 113.336 186.541C113.336 186.541 136.808 186.528 127.618 278.025Z" fill="#0D3885"/>
<path d="M106.241 287.028C103.466 288.025 100.626 288.831 97.7404 289.441C92.1821 290.641 84.806 291.514 78.4826 289.827C78.2832 254.063 78.4826 246.071 78.4826 246.071L74.6703 222.377L71.8912 205.111C71.8912 205.111 78.1361 195.536 88.9256 191.903C89.7169 191.635 90.531 191.4 91.3713 191.204C98.0902 200.324 101.84 216.618 103.9 233.226C107.225 259.74 106.241 287.028 106.241 287.028Z" fill="#0D3885"/>
<path d="M103.9 233.226C94.9776 226.46 89.8411 214.316 89.8411 214.316L92.2377 208.92H88.0625C88.0625 208.92 86.5552 204.695 88.9158 191.916C89.7071 191.648 90.5212 191.413 91.3615 191.216C98.0902 200.323 101.84 216.618 103.9 233.226Z" fill="#E8EAF7"/>
<path d="M114.768 230.885C112.61 214.041 108.435 197.397 100.549 188.27C100.549 188.27 102.128 187.322 105.564 186.795C114.67 196.684 115.651 201.183 115.651 201.183L112.074 203.41L116.979 206.739C116.979 206.739 119.13 220.316 114.768 230.885Z" fill="#E8EAF7"/>
<g style="mix-blend-mode:multiply" opacity="0.31">
<path d="M97.7307 289.441C92.1724 290.641 84.7963 291.514 78.473 289.827C78.2735 254.063 78.473 246.071 78.473 246.071L74.6606 222.376L83.4689 222.095C88.6642 241.875 81.6706 251.264 83.4689 269.837C84.5642 281.181 92.0547 286.792 97.7307 289.441Z" fill="#5385F4"/>
</g>
<path d="M76.0272 284.506C82.1021 292.551 76.5176 290.997 76.5176 290.997C79.202 305.415 63.1124 304.82 67.6898 285.785" fill="#FFBD8B"/>
<path d="M77.8745 284.83C71.2831 288.427 66.2872 286.628 66.2872 286.628C66.2872 286.628 57.8975 228.687 71.6819 205.104L73.3167 205.836C76.7498 207.386 79.3589 211.068 81.4907 214.093C86.104 220.633 85.2866 229.462 85.2866 229.462C85.2866 229.462 79.0941 242.451 78.0936 246.247C78.0707 253.863 77.8745 284.83 77.8745 284.83Z" fill="#0D3885"/>
<path d="M105.535 199.107C98.6362 203.289 90.276 192.416 90.276 192.416L91.3222 180.082L92.12 180.393L103.655 184.889V190.121C103.655 190.121 104.077 190.484 104.636 191.076C106.352 192.874 109.338 196.802 105.535 199.107Z" fill="#FFBD8B"/>
<g style="mix-blend-mode:multiply">
<path d="M104.639 191.072C102.024 196.089 94.4774 192.933 91.525 181.128L92.1168 180.393L103.652 184.889V190.121C103.652 190.121 104.074 190.481 104.639 191.072Z" fill="#FFBD8B"/>
</g>
<path d="M110.701 160.658C110.701 160.658 115.674 186.916 100.814 188.98C84.6294 191.229 84.6294 166.502 84.6294 166.502L99.9146 156.613L106.205 155.263L110.701 160.658Z" fill="#FFBD8B"/>
<path d="M109.57 162.885C112.231 165.792 111.499 168.3 111.499 168.3C111.499 168.3 115.645 167.401 114.297 157.509C112.051 142.673 89.3049 144.292 84.6948 153.896C78.0347 161.584 84.6294 173.693 84.6294 173.693L92.0939 175.135C92.0939 175.135 94.1733 173.752 93.9183 169.651C94.2582 167.648 95.3017 165.832 96.8609 164.53C99.4242 162.483 103.322 164.7 109.57 162.885Z" fill="#0F183F"/>
<path d="M90.5506 178.879C92.7438 177.983 93.7953 175.478 92.8992 173.285C92.003 171.091 89.4986 170.039 87.3054 170.936C85.1122 171.832 84.0607 174.337 84.9569 176.53C85.853 178.724 88.3574 179.775 90.5506 178.879Z" fill="#FFBD8B"/>
<path d="M111.463 168.248C123.756 163.634 119.66 147.242 113.127 144.806C106.594 142.369 101.357 147.369 106.467 152.363C111.577 157.356 109.785 161.074 109.785 161.074" fill="#0F183F"/>
<path d="M340.986 261.603C340.986 246.329 330.197 227.716 316.89 220.032C310.471 216.327 304.642 215.839 300.323 218.04V218.017L296.586 220.1L298.322 223.079C297.455 225.682 297.033 228.413 297.076 231.156C297.076 246.43 307.866 265.04 321.173 272.724C323.584 274.169 326.225 275.192 328.98 275.749L330.749 278.787L333.25 277.443C338.001 275.144 340.986 269.634 340.986 261.603Z" fill="#2ED4E2"/>
<path d="M330.677 278.856C340.029 273.388 339.934 255.822 330.464 239.622C320.995 223.421 305.737 214.72 296.385 220.188C287.033 225.655 287.129 243.221 296.598 259.422C306.067 275.623 321.325 284.323 330.677 278.856Z" fill="#30C2DD"/>
<path d="M328.162 274.553C336.142 269.888 336.061 254.899 327.98 241.074C319.9 227.249 306.88 219.824 298.9 224.49C290.92 229.156 291.001 244.145 299.082 257.97C307.163 271.794 320.182 279.219 328.162 274.553Z" fill="white"/>
<path d="M274.16 134.966C274.16 119.692 263.37 101.082 250.063 93.3944C243.645 89.6895 237.815 89.2023 233.496 91.403V91.3801L229.759 93.4631L231.495 96.4421C230.628 99.045 230.207 101.776 230.249 104.519C230.249 119.793 241.039 138.403 254.346 146.087C256.758 147.532 259.398 148.555 262.154 149.112L263.923 152.15L266.398 150.822C271.174 148.507 274.16 142.997 274.16 134.966Z" fill="#4D86ED"/>
<path d="M263.851 152.218C273.203 146.75 273.107 129.185 263.638 112.984C254.169 96.7832 238.911 88.0824 229.559 93.5501C220.207 99.0178 220.302 116.583 229.772 132.784C239.241 148.985 254.499 157.686 263.851 152.218Z" fill="#2ED4E2"/>
<path d="M261.336 147.915C269.316 143.25 269.235 128.26 261.154 114.436C253.073 100.611 240.054 93.1863 232.074 97.8519C224.094 102.518 224.175 117.507 232.256 131.331C240.336 145.156 253.356 152.581 261.336 147.915Z" fill="white"/>
<path d="M447.858 341.79L443.183 376.452L443.131 376.861L443.085 377.188L439.985 400.137L439.41 404.388V404.466L439.394 404.577H439.191C433.407 409.381 425.014 412.399 415.673 412.399C406.332 412.399 397.942 409.381 392.158 404.577H392.008V404.443L391.969 404.116L391.923 403.734L388.826 377.142L388.774 376.717V376.573L384.684 341.79H447.858Z" fill="#3777C4"/>
<path d="M416.274 365.275C433.721 365.275 447.865 354.742 447.865 341.748C447.865 328.754 433.721 318.22 416.274 318.22C398.828 318.22 384.684 328.754 384.684 341.748C384.684 354.742 398.828 365.275 416.274 365.275Z" fill="#F4BBC4"/>
<path d="M416.739 358.461C430.21 358.461 441.13 350.328 441.13 340.296C441.13 330.264 430.21 322.131 416.739 322.131C403.268 322.131 392.348 330.264 392.348 340.296C392.348 350.328 403.268 358.461 416.739 358.461Z" fill="#364085"/>
<path d="M415.303 331.653C427.401 331.653 437.458 338.226 439.364 346.839C440.516 344.757 441.125 342.417 441.133 340.037C441.133 330.005 430.216 321.873 416.745 321.873C403.275 321.873 392.354 330.005 392.354 340.037C392.354 341.039 392.464 342.038 392.681 343.016C396.297 336.342 405.063 331.653 415.303 331.653Z" fill="#4346A3"/>
<path d="M506.482 307.782C499.913 296.151 491.811 288.329 483.114 283.493L478.187 287.302L480.584 282.175C466.495 275.347 451.108 275.962 438.243 280.733L436.114 286.184L434.623 282.211C412.884 291.926 400.097 313.452 417.128 328.645H418.23C429.314 330.567 437.239 327.275 444.576 322.513L438.161 320.627L447.989 320.188C459.318 312.148 470.193 301.948 490.536 304.08L488.051 300.156L494.263 304.607C498.415 305.333 502.502 306.395 506.482 307.782Z" fill="#3CEBCE"/>
<path d="M415.264 342.042H415.245C415.196 342.039 415.148 342.026 415.104 342.005C415.059 341.983 415.02 341.953 414.988 341.917C414.955 341.88 414.93 341.837 414.914 341.791C414.898 341.744 414.892 341.695 414.895 341.646C415.997 323.007 422.258 309.378 433.508 301.098C452.737 286.955 480.234 293.577 480.508 293.639C480.556 293.651 480.601 293.672 480.64 293.7C480.68 293.729 480.713 293.766 480.739 293.808C480.764 293.85 480.78 293.897 480.788 293.945C480.795 293.994 480.792 294.043 480.78 294.09C480.755 294.186 480.694 294.268 480.61 294.318C480.525 294.369 480.424 294.385 480.329 294.362C480.057 294.293 452.89 287.766 433.946 301.7C422.886 309.839 416.726 323.282 415.637 341.685C415.632 341.781 415.591 341.871 415.521 341.937C415.452 342.004 415.36 342.041 415.264 342.042Z" fill="#364085"/>
<path d="M396.739 290.778L395.248 294.107L394.404 289.032C384.651 282.273 372.171 279.847 361.029 282.24L363.595 287.512L357.847 283.068C346.329 286.609 336.785 295.661 334.137 310.817C338.538 313.198 343.119 315.23 347.839 316.893L357.439 313.894L352.24 318.351C362.771 321.582 373.237 323.057 382.369 323.612L397.448 318.292L389.601 323.884C402.513 324.057 411.354 322.576 411.354 322.576C411.413 308.499 405.42 297.77 396.739 290.778Z" fill="#2ED4E2"/>
<path d="M416.353 339.403C416.251 339.403 416.153 339.368 416.074 339.303C415.996 339.239 415.942 339.149 415.921 339.05C412.07 319.927 404.053 307.354 392.086 301.674C372.936 292.583 349.961 304.493 349.729 304.617C349.627 304.668 349.508 304.677 349.399 304.642C349.29 304.607 349.199 304.531 349.145 304.43C349.092 304.328 349.08 304.21 349.113 304.1C349.146 303.99 349.22 303.897 349.32 303.842C349.553 303.718 372.904 291.602 392.459 300.879C404.69 306.683 412.874 319.469 416.785 338.88C416.807 338.994 416.783 339.113 416.718 339.21C416.653 339.306 416.552 339.374 416.438 339.397L416.353 339.403Z" fill="#364085"/>
<path d="M448.839 319.473L448.231 322.089L450.997 319.473C459.76 319.855 468.198 324.008 473.685 330.398L469.82 332.36L475.189 332.314C480.391 339.55 481.963 349.145 476.748 359.252C473.09 358.689 469.483 357.837 465.959 356.705L461.646 350.646L462.715 355.593C455.633 352.937 448.888 349.455 442.621 345.221L436.121 335.345L438.23 342.14C430.549 336.47 426.008 331.64 426.008 331.64C432.292 323.341 440.62 319.702 448.839 319.473Z" fill="#2ED4E2"/>
<path d="M415.572 339.331C415.63 339.378 415.702 339.403 415.776 339.403C415.85 339.403 415.922 339.378 415.98 339.331C426.796 329.793 437.141 325.973 446.714 327.981C462.055 331.192 470.255 348.477 470.34 348.651C470.354 348.695 470.377 348.736 470.408 348.771C470.439 348.806 470.477 348.834 470.519 348.853C470.562 348.872 470.608 348.882 470.655 348.881C470.701 348.881 470.747 348.871 470.789 348.851C470.832 348.832 470.869 348.804 470.9 348.768C470.93 348.733 470.953 348.692 470.966 348.647C470.979 348.602 470.983 348.555 470.976 348.509C470.97 348.463 470.954 348.419 470.929 348.379C470.847 348.199 462.513 330.626 446.848 327.343C437.04 325.293 426.518 329.161 415.539 338.844C415.475 338.901 415.436 338.981 415.43 339.067C415.425 339.152 415.453 339.237 415.509 339.302C415.528 339.315 415.549 339.325 415.572 339.331Z" fill="#364085"/>
<path d="M379.335 331.686L380.872 333.903L377.337 332.5C369.337 336.097 363.033 343.075 360.296 351.041L364.612 351.43L359.606 353.373C357.452 362.018 359.538 371.518 368.107 378.98C371.296 377.103 374.332 374.977 377.187 372.623L378.952 365.4L379.789 370.393C385.385 365.303 390.364 359.574 394.623 353.323L397.01 341.741L397.563 348.834C402.601 340.727 405.037 334.56 405.037 334.56C396.154 329.158 387.071 328.857 379.335 331.686Z" fill="#3CEBCE"/>
<path d="M417.602 337.827C417.563 337.891 417.504 337.94 417.434 337.965C417.364 337.991 417.287 337.992 417.216 337.967C403.638 333.105 392.616 333.389 384.452 338.791C371.374 347.447 370.154 366.544 370.144 366.737C370.139 366.824 370.1 366.905 370.035 366.962C369.97 367.02 369.884 367.049 369.798 367.044C369.711 367.039 369.63 367 369.572 366.935C369.515 366.87 369.485 366.784 369.49 366.698C369.49 366.505 370.746 347.078 384.082 338.249C392.43 332.716 403.647 332.415 417.432 337.349C417.513 337.379 417.58 337.44 417.617 337.518C417.653 337.596 417.658 337.686 417.628 337.768C417.622 337.788 417.613 337.808 417.602 337.827Z" fill="#364085"/>
<path d="M409.317 358.31L404.808 361.318C403.48 367.82 404.021 374.565 406.368 380.772L411.517 377.217L407.803 384.153C410.68 390.13 415.467 396.399 422.948 402.723C426.328 397.648 430.34 391.448 433.064 384.754L429.981 379.849L434.401 381.089C437.278 372.129 437.363 362.522 430.357 353.696L424.265 351.708C424.265 351.708 426.057 351.44 428.101 351.145C424.831 347.797 420.476 344.586 414.728 341.594C410.432 346.467 407.275 352.237 405.488 358.483L409.317 358.31Z" fill="#3CEBCE"/>
<path d="M422.51 380.298H422.461C422.403 380.292 422.348 380.274 422.297 380.247C422.246 380.219 422.202 380.182 422.165 380.137C422.129 380.092 422.102 380.04 422.086 379.985C422.07 379.929 422.065 379.871 422.071 379.814C423.533 365.91 417.494 350.083 413.898 340.626C411.543 334.456 410.84 332.474 411.753 331.856C412.407 331.421 413.407 331.987 415.621 334.027C415.664 334.066 415.698 334.113 415.723 334.166C415.748 334.219 415.762 334.275 415.765 334.333C415.767 334.391 415.759 334.449 415.739 334.504C415.719 334.559 415.689 334.609 415.65 334.652C415.611 334.695 415.564 334.73 415.511 334.754C415.459 334.779 415.402 334.793 415.344 334.796C415.286 334.799 415.228 334.79 415.173 334.77C415.119 334.751 415.068 334.72 415.026 334.681C413.093 332.902 412.446 332.641 412.256 332.611C412.05 333.321 413.407 336.862 414.718 340.319C418.357 349.848 424.442 365.799 422.957 379.912C422.944 380.021 422.891 380.12 422.808 380.192C422.726 380.263 422.619 380.301 422.51 380.298Z" fill="#364085"/>
<defs>
<linearGradient id="paint0_linear_784_1613" x1="233" y1="810" x2="303" y2="325" gradientUnits="userSpaceOnUse">
<stop stop-color="#E6E6E6"/>
<stop offset="1" stop-color="#E6E6E6" stop-opacity="0"/>
</linearGradient>
<linearGradient id="paint1_linear_784_1613" x1="534" y1="380" x2="138.449" y2="230.525" gradientUnits="userSpaceOnUse">
<stop stop-color="#548ED2"/>
<stop offset="1" stop-color="#3541A0"/>
</linearGradient>
<linearGradient id="paint2_linear_784_1613" x1="204.792" y1="27.6732" x2="437.472" y2="117.658" gradientUnits="userSpaceOnUse">
<stop stop-color="#548ED2"/>
<stop offset="1" stop-color="#3541A0"/>
</linearGradient>
<linearGradient id="paint3_linear_784_1613" x1="204.792" y1="5.46114" x2="286.084" y2="135.502" gradientUnits="userSpaceOnUse">
<stop stop-color="#548ED2"/>
<stop offset="1" stop-color="#3541A0"/>
</linearGradient>
</defs>
</svg>
