<svg width="20" height="21" viewBox="0 0 20 21" fill="none" xmlns="http://www.w3.org/2000/svg">
<path fill-rule="evenodd" clip-rule="evenodd" d="M5.13335 3.99805C4.77833 3.99805 4.40378 4.14319 4.01308 4.52715L4.00783 4.53231L4.00246 4.53735C3.66691 4.85192 3.43761 5.19221 3.28973 5.56073C3.14442 5.93545 3.06665 6.3491 3.06665 6.7814C3.06665 7.4561 3.22602 8.18945 3.55866 8.9872C3.90457 9.7883 4.3717 10.5978 4.96503 11.4238C5.56065 12.2447 6.2386 13.0361 6.99195 13.7978C7.75175 14.5493 8.54375 15.22 9.3849 15.8347C10.2088 16.4346 11.0256 16.9014 11.8435 17.2474C12.6502 17.5887 13.3837 17.748 14.05 17.748C14.5015 17.748 14.9084 17.6694 15.2718 17.5147L15.2781 17.512L15.2845 17.5094C15.6449 17.3652 15.9757 17.1331 16.285 16.7888C16.4536 16.6007 16.5826 16.3935 16.6993 16.1602C16.7632 16.0325 16.8011 15.8978 16.8167 15.7651V15.623C16.8167 15.5102 16.7964 15.4075 16.7479 15.2802C16.7192 15.219 16.6645 15.1482 16.5514 15.0694L16.5471 15.0665L14.0685 13.3114C13.909 13.203 13.7767 13.1302 13.6678 13.0866C13.5536 13.0409 13.4836 13.0314 13.4417 13.0314C13.3765 13.0314 13.3226 13.0433 13.2373 13.0961L13.208 13.1142L13.177 13.129C13.0972 13.167 12.9818 13.2501 12.8086 13.4233L12.8021 13.4298L12.2296 13.9856C12.0264 14.1868 11.7676 14.2897 11.4833 14.2897C11.3644 14.2897 11.2228 14.2769 11.0694 14.2157C11.018 14.1971 10.9764 14.1776 10.953 14.1664L10.9242 14.1526C10.9235 14.1523 10.923 14.1521 10.9226 14.1518L10.8945 14.1406L10.8642 14.1245C10.5614 13.963 10.1988 13.7081 9.7866 13.3573C9.3798 13.0111 8.97675 12.6335 8.5626 12.2278L8.55795 12.2233L8.5534 12.2186C8.15225 11.8089 7.78575 11.4083 7.43735 11.0089L7.4323 11.0031C7.09155 10.6027 6.8227 10.2447 6.65685 9.93385L6.64075 9.9036L6.628 9.87185C6.61865 9.84845 6.6084 9.8209 6.60155 9.8024C6.5998 9.7978 6.5983 9.79375 6.5971 9.79045C6.589 9.76885 6.58245 9.7521 6.5755 9.7359L6.56985 9.72265L6.56475 9.70915C6.4996 9.53535 6.49985 9.39065 6.49995 9.3227C6.49995 9.3199 6.5 9.31725 6.5 9.3147C6.5 9.06555 6.57755 8.79715 6.7959 8.5766L7.36645 7.98955C7.5227 7.82565 7.62605 7.69275 7.6907 7.57965L7.69615 7.5701L7.7019 7.56075C7.7532 7.4779 7.76665 7.4159 7.76665 7.3564C7.76665 7.3282 7.7559 7.256 7.7073 7.1406L7.70295 7.1302C7.66225 7.02845 7.59355 6.9074 7.472 6.7325L5.72855 4.27998C5.6669 4.19136 5.5828 4.12321 5.472 4.07022C5.3735 4.02311 5.2588 3.99805 5.13335 3.99805ZM17.972 14.998H18.075V15.623C18.075 15.9795 17.9972 16.3595 17.8174 16.7192C17.6674 17.019 17.4799 17.3285 17.2153 17.6236C16.7928 18.0941 16.3088 18.4448 15.7552 18.6674C15.2204 18.8941 14.6462 18.998 14.05 18.998C13.183 18.998 12.2831 18.7907 11.3565 18.3986C10.4411 18.0114 9.54145 17.4949 8.64875 16.8449L8.6479 16.8443C7.7568 16.1931 6.91635 15.4814 6.1104 14.684L6.10565 14.6793C5.3103 13.8754 4.58935 13.0346 3.95244 12.1567L3.95074 12.1544C3.312 11.2653 2.79655 10.3763 2.40943 9.47895L2.40652 9.4722C2.02345 8.5546 1.81665 7.6557 1.81665 6.7814C1.81665 6.19805 1.92184 5.62939 2.12582 5.10486L2.128 5.09926C2.34599 4.55428 2.68134 4.06384 3.14221 3.63043C3.71702 3.06762 4.39061 2.74805 5.13335 2.74805C5.4245 2.74805 5.7265 2.80633 6.01135 2.94255C6.283 3.07247 6.54795 3.27013 6.7527 3.56325L8.4964 6.0161C8.63935 6.2216 8.7692 6.43165 8.8615 6.66065C8.9453 6.86095 9.01665 7.1034 9.01665 7.3564C9.01665 7.65985 8.9322 7.94465 8.7706 8.20915C8.63615 8.44195 8.4589 8.6554 8.26875 8.8546L8.2649 8.85865L7.7726 9.36515C7.77425 9.3696 7.7757 9.37355 7.777 9.37705C7.88215 9.5643 8.075 9.8294 8.3818 10.1901C8.71465 10.5715 9.06255 10.9517 9.442 11.3395C9.84285 11.732 10.2217 12.0862 10.5968 12.4054C10.9545 12.7099 11.2344 12.9021 11.4307 13.0098C11.4329 13.0108 11.4351 13.0117 11.4372 13.0127L11.9281 12.536C12.1291 12.3354 12.3525 12.1441 12.6081 12.0158C12.8643 11.8632 13.135 11.7814 13.4417 11.7814C13.6831 11.7814 13.913 11.8384 14.1321 11.9261C14.3555 12.0154 14.5718 12.1417 14.7771 12.2816L14.7862 12.2879L17.2652 14.0433C17.266 14.0438 17.2668 14.0444 17.2675 14.0449C17.5313 14.2289 17.7593 14.4712 17.8981 14.7905L17.9028 14.8011L17.907 14.8119C17.931 14.8732 17.9528 14.9351 17.972 14.998Z" fill="white"/>
</svg>
