<svg width="48" height="48" viewBox="0 0 48 48" fill="none" xmlns="http://www.w3.org/2000/svg">
<g clip-path="url(#clip0_437_190)">
<path d="M35.1341 34.7695C34.3057 34.7695 33.6341 35.4411 33.6341 36.2695V37.3844H6.75244V5.94375C6.75244 4.32056 8.073 3 9.69619 3H30.6904C32.3135 3 33.634 4.32056 33.634 5.94375C33.634 6.77212 34.3056 7.44375 35.134 7.44375C35.9625 7.44375 36.634 6.77212 36.634 5.94375C36.634 2.66634 33.9678 0 30.6904 0H9.69628C6.41888 0 3.75253 2.66634 3.75253 5.94375V42.0563C3.75253 45.3338 6.41888 48.0001 9.69628 48.0001H30.6905C33.9679 48.0001 36.6341 45.3338 36.6341 42.0563V36.2694C36.6341 35.4411 35.9626 34.7695 35.1341 34.7695ZM30.6904 45.0002H9.69628C8.0731 45.0002 6.75253 43.6796 6.75253 42.0564V40.3844H33.6341V42.0564C33.6341 43.6796 32.3136 45.0002 30.6904 45.0002ZM13.5364 6.08559C13.5364 6.91397 12.8648 7.58559 12.0364 7.58559H9.7201C8.89163 7.58559 8.2201 6.91397 8.2201 6.08559C8.2201 5.25722 8.89163 4.58559 9.7201 4.58559H12.0364C12.8648 4.58559 13.5364 5.25713 13.5364 6.08559ZM22.0118 42.692C22.0118 43.5204 21.3403 44.192 20.5118 44.192H19.6764C18.848 44.192 18.1764 43.5204 18.1764 42.692C18.1764 41.8635 18.848 41.192 19.6764 41.192H20.5118C21.3403 41.192 22.0118 41.8635 22.0118 42.692ZM12.0631 24.9392C12.8916 24.9392 13.5631 25.6107 13.5631 26.4392V29.111C13.5631 29.9394 12.8916 30.611 12.0631 30.611C11.2346 30.611 10.5631 29.9394 10.5631 29.111V26.4392C10.5631 25.6107 11.2346 24.9392 12.0631 24.9392ZM16.777 30.611C15.9486 30.611 15.277 29.9394 15.277 29.111V19.6895C15.277 18.8611 15.9486 18.1895 16.777 18.1895C17.6055 18.1895 18.277 18.8611 18.277 19.6895V29.111C18.277 29.9394 17.6055 30.611 16.777 30.611ZM8.42035 33.2825C8.42035 32.454 9.09188 31.7825 9.92035 31.7825H18.9198C19.7483 31.7825 20.4198 32.454 20.4198 33.2825C20.4198 34.1109 19.7483 34.7825 18.9198 34.7825H9.92035C9.09188 34.7825 8.42035 34.1109 8.42035 33.2825ZM32.4584 15.7338C29.6148 15.7338 27.3013 18.0473 27.3013 20.8908C27.3013 23.7343 29.6148 26.0477 32.4584 26.0477C35.3019 26.0477 37.6154 23.7343 37.6154 20.8908C37.6153 18.0473 35.3019 15.7338 32.4584 15.7338ZM32.4584 23.0478C31.2689 23.0478 30.3013 22.0802 30.3013 20.8909C30.3013 19.7015 31.2689 18.7339 32.4584 18.7339C33.6478 18.7339 34.6154 19.7015 34.6154 20.8909C34.6153 22.0802 33.6477 23.0478 32.4584 23.0478ZM42.0716 17.686C41.6048 17.686 41.4151 17.3501 41.3553 17.2056C41.2954 17.0611 41.1919 16.6895 41.522 16.3593C41.9331 15.9484 42.1594 15.4019 42.1594 14.8207C42.1594 14.2393 41.9331 13.6929 41.5221 13.282L40.0669 11.8269C39.2185 10.9787 37.8382 10.9787 36.9898 11.827C36.6596 12.1571 36.2881 12.0536 36.1436 11.9938C35.9992 11.934 35.6632 11.7443 35.6632 11.2775C35.6632 10.0777 34.687 9.10163 33.4872 9.10163H31.4296C30.2298 9.10163 29.2538 10.0778 29.2538 11.2775C29.2538 11.7461 28.9182 11.9357 28.774 11.9954C28.6297 12.0551 28.2584 12.1583 27.9269 11.8269C27.5159 11.416 26.9695 11.1897 26.3884 11.1897C25.8071 11.1897 25.2607 11.4161 24.8498 11.827L23.3948 13.282C22.9838 13.693 22.7574 14.2394 22.7574 14.8208C22.7574 15.402 22.9838 15.9485 23.3948 16.3593C23.7248 16.6895 23.6213 17.0612 23.5614 17.2057C23.5016 17.3501 23.3121 17.6861 22.8451 17.6861C21.6453 17.6861 20.6693 18.6623 20.6693 19.862V21.9197C20.6693 23.1195 21.6453 24.0955 22.8451 24.0955C23.312 24.0955 23.5016 24.4315 23.5614 24.576C23.6213 24.7205 23.7248 25.0921 23.3949 25.4221C22.9838 25.833 22.7574 26.3795 22.7574 26.9608C22.7574 27.5422 22.9838 28.0886 23.3947 28.4993L24.8497 29.9543C25.2606 30.3654 25.807 30.5918 26.3884 30.5918C26.9696 30.5918 27.516 30.3655 27.9271 29.9545C28.2572 29.6243 28.6287 29.7277 28.7733 29.7878C28.9178 29.8477 29.2538 30.0371 29.2538 30.5042C29.2538 31.704 30.2298 32.68 31.4296 32.68H33.4872C34.687 32.68 35.6632 31.704 35.6632 30.5042C35.6632 30.0372 35.9992 29.8477 36.1436 29.7878C36.2881 29.7277 36.6596 29.6245 36.9898 29.9545C37.8382 30.8031 39.2186 30.8033 40.067 29.9545L41.522 28.4995C41.9331 28.0886 42.1595 27.5422 42.1595 26.9608C42.1595 26.3795 41.9331 25.833 41.5222 25.4223C41.192 25.0921 41.2955 24.7204 41.3554 24.576C41.4152 24.4315 41.6048 24.0955 42.0717 24.0955C43.2715 24.0955 44.2477 23.1195 44.2477 21.9197V19.862C44.2476 18.6622 43.2714 17.686 42.0716 17.686ZM41.2476 21.1856C40.0629 21.4488 39.0627 22.2713 38.5837 23.4278C38.1047 24.5843 38.2302 25.8731 38.8819 26.897L38.4647 27.3142C37.4411 26.6628 36.1522 26.5368 34.9957 27.0159C33.839 27.495 33.0165 28.4951 32.7533 29.6798H32.1636C31.9003 28.4951 31.0778 27.495 29.9213 27.0159C28.7648 26.537 27.4759 26.6626 26.4521 27.3142L26.035 26.8971C26.6865 25.8732 26.8122 24.5843 26.3332 23.4278C25.8542 22.2714 24.8539 21.449 23.6693 21.1857V20.5958C24.8539 20.3326 25.8542 19.5101 26.3332 18.3536C26.8121 17.1971 26.6865 15.9082 26.035 14.8844L26.452 14.4674C27.4763 15.1198 28.7656 15.246 29.922 14.767C31.0785 14.2881 31.9008 13.2872 32.1637 12.1015H32.7533C33.0165 13.2862 33.839 14.2864 34.9956 14.7654C36.1519 15.2445 37.4409 15.1188 38.4647 14.4673L38.8819 14.8844C38.2303 15.9082 38.1046 17.197 38.5837 18.3536C39.0627 19.5102 40.0629 20.3327 41.2476 20.5958V21.1856Z" fill="url(#paint0_linear_437_190)"/>
</g>
<defs>
<linearGradient id="paint0_linear_437_190" x1="3.75253" y1="24.0001" x2="44.2477" y2="24.0001" gradientUnits="userSpaceOnUse">
<stop stop-color="#3F6FEA"/>
<stop offset="0.0666667" stop-color="#3F70EA"/>
<stop offset="0.133333" stop-color="#3E72E9"/>
<stop offset="0.2" stop-color="#3D77E9"/>
<stop offset="0.266667" stop-color="#3C7DE7"/>
<stop offset="0.333333" stop-color="#3B85E6"/>
<stop offset="0.4" stop-color="#398FE4"/>
<stop offset="0.466667" stop-color="#3799E2"/>
<stop offset="0.533333" stop-color="#34A4E1"/>
<stop offset="0.6" stop-color="#32AFDF"/>
<stop offset="0.666667" stop-color="#30B8DD"/>
<stop offset="0.733333" stop-color="#2FC1DC"/>
<stop offset="0.8" stop-color="#2EC7DA"/>
<stop offset="0.866667" stop-color="#2DCBDA"/>
<stop offset="0.933333" stop-color="#2CCED9"/>
<stop offset="1" stop-color="#2CCFD9"/>
</linearGradient>
<clipPath id="clip0_437_190">
<rect width="48" height="48" fill="white"/>
</clipPath>
</defs>
</svg>
