<svg width="48" height="48" viewBox="0 0 48 48" fill="none" xmlns="http://www.w3.org/2000/svg">
<g clip-path="url(#clip0_437_3730)">
<path d="M47.2161 34.0114L37.9833 29.4597L47.2216 24.855C48.2319 24.3654 48.257 22.8888 47.2643 22.3651L39.0226 17.8988L47.2215 13.8122C47.7006 13.5734 48.0024 13.0839 47.9998 12.5495C47.9973 12.0152 47.691 11.5285 47.2096 11.2942L24.2995 0.142206C23.9051 -0.0498876 23.4434 -0.0471689 23.0512 0.149144L0.776172 11.3012C0.302547 11.5383 0.00264114 12.0207 1.61434e-05 12.5494C-0.00251511 13.078 0.292797 13.5634 0.764172 13.805L9.22427 18.1421L0.779454 22.3423C0.30461 22.5785 0.00329739 23.061 0.000109893 23.5903C-0.00317136 24.1196 0.292329 24.6058 0.764172 24.8477L9.76033 29.4596L0.769704 34.0183C-0.248328 34.5207 -0.248796 36.0177 0.768297 36.5211L23.0433 47.8468C23.4399 48.0485 23.9084 48.0511 24.307 47.8539L47.2174 36.5282C48.2537 36.0295 48.2526 34.5087 47.2161 34.0114ZM23.6912 2.97064L43.414 12.5711L35.329 16.601C35.3287 16.6011 35.3283 16.6012 35.328 16.6014L23.6914 22.4016L4.51548 12.5709L23.6912 2.97064ZM12.3309 19.7347L23.0392 25.2244C23.438 25.4288 23.9104 25.4314 24.3114 25.2316L35.9511 19.4299L43.5482 23.5468L23.6914 33.4443L4.52355 23.6179L12.3309 19.7347ZM23.6913 45.0246L4.51014 35.2718L12.8495 31.0433L23.0393 36.2672C23.4381 36.4716 23.9105 36.4742 24.3115 36.2744L34.8242 31.0344L43.4196 35.2719L23.6913 45.0246Z" fill="url(#paint0_linear_437_3730)"/>
</g>
<defs>
<linearGradient id="paint0_linear_437_3730" x1="4.08338e-07" y1="24" x2="47.9998" y2="24" gradientUnits="userSpaceOnUse">
<stop stop-color="#3F6FEA"/>
<stop offset="0.0666667" stop-color="#3F70EA"/>
<stop offset="0.133333" stop-color="#3E72E9"/>
<stop offset="0.2" stop-color="#3D77E9"/>
<stop offset="0.266667" stop-color="#3C7DE7"/>
<stop offset="0.333333" stop-color="#3B85E6"/>
<stop offset="0.4" stop-color="#398FE4"/>
<stop offset="0.466667" stop-color="#3799E2"/>
<stop offset="0.533333" stop-color="#34A4E1"/>
<stop offset="0.6" stop-color="#32AFDF"/>
<stop offset="0.666667" stop-color="#30B8DD"/>
<stop offset="0.733333" stop-color="#2FC1DC"/>
<stop offset="0.8" stop-color="#2EC7DA"/>
<stop offset="0.866667" stop-color="#2DCBDA"/>
<stop offset="0.933333" stop-color="#2CCED9"/>
<stop offset="1" stop-color="#2CCFD9"/>
</linearGradient>
<clipPath id="clip0_437_3730">
<rect width="48" height="48" fill="white"/>
</clipPath>
</defs>
</svg>
