<svg width="48" height="48" viewBox="0 0 48 48" fill="none" xmlns="http://www.w3.org/2000/svg">
<path d="M19.3693 24.412L17.5512 22.5938L19.3694 20.7756C19.9186 20.2264 19.9186 19.3361 19.3694 18.7869C18.8203 18.2377 17.9299 18.2377 17.3807 18.7869L14.5682 21.5994C14.019 22.1486 14.019 23.0389 14.5682 23.5881L17.3807 26.4006C17.9298 26.9498 18.8202 26.9499 19.3694 26.4006C19.9186 25.8515 19.9186 24.9611 19.3693 24.412Z" fill="url(#paint0_linear_437_361)"/>
<path d="M30.6193 18.7869C30.0702 18.2377 29.1798 18.2377 28.6306 18.7869C28.0814 19.3361 28.0814 20.2264 28.6306 20.7756L30.4488 22.5937L28.6306 24.4119C28.0814 24.9611 28.0814 25.8514 28.6306 26.4006C29.1797 26.9498 30.0701 26.9499 30.6193 26.4006L33.4318 23.5881C33.981 23.0389 33.981 22.1486 33.4318 21.5994L30.6193 18.7869Z" fill="url(#paint1_linear_437_361)"/>
<path d="M22.2527 29.583C23.0016 29.7702 23.7685 29.3178 23.9579 28.5598L26.7704 17.3098C26.9588 16.5563 26.5007 15.7928 25.7472 15.6045C24.9948 15.4164 24.2302 15.8742 24.042 16.6277L21.2295 27.8777C21.041 28.6311 21.4992 29.3946 22.2527 29.583Z" fill="url(#paint2_linear_437_361)"/>
<path d="M39.4688 4.21875C39.4688 1.89253 37.5762 0 35.25 0H12.75C10.4238 0 8.53125 1.89253 8.53125 4.21875V43.7812C8.53125 46.1075 10.4238 48 12.75 48H35.25C37.5762 48 39.4688 46.1075 39.4688 43.7812V4.21875ZM36.6562 43.7812C36.6562 44.5567 36.0254 45.1875 35.25 45.1875H12.75C11.9746 45.1875 11.3438 44.5567 11.3438 43.7812V4.21875C11.3438 3.44334 11.9746 2.8125 12.75 2.8125H35.25C36.0254 2.8125 36.6562 3.44334 36.6562 4.21875V43.7812Z" fill="url(#paint3_linear_437_361)"/>
<path d="M28.2188 40.9688C28.2188 40.1921 27.5891 39.5625 26.8125 39.5625H21.1875C20.4109 39.5625 19.7812 40.1921 19.7812 40.9688C19.7812 41.7454 20.4109 42.375 21.1875 42.375H26.8125C27.5891 42.375 28.2188 41.7454 28.2188 40.9688Z" fill="url(#paint4_linear_437_361)"/>
<path d="M24 8.4375C24.7767 8.4375 25.4062 7.8079 25.4062 7.03125C25.4062 6.2546 24.7767 5.625 24 5.625C23.2233 5.625 22.5938 6.2546 22.5938 7.03125C22.5938 7.8079 23.2233 8.4375 24 8.4375Z" fill="url(#paint5_linear_437_361)"/>
<defs>
<linearGradient id="paint0_linear_437_361" x1="14.1563" y1="22.5938" x2="19.7813" y2="22.5938" gradientUnits="userSpaceOnUse">
<stop stop-color="#3F6FEA"/>
<stop offset="0.0666667" stop-color="#3F70EA"/>
<stop offset="0.133333" stop-color="#3E72E9"/>
<stop offset="0.2" stop-color="#3D77E9"/>
<stop offset="0.266667" stop-color="#3C7DE7"/>
<stop offset="0.333333" stop-color="#3B85E6"/>
<stop offset="0.4" stop-color="#398FE4"/>
<stop offset="0.466667" stop-color="#3799E2"/>
<stop offset="0.533333" stop-color="#34A4E1"/>
<stop offset="0.6" stop-color="#32AFDF"/>
<stop offset="0.666667" stop-color="#30B8DD"/>
<stop offset="0.733333" stop-color="#2FC1DC"/>
<stop offset="0.8" stop-color="#2EC7DA"/>
<stop offset="0.866667" stop-color="#2DCBDA"/>
<stop offset="0.933333" stop-color="#2CCED9"/>
<stop offset="1" stop-color="#2CCFD9"/>
</linearGradient>
<linearGradient id="paint1_linear_437_361" x1="28.2187" y1="22.5938" x2="33.8437" y2="22.5938" gradientUnits="userSpaceOnUse">
<stop stop-color="#3F6FEA"/>
<stop offset="0.0666667" stop-color="#3F70EA"/>
<stop offset="0.133333" stop-color="#3E72E9"/>
<stop offset="0.2" stop-color="#3D77E9"/>
<stop offset="0.266667" stop-color="#3C7DE7"/>
<stop offset="0.333333" stop-color="#3B85E6"/>
<stop offset="0.4" stop-color="#398FE4"/>
<stop offset="0.466667" stop-color="#3799E2"/>
<stop offset="0.533333" stop-color="#34A4E1"/>
<stop offset="0.6" stop-color="#32AFDF"/>
<stop offset="0.666667" stop-color="#30B8DD"/>
<stop offset="0.733333" stop-color="#2FC1DC"/>
<stop offset="0.8" stop-color="#2EC7DA"/>
<stop offset="0.866667" stop-color="#2DCBDA"/>
<stop offset="0.933333" stop-color="#2CCED9"/>
<stop offset="1" stop-color="#2CCFD9"/>
</linearGradient>
<linearGradient id="paint2_linear_437_361" x1="21.1871" y1="22.5937" x2="26.8127" y2="22.5937" gradientUnits="userSpaceOnUse">
<stop stop-color="#3F6FEA"/>
<stop offset="0.0666667" stop-color="#3F70EA"/>
<stop offset="0.133333" stop-color="#3E72E9"/>
<stop offset="0.2" stop-color="#3D77E9"/>
<stop offset="0.266667" stop-color="#3C7DE7"/>
<stop offset="0.333333" stop-color="#3B85E6"/>
<stop offset="0.4" stop-color="#398FE4"/>
<stop offset="0.466667" stop-color="#3799E2"/>
<stop offset="0.533333" stop-color="#34A4E1"/>
<stop offset="0.6" stop-color="#32AFDF"/>
<stop offset="0.666667" stop-color="#30B8DD"/>
<stop offset="0.733333" stop-color="#2FC1DC"/>
<stop offset="0.8" stop-color="#2EC7DA"/>
<stop offset="0.866667" stop-color="#2DCBDA"/>
<stop offset="0.933333" stop-color="#2CCED9"/>
<stop offset="1" stop-color="#2CCFD9"/>
</linearGradient>
<linearGradient id="paint3_linear_437_361" x1="8.53125" y1="24" x2="39.4688" y2="24" gradientUnits="userSpaceOnUse">
<stop stop-color="#3F6FEA"/>
<stop offset="0.0666667" stop-color="#3F70EA"/>
<stop offset="0.133333" stop-color="#3E72E9"/>
<stop offset="0.2" stop-color="#3D77E9"/>
<stop offset="0.266667" stop-color="#3C7DE7"/>
<stop offset="0.333333" stop-color="#3B85E6"/>
<stop offset="0.4" stop-color="#398FE4"/>
<stop offset="0.466667" stop-color="#3799E2"/>
<stop offset="0.533333" stop-color="#34A4E1"/>
<stop offset="0.6" stop-color="#32AFDF"/>
<stop offset="0.666667" stop-color="#30B8DD"/>
<stop offset="0.733333" stop-color="#2FC1DC"/>
<stop offset="0.8" stop-color="#2EC7DA"/>
<stop offset="0.866667" stop-color="#2DCBDA"/>
<stop offset="0.933333" stop-color="#2CCED9"/>
<stop offset="1" stop-color="#2CCFD9"/>
</linearGradient>
<linearGradient id="paint4_linear_437_361" x1="19.7813" y1="40.9688" x2="28.2188" y2="40.9687" gradientUnits="userSpaceOnUse">
<stop stop-color="#3F6FEA"/>
<stop offset="0.0666667" stop-color="#3F70EA"/>
<stop offset="0.133333" stop-color="#3E72E9"/>
<stop offset="0.2" stop-color="#3D77E9"/>
<stop offset="0.266667" stop-color="#3C7DE7"/>
<stop offset="0.333333" stop-color="#3B85E6"/>
<stop offset="0.4" stop-color="#398FE4"/>
<stop offset="0.466667" stop-color="#3799E2"/>
<stop offset="0.533333" stop-color="#34A4E1"/>
<stop offset="0.6" stop-color="#32AFDF"/>
<stop offset="0.666667" stop-color="#30B8DD"/>
<stop offset="0.733333" stop-color="#2FC1DC"/>
<stop offset="0.8" stop-color="#2EC7DA"/>
<stop offset="0.866667" stop-color="#2DCBDA"/>
<stop offset="0.933333" stop-color="#2CCED9"/>
<stop offset="1" stop-color="#2CCFD9"/>
</linearGradient>
<linearGradient id="paint5_linear_437_361" x1="22.5938" y1="7.03125" x2="25.4063" y2="7.03125" gradientUnits="userSpaceOnUse">
<stop stop-color="#3F6FEA"/>
<stop offset="0.0666667" stop-color="#3F70EA"/>
<stop offset="0.133333" stop-color="#3E72E9"/>
<stop offset="0.2" stop-color="#3D77E9"/>
<stop offset="0.266667" stop-color="#3C7DE7"/>
<stop offset="0.333333" stop-color="#3B85E6"/>
<stop offset="0.4" stop-color="#398FE4"/>
<stop offset="0.466667" stop-color="#3799E2"/>
<stop offset="0.533333" stop-color="#34A4E1"/>
<stop offset="0.6" stop-color="#32AFDF"/>
<stop offset="0.666667" stop-color="#30B8DD"/>
<stop offset="0.733333" stop-color="#2FC1DC"/>
<stop offset="0.8" stop-color="#2EC7DA"/>
<stop offset="0.866667" stop-color="#2DCBDA"/>
<stop offset="0.933333" stop-color="#2CCED9"/>
<stop offset="1" stop-color="#2CCFD9"/>
</linearGradient>
</defs>
</svg>
