<svg width="96" height="32" viewBox="0 0 96 32" fill="none" xmlns="http://www.w3.org/2000/svg">
<g clip-path="url(#clip0_737_5657)">
<path d="M56.7322 16.2393C54.9791 14.8252 52.7098 13.9122 50.7083 13.1064C47.9484 11.9958 45.5641 11.0376 45.5641 9.26054C45.5641 8.48442 45.9372 7.77149 46.6162 7.2572C47.3318 6.71415 48.3313 6.41574 49.4287 6.41574C52.8798 6.41574 55.6324 8.79033 55.6569 8.81176L56.3297 9.40908L59.3881 3.82776L59.0383 3.46808C58.9049 3.3304 55.6838 0.0948181 49.4703 0.0948181C46.4889 0.0948181 43.7473 1.022 41.7471 2.70514C39.7175 4.41319 38.5969 6.77124 38.5969 9.34342C38.5969 11.8513 39.5976 13.8796 41.6517 15.5425C43.3791 16.9387 45.531 17.841 47.6132 18.7146C50.4526 19.905 52.9079 20.9346 52.9079 22.7664C52.9079 24.1614 51.9366 25.6529 49.2146 25.6529C45.3108 25.6529 42.1777 22.7604 42.1472 22.7307L41.5599 22.1762L37.7577 27.3028L38.137 27.716C38.1795 27.7587 39.1622 28.8146 41.0082 29.8656C42.7014 30.8274 45.4858 31.9749 49.1278 31.9749C52.3146 31.9749 55.0305 31.0238 56.983 29.2265C58.8193 27.5338 59.8298 25.1961 59.8298 22.6429C59.8298 20.0159 58.8169 17.9212 56.7322 16.2393Z" fill="black"/>
<path d="M88.8751 31.5144H96V0.555847H88.8751V31.5144Z" fill="black"/>
<path d="M74.9482 25.7164H69.525V6.35148H74.3072C76.4505 6.35148 77.68 7.51795 77.68 9.55098C77.68 11.6054 76.5741 12.6458 74.3916 12.6458H72.7449V18.3437H74.9482C76.1532 18.3437 77.1576 18.7091 77.8513 19.4042C78.5804 20.1327 78.8764 20.854 78.8764 21.8932C78.8764 24.2524 77.3717 25.7164 74.9482 25.7164ZM84.4085 17.601C83.7039 16.5226 82.7374 15.6655 81.5874 15.0918C83.4433 13.6444 84.493 11.4221 84.493 8.88442C84.493 6.31813 83.4886 4.17799 81.5874 2.6913C79.7964 1.2927 77.3093 0.552368 74.3916 0.552368H62.7989V31.5108H74.5212C77.6311 31.5108 80.3213 30.7467 82.2994 29.2981C84.5456 27.6554 85.731 25.2106 85.731 22.2253C85.731 20.5243 85.2747 18.9246 84.4085 17.601Z" fill="black"/>
<path d="M16.4495 0C7.3647 0 0 7.18222 0 16.0417C0 24.3475 6.47287 31.1787 14.7661 32V20.347C12.9837 19.6854 11.7138 18.0056 11.7138 16.0417C11.7138 13.5004 13.8376 11.4328 16.4495 11.4328C19.0602 11.4328 21.1864 13.5004 21.1864 16.0417C21.1864 18.0056 19.9141 19.6851 18.1316 20.347V32C26.4261 31.1787 32.8989 24.3475 32.8989 16.0417C32.8989 7.18222 25.5342 0 16.4495 0Z" fill="#777777"/>
</g>
<defs>
<clipPath id="clip0_737_5657">
<rect width="96" height="32" fill="white"/>
</clipPath>
</defs>
</svg>
