<svg width="528" height="518" viewBox="0 0 528 518" fill="none" xmlns="http://www.w3.org/2000/svg">
<path d="M369.865 459.893L163.295 340.63C159.809 338.618 160.246 335.103 164.271 332.78L304.636 251.74C308.661 249.416 314.749 249.164 318.235 251.176L524.805 370.439C528.291 372.452 527.853 375.966 523.828 378.29L383.464 459.329C379.438 461.653 373.351 461.906 369.865 459.893Z" fill="#C1D6F2"/>
<path d="M98.0443 435.907L65.8203 417.302L98.0443 398.699L130.27 417.303L98.0443 435.907Z" fill="#C1D6F2"/>
<path d="M321.543 505.529C321.543 512.243 309.16 517.686 293.885 517.686C278.61 517.686 266.227 512.243 266.227 505.529C266.227 498.815 278.61 493.372 293.885 493.372C309.16 493.372 321.543 498.815 321.543 505.529Z" fill="#C1D6F2"/>
<path d="M252.879 493.372C252.879 500.086 240.496 505.529 225.221 505.529C209.946 505.529 197.562 500.086 197.562 493.372C197.562 486.658 209.946 481.216 225.221 481.216C240.496 481.216 252.879 486.658 252.879 493.372Z" fill="#C1D6F2"/>
<path d="M156.508 427.632C156.508 434.346 144.125 439.789 128.85 439.789C113.575 439.789 101.191 434.346 101.191 427.632C101.191 420.918 113.575 415.475 128.85 415.475C144.125 415.475 156.508 420.918 156.508 427.632Z" fill="#C1D6F2"/>
<path d="M133.496 326.69C147.042 326.69 158.023 321.864 158.023 315.91C158.023 309.957 147.042 305.131 133.496 305.131C119.95 305.131 108.969 309.957 108.969 315.91C108.969 321.864 119.95 326.69 133.496 326.69Z" fill="#C1D6F2"/>
<path d="M299.086 78.4244L304.124 75.6936L305.622 77.9689L300.3 80.52L299.086 78.4244Z" fill="#EAAA2F"/>
<path d="M507.057 358.757L502.197 361.407L501.625 357.514L506.64 354.715L507.057 358.757Z" fill="#EAAA2F"/>
<path d="M503.19 358.417L307.665 245.53C304.366 243.626 301.691 238.516 301.691 234.117V80.7043C301.691 76.3053 304.366 74.2837 307.665 76.1879L503.19 189.075C506.489 190.979 509.163 196.09 509.163 200.489V353.902C509.163 358.3 506.489 360.322 503.19 358.417Z" fill="#EAAA2F"/>
<path d="M498.311 361.079L302.786 248.193C299.487 246.289 296.812 241.178 296.812 236.779V83.3646C296.812 78.9656 299.487 76.944 302.786 78.8494L498.311 191.735C501.61 193.64 504.285 198.75 504.285 203.149V356.563C504.286 360.962 501.611 362.983 498.311 361.079Z" fill="#4070EA"/>
<path d="M306.031 231.456V99.331C306.031 94.932 308.706 92.9104 312.005 94.8158L489.093 197.057C492.392 198.961 495.067 204.072 495.067 208.471V340.596C495.067 344.995 492.392 347.017 489.093 345.113L312.005 242.87C308.706 240.965 306.031 235.855 306.031 231.456Z" fill="#E5EEFD"/>
<path d="M178.058 331.653H157.648V342.74H178.058V331.653Z" fill="#3C69BB"/>
<path d="M504.286 366.051H491.562V377.61H504.286V366.051Z" fill="#3C69BB"/>
<path d="M355.401 458.776L159.876 345.89C156.577 343.986 156.99 340.658 160.8 338.458L293.659 261.752C297.469 259.553 303.231 259.313 306.531 261.219L502.056 374.104C505.355 376.01 504.942 379.336 501.132 381.536L368.273 458.243C364.463 460.442 358.701 460.681 355.401 458.776Z" fill="#4070EA"/>
<path d="M355.401 447.836L159.876 334.95C156.577 333.046 156.99 329.719 160.8 327.519L293.659 250.812C297.469 248.613 303.231 248.374 306.531 250.279L502.056 363.165C505.355 365.069 504.942 368.397 501.132 370.597L368.273 447.303C364.463 449.502 358.701 449.742 355.401 447.836Z" fill="#CBD8F0"/>
<path d="M224.075 301.632L295.045 260.659C298.091 258.9 302.699 258.708 305.338 260.232L484.82 363.855C487.458 365.379 487.128 368.04 484.081 369.798L413.112 410.772C410.065 412.531 405.457 412.722 402.818 411.199L223.336 307.575C220.697 306.052 221.028 303.392 224.075 301.632Z" fill="#ACC1E1"/>
<path d="M241.324 364.628L268.766 348.784C271.9 346.975 276.641 346.777 279.355 348.345L332.198 378.853C334.913 380.421 334.572 383.158 331.438 384.968L303.995 400.811C300.861 402.62 296.12 402.817 293.406 401.25L240.563 370.741C237.849 369.176 238.189 366.438 241.324 364.628Z" fill="#6FA4F4"/>
<path d="M304.255 276.682L292.002 269.608C290.676 268.842 290.676 267.602 292.002 266.836L298.243 263.233C299.568 262.468 301.718 262.468 303.045 263.233L315.296 270.308C316.622 271.073 316.622 272.314 315.296 273.079L309.055 276.682C307.73 277.448 305.58 277.448 304.255 276.682Z" fill="#507FC6"/>
<path d="M324.794 288.539L312.541 281.464C311.216 280.699 311.216 279.458 312.541 278.692L318.782 275.089C320.107 274.324 322.257 274.324 323.582 275.089L335.835 282.164C337.161 282.929 337.161 284.17 335.835 284.936L329.595 288.539C328.269 289.304 326.119 289.304 324.794 288.539Z" fill="#507FC6"/>
<path d="M345.329 300.396L333.076 293.322C331.751 292.556 331.751 291.315 333.076 290.55L339.317 286.947C340.643 286.181 342.792 286.181 344.118 286.947L356.371 294.021C357.696 294.787 357.696 296.028 356.371 296.793L350.13 300.396C348.804 301.161 346.655 301.161 345.329 300.396Z" fill="#507FC6"/>
<path d="M365.863 312.252L353.611 305.178C352.286 304.412 352.286 303.171 353.611 302.406L359.852 298.803C361.178 298.038 363.327 298.038 364.654 298.803L376.907 305.877C378.232 306.643 378.232 307.884 376.907 308.649L370.666 312.252C369.338 313.018 367.189 313.018 365.863 312.252Z" fill="#507FC6"/>
<path d="M386.403 324.11L374.15 317.036C372.825 316.271 372.825 315.03 374.15 314.264L380.391 310.661C381.717 309.896 383.866 309.896 385.192 310.661L397.445 317.736C398.77 318.501 398.77 319.742 397.445 320.508L391.204 324.111C389.88 324.875 387.73 324.875 386.403 324.11Z" fill="#507FC6"/>
<path d="M406.937 335.966L394.685 328.891C393.36 328.126 393.36 326.885 394.685 326.12L400.927 322.517C402.252 321.751 404.402 321.751 405.728 322.517L417.981 329.59C419.307 330.355 419.307 331.596 417.981 332.362L411.74 335.965C410.414 336.731 408.263 336.731 406.937 335.966Z" fill="#507FC6"/>
<path d="M427.474 347.823L415.221 340.75C413.895 339.985 413.895 338.744 415.221 337.978L421.462 334.375C422.787 333.61 424.937 333.61 426.262 334.375L438.515 341.45C439.841 342.215 439.841 343.456 438.515 344.221L432.274 347.824C430.949 348.589 428.799 348.589 427.474 347.823Z" fill="#507FC6"/>
<path d="M448.013 359.68L435.76 352.606C434.434 351.841 434.434 350.6 435.76 349.834L442.001 346.231C443.326 345.466 445.476 345.466 446.802 346.231L459.055 353.305C460.381 354.07 460.381 355.311 459.055 356.076L452.814 359.68C451.488 360.445 449.338 360.445 448.013 359.68Z" fill="#507FC6"/>
<path d="M468.548 371.537L456.295 364.462C454.969 363.697 454.969 362.456 456.295 361.691L462.536 358.088C463.861 357.322 466.011 357.322 467.336 358.088L479.589 365.161C480.915 365.926 480.915 367.167 479.589 367.933L473.348 371.536C472.023 372.302 469.873 372.302 468.548 371.537Z" fill="#507FC6"/>
<path d="M299.502 290.735L277.455 278.007C276.13 277.241 276.13 276 277.455 275.235L283.696 271.632C285.021 270.866 287.171 270.866 288.497 271.632L310.543 284.36C311.869 285.126 311.869 286.367 310.543 287.132L304.302 290.735C302.977 291.501 300.827 291.501 299.502 290.735Z" fill="#507FC6"/>
<path d="M320.036 302.593L307.783 295.518C306.458 294.753 306.458 293.512 307.783 292.746L314.024 289.143C315.35 288.378 317.499 288.378 318.826 289.143L331.079 296.218C332.404 296.983 332.404 298.224 331.079 298.99L324.838 302.593C323.511 303.358 321.362 303.358 320.036 302.593Z" fill="#507FC6"/>
<path d="M340.575 314.449L328.322 307.374C326.997 306.609 326.997 305.368 328.322 304.603L334.563 301C335.889 300.234 338.038 300.234 339.364 301L351.617 308.073C352.942 308.838 352.942 310.079 351.617 310.845L345.376 314.448C344.051 315.214 341.902 315.214 340.575 314.449Z" fill="#507FC6"/>
<path d="M361.11 326.306L348.857 319.233C347.532 318.467 347.532 317.227 348.857 316.461L355.098 312.858C356.424 312.093 358.573 312.093 359.899 312.858L372.152 319.933C373.477 320.698 373.477 321.939 372.152 322.704L365.911 326.307C364.585 327.072 362.436 327.072 361.11 326.306Z" fill="#507FC6"/>
<path d="M381.648 338.162L369.396 331.088C368.071 330.322 368.071 329.082 369.396 328.316L375.637 324.713C376.963 323.948 379.112 323.948 380.439 324.713L392.692 331.786C394.018 332.552 394.018 333.793 392.692 334.558L386.451 338.161C385.123 338.928 382.974 338.928 381.648 338.162Z" fill="#507FC6"/>
<path d="M402.185 350.02L389.932 342.945C388.606 342.18 388.606 340.939 389.932 340.174L396.173 336.571C397.498 335.805 399.648 335.805 400.973 336.571L413.226 343.645C414.552 344.41 414.552 345.651 413.226 346.417L406.985 350.02C405.66 350.785 403.51 350.785 402.185 350.02Z" fill="#507FC6"/>
<path d="M422.723 361.876L410.471 354.802C409.145 354.036 409.145 352.795 410.471 352.03L416.712 348.427C418.037 347.661 420.187 347.661 421.513 348.427L433.766 355.501C435.092 356.267 435.092 357.508 433.766 358.273L427.525 361.876C426.198 362.642 424.048 362.642 422.723 361.876Z" fill="#507FC6"/>
<path d="M453.999 379.936L431.502 366.947C430.176 366.181 430.176 364.94 431.502 364.175L437.743 360.572C439.068 359.806 441.218 359.806 442.545 360.572L465.042 373.561C466.367 374.326 466.367 375.567 465.042 376.333L458.801 379.936C457.474 380.701 455.325 380.701 453.999 379.936Z" fill="#507FC6"/>
<path d="M270.408 307.533L248.361 294.804C247.036 294.039 247.036 292.798 248.361 292.033L254.602 288.429C255.928 287.664 258.077 287.664 259.403 288.429L281.449 301.158C282.775 301.923 282.775 303.164 281.449 303.93L275.208 307.533C273.883 308.298 271.733 308.298 270.408 307.533Z" fill="#507FC6"/>
<path d="M290.942 319.39L278.689 312.316C277.364 311.55 277.364 310.309 278.689 309.544L284.93 305.941C286.256 305.175 288.405 305.175 289.732 305.941L301.985 313.015C303.311 313.781 303.311 315.022 301.985 315.787L295.744 319.39C294.419 320.156 292.269 320.156 290.942 319.39Z" fill="#507FC6"/>
<path d="M311.482 331.246L299.228 324.172C297.903 323.406 297.903 322.166 299.228 321.4L305.469 317.797C306.795 317.032 308.945 317.032 310.27 317.797L322.523 324.87C323.848 325.636 323.848 326.877 322.523 327.642L316.282 331.245C314.957 332.012 312.808 332.012 311.482 331.246Z" fill="#507FC6"/>
<path d="M332.017 343.104L319.764 336.029C318.438 335.264 318.438 334.023 319.764 333.257L326.005 329.654C327.33 328.889 329.48 328.889 330.806 329.654L343.058 336.729C344.384 337.494 344.384 338.735 343.058 339.501L336.817 343.104C335.492 343.869 333.342 343.869 332.017 343.104Z" fill="#507FC6"/>
<path d="M352.556 354.96L340.303 347.886C338.977 347.12 338.977 345.879 340.303 345.114L346.544 341.511C347.869 340.745 350.019 340.745 351.344 341.511L363.597 348.585C364.923 349.351 364.923 350.592 363.597 351.357L357.356 354.96C356.031 355.726 353.881 355.726 352.556 354.96Z" fill="#507FC6"/>
<path d="M373.091 366.817L360.838 359.743C359.512 358.977 359.512 357.737 360.838 356.971L367.079 353.368C368.404 352.603 370.554 352.603 371.881 353.368L384.132 360.443C385.458 361.208 385.458 362.449 384.132 363.214L377.891 366.817C376.566 367.583 374.416 367.583 373.091 366.817Z" fill="#507FC6"/>
<path d="M393.63 378.674L381.377 371.599C380.051 370.834 380.051 369.593 381.377 368.827L387.618 365.224C388.943 364.459 391.093 364.459 392.418 365.224L404.671 372.299C405.997 373.064 405.997 374.305 404.671 375.071L398.43 378.674C397.105 379.439 394.955 379.439 393.63 378.674Z" fill="#507FC6"/>
<path d="M424.906 396.733L402.408 383.745C401.083 382.98 401.083 381.739 402.408 380.974L408.649 377.371C409.975 376.605 412.124 376.605 413.451 377.371L435.948 390.36C437.274 391.125 437.274 392.366 435.948 393.131L429.707 396.734C428.381 397.499 426.231 397.499 424.906 396.733Z" fill="#507FC6"/>
<path d="M275.157 293.48L262.904 286.406C261.579 285.64 261.579 284.399 262.904 283.634L269.145 280.031C270.471 279.265 272.62 279.265 273.947 280.031L286.2 287.105C287.525 287.871 287.525 289.112 286.2 289.877L279.959 293.48C278.632 294.245 276.483 294.245 275.157 293.48Z" fill="#507FC6"/>
<path d="M295.692 305.336L283.439 298.262C282.114 297.496 282.114 296.255 283.439 295.49L289.68 291.887C291.006 291.121 293.155 291.121 294.481 291.887L306.734 298.961C308.059 299.727 308.059 300.968 306.734 301.733L300.493 305.336C299.168 306.102 297.018 306.102 295.692 305.336Z" fill="#507FC6"/>
<path d="M316.232 317.194L303.978 310.119C302.653 309.354 302.653 308.113 303.978 307.347L310.219 303.744C311.545 302.979 313.694 302.979 315.021 303.744L327.273 310.819C328.6 311.584 328.6 312.825 327.273 313.591L321.032 317.194C319.707 317.959 317.557 317.959 316.232 317.194Z" fill="#507FC6"/>
<path d="M336.771 329.05L324.518 321.977C323.192 321.211 323.192 319.97 324.518 319.205L330.759 315.602C332.084 314.836 334.234 314.836 335.559 315.602L347.812 322.676C349.138 323.442 349.138 324.683 347.812 325.448L341.571 329.051C340.246 329.815 338.096 329.815 336.771 329.05Z" fill="#507FC6"/>
<path d="M357.302 340.907L345.049 333.833C343.723 333.067 343.723 331.826 345.049 331.061L351.29 327.458C352.615 326.692 354.765 326.692 356.091 327.458L368.345 334.531C369.67 335.297 369.67 336.538 368.345 337.303L362.104 340.906C360.778 341.673 358.628 341.673 357.302 340.907Z" fill="#507FC6"/>
<path d="M377.841 352.764L365.588 345.689C364.262 344.924 364.262 343.683 365.588 342.917L371.829 339.314C373.154 338.549 375.304 338.549 376.629 339.314L388.882 346.389C390.208 347.154 390.208 348.395 388.882 349.161L382.641 352.764C381.316 353.529 379.168 353.529 377.841 352.764Z" fill="#507FC6"/>
<path d="M398.38 364.621L386.127 357.546C384.801 356.781 384.801 355.54 386.127 354.775L392.368 351.172C393.693 350.406 395.843 350.406 397.168 351.172L409.421 358.246C410.747 359.012 410.747 360.252 409.421 361.018L403.18 364.621C401.855 365.386 399.705 365.386 398.38 364.621Z" fill="#507FC6"/>
<path d="M439.451 388.335L406.799 369.482C405.474 368.717 405.473 367.476 406.799 366.711L413.04 363.108C414.366 362.342 416.515 362.342 417.842 363.108L450.493 381.96C451.819 382.725 451.819 383.966 450.493 384.732L444.252 388.335C442.926 389.1 440.776 389.1 439.451 388.335Z" fill="#507FC6"/>
<path d="M246.067 310.278L233.814 303.204C232.489 302.439 232.489 301.198 233.814 300.432L240.055 296.829C241.381 296.064 243.53 296.064 244.856 296.829L257.109 303.903C258.434 304.668 258.434 305.909 257.109 306.675L250.868 310.278C249.543 311.043 247.393 311.043 246.067 310.278Z" fill="#507FC6"/>
<path d="M266.607 322.134L254.353 315.059C253.028 314.294 253.028 313.053 254.353 312.287L260.594 308.684C261.92 307.919 264.07 307.919 265.395 308.684L277.648 315.758C278.973 316.523 278.973 317.764 277.648 318.53L271.407 322.133C270.082 322.899 267.932 322.899 266.607 322.134Z" fill="#507FC6"/>
<path d="M348.748 369.561L274.886 326.917C273.559 326.151 273.559 324.91 274.886 324.145L281.127 320.542C282.452 319.776 284.602 319.776 285.928 320.542L359.791 363.186C361.116 363.952 361.116 365.193 359.791 365.958L353.55 369.561C352.223 370.327 350.073 370.327 348.748 369.561Z" fill="#507FC6"/>
<path d="M369.286 381.419L357.033 374.344C355.708 373.579 355.708 372.338 357.033 371.572L363.274 367.969C364.6 367.204 366.749 367.204 368.076 367.969L380.328 375.044C381.653 375.809 381.653 377.05 380.328 377.815L374.087 381.419C372.761 382.184 370.612 382.184 369.286 381.419Z" fill="#507FC6"/>
<path d="M389.825 393.275L377.572 386.2C376.247 385.435 376.247 384.194 377.572 383.428L383.813 379.825C385.139 379.06 387.288 379.06 388.614 379.825L400.867 386.9C402.192 387.665 402.192 388.906 400.867 389.672L394.626 393.275C393.3 394.04 391.151 394.04 389.825 393.275Z" fill="#507FC6"/>
<path d="M410.36 405.132L398.107 398.058C396.782 397.292 396.782 396.051 398.107 395.286L404.348 391.683C405.674 390.917 407.823 390.917 409.15 391.683L421.402 398.757C422.727 399.523 422.727 400.764 421.402 401.529L415.161 405.132C413.835 405.898 411.686 405.898 410.36 405.132Z" fill="#507FC6"/>
<path d="M460.68 400.623V398.449C460.68 397.947 460.985 397.364 461.361 397.147L473.632 390.062C474.009 389.844 474.313 390.074 474.313 390.577V392.751C474.313 393.252 474.008 393.836 473.632 394.053L461.361 401.138C460.985 401.355 460.68 401.125 460.68 400.623Z" fill="#1E3358"/>
<path d="M442.531 411.101V408.927C442.531 408.425 442.837 407.842 443.212 407.625L455.484 400.539C455.86 400.322 456.165 400.552 456.165 401.055V403.229C456.165 403.73 455.86 404.314 455.484 404.531L443.212 411.616C442.837 411.833 442.531 411.603 442.531 411.101Z" fill="#1E3358"/>
<path d="M346.037 247.404C344.308 243.206 341.497 218.652 362.133 213.561C382.769 208.471 397.987 211.169 414.522 220.138C431.057 229.107 441.924 242.864 442.475 256.621C443.026 270.378 439.311 281.796 423.077 284.548C406.844 287.3 366.811 263.775 357.593 257.86C348.375 251.945 347 249.744 346.037 247.404Z" fill="#BADCF2"/>
<path d="M375.614 215.076C376.852 218.79 375.614 222.23 374.514 226.371C373.905 228.659 372.587 237.912 380.567 241.764C388.546 245.616 407.485 242.864 409.852 235.435C412.219 228.006 406.567 221.403 409.731 200.079C411.605 187.457 375.614 215.076 375.614 215.076Z" fill="#CFA58B"/>
<path d="M389.233 166.925C375.94 166.925 361.857 173.392 363.37 199.53C364.883 225.669 373.714 226.357 376.246 226.357C378.779 226.357 395.012 227.319 404.917 213.425C414.822 199.53 414.684 166.925 389.233 166.925Z" fill="#DFBD9D"/>
<path d="M395.978 189.075C393.49 188.944 386.107 194.251 378.093 194.303C375.017 194.323 353.192 184.036 356.632 173.582C357.649 170.492 361.309 172.619 364.473 170.28C371.381 165.175 376.78 153.432 392.675 155.371C415.237 158.123 419.501 178.207 419.089 184.948C418.676 191.69 416.2 204.071 414.962 205.309C413.724 206.548 411.799 210.949 409.872 211.5C407.945 212.05 408.496 206.685 409.735 201.732C410.973 196.779 407.396 194.303 403.131 194.579C398.867 194.852 398.592 189.212 395.978 189.075Z" fill="#2065BF"/>
<path d="M403.958 202.007C404.952 199.542 408.223 191 411.662 192.652C415.1 194.303 415.1 199.393 413.45 202.007C411.799 204.621 408.497 209.573 405.883 208.748C403.27 207.921 403.147 204.017 403.958 202.007Z" fill="#DFBD9D"/>
<path d="M206.726 430.178C206.674 430.474 206.629 430.769 206.59 431.062C206.28 433.46 205.834 435.849 206.03 438.277C206.118 439.365 206.33 440.445 206.329 441.537C206.328 442.629 206.085 443.769 205.377 444.599C204.976 443.484 204.865 442.267 205.06 441.099C204.294 443.548 203.696 446.051 203.275 448.583C203.054 448.65 202.834 448.489 202.665 448.332C201.829 447.553 201.141 446.617 200.652 445.585C200.416 445.088 200.223 444.56 200.195 444.012C200.165 443.422 200.325 442.839 200.527 442.283C201.09 440.735 202.325 439.148 202.258 437.5C202.226 436.715 202.393 436.298 202.14 434.915C201.76 432.839 201.395 430.758 201.028 428.679C200.614 426.34 199.666 420.823 201.468 418.747C202.468 417.595 203.533 417.211 204.917 417.851C206.311 418.496 206.67 419.999 206.921 421.513C207.294 423.775 207.111 427.963 206.726 430.178Z" fill="#E8BF98"/>
<path d="M210.461 394.169C210.64 394.937 210.606 395.734 210.566 396.52C210.18 404.189 209.335 411.923 206.651 419.225C206.361 420.013 206.04 420.812 205.45 421.451C204.861 422.089 203.945 422.545 203.039 422.418C202.138 422.292 201.429 421.62 201.085 420.86C200.74 420.101 200.698 419.259 200.672 418.437C200.45 411.377 201.157 404.262 203.146 397.415C203.612 395.809 204.212 394.128 205.598 393.033C206.372 392.422 207.667 391.857 208.722 392.077C209.728 392.289 210.261 393.316 210.461 394.169Z" fill="#E8BF98"/>
<path d="M253.499 380.524C253.649 380.264 253.793 380.003 253.93 379.74C255.042 377.595 256.281 375.503 256.929 373.155C257.219 372.103 257.389 371.016 257.765 369.99C258.141 368.965 258.759 367.976 259.71 367.44C259.706 368.624 259.391 369.805 258.808 370.836C260.368 368.798 261.787 366.652 263.052 364.418C263.282 364.431 263.433 364.657 263.538 364.863C264.056 365.881 264.38 366.997 264.487 368.135C264.539 368.682 264.539 369.244 264.377 369.769C264.203 370.334 263.852 370.826 263.472 371.279C262.413 372.542 260.708 373.608 260.207 375.178C259.967 375.925 259.668 376.261 259.431 377.646C259.075 379.728 258.705 381.807 258.338 383.886C257.925 386.225 256.923 391.733 254.519 393.065C253.184 393.804 252.052 393.798 250.971 392.723C249.883 391.641 250.061 390.105 250.344 388.596C250.769 386.342 252.376 382.472 253.499 380.524Z" fill="#E8BF98"/>
<path d="M254.589 392.982C254.511 393.072 254.427 393.157 254.339 393.237C253.717 393.791 252.925 394.082 252.148 394.351C247.558 395.939 242.814 397.117 237.98 397.742C235.784 398.025 233.567 398.196 231.339 398.237C229.667 398.269 227.884 398.197 226.427 397.198C225.612 396.642 224.688 395.573 224.586 394.499C224.489 393.479 225.31 392.664 226.066 392.219C226.745 391.819 227.516 391.615 228.278 391.42C235.717 389.51 243.351 388.016 251.122 388.409C251.961 388.451 252.82 388.521 253.605 388.893C254.39 389.267 255.098 390.005 255.246 390.907C255.372 391.677 255.073 392.433 254.589 392.982Z" fill="#E8BF98"/>
<path d="M221.374 390.512C219.261 392.791 215.885 393.815 212.861 393.093C211.999 392.886 211.157 392.549 210.27 392.509C211.496 391.718 212.121 390.254 212.4 388.821C212.715 387.222 212.673 385.545 212.244 383.97C212.159 383.655 211.44 382.301 211.771 382.054C212.053 381.846 213.633 382.53 214.087 382.52C214.591 382.509 215.064 382.358 215.53 382.162C215.608 382.129 215.684 382.095 215.762 382.06L215.764 382.057C216.285 381.821 216.795 381.551 217.332 381.379C217.445 381.341 217.566 381.309 217.68 381.341C217.776 381.368 217.855 381.436 217.93 381.503C218.625 382.131 219.323 382.758 220.021 383.385C219.79 384.072 219.612 384.78 219.496 385.497C219.485 385.553 219.477 385.61 219.469 385.668C219.367 386.347 219.316 387.035 219.319 387.722C219.319 387.918 219.325 388.115 219.346 388.311C219.369 388.564 219.416 388.811 219.504 389.048C219.793 389.831 220.546 390.421 221.374 390.512Z" fill="#D1A37E"/>
<path d="M211.581 395.58C211.786 396.549 211.786 397.547 211.785 398.535C211.783 399.317 211.783 400.1 211.782 400.882C211.781 401.59 211.781 402.3 211.719 403.006C211.658 403.701 211.537 404.389 211.416 405.076C211.21 406.251 211.004 407.427 210.797 408.602C206.497 408.901 202.106 407.723 198.531 405.313C198.962 403.474 199.524 401.666 200.212 399.907C200.885 398.186 201.695 396.486 202.92 395.1C204.121 393.742 206.005 392.589 207.799 392.191C209.776 391.754 211.232 393.929 211.581 395.58Z" fill="#57A9F2"/>
<path d="M223.956 383.919C223.571 384.788 222.982 385.701 222.049 385.889C221.747 385.949 220.94 385.889 220.084 385.766C219.878 385.739 219.668 385.705 219.463 385.67C218.602 385.522 217.806 385.328 217.551 385.148C216.985 384.75 215.977 383.089 215.885 382.858C215.86 382.798 215.829 382.729 215.791 382.656C215.721 382.51 215.624 382.341 215.525 382.163C215.215 381.615 214.844 380.969 214.844 380.567C214.844 377.652 216.076 376.886 217.159 375.46C218.244 374.039 219.817 373.036 221.503 372.443C222.415 372.123 223.523 371.87 224.479 372.15C225.332 372.398 225.222 373.019 225.265 373.785C225.466 377.264 225.385 380.693 223.956 383.919Z" fill="#E8BF98"/>
<path d="M217.194 384.82C217.757 384.35 218.305 383.853 218.739 383.262C219.784 381.838 220.079 379.998 220.954 378.465C221.517 377.476 222.323 376.627 223.278 376.01C224.073 375.497 224.973 375.14 225.681 374.513C226.76 373.557 227.256 372.065 227.251 370.625C227.246 369.184 226.79 367.781 226.217 366.459C225.67 367.068 224.81 367.274 224 367.383C221.763 367.684 219.486 367.483 217.238 367.693C214.99 367.903 212.649 368.611 211.182 370.328C209.629 372.147 209.36 374.714 209.316 377.106C209.293 378.313 209.311 379.531 209.551 380.714C209.863 382.253 210.553 383.715 211.545 384.933C213.195 386.96 215.402 386.316 217.194 384.82Z" fill="#2F5483"/>
<path d="M221.491 377.941C221.309 377.65 221.078 377.374 220.767 377.231C220.456 377.086 220.05 377.104 219.806 377.345C219.617 377.531 219.554 377.819 219.58 378.083C219.606 378.349 219.709 378.599 219.811 378.844C220.168 379.702 220.533 380.574 221.127 381.288C221.23 381.413 221.378 381.543 221.533 381.496C221.625 381.468 221.686 381.384 221.738 381.303C221.738 381.091 222.037 380.7 222.097 380.468C222.18 380.146 222.207 379.814 222.186 379.481C222.165 379.487 222.218 379.545 222.15 379.538C221.82 379.16 221.782 378.408 221.491 377.941Z" fill="#E8BF98"/>
<path d="M208.421 493.571C208.335 494.208 208.252 494.87 208.449 495.482C208.846 496.71 210.292 497.343 211.578 497.23C212.864 497.119 214.022 496.44 215.125 495.77C216.928 494.673 218.73 493.544 220.277 492.108C220.86 491.567 221.414 490.968 221.735 490.241C222.056 489.513 222.113 488.633 221.719 487.943C221.106 486.871 219.628 486.603 218.432 486.911C217.236 487.217 216.201 487.952 215.081 488.472C213.556 489.18 212.66 489.715 211.098 490.319C209.232 491.038 208.672 491.691 208.421 493.571Z" fill="#57A9F2"/>
<path d="M206.363 433.997C206.038 437.988 206.748 441.979 207.33 445.94C207.942 450.103 208.414 454.286 208.744 458.48C208.846 459.771 208.934 461.072 208.8 462.361C208.584 464.445 207.795 466.423 207.373 468.475C206.655 471.959 207.006 475.56 207.359 479.099C207.592 481.442 207.827 483.784 208.061 486.128C208.283 488.349 208.508 490.589 209.183 492.717C211.168 493.442 212.279 492.637 212.979 491.96C213.344 485.809 214.337 479.696 215.938 473.747C216.44 471.882 217.002 470.031 217.325 468.128C217.69 465.979 217.747 463.792 217.893 461.618C218.448 453.314 220.293 445.035 219.548 436.747C219.261 433.542 218.589 430.385 217.918 427.237C217.857 426.952 217.787 426.65 217.582 426.443C217.352 426.21 217.004 426.149 216.681 426.1C214.978 425.841 213.276 425.582 211.572 425.323C210.539 425.165 209.177 424.667 208.355 425.54C207.548 426.397 207.387 428.319 207.124 429.421C206.772 430.926 206.488 432.452 206.363 433.997Z" fill="#EAAA2F"/>
<path d="M225.358 496.954C225.245 497.623 225.133 498.32 225.314 498.973C225.685 500.314 227.214 501.062 228.604 501.006C229.994 500.949 231.277 500.282 232.506 499.63C234.426 498.612 236.349 497.592 238.173 496.413C239.237 495.726 240.31 494.935 240.845 493.788C241.38 492.641 241.168 491.051 240.07 490.419C238.881 489.733 237.417 490.433 236.134 490.923C234.753 491.452 233.292 491.728 231.839 492.001C230.367 492.278 227.843 492.255 226.559 492.999C225.445 493.648 225.565 495.723 225.358 496.954Z" fill="#57A9F2"/>
<path d="M216.287 441.39C217.127 442.647 218.138 443.786 218.931 445.074C220.015 446.831 220.66 448.818 221.298 450.782C223.043 456.16 224.805 461.636 224.896 467.288C224.96 471.247 224.2 475.175 224.098 479.133C224.031 481.766 224.255 484.396 224.479 487.021C224.71 489.713 224.94 492.406 225.17 495.098C227.36 495.306 229.611 494.836 231.538 493.771C231.168 487.11 231.877 480.429 233.023 473.857C233.576 470.684 234.233 467.521 234.518 464.311C235.044 458.422 234.314 452.501 233.586 446.633C232.682 439.353 231.761 431.997 229.219 425.115C229.392 425.581 216.996 426.778 215.928 426.884C211.975 427.28 213.054 432.047 213.645 434.912C214.119 437.209 214.982 439.434 216.287 441.39Z" fill="#EAAA2F"/>
<path d="M207.714 408.475C207.295 408.153 206.261 408.253 205.736 408.15C205.445 408.094 205.052 408.001 204.827 407.787C204.481 407.457 204.647 407.066 204.735 406.587C205.099 404.601 205.097 402.451 205.007 400.403C204.976 399.709 204.849 399.037 204.851 398.333C204.852 397.851 204.983 397.528 205.099 397.094C205.828 397.88 205.644 399.746 205.931 400.764C206.231 401.832 206.565 402.909 206.774 403.993C206.925 404.78 206.826 405.612 206.997 406.407C207.092 406.859 207.33 407.978 207.714 408.475Z" fill="#3A7FD8"/>
<path d="M213.453 458.203C213.848 459.536 214.3 460.862 214.489 462.24C214.707 463.829 214.568 465.443 214.43 467.041C214.273 468.855 214.115 470.668 213.958 472.482C213.552 477.173 213.203 481.878 212.442 486.523C212.137 488.388 212.776 489.89 212.973 491.985C214.797 486.07 215.631 480.516 216.76 474.43C218.032 467.574 218.403 460.588 218.771 453.625C218.878 451.616 218.984 449.604 219.091 447.593C219.145 446.574 219.185 445.491 218.681 444.603C218.179 443.718 217.235 443.199 216.372 442.659C214.143 441.264 212.711 439.256 210.761 437.634C210.066 438.561 210.707 440.978 210.798 442.092C210.945 443.907 211.117 445.721 211.339 447.529C211.783 451.131 212.424 454.717 213.453 458.203Z" fill="#E27D26"/>
<path d="M229.911 412.903C230.044 411.664 230.236 410.427 230.229 409.181C230.216 406.931 229.558 404.739 228.907 402.583C228.03 399.686 227.153 396.788 226.277 393.89C225.957 392.829 225.631 391.759 225.094 390.789C223.683 391.028 222.216 390.934 220.846 390.518L221.048 390.657C219.153 392.256 216.64 393.093 214.165 392.972C214.166 392.967 214.167 392.964 214.168 392.958C213.897 392.826 213.439 392.867 213.101 392.718C212.805 392.587 212.485 392.408 212.209 392.236C211.783 391.967 211.284 391.375 211.509 390.84C210.716 391.419 210.146 391.611 209.171 391.657C208.48 391.689 207.635 391.747 207.086 392.219C206.145 393.027 205.631 394.263 205.422 395.488C205.403 395.544 205.382 395.6 205.366 395.659C205.061 396.713 205.15 397.838 205.254 398.931C205.473 401.219 205.744 403.51 206.303 405.74C206.652 407.137 207.115 408.509 207.373 409.926C208.413 415.635 206.073 421.567 207.168 427.266C207.862 427.214 208.436 427.755 208.982 428.187C210.833 429.652 213.276 430.165 215.636 430.223C217.996 430.28 220.347 429.927 222.708 429.868C225.397 429.801 228.4 430.014 230.426 428.247C229.796 423.157 229.361 418.002 229.911 412.903Z" fill="#57A9F2"/>
<path d="M224.752 392.763C224.013 392.326 223.002 392.748 222.521 393.459C222.039 394.171 221.961 395.074 221.943 395.934C221.835 401.095 223.367 406.145 223.791 411.29C223.88 412.377 223.919 413.487 223.646 414.544C223.383 415.567 222.84 416.495 222.502 417.496C221.838 419.461 221.997 421.609 222.366 423.65C222.735 425.691 223.308 427.702 223.457 429.772C226.009 429.634 228.54 429.111 230.937 428.227C231.086 428.172 231.248 428.105 231.326 427.966C231.405 427.824 231.374 427.647 231.342 427.487C230.363 422.639 230.422 417.641 230.748 412.706C230.83 411.453 230.93 410.194 230.835 408.943C230.747 407.79 230.494 406.657 230.24 405.53C229.626 402.803 228.939 399.957 227.094 397.856C226.419 397.087 225.602 396.436 225.029 395.588C224.456 394.739 224.168 393.586 224.67 392.694C224.901 393.043 225.134 393.393 225.365 393.744" fill="#3A7FD8"/>
<path d="M224.399 391.245C225.227 390.703 226.158 390.341 227.079 389.984C227.808 389.701 228.539 389.418 229.268 389.135C229.929 388.879 230.59 388.622 231.271 388.425C231.941 388.23 232.625 388.093 233.31 387.957C234.48 387.723 235.65 387.488 236.82 387.254C238.657 391.156 239.15 395.673 238.201 399.878C236.33 400.144 234.442 400.275 232.553 400.272C230.705 400.268 228.826 400.131 227.092 399.491C225.39 398.864 223.634 397.526 222.613 395.998C221.488 394.314 222.987 392.169 224.399 391.245Z" fill="#57A9F2"/>
<path d="M219.611 388.378C219.732 388.502 219.661 388.458 219.578 388.38C219.578 388.38 219.6 388.38 219.611 388.378Z" fill="#B0B0B0"/>
<path d="M143.152 206.834C143.683 207.476 144.48 207.826 145.246 208.155C146.12 208.529 146.994 208.903 147.868 209.277C146.544 213.741 144.349 217.944 141.441 221.58C139.203 219.515 137.093 217.275 135.508 214.674C133.924 212.075 132.604 209.652 132.633 206.608C133.326 206.968 134.501 206.095 135.021 205.513C135.541 204.931 135.757 204.141 135.883 203.371C136.259 201.076 135.983 198.729 135.706 196.42C136.799 197.8 138.323 198.833 140.01 199.338C141.314 199.729 143.715 200.259 143.088 202.144C142.576 203.688 141.954 205.383 143.152 206.834Z" fill="#DFB180"/>
<path d="M147.108 191.005C148.253 193.036 148.303 195.554 147.662 197.797C147.02 200.039 145.745 202.047 144.345 203.912C143.685 204.791 142.861 205.721 141.764 205.789C140.776 205.85 139.898 205.182 139.21 204.473C134.984 200.119 134.667 193.485 137.083 190.154C139.626 186.65 145.051 187.357 147.108 191.005Z" fill="#E6C49E"/>
<path d="M148.652 191.538C147.695 190.295 146.01 189.718 144.457 189.936C142.904 190.153 141.502 191.092 140.547 192.336C139.593 193.582 139.059 195.111 138.825 196.661C138.722 197.344 146.691 196.937 147.39 196.815C148.688 196.587 149.817 196.7 149.736 195.202C149.666 193.924 149.455 192.582 148.652 191.538Z" fill="#57A9F2"/>
<path d="M147.174 188.402C146.219 187.119 144.839 186.181 143.335 185.634C140.337 184.543 136.597 185.176 134.607 187.67C133.382 189.204 132.935 191.226 132.839 193.188C132.706 195.875 133.17 198.589 134.186 201.08C134.386 201.569 134.759 202.137 135.279 202.045C135.681 201.974 135.895 201.541 136.03 201.156C136.339 200.269 136.563 199.352 136.695 198.422C136.815 197.585 136.901 196.653 137.526 196.084C138.016 195.638 138.722 195.532 139.303 195.212C140.249 194.689 140.778 193.656 141.557 192.908C142.443 192.056 143.682 191.583 144.91 191.626C145.645 191.652 146.303 191.874 146.956 192.193C147.42 192.42 147.94 192.872 148.362 192.284C149.025 191.361 147.717 189.13 147.174 188.402Z" fill="#57A9F2"/>
<path d="M140.905 183.329C140.605 182.514 139.722 182.051 138.864 181.914C136.754 181.574 134.5 182.948 133.834 184.978C133.569 185.788 133.571 186.768 134.149 187.395C134.735 188.031 135.72 188.106 136.572 187.954C138.416 187.623 141.794 185.74 140.905 183.329Z" fill="#57A9F2"/>
<path d="M137.758 198.415C138.059 196.597 136.652 194.865 135.821 195.321C135.453 195.523 135.414 196.031 135.447 196.451C135.57 198.022 136.043 199.565 136.822 200.935C137.123 200.2 137.425 199.465 137.728 198.73" fill="#E6C49E"/>
<path d="M128.791 210.911C128.919 211.642 128.862 212.391 128.802 213.129C128.217 220.34 127.241 227.592 124.717 234.37C124.445 235.102 124.144 235.844 123.623 236.422C123.1 237.002 122.308 237.397 121.542 237.244C120.782 237.093 120.202 236.432 119.935 235.704C119.668 234.976 119.659 234.181 119.665 233.406C119.713 226.749 120.552 220.073 122.471 213.697C122.921 212.202 123.487 210.641 124.702 209.66C125.379 209.113 126.498 208.629 127.387 208.876C128.232 209.113 128.65 210.101 128.791 210.911Z" fill="#E6C49E"/>
<path d="M151.552 215.624C151.821 216.132 151.96 216.699 152.094 217.259C153.391 222.723 154.41 228.312 154.172 233.924C154.146 234.53 154.102 235.149 153.856 235.703C153.609 236.256 153.119 236.738 152.516 236.809C151.919 236.879 151.332 236.53 150.96 236.057C150.587 235.584 150.391 235 150.209 234.425C148.648 229.497 147.665 224.368 147.553 219.2C147.526 217.987 147.569 216.699 148.231 215.684C148.6 215.118 149.31 214.492 150.026 214.46C150.708 214.43 151.254 215.059 151.552 215.624Z" fill="#E6C49E"/>
<path d="M128.275 222.269C125.434 222.526 122.588 221.969 119.789 221.415C119.825 220.19 119.91 218.965 120.04 217.745C120.071 217.081 120.155 216.419 120.293 215.768C120.33 215.519 120.369 215.271 120.41 215.023C120.43 215.029 120.45 215.036 120.47 215.042C120.963 213.236 121.851 211.537 123.08 210.126C126.356 207.698 130.267 206.498 134.321 206.045C136.031 210.266 138.599 213.74 141.134 217.523C141 217.324 142.844 214.115 143.018 213.699C143.583 212.352 143.931 210.931 144.474 209.584C144.807 208.757 144.809 207.918 144.809 207.918C144.809 207.918 148.925 209.379 150.122 210.276C151.7 211.46 152.703 213.282 153.253 215.177C153.274 215.251 153.292 215.326 153.312 215.401C153.274 215.45 154.307 219.506 154.307 221.535C154.312 221.929 154.287 222.367 154.009 222.647C153.995 222.661 153.98 222.671 153.965 222.684C153.6 223.11 152.928 223.183 152.343 223.206C149.443 223.311 150.085 223.276 149.285 223.356C149.272 223.275 149.26 223.194 149.247 223.114C149.206 223.083 149.168 223.051 149.136 223.014C148.914 223.592 148.707 224.173 148.517 224.758C148.429 224.999 148.181 225.484 148.137 225.482C146.63 230.237 146.56 235.435 147.935 240.23C141.249 240.904 127.831 239.805 127.831 239.805L126.891 239.368C126.891 239.368 127.298 238.137 127.815 237.643C128.825 236.678 128.991 235.146 129.055 233.75C129.26 229.37 129.075 224.972 128.517 220.623C128.414 221.455 128.309 222.269 128.275 222.269Z" fill="#E27D26"/>
<path d="M150.301 215.711C150.658 217.771 151 219.839 151.16 221.924C151.185 222.239 151.2 222.575 151.049 222.853C150.799 223.314 149 223.379 149 223.379C149 223.379 149.446 221.797 149.568 221.231C149.963 219.415 150.208 217.566 150.301 215.711Z" fill="#A54750"/>
<path d="M144.359 224.347C140.584 224.446 136.817 224.004 133.066 223.562C134.213 224.694 135.751 225.423 137.354 225.593C138.817 225.748 140.303 225.454 141.761 225.642C142.967 225.798 144.134 226.281 145.349 226.242C146.448 226.205 147.523 225.717 148.274 224.914C148.787 224.365 149.61 223.11 149.316 222.33C148.124 223.962 146.665 224.287 144.359 224.347Z" fill="#A54750"/>
<path d="M128.258 222.019C128.693 219.077 129.13 216.136 129.565 213.194C129.207 216.82 129.288 220.49 129.808 224.097C130.169 226.601 130.741 229.085 130.802 231.614C130.863 234.143 130.36 236.788 128.796 238.775C128.563 239.072 128.297 239.36 127.955 239.518C127.612 239.677 127.174 239.679 126.883 239.438C128.266 238.248 128.505 236.225 128.586 234.402C128.785 229.947 128.61 225.484 128.436 221.028" fill="#A54750"/>
<path d="M128.935 233.329C126.112 239.401 123.526 245.711 122.847 252.374C122.119 259.508 123.61 266.662 125.091 273.678C125.408 275.181 125.71 275.849 127.451 276.452C129.34 277.107 131.37 277.353 133.361 277.167C134.182 272.454 136.443 268.139 138.201 263.69C141.902 254.334 143.42 244.123 142.602 234.094C142.609 234.163 146.484 234.14 146.836 234.163C143.961 234.389 140.856 233.902 137.969 233.763C134.959 233.619 131.946 233.473 128.935 233.329Z" fill="#3F6ECB"/>
<path d="M145.109 277.575C142.269 277.849 139.406 277.887 136.56 277.687C135.266 274.445 135.102 270.844 135.488 267.374C135.873 263.903 136.785 260.518 137.588 257.119C139.356 249.632 140.603 242.022 141.318 234.362C141.322 234.32 146.303 233.946 146.696 234.17C147.214 234.463 147.356 235.448 147.52 235.959C148.942 240.364 149.543 244.995 149.584 249.623C149.666 259.095 147.389 268.346 145.109 277.575Z" fill="#3F6ECB"/>
<path d="M119.494 316.974C119.6 316.205 120.131 315.576 120.604 314.961C122.777 312.133 124.129 308.682 124.457 305.131C125.549 305.498 126.447 305.164 127.503 305.22C127.488 306.562 127.572 307.777 127.842 309.105C128.175 310.751 128.494 312.176 128.067 313.787C127.879 313.992 127.703 314.209 127.543 314.438C126.055 315.892 125.599 316.743 124.802 318.649C124.561 318.836 124.308 319.006 124.037 319.151C123.12 319.636 121.996 319.808 121.036 319.418C120.076 319.027 119.352 318.001 119.494 316.974Z" fill="#E599AB"/>
<path d="M142.133 311.929C143.208 313.321 144.694 314.412 145.481 315.984C145.796 316.611 145.905 317.528 145.297 317.878C144.919 318.095 144.445 317.972 144.03 317.836C141.543 317.016 139.146 315.916 136.904 314.563C136.348 314.227 135.752 313.808 135.627 313.17C135.563 312.85 135.631 312.519 135.7 312.199C136.169 309.999 136.639 307.8 137.108 305.6C137.186 305.236 139.339 305.488 139.607 305.558C140.525 305.801 140.2 306.435 140.284 307.267C140.455 308.952 141.098 310.589 142.133 311.929Z" fill="#E599AB"/>
<path d="M132.581 281.038C132.212 282.887 131.843 284.735 131.475 286.584C129.54 296.285 128.342 301.603 128.178 307.283C127.94 307.318 127.701 307.358 127.464 307.4C126.578 307.352 125.683 307.37 124.799 307.428C124.275 307.399 123.75 307.374 123.226 307.348C124.325 298.805 121.51 290.457 122.874 282.115C123.334 279.296 124.265 276.579 125.19 273.878C125.47 273.063 125.77 272.214 126.401 271.627C126.992 271.077 127.815 270.825 128.623 270.798C131.009 270.72 133.894 273.102 133.643 275.638C133.463 277.437 132.934 279.263 132.581 281.038Z" fill="#3F6ECB"/>
<path d="M140.853 307.351C139.372 307.406 137.891 307.461 136.41 307.515C136.111 300.713 133.89 293.958 134.799 287.21C135.142 284.669 135.923 282.208 136.397 279.689C136.872 277.17 137.027 274.504 136.143 272.097C136.299 272.524 140.047 272.438 140.547 272.441C141.309 272.444 142.072 272.42 142.833 272.367C143.339 272.332 144.402 271.999 144.863 272.222C145.706 272.631 145.268 275.137 145.22 275.913C145.126 277.434 144.921 278.944 144.669 280.444C143.975 284.564 141.819 293.518 140.853 307.351Z" fill="#3F6ECB"/>
<path d="M160.393 234.161C163.32 235.501 166.152 237.342 169.363 237.559C171.044 237.673 172.768 237.33 174.4 237.751C173.318 238.099 172.234 238.446 171.152 238.795C172.562 239.955 174.344 240.656 176.166 240.765C176.707 240.798 177.372 240.855 177.586 241.352C176.227 242.57 174.291 243.138 172.502 242.776C171.082 242.49 169.839 241.673 168.542 241.03C164.095 238.832 158.948 238.679 154.14 237.451C153.276 237.23 152.404 236.966 151.671 236.459C150.938 235.952 150.353 235.16 150.296 234.271C150.065 230.682 156.013 232.544 157.765 233.121C158.66 233.417 159.536 233.769 160.393 234.161Z" fill="#E6C49E"/>
<path d="M140.496 244.724C140.488 246.652 139.942 248.629 139.58 250.509C139.256 252.197 139.106 253.892 138.79 255.567C137.951 260.026 136.003 264.321 135.346 268.813C135.079 270.639 135.017 272.125 135.676 273.785C135.649 271.966 136.534 269.83 137.148 268.117C137.811 266.266 138.604 264.506 139.164 262.614C140.306 258.761 141.149 254.817 141.151 250.765C141.152 248.742 140.453 246.683 140.496 244.724Z" fill="#2D49B9"/>
<path d="M137.127 278.063C138.969 279.494 137.013 283.089 136.516 284.771C135.833 287.078 135.56 289.364 135.347 291.758C135.244 292.92 135.015 294.311 135.254 295.434C135.264 294.453 134.831 293.391 134.684 292.423C134.514 291.309 134.478 290.228 134.598 289.121C134.881 286.521 135.612 284.023 136.295 281.47C136.626 280.234 136.749 278.96 137.127 278.063Z" fill="#2D49B9"/>
<path d="M125.236 273.754C127.78 274.961 124.534 280.483 124.089 282.257C123.42 284.924 123.169 287.887 123.269 290.62C123.325 292.097 123.248 293.556 123.274 295.06C122.014 289.397 122.253 283.019 123.75 277.467C124.064 276.293 124.442 274.724 125.236 273.754Z" fill="#2D49B9"/>
<path d="M176.582 240.897L159.866 231.101L137.944 240.636L135.941 240.535L135.891 241.539L135.909 241.54L152.509 251.719L176.582 240.897Z" fill="#2065BF"/>
<path d="M152.554 250.768L135.938 240.578L159.911 230.15L176.627 239.947L152.554 250.768Z" fill="#79C3F2"/>
<path d="M186.54 224.441L185.817 223.841L161.838 234.681L151.703 251.223L152.511 251.719L154.53 250.399L153.972 250.136L175.862 240.295L184.614 225.829L184.918 226.179L186.54 224.441Z" fill="#2065BF"/>
<path d="M152.508 251.719L162.557 235.283L186.537 224.441L176.581 240.897L152.508 251.719Z" fill="#79C3F2"/>
<path d="M158.137 237.866L153.175 240.408C152.616 240.695 151.793 240.688 151.337 240.392L148.017 238.246C147.561 237.951 147.644 237.479 148.203 237.194L153.165 234.652C153.724 234.367 154.547 234.373 155.003 234.669L158.323 236.815C158.778 237.109 158.695 237.581 158.137 237.866Z" fill="#2065BF"/>
<path d="M132.425 235.037C136.095 236.717 139.645 239.025 143.672 239.298C145.781 239.44 147.943 239.01 149.989 239.539C148.631 239.976 147.274 240.412 145.917 240.848C147.684 242.303 149.919 243.181 152.204 243.319C152.882 243.36 153.716 243.431 153.985 244.055C152.28 245.581 149.852 246.293 147.61 245.84C145.83 245.48 144.271 244.455 142.644 243.651C137.066 240.894 130.614 240.702 124.586 239.163C123.503 238.886 122.41 238.556 121.491 237.919C120.571 237.283 119.838 236.291 119.766 235.175C119.477 230.675 126.934 233.01 129.132 233.734C130.252 234.106 131.351 234.545 132.425 235.037Z" fill="#E6C49E"/>
<path d="M97.0445 429.791L94.2773 431.389V402.639L97.0445 401.041V429.791Z" fill="#2D49B9"/>
<path d="M94.2777 431.389L91.5117 429.791V401.041L94.2777 402.639V431.389Z" fill="#1E317D"/>
<path d="M74.814 417.142L72.0469 418.74V389.99L74.814 388.392V417.142Z" fill="#2D49B9"/>
<path d="M72.0472 418.74L69.2812 417.142V388.392L72.0472 389.99V418.74Z" fill="#1E317D"/>
<path d="M115.735 419.01L112.969 420.607V391.858L115.735 390.26V419.01Z" fill="#2D49B9"/>
<path d="M112.966 420.607L110.199 419.01V390.26L112.966 391.858V420.607Z" fill="#1E317D"/>
<path d="M94.2764 406.692L72.8203 394.304L94.2764 381.916L115.734 394.304L94.2764 406.692Z" fill="#1E317D"/>
<path d="M69.2812 388.392V392.263L74.2391 395.124L78.5946 392.437L73.503 387.884L72.8197 360.413L69.2812 358.466V388.392Z" fill="#1E317D"/>
<path d="M94.2764 402.727L72.8203 390.339L94.2764 377.951L115.734 390.34L94.2764 402.727Z" fill="#3F6ECB"/>
<path d="M90.7385 376.004L69.2812 388.392V358.466L90.7385 346.079V376.004Z" fill="#1E317D"/>
<path d="M94.2776 377.951L72.8203 390.34V360.413L94.2776 348.025V377.951Z" fill="#2D49B9"/>
<path d="M115.735 390.34V394.304L94.2773 406.692V402.727L115.735 390.34Z" fill="#2D49B9"/>
<path d="M90.7385 346.079L94.2769 348.025L72.8197 360.413L69.2812 358.466L90.7385 346.079Z" fill="#3F6ECB"/>
<path d="M90.0602 335.991C90.3889 336.171 91.4139 336.965 92.4986 337.472C94.2279 338.103 95.3503 337.201 96.2566 339.545C96.4949 339.307 96.9281 339.266 97.2205 339.44C98.0481 339.922 97.3625 340.719 97.0408 341.639C96.7098 341.736 96.5337 341.984 96.5337 343.427C96.5337 344.915 96.482 345.751 96.8871 347.176C96.9399 348.084 96.8777 348.232 96.7943 348.491C96.617 349.043 94.9511 351.064 91.7848 351.162C90.4793 351.216 89.148 350.608 88.6444 350.045C88.1372 349.472 87.9048 348.825 87.9271 346.339C87.9552 341.958 87.0489 334.292 90.0602 335.991Z" fill="#D1A37E"/>
<path d="M116.846 389.526C118.047 389.526 118.981 389.773 119.991 390.787C120.179 390.975 120.479 391.379 120.433 391.32C121.186 392.289 121.545 396.209 121.503 395.88C121.503 395.97 121.491 396.056 121.466 396.137C121.469 396.421 121.101 400.919 120.767 403.075C120.618 404.235 120.048 413.094 120.069 412.675C119.48 424.574 118.962 419.48 122.005 429.663C122.389 430.943 123.189 431.91 121.891 432.376C121.603 432.478 120.105 432.713 119.192 432.713C118.145 432.713 117.308 432.537 115.915 430.372C113.146 426.079 111.648 424.628 112.288 422.928C113.066 420.885 113.676 421.555 113.668 419.023C113.65 416.612 112.236 411.737 111.928 409.393C111.426 405.912 111.982 404.958 112.705 402.98C113.608 400.51 114.177 398.288 113.144 395.792C112.266 393.738 108.665 389.526 116.846 389.526Z" fill="#D1A37E"/>
<path d="M102.901 385.03C105.06 385.03 107.119 386.064 112.767 386.885C124.285 388.451 122.996 386.415 131.858 397.871L131.854 397.866C135.06 401.407 136.307 406.074 142.192 409.286C142.282 409.335 147.148 412.2 147.407 412.395C148.136 412.938 148.428 413.222 148.602 413.664C148.817 414.211 148.682 414.828 148.002 415.413C146.633 416.596 144.886 416.538 143.717 416.512C141.549 416.467 140.509 416.324 138.522 415.476L138.575 415.497C138.245 415.355 134.137 413.33 133.319 412.297C131.034 409.44 133.99 408.358 130.267 405.437L130.31 405.463C122.597 399.729 122.766 399.928 121.55 397.784C120.278 395.534 119.858 395.157 119.203 394.824C118.429 394.568 115.563 393.972 113.587 393.972C104.48 393.972 102.663 394.829 100.953 392.939C99.2776 391.098 98.741 386.791 100.732 385.462C101.212 385.141 102.363 385.03 102.901 385.03Z" fill="#E8BF98"/>
<path d="M110.369 398.173C110.37 398.17 110.372 398.169 110.373 398.167C110.361 398.19 110.361 398.19 110.369 398.173Z" fill="#F4F4F4"/>
<path d="M84.7905 380.266C84.8973 378.251 84.4582 376.317 86.4622 376.317C87.1185 376.327 88.802 376.755 88.4733 376.68C91.6466 377.408 90.563 377.25 93.7328 377.25C97.1116 377.25 98.3396 376.2 101.445 374.898C103.185 374.109 103.222 373.842 103.772 373.15C103.83 373.077 104.002 372.88 103.994 372.889C104.225 372.561 104.508 372.014 105.301 372.014C106.187 372.014 105.749 372.47 108.989 373.872C119.04 377.999 115.155 376.02 120.959 382.117C121.828 383.027 122.791 384.831 123.304 385.921C123.495 386.177 123.73 386.561 124.069 387.009C124.21 387.195 125.021 388.195 125.021 388.42C125.021 388.488 125.001 388.549 124.973 388.606C124.986 388.745 124.96 388.889 124.887 389.013C124.452 389.756 123.69 389.073 123.232 388.848C121.768 388.325 120.377 388.684 119.045 389.119C115.526 390.286 114.096 392.384 113.617 392.964C112.431 394.399 110.488 397.95 110.37 398.175C109.602 399.53 106.271 399.328 104.786 399.12C104.636 399.12 103.71 398.926 103.56 398.903C90.3423 397.026 84.1248 392.934 84.7905 380.266ZM124.332 387.382C124.378 387.438 124.393 387.459 124.332 387.382V387.382Z" fill="#F4F4F4"/>
<path d="M96.6016 342.349C96.611 342.262 96.6145 342.249 96.6016 342.349V342.349Z" fill="#1C1C1C"/>
<path d="M93.3252 380.867C93.3094 380.864 93.3184 380.867 93.3252 380.867V380.867Z" fill="#1C1C1C"/>
<path d="M93.3314 380.868C93.3196 380.866 93.3243 380.866 93.3314 380.868V380.868Z" fill="#1C1C1C"/>
<path d="M75.4724 356.246L75.4689 356.335C75.7119 354.338 77.1536 349.747 79.8186 347.76L79.72 347.846C81.1675 346.707 82.9708 345.855 82.9708 345.855C84.1025 345.347 84.8269 344.601 85.6029 345.674C85.84 346.002 85.9844 346.486 87.6104 347.826L88.6929 348.556C90.1216 349.395 91.1019 349.715 93.0496 349.79C94.5535 349.856 94.4713 349.78 95.5572 348.039C96.2323 346.937 96.021 346.019 96.021 344.916C95.6923 343.838 95.6359 343.715 95.3788 343.323C94.7566 342.378 94.9209 341.396 96.2347 341.184L96.2804 341.177C96.271 341.177 96.2605 341.181 96.2511 341.184C96.3368 341.174 96.4225 341.168 96.5105 341.168C97.7843 341.168 100.11 341.665 100.446 341.724C102.028 342 102.858 342.475 104.095 343.435L104.038 343.399C104.334 343.632 104.513 343.882 104.513 343.882C106.592 346.547 104.77 343.309 109.866 355.113L109.764 354.888C111.034 357.758 110.758 358.126 111.623 360.342C112.549 362.141 112.881 362.437 111.828 363.346C111.581 363.56 111.262 363.807 110.857 364.109C109.442 365.218 108.961 365.314 108.263 365.488C108.221 365.498 108.178 365.512 108.136 365.521C107.595 365.649 107.059 365.686 106.642 365.35C105.965 368.374 105.728 365.574 105.043 370.915C104.921 371.822 104.954 372.284 104.79 373.294C104.695 374.074 104.53 374.16 104.375 375.055C104.342 375.519 104.786 377.138 100.686 378.33C96.3591 379.58 91.6044 379.827 88.9453 379.429L89.0368 379.434C88.2796 379.336 87.1878 379.122 86.4928 378.845C85.1932 378.305 85.7989 378.484 84.0708 372.508C84.0708 372.508 82.9684 368.934 82.8369 368.494C82.817 370.587 82.6784 373.743 82.6784 373.749C82.6784 376.634 82.8299 377.454 81.7205 377.832C81.3882 377.947 80.9444 378.02 80.3445 378.098L80.3844 378.086C79.322 378.23 77.5046 377.963 76.7908 377.467C76.63 377.355 76.4879 377.253 76.3635 377.147C75.274 376.253 75.456 375.344 75.4783 368.124C75.4924 364.127 74.9265 360.02 75.4724 356.246Z" fill="#57A9F2"/>
<path d="M99.9922 333.601V333.598C100.107 333.58 100.052 333.587 99.9922 333.601Z" fill="#D3C2FC"/>
<path d="M98.0391 342.563C98.0501 342.548 98.0524 342.545 98.0391 342.563V342.563Z" fill="#D3C2FC"/>
<path d="M98.0312 342.568C98.0362 342.562 98.0362 342.562 98.0312 342.568V342.568Z" fill="#D3C2FC"/>
<path d="M133.783 411.036C134.655 411.661 135.718 411.95 136.756 412.227C137.643 412.464 138.547 412.702 139.464 412.666C140.669 412.619 141.799 412.105 142.892 411.595C143.242 411.432 143.612 411.251 143.809 410.919C144.006 410.587 143.923 410.063 143.555 409.943C144.255 410.706 145.336 410.981 146.365 411.097C147.393 411.213 148.453 411.212 149.423 411.576C149.936 411.769 150.443 412.099 150.63 412.614C150.788 413.05 150.689 413.538 150.522 413.97C150.016 415.291 148.919 416.329 147.66 416.972C146.401 417.615 144.985 417.896 143.577 418.02C143.074 418.065 142.545 418.086 142.094 417.861C141.691 417.66 141.405 417.291 141.084 416.975C140.312 416.211 139.3 415.726 138.255 415.432C137.21 415.136 136.124 415.018 135.044 414.902C135.887 415.764 136.617 416.736 137.209 417.787C136.983 417.95 136.659 417.917 136.417 417.78C136.174 417.642 135.995 417.419 135.82 417.202C135.065 416.259 134.31 415.317 133.556 414.374C132.831 413.469 132.091 412.537 131.733 411.433C131.608 411.047 131.295 408.499 132.091 408.607C132.408 408.651 132.581 409.598 132.708 409.833C132.964 410.308 133.343 410.722 133.783 411.036Z" fill="#57A9F2"/>
<path d="M111.685 424.798C111.401 424.017 111.186 423.16 111.42 422.364C111.631 421.641 112.459 420.847 113.252 421.129C112.089 424.016 114.83 426.663 116.785 428.512C117.514 429.203 118.47 429.866 119.444 429.625C120.288 429.416 120.843 428.558 120.969 427.698C121.095 426.837 120.804 426.001 120.59 425.158C120.646 425.259 120.704 425.374 120.761 425.5C120.836 425.569 120.907 425.763 120.966 425.993C121.11 426.367 121.258 426.802 121.414 427.281C121.969 428.724 122.541 430.192 123.31 431.577C123.801 432.458 124.444 433.255 124.871 434.17C124.977 434.394 125.059 434.678 124.95 434.885C124.96 434.987 124.96 435.089 124.935 435.195C124.817 435.698 124.297 435.999 123.802 436.15C122.674 436.497 121.44 436.381 120.321 436.005C119.202 435.63 118.182 435.009 117.206 434.345C116.636 433.955 116.065 433.536 115.68 432.963C115.344 432.465 115.179 431.904 115.094 431.315C114.336 430.13 113.77 428.804 113.338 427.464C113.277 428.563 113.217 429.663 113.156 430.762C112.577 430.473 112.328 429.769 112.304 429.122C112.279 428.475 112.424 427.829 112.381 427.183C112.325 426.351 111.969 425.579 111.685 424.798Z" fill="#57A9F2"/>
<path d="M93.8973 326.088C94.8259 326.088 95.9823 326.575 97.3418 327.238C104.729 330.82 99.3235 341.068 97.586 343.221C96.3239 344.939 95.4716 345.63 93.9642 344.227C92.0001 342.392 90.2931 340.1 89.2999 338.397C87.6011 335.505 87.4015 329.813 91.1313 327.102C91.8334 326.597 92.9534 326.088 93.8973 326.088Z" fill="#E8BF98"/>
<path d="M96.3838 317.526C100.379 318.78 101.554 320.691 102.836 324.766C103.205 325.906 103.367 326.096 103.585 326.885C104.143 328.928 104.325 329.144 104.788 329.793C107.95 334.248 103.977 339.909 104.666 347.492C104.725 347.821 104.918 348.525 104.898 348.449C106.032 352.774 105.792 353.992 104.761 357.207C104.645 357.57 104.416 358.447 103.553 358.447C102.768 358.447 102.421 357.926 102.214 357.167C101.202 353.649 99.5677 352.122 99.05 349.308C98.4195 345.934 98.1871 347.411 97.7973 344.185L97.8114 344.236C97.613 342.726 97.8384 342.831 98.0439 342.554C99.5654 340.656 100.966 334.501 100.849 334.077C100.758 333.747 100.287 333.402 99.6781 333.711C96.1561 334.399 92.256 333.702 91.9273 333.614C91.9625 335.718 91.446 335.755 90.3553 337.68C87.2583 343.256 92.3429 352.802 91.9073 358.596C91.8029 359.934 92.121 361.172 90.8261 361.593C88.815 362.231 87.7889 360.945 87.0564 360.235C85.3705 358.592 84.0955 356.197 83.8666 354.782C83.5038 352.536 83.6658 352.72 83.0131 351.032L83.0108 351.033C81.9729 348.663 80.1767 344.541 79.7682 341.449L79.801 341.643C79.3044 338.558 79.8433 337.116 81.0631 334.311C83.7868 328.079 82.3111 325.198 84.8293 321.878C85.0805 321.548 86.7723 319.542 88.754 318.52C91.0891 317.313 94.3904 316.899 96.3838 317.526Z" fill="#1E3358"/>
<path d="M130.177 384.046L112.732 374.966L90.9955 385.749H88.9609V386.77H88.9797L106.326 396.241L130.177 384.046Z" fill="#2065BF"/>
<path d="M106.326 395.275L88.9609 385.793L112.732 374L130.177 383.08L106.326 395.275Z" fill="#79C3F2"/>
<path d="M139.431 366.856L138.668 366.284L114.912 378.496L105.48 395.781L106.326 396.241L108.305 394.801L107.726 394.563L129.414 383.473L137.55 368.362L137.876 368.702L139.431 366.856Z" fill="#3A7FD8"/>
<path d="M106.328 396.241L115.678 379.068L139.434 366.856L130.179 384.046L106.328 396.241Z" fill="#79C3F2"/>
<path d="M111.325 381.914L106.424 384.743C105.872 385.061 105.037 385.097 104.559 384.821L101.084 382.814C100.606 382.539 100.666 382.057 101.218 381.738L106.12 378.909C106.671 378.59 107.506 378.555 107.984 378.831L111.459 380.837C111.937 381.113 111.877 381.596 111.325 381.914Z" fill="#3A7FD8"/>
<path d="M76.7214 381.245L76.665 381.137C76.9738 381.923 77.225 382.588 78.0433 383.226L77.9846 383.187C79.6071 384.49 79.8994 384.592 87.4154 384.535C88.4649 384.526 91.0254 384.483 93.6212 384.74H93.5942C94.3678 384.845 96.1347 385.852 96.8649 386.118C96.872 386.122 96.8778 386.125 96.8778 386.125C96.9142 386.142 96.9142 386.138 96.9929 386.171C96.9929 386.171 97.8675 386.569 98.9676 386.747C100.722 386.972 104.538 387.073 103.719 385.55C103.538 385.218 103.189 384.168 102.04 383.374C99.7001 381.779 100.125 381.779 95.2284 381.117C95.219 381.113 95.2025 381.11 95.2025 381.11C95.1204 381.1 93.465 380.889 93.4556 380.885C93.4263 380.882 93.3605 380.873 93.3312 380.869C92.2182 380.714 91.9553 380.714 91.2872 380.619C89.2867 380.349 85.0486 379.411 82.8638 379.214C81.86 379.125 81.7121 379.24 81.7215 377.832C81.3892 377.947 80.9455 378.02 80.3455 378.098L80.3855 378.086C79.323 378.23 77.5056 377.963 76.7918 377.467C76.631 377.355 76.4889 377.253 76.3645 377.147C76.3128 379.099 76.2119 380.135 76.7214 381.245Z" fill="#E8BF98"/>
<path d="M109.34 380.675C109.564 380.254 109.771 379.935 109.834 379.803C110.252 378.914 110.498 376.881 110.495 376.463C110.482 375.304 111.11 375.124 111.838 372.818C111.998 372.318 112.67 368.737 112.706 368.408L112.699 368.497C112.769 368.014 112.801 367.592 112.801 367.592C112.995 365.67 112.466 364.614 111.827 363.347C111.58 363.561 111.261 363.809 110.856 364.11C109.441 365.22 108.96 365.315 108.263 365.49C108.22 365.499 108.177 365.513 108.135 365.523C108.286 366.092 108.378 366.72 108.378 367.434C108.401 367.766 108.414 368.109 108.414 368.458C108.414 370.985 107.825 373.874 106.901 376.477L106.733 376.892C104.997 381.001 107.896 383.43 109.34 380.675Z" fill="#E8BF98"/>
<path d="M282.316 424.909C282.621 424.865 282.921 424.814 283.218 424.757C285.645 424.287 288.109 423.953 290.403 422.982C291.431 422.546 292.412 421.993 293.472 421.643C294.532 421.293 295.718 421.163 296.752 421.583C295.799 422.331 294.653 422.83 293.455 423.017C296.08 422.975 298.702 422.749 301.297 422.345C301.433 422.538 301.346 422.803 301.248 423.018C300.761 424.079 300.072 425.049 299.228 425.857C298.822 426.245 298.371 426.602 297.847 426.807C297.284 427.026 296.666 427.057 296.062 427.039C294.377 426.991 292.439 426.302 290.862 426.897C290.111 427.18 289.652 427.152 288.39 427.842C286.495 428.879 284.593 429.902 282.692 430.927C280.554 432.08 275.5 434.774 272.907 433.692C271.466 433.091 270.753 432.18 270.929 430.63C271.106 429.07 272.45 428.238 273.84 427.507C275.917 426.414 280.042 425.246 282.316 424.909Z" fill="#E8BF98"/>
<path d="M280.652 404.441C280.837 405.226 280.801 406.041 280.761 406.845C280.366 414.69 279.502 422.599 276.757 430.069C276.461 430.874 276.131 431.693 275.529 432.347C274.925 432.999 273.989 433.465 273.062 433.336C272.142 433.208 271.416 432.519 271.064 431.743C270.712 430.966 270.667 430.105 270.642 429.265C270.415 422.044 271.137 414.767 273.172 407.763C273.649 406.121 274.261 404.402 275.68 403.281C276.472 402.656 277.796 402.077 278.875 402.304C279.903 402.516 280.448 403.568 280.652 404.441Z" fill="#E8BF98"/>
<path d="M306.608 419.728C306.704 419.437 306.794 419.145 306.875 418.854C307.543 416.474 308.349 414.121 308.51 411.635C308.581 410.521 308.526 409.396 308.689 408.291C308.852 407.187 309.266 406.069 310.106 405.333C310.348 406.52 310.279 407.769 309.909 408.922C311.048 406.556 312.022 404.112 312.824 401.611C313.058 401.576 313.256 401.772 313.404 401.956C314.135 402.867 314.692 403.918 315.036 405.035C315.201 405.572 315.319 406.135 315.266 406.695C315.21 407.296 314.96 407.863 314.674 408.395C313.876 409.879 312.392 411.303 312.216 412.979C312.131 413.779 311.901 414.177 311.952 415.612C312.029 417.771 312.09 419.93 312.156 422.089C312.229 424.517 312.371 430.243 310.241 432.077C309.058 433.094 307.924 433.325 306.617 432.472C305.302 431.614 305.16 430.04 305.131 428.47C305.085 426.123 305.889 421.912 306.608 419.728Z" fill="#E8BF98"/>
<path d="M281.799 405.883C282.008 406.873 282.008 407.895 282.007 408.907C282.006 409.706 282.006 410.507 282.005 411.306C282.003 412.031 282.003 412.756 281.94 413.478C281.878 414.188 281.755 414.893 281.63 415.595C281.42 416.797 281.209 417.999 280.999 419.201C276.6 419.505 272.109 418.302 268.453 415.837C268.895 413.956 269.469 412.107 270.172 410.307C270.86 408.546 271.689 406.807 272.94 405.392C274.168 404.002 276.097 402.823 277.931 402.417C279.952 401.971 281.441 404.194 281.799 405.883Z" fill="#96BDEF"/>
<path d="M291.814 400.701C289.652 403.032 286.199 404.079 283.107 403.341C282.225 403.129 281.365 402.784 280.457 402.744C281.712 401.934 282.351 400.437 282.636 398.972C282.958 397.336 282.915 395.622 282.476 394.011C282.389 393.689 281.655 392.305 281.993 392.051C282.28 391.838 283.897 392.539 284.361 392.528C284.876 392.518 285.36 392.361 285.836 392.162C285.915 392.128 285.994 392.094 286.073 392.057L286.076 392.055C286.608 391.814 287.13 391.537 287.679 391.361C287.795 391.322 287.918 391.291 288.035 391.322C288.133 391.351 288.214 391.42 288.29 391.489C289.001 392.132 289.715 392.773 290.429 393.414C290.193 394.118 290.011 394.842 289.892 395.575C289.882 395.632 289.874 395.69 289.864 395.75C289.76 396.443 289.709 397.147 289.712 397.85C289.712 398.051 289.718 398.252 289.74 398.452C289.763 398.71 289.811 398.963 289.902 399.206C290.198 400.004 290.967 400.608 291.814 400.701Z" fill="#D1A37E"/>
<path d="M294.459 393.957C294.064 394.846 293.462 395.78 292.507 395.971C292.199 396.034 291.375 395.971 290.499 395.846C290.287 395.819 290.073 395.784 289.864 395.748C288.982 395.597 288.168 395.398 287.909 395.215C287.329 394.808 286.298 393.109 286.205 392.872C286.18 392.811 286.148 392.741 286.109 392.665C286.036 392.516 285.939 392.344 285.837 392.161C285.52 391.601 285.141 390.941 285.141 390.529C285.141 387.547 286.401 386.763 287.51 385.306C288.619 383.851 290.228 382.826 291.953 382.219C292.887 381.892 294.02 381.633 294.998 381.919C295.871 382.172 295.758 382.807 295.803 383.59C296.004 387.15 295.92 390.658 294.459 393.957Z" fill="#E8BF98"/>
<path d="M278.567 506.11C278.48 506.762 278.395 507.439 278.597 508.065C279.002 509.321 280.482 509.968 281.797 509.853C283.112 509.738 284.296 509.044 285.425 508.358C287.27 507.237 289.112 506.082 290.695 504.612C291.291 504.059 291.858 503.446 292.186 502.703C292.514 501.959 292.572 501.057 292.168 500.352C291.541 499.255 290.029 498.983 288.806 499.296C287.582 499.61 286.525 500.362 285.379 500.894C283.82 501.619 282.902 502.166 281.304 502.783C279.398 503.52 278.826 504.188 278.567 506.11Z" fill="#6FA4F4"/>
<path d="M276.459 445.177C276.126 449.259 276.853 453.341 277.448 457.393C278.074 461.65 278.555 465.929 278.895 470.219C278.999 471.539 279.089 472.871 278.952 474.188C278.73 476.319 277.925 478.343 277.493 480.442C276.759 484.004 277.117 487.689 277.479 491.307C277.718 493.703 277.958 496.1 278.196 498.497C278.423 500.769 278.654 503.06 279.344 505.237C281.374 505.978 282.512 505.156 283.227 504.462C283.6 498.172 284.617 491.919 286.253 485.833C286.766 483.926 287.34 482.032 287.671 480.086C288.045 477.888 288.105 475.652 288.253 473.427C288.821 464.935 290.706 456.466 289.945 447.988C289.652 444.709 288.964 441.48 288.278 438.261C288.216 437.969 288.146 437.66 287.936 437.449C287.701 437.212 287.345 437.15 287.014 437.099C285.272 436.834 283.531 436.57 281.789 436.304C280.732 436.143 279.34 435.635 278.499 436.527C277.672 437.404 277.508 439.37 277.239 440.497C276.875 442.036 276.585 443.598 276.459 445.177Z" fill="#3F6ECB"/>
<path d="M295.888 509.571C295.773 510.256 295.659 510.967 295.843 511.637C296.223 513.01 297.785 513.774 299.208 513.717C300.63 513.659 301.942 512.977 303.2 512.31C305.163 511.269 307.13 510.226 308.997 509.021C310.085 508.319 311.183 507.508 311.73 506.336C312.277 505.162 312.06 503.537 310.939 502.89C309.722 502.189 308.224 502.904 306.913 503.406C305.501 503.947 304.005 504.229 302.52 504.509C301.014 504.793 298.433 504.77 297.119 505.53C295.976 506.189 296.099 508.311 295.888 509.571Z" fill="#6FA4F4"/>
<path d="M286.613 452.739C287.472 454.025 288.505 455.19 289.316 456.506C290.423 458.305 291.086 460.336 291.737 462.345C293.522 467.845 295.324 473.446 295.418 479.228C295.483 483.277 294.705 487.295 294.602 491.342C294.532 494.036 294.763 496.725 294.991 499.41C295.226 502.164 295.462 504.917 295.697 507.672C297.938 507.884 300.24 507.404 302.209 506.315C301.831 499.502 302.557 492.667 303.728 485.946C304.294 482.7 304.966 479.464 305.258 476.183C305.796 470.159 305.049 464.103 304.305 458.102C303.381 450.655 302.438 443.131 299.838 436.093C300.014 436.57 287.336 437.794 286.244 437.903C282.201 438.308 283.304 443.184 283.908 446.114C284.394 448.462 285.275 450.739 286.613 452.739Z" fill="#3F6ECB"/>
<path d="M277.844 419.072C277.415 418.743 276.357 418.846 275.82 418.741C275.522 418.684 275.12 418.59 274.89 418.369C274.537 418.031 274.707 417.632 274.796 417.142C275.168 415.111 275.166 412.912 275.074 410.818C275.043 410.108 274.913 409.42 274.915 408.701C274.915 408.207 275.051 407.877 275.168 407.433C275.915 408.237 275.726 410.146 276.018 411.186C276.326 412.279 276.666 413.381 276.88 414.49C277.035 415.295 276.934 416.147 277.108 416.959C277.207 417.419 277.452 418.565 277.844 419.072Z" fill="#6FA4F4"/>
<path d="M283.713 469.935C284.116 471.299 284.58 472.655 284.772 474.064C284.995 475.688 284.854 477.339 284.712 478.973C284.551 480.828 284.391 482.684 284.23 484.539C283.814 489.337 283.457 494.148 282.68 498.902C282.368 500.808 283.02 502.346 283.222 504.488C285.089 498.438 285.941 492.757 287.095 486.531C288.396 479.519 288.775 472.373 289.152 465.251C289.261 463.195 289.369 461.139 289.479 459.082C289.534 458.04 289.575 456.931 289.06 456.024C288.545 455.119 287.58 454.588 286.699 454.035C284.42 452.608 282.955 450.554 280.96 448.896C280.249 449.844 280.905 452.316 280.998 453.455C281.149 455.311 281.324 457.166 281.551 459.015C282.005 462.702 282.66 466.37 283.713 469.935Z" fill="#2F5483"/>
<path d="M304.89 413.433L289.884 411.709C289.117 411.621 288.926 410.969 289.456 410.253L303.642 391.122C304.173 390.405 305.225 389.897 305.991 389.985L320.997 391.71C321.764 391.798 321.955 392.449 321.425 393.166L307.239 412.297C306.71 413.013 305.658 413.522 304.89 413.433Z" fill="#F2A71D"/>
<path d="M291.365 409.807L304.641 391.902C304.943 391.496 305.539 391.207 305.975 391.258L319.279 392.786C319.714 392.837 319.822 393.207 319.52 393.613L306.245 411.518C305.943 411.924 305.347 412.213 304.911 412.162L291.607 410.633C291.173 410.583 291.065 410.213 291.365 409.807Z" fill="#C4DFF8"/>
<path d="M300.548 423.602C300.684 422.335 300.88 421.069 300.873 419.795C300.86 417.493 300.188 415.251 299.521 413.047C298.624 410.083 297.727 407.12 296.83 404.155C296.502 403.071 296.169 401.976 295.621 400.984C294.177 401.227 292.677 401.132 291.276 400.707L291.481 400.849C289.544 402.485 286.972 403.341 284.442 403.217C284.443 403.213 284.444 403.208 284.445 403.203C284.168 403.069 283.7 403.112 283.354 402.958C283.052 402.824 282.723 402.641 282.441 402.464C282.006 402.189 281.495 401.583 281.725 401.036C280.914 401.629 280.332 401.825 279.333 401.872C278.627 401.905 277.762 401.965 277.199 402.447C276.238 403.273 275.712 404.537 275.498 405.79C275.478 405.848 275.457 405.905 275.441 405.965C275.128 407.043 275.22 408.193 275.327 409.31C275.55 411.651 275.827 413.995 276.399 416.275C276.757 417.703 277.23 419.105 277.494 420.555C278.558 426.394 276.164 432.462 277.284 438.291C277.994 438.239 278.581 438.791 279.139 439.232C281.033 440.731 283.531 441.256 285.946 441.315C288.361 441.374 290.765 441.013 293.179 440.953C295.928 440.884 298.999 441.102 301.073 439.294C300.431 434.089 299.987 428.818 300.548 423.602Z" fill="#96BDEF"/>
<path d="M295.27 403.001C294.513 402.555 293.48 402.986 292.987 403.714C292.495 404.442 292.414 405.366 292.396 406.245C292.286 411.523 293.853 416.689 294.286 421.951C294.378 423.064 294.418 424.199 294.138 425.279C293.868 426.325 293.314 427.274 292.968 428.298C292.289 430.307 292.451 432.505 292.829 434.592C293.207 436.681 293.793 438.738 293.946 440.855C296.556 440.713 299.143 440.178 301.596 439.274C301.748 439.218 301.914 439.15 301.994 439.008C302.076 438.862 302.043 438.682 302.01 438.517C301.009 433.558 301.069 428.447 301.402 423.398C301.486 422.116 301.589 420.83 301.49 419.549C301.4 418.37 301.141 417.211 300.882 416.057C300.254 413.268 299.551 410.358 297.665 408.208C296.974 407.421 296.138 406.756 295.553 405.887C294.967 405.018 294.671 403.84 295.186 402.927C295.423 403.285 295.66 403.644 295.897 404.002" fill="#6FA4F4"/>
<path d="M287.377 394.706C287.898 394.271 288.405 393.811 288.807 393.263C289.774 391.945 290.048 390.241 290.858 388.821C291.38 387.906 292.124 387.119 293.01 386.548C293.746 386.073 294.58 385.742 295.235 385.161C296.235 384.277 297.266 382.77 297.262 381.436C297.257 380.102 295.369 378.067 294.13 377.574C285.116 373.984 282.033 379.274 280.675 380.863C279.237 382.548 279.085 384.427 279.044 386.642C279.022 387.76 279.516 390.057 279.925 391.097C280.53 392.63 281.228 393.682 282.148 394.81C283.675 396.689 285.718 396.092 287.377 394.706Z" fill="#1E3358"/>
<path d="M306.084 432.425C305.975 432.375 305.867 432.314 305.765 432.249C305.048 431.789 304.543 431.089 304.064 430.399C301.236 426.316 298.767 421.968 296.819 417.379C295.934 415.293 295.155 413.158 294.5 410.974C294.008 409.335 293.587 407.56 294.169 405.848C294.492 404.893 295.289 403.687 296.32 403.291C297.298 402.913 298.326 403.499 298.974 404.121C299.556 404.68 299.969 405.382 300.372 406.08C304.303 412.881 307.878 419.988 309.636 427.749C309.826 428.587 309.993 429.452 309.842 430.329C309.692 431.204 309.159 432.106 308.311 432.5C307.587 432.836 306.759 432.749 306.084 432.425Z" fill="#E8BF98"/>
<path d="M299.473 402.21C300.235 402.876 300.847 403.693 301.454 404.503C301.933 405.143 302.414 405.784 302.893 406.424C303.327 407.003 303.762 407.585 304.144 408.2C304.521 408.806 304.844 409.443 305.168 410.078C305.721 411.166 306.274 412.255 306.827 413.342C303.491 416.226 299.177 417.958 294.773 418.182C293.997 416.413 293.347 414.59 292.829 412.728C292.323 410.906 291.941 409.019 292.092 407.134C292.241 405.285 293.074 403.184 294.298 401.759C295.647 400.188 298.172 401.072 299.473 402.21Z" fill="#96BDEF"/>
<path d="M290.015 398.518C290.138 398.646 290.065 398.599 289.98 398.52C289.991 398.519 290.004 398.519 290.015 398.518Z" fill="#E27D26"/>
<path d="M291.937 387.841C291.75 387.543 291.514 387.262 291.196 387.114C290.878 386.966 290.464 386.983 290.214 387.23C290.02 387.421 289.955 387.715 289.982 387.986C290.009 388.257 290.115 388.513 290.22 388.764C290.585 389.641 290.958 390.533 291.565 391.265C291.671 391.392 291.822 391.527 291.981 391.477C292.073 391.449 292.137 391.363 292.19 391.28C292.19 391.063 292.495 390.663 292.557 390.425C292.643 390.097 292.67 389.756 292.649 389.417C292.626 389.423 292.68 389.482 292.611 389.474C292.274 389.089 292.236 388.32 291.937 387.841Z" fill="#E8BF98"/>
<path d="M331.045 142.288L296.544 122.368C294.443 121.156 292.535 120.976 291.087 121.642L291.08 121.631L290.909 121.726C290.829 121.767 290.751 121.81 290.675 121.857L286.418 124.219C286.418 124.219 287.603 126.266 287.731 126.266C287.761 126.266 288.04 126.129 288.441 125.923C288.397 126.295 288.367 126.679 288.367 127.09V142.544C288.367 147.756 292.03 154.1 296.544 156.707L319.478 169.948L322.758 177.609L321.341 178.099L322.076 189.054L326.583 186.543L329.041 175.47L330.819 176.496L332.116 179.818L336.789 177.219V177.215C338.29 176.37 339.222 174.533 339.222 171.904V156.451C339.222 151.232 335.561 144.894 331.045 142.288Z" fill="#E27D26"/>
<path d="M283.859 129.6V145.054C283.859 150.266 287.522 156.61 292.036 159.217L314.97 172.458L322.077 189.053L324.535 177.981L326.538 179.137C331.052 181.743 334.715 179.629 334.715 174.416V158.963C334.715 153.745 331.052 147.406 326.538 144.8L292.036 124.881C287.522 122.273 283.859 124.382 283.859 129.6Z" fill="#EAAA2F"/>
<path d="M261.481 238.898L221.828 216.004V139.207L261.481 162.1V238.898Z" fill="#75A6EE"/>
<path d="M258.906 165.105L224.398 145.183V143.915L258.906 163.838V165.105Z" fill="#567ED3"/>
<path d="M258.906 169.513L224.398 149.59V148.322L258.906 168.245V169.513Z" fill="#567ED3"/>
<path d="M258.906 173.921L224.398 153.998V152.73L258.906 172.652V173.921Z" fill="#567ED3"/>
<path d="M258.906 178.328L224.398 158.405V157.138L258.906 177.06V178.328Z" fill="#567ED3"/>
<path d="M258.906 182.735L224.398 162.813V161.545L258.906 181.468V182.735Z" fill="#567ED3"/>
<path d="M258.906 182.735L224.398 162.813V161.545L258.906 181.468V182.735Z" fill="#567ED3"/>
<path d="M258.906 187.144L224.398 167.221V165.953L258.906 185.875V187.144Z" fill="#567ED3"/>
<path d="M258.906 191.551L224.398 171.628V170.36L258.906 190.283V191.551Z" fill="#567ED3"/>
<path d="M258.906 195.958L224.398 176.035V174.768L258.906 194.69V195.958Z" fill="#567ED3"/>
<path d="M258.906 200.365L224.398 180.444V179.176L258.906 199.097V200.365Z" fill="#567ED3"/>
<path d="M258.906 215.672L224.398 195.749V194.481L258.906 214.404V215.672Z" fill="#567ED3"/>
<path d="M258.906 220.079L224.398 200.158V198.889L258.906 218.811V220.079Z" fill="#567ED3"/>
<path d="M258.906 224.488L224.398 204.565V203.297L258.906 223.218V224.488Z" fill="#567ED3"/>
<path d="M258.906 228.895L224.398 208.972V207.704L258.906 227.627V228.895Z" fill="#567ED3"/>
<path d="M258.906 233.302L224.398 213.38V212.111L258.906 232.034V233.302Z" fill="#567ED3"/>
<path d="M471.932 131.095L453.242 120.304V89.0526L471.932 99.8428C472.603 100.23 473.146 101.268 473.146 102.163V130.177C473.146 131.071 472.603 131.482 471.932 131.095Z" fill="#F2BF29"/>
<path d="M467.012 104.119L472.058 101.175V129.904L467.012 132.847V104.119Z" fill="#F2A71D"/>
<path d="M448.203 91.9958L453.248 89.0526V120.304L448.203 123.248V91.9958Z" fill="#F2D130"/>
<path d="M449.293 93.8883L454.339 90.9451L472.058 101.175L467.012 104.119L449.293 93.8883Z" fill="#D86F13"/>
<path d="M466.889 134.038L448.199 123.248V91.9958L466.889 102.786C467.56 103.173 468.103 104.211 468.103 105.106V133.12C468.104 134.014 467.561 134.425 466.889 134.038Z" fill="#F2BF29"/>
<path d="M180.337 159.874L181.826 158.97L181.442 158.272L179.969 159.221L180.337 159.874Z" fill="#F2BF29"/>
<path d="M182.372 126.841V157.742C182.372 158.961 181.516 159.455 180.46 158.846L162.255 148.335C161.2 147.726 160.344 146.243 160.344 145.024V123.234L170.142 117.573L180.46 123.531C181.516 124.14 182.372 125.623 182.372 126.841Z" fill="#F2BF29"/>
<path d="M180.903 127.735V158.636C180.903 159.854 180.047 160.348 178.992 159.739L160.786 149.228C159.731 148.619 158.875 147.136 158.875 145.918V124.127L168.673 118.466L178.992 124.423C180.047 125.033 180.903 126.516 180.903 127.735Z" fill="#F2A71D"/>
<path d="M169.145 118.74V127.892C169.145 129.111 168.29 129.605 167.234 128.996L159.344 124.44L168.67 118.467L169.145 118.74Z" fill="#F4C94B"/>
<path d="M168.673 118.47V127.576C168.673 128.795 167.817 129.289 166.762 128.68L158.871 124.125L168.673 118.47Z" fill="#F2911A"/>
<path d="M162.336 130.679L177.627 139.506" stroke="#F2911A" stroke-width="0.6665" stroke-miterlimit="10" stroke-linecap="round"/>
<path d="M162.336 134.322L177.627 143.151" stroke="#F2911A" stroke-width="0.6665" stroke-miterlimit="10" stroke-linecap="round"/>
<path d="M162.336 137.966L177.627 146.793" stroke="#F2911A" stroke-width="0.6665" stroke-miterlimit="10" stroke-linecap="round"/>
<path d="M162.336 141.609L177.627 150.438" stroke="#F2911A" stroke-width="0.6665" stroke-miterlimit="10" stroke-linecap="round"/>
<path d="M253.673 106.334L207.797 79.8473V46.6336L253.673 73.1202V106.334Z" fill="#3A7FD8"/>
<path d="M251.783 107.455L205.906 80.9684V47.7548L251.783 74.2414V107.455Z" fill="#BADCF2"/>
<path d="M249.962 75.2921V104.302L207.727 79.9165V50.9082L249.962 75.2921Z" fill="#2065BF"/>
<path d="M249.963 95.3335V104.302L217.336 85.4649L224.913 81.094L237.532 73.8047L249.963 95.3335Z" fill="#79C3F2"/>
<path d="M232.486 94.2112L207.727 79.9165V76.9991L218.843 70.5821L224.913 81.094L232.486 94.2112Z" fill="#57A9F2"/>
<path d="M221.926 66.8851C221.926 65.4916 222.904 64.9269 224.111 65.6242C225.317 66.3216 226.295 68.0145 226.295 69.408C226.295 70.8016 225.317 71.3663 224.111 70.6689C222.904 69.9716 221.926 68.2775 221.926 66.8851Z" fill="#79C3F2"/>
<path d="M205.906 47.7548L207.798 46.6336L253.674 73.1202L251.783 74.2414L205.906 47.7548Z" fill="#3A7FD8"/>
<path d="M251.781 107.455L253.673 106.334V73.1202L251.781 74.2414V107.455Z" fill="#57A9F2"/>
</svg>
