<svg width="587" height="576" viewBox="0 0 587 576" fill="none" xmlns="http://www.w3.org/2000/svg">
<path d="M411.303 511.419L181.59 378.794C177.713 376.556 178.199 372.648 182.676 370.064L338.767 279.945C343.242 277.361 350.013 277.08 353.889 279.318L583.603 411.943C587.479 414.181 586.992 418.089 582.516 420.673L426.425 510.791C421.949 513.376 415.18 513.657 411.303 511.419Z" fill="#C1D6F2"/>
<path d="M109.03 484.746L73.1953 464.056L109.03 443.368L144.865 464.057L109.03 484.746Z" fill="#C1D6F2"/>
<path d="M357.569 562.168C357.569 569.634 343.798 575.687 326.812 575.687C309.825 575.687 296.055 569.634 296.055 562.168C296.055 554.701 309.825 548.649 326.812 548.649C343.798 548.649 357.569 554.701 357.569 562.168Z" fill="#E3E6F4"/>
<path d="M281.213 548.649C281.213 556.115 267.443 562.168 250.456 562.168C233.47 562.168 219.699 556.115 219.699 548.649C219.699 541.183 233.47 535.13 250.456 535.13C267.443 535.13 281.213 541.183 281.213 548.649Z" fill="#E3E6F4"/>
<path d="M174.041 475.543C174.041 483.01 160.271 489.062 143.284 489.062C126.298 489.062 112.527 483.01 112.527 475.543C112.527 468.077 126.298 462.024 143.284 462.024C160.271 462.024 174.041 468.077 174.041 475.543Z" fill="#E3E6F4"/>
<path d="M148.455 363.292C163.519 363.292 175.73 357.925 175.73 351.305C175.73 344.684 163.519 339.318 148.455 339.318C133.391 339.318 121.18 344.684 121.18 351.305C121.18 357.925 133.391 363.292 148.455 363.292Z" fill="#E3E6F4"/>
<path d="M332.594 87.2101L338.196 84.1734L339.862 86.7036L333.944 89.5405L332.594 87.2101Z" fill="#94CFF1"/>
<path d="M563.865 398.95L558.46 401.897L557.824 397.568L563.401 394.455L563.865 398.95Z" fill="#94CFF1"/>
<path d="M559.566 398.573L342.135 273.038C338.466 270.921 335.492 265.238 335.492 260.346V89.7454C335.492 84.8536 338.466 82.6055 342.135 84.7231L559.566 210.258C563.235 212.375 566.209 218.058 566.209 222.95V393.552C566.209 398.442 563.235 400.69 559.566 398.573Z" fill="#94CFF1"/>
<path d="M554.14 401.532L336.709 275.999C333.04 273.881 330.066 268.199 330.066 263.307V92.7038C330.066 87.812 333.04 85.5638 336.709 87.6827L554.14 213.216C557.809 215.334 560.783 221.017 560.783 225.908V396.51C560.784 401.402 557.81 403.65 554.14 401.532Z" fill="#2953AC"/>
<path d="M340.316 257.387V110.459C340.316 105.567 343.29 103.319 346.959 105.438L543.888 219.134C547.557 221.252 550.531 226.935 550.531 231.826V378.755C550.531 383.647 547.557 385.895 543.888 383.777L346.959 270.08C343.29 267.961 340.316 262.279 340.316 257.387Z" fill="#E5EEFD"/>
<path d="M198.005 368.809H175.309V381.139H198.005V368.809Z" fill="#3C69BB"/>
<path d="M560.786 407.061H546.637V419.916H560.786V407.061Z" fill="#3C69BB"/>
<path d="M395.217 510.175L177.785 384.641C174.117 382.524 174.576 378.824 178.813 376.377L326.558 291.077C330.794 288.631 337.202 288.365 340.871 290.484L558.303 416.017C561.971 418.136 561.512 421.835 557.275 424.281L409.531 509.582C405.294 512.027 398.887 512.294 395.217 510.175Z" fill="#2953AC"/>
<path d="M395.217 498.01L177.785 372.477C174.117 370.359 174.576 366.659 178.813 364.212L326.558 278.912C330.794 276.466 337.202 276.2 340.871 278.319L558.303 403.852C561.971 405.97 561.512 409.67 557.275 412.116L409.531 497.417C405.294 499.862 398.887 500.129 395.217 498.01Z" fill="#F6F5FB"/>
<path d="M249.178 335.426L328.098 289.861C331.486 287.905 336.61 287.693 339.545 289.387L539.135 404.62C542.069 406.315 541.702 409.273 538.314 411.229L459.393 456.793C456.005 458.749 450.881 458.961 447.946 457.268L248.356 342.034C245.422 340.341 245.79 337.383 249.178 335.426Z" fill="#ACC1E1"/>
<path d="M268.36 405.479L298.877 387.86C302.363 385.848 307.635 385.628 310.653 387.371L369.416 421.298C372.435 423.041 372.056 426.086 368.57 428.097L338.054 445.716C334.568 447.727 329.296 447.947 326.278 446.204L267.514 412.277C264.496 410.537 264.874 407.492 268.36 405.479Z" fill="#6FA4F4"/>
<path d="M338.337 307.68L324.711 299.813C323.237 298.962 323.237 297.582 324.711 296.731L331.651 292.724C333.125 291.873 335.516 291.873 336.991 292.724L350.615 300.591C352.089 301.443 352.089 302.822 350.615 303.674L343.675 307.68C342.201 308.532 339.811 308.532 338.337 307.68Z" fill="#507FC6"/>
<path d="M361.177 320.865L347.551 312.998C346.077 312.147 346.077 310.767 347.551 309.915L354.491 305.909C355.965 305.058 358.355 305.058 359.829 305.909L373.455 313.776C374.929 314.627 374.929 316.007 373.455 316.858L366.515 320.865C365.041 321.716 362.651 321.716 361.177 320.865Z" fill="#507FC6"/>
<path d="M384.013 334.051L370.387 326.184C368.913 325.332 368.913 323.953 370.387 323.101L377.327 319.095C378.801 318.243 381.191 318.243 382.665 319.095L396.291 326.962C397.765 327.813 397.765 329.193 396.291 330.044L389.351 334.051C387.877 334.902 385.487 334.902 384.013 334.051Z" fill="#507FC6"/>
<path d="M406.847 347.235L393.223 339.368C391.749 338.517 391.749 337.137 393.223 336.286L400.163 332.279C401.637 331.428 404.027 331.428 405.502 332.279L419.128 340.146C420.602 340.998 420.602 342.377 419.128 343.229L412.188 347.235C410.712 348.087 408.321 348.087 406.847 347.235Z" fill="#507FC6"/>
<path d="M429.688 360.421L416.062 352.555C414.589 351.704 414.589 350.324 416.062 349.473L423.003 345.466C424.477 344.615 426.867 344.615 428.341 345.466L441.967 353.333C443.441 354.185 443.441 355.565 441.967 356.416L435.027 360.422C433.554 361.272 431.164 361.272 429.688 360.421Z" fill="#507FC6"/>
<path d="M452.523 373.606L438.898 365.739C437.424 364.887 437.424 363.507 438.898 362.656L445.839 358.65C447.313 357.798 449.703 357.798 451.178 358.65L464.804 366.515C466.278 367.367 466.278 368.747 464.804 369.598L457.864 373.604C456.389 374.457 453.997 374.457 452.523 373.606Z" fill="#507FC6"/>
<path d="M475.36 386.792L461.734 378.926C460.26 378.075 460.26 376.695 461.734 375.843L468.675 371.837C470.149 370.986 472.539 370.986 474.013 371.837L487.639 379.704C489.113 380.555 489.113 381.935 487.639 382.786L480.699 386.793C479.225 387.643 476.834 387.643 475.36 386.792Z" fill="#507FC6"/>
<path d="M498.2 399.976L484.574 392.11C483.1 391.259 483.1 389.879 484.574 389.028L491.514 385.021C492.988 384.17 495.379 384.17 496.854 385.021L510.48 392.887C511.954 393.738 511.954 395.118 510.48 395.969L503.54 399.976C502.064 400.827 499.674 400.827 498.2 399.976Z" fill="#507FC6"/>
<path d="M521.036 413.162L507.41 405.295C505.936 404.444 505.936 403.064 507.41 402.213L514.35 398.206C515.824 397.355 518.215 397.355 519.689 398.206L533.315 406.072C534.789 406.923 534.789 408.303 533.315 409.154L526.374 413.161C524.9 414.013 522.51 414.013 521.036 413.162Z" fill="#507FC6"/>
<path d="M333.056 323.308L308.539 309.153C307.065 308.302 307.065 306.922 308.539 306.071L315.479 302.064C316.953 301.213 319.344 301.213 320.818 302.064L345.334 316.219C346.808 317.07 346.808 318.45 345.334 319.301L338.394 323.308C336.92 324.159 334.53 324.159 333.056 323.308Z" fill="#507FC6"/>
<path d="M355.891 336.493L342.266 328.626C340.792 327.775 340.792 326.395 342.266 325.544L349.206 321.537C350.68 320.686 353.07 320.686 354.545 321.537L368.171 329.404C369.645 330.256 369.645 331.636 368.171 332.487L361.231 336.493C359.756 337.345 357.365 337.345 355.891 336.493Z" fill="#507FC6"/>
<path d="M378.731 349.678L365.105 341.811C363.632 340.96 363.632 339.58 365.105 338.729L372.046 334.722C373.52 333.871 375.91 333.871 377.384 334.722L391.01 342.588C392.484 343.439 392.484 344.819 391.01 345.67L384.07 349.677C382.597 350.529 380.207 350.529 378.731 349.678Z" fill="#507FC6"/>
<path d="M401.567 362.864L387.941 354.998C386.467 354.147 386.467 352.767 387.941 351.916L394.882 347.909C396.356 347.058 398.746 347.058 400.22 347.909L413.846 355.776C415.32 356.627 415.32 358.007 413.846 358.859L406.906 362.865C405.432 363.715 403.041 363.715 401.567 362.864Z" fill="#507FC6"/>
<path d="M424.406 376.048L410.781 368.181C409.307 367.33 409.307 365.95 410.781 365.099L417.721 361.092C419.195 360.241 421.586 360.241 423.061 361.092L436.687 368.958C438.161 369.809 438.161 371.189 436.687 372.04L429.747 376.047C428.27 376.9 425.88 376.9 424.406 376.048Z" fill="#507FC6"/>
<path d="M447.243 389.234L433.617 381.367C432.143 380.516 432.143 379.136 433.617 378.285L440.557 374.278C442.031 373.427 444.422 373.427 445.896 374.278L459.522 382.145C460.996 382.997 460.996 384.376 459.522 385.228L452.581 389.234C451.107 390.086 448.717 390.086 447.243 389.234Z" fill="#507FC6"/>
<path d="M470.082 402.419L456.457 394.552C454.983 393.701 454.983 392.321 456.457 391.469L463.397 387.463C464.871 386.612 467.262 386.612 468.737 387.463L482.363 395.33C483.837 396.181 483.837 397.561 482.363 398.412L475.423 402.419C473.946 403.27 471.556 403.27 470.082 402.419Z" fill="#507FC6"/>
<path d="M504.862 422.502L479.844 408.057C478.37 407.206 478.37 405.826 479.844 404.975L486.784 400.968C488.258 400.117 490.648 400.117 492.124 400.968L517.142 415.413C518.615 416.264 518.615 417.644 517.142 418.495L510.201 422.502C508.726 423.353 506.336 423.353 504.862 422.502Z" fill="#507FC6"/>
<path d="M300.7 341.987L276.184 327.833C274.71 326.981 274.71 325.601 276.184 324.75L283.124 320.744C284.598 319.892 286.988 319.892 288.462 320.744L312.979 334.898C314.453 335.749 314.453 337.129 312.979 337.98L306.039 341.987C304.565 342.838 302.174 342.838 300.7 341.987Z" fill="#507FC6"/>
<path d="M323.536 355.173L309.91 347.306C308.436 346.455 308.436 345.075 309.91 344.223L316.85 340.217C318.324 339.366 320.715 339.366 322.19 340.217L335.816 348.084C337.29 348.935 337.29 350.315 335.816 351.166L328.876 355.173C327.402 356.024 325.011 356.024 323.536 355.173Z" fill="#507FC6"/>
<path d="M346.376 368.358L332.75 360.49C331.276 359.639 331.276 358.259 332.75 357.408L339.69 353.401C341.164 352.55 343.555 352.55 345.029 353.401L358.654 361.267C360.128 362.118 360.128 363.498 358.654 364.35L351.714 368.356C350.24 369.209 347.851 369.209 346.376 368.358Z" fill="#507FC6"/>
<path d="M369.212 381.543L355.586 373.676C354.112 372.825 354.112 371.445 355.586 370.594L362.526 366.587C364 365.736 366.39 365.736 367.866 366.587L381.49 374.454C382.964 375.306 382.964 376.686 381.49 377.537L374.55 381.543C373.076 382.395 370.686 382.395 369.212 381.543Z" fill="#507FC6"/>
<path d="M392.052 394.728L378.426 386.861C376.952 386.01 376.952 384.63 378.426 383.778L385.366 379.772C386.84 378.921 389.23 378.921 390.704 379.772L404.33 387.639C405.804 388.49 405.804 389.87 404.33 390.721L397.39 394.728C395.916 395.579 393.526 395.579 392.052 394.728Z" fill="#507FC6"/>
<path d="M414.888 407.914L401.262 400.047C399.788 399.195 399.788 397.816 401.262 396.964L408.202 392.958C409.676 392.106 412.066 392.106 413.542 392.958L427.166 400.825C428.64 401.676 428.64 403.056 427.166 403.907L420.226 407.914C418.752 408.765 416.361 408.765 414.888 407.914Z" fill="#507FC6"/>
<path d="M437.727 421.098L424.102 413.231C422.628 412.38 422.628 411 424.102 410.149L431.042 406.142C432.516 405.291 434.906 405.291 436.38 406.142L450.006 414.009C451.48 414.861 451.48 416.24 450.006 417.092L443.066 421.098C441.592 421.95 439.201 421.95 437.727 421.098Z" fill="#507FC6"/>
<path d="M472.506 441.181L447.488 426.738C446.014 425.887 446.014 424.507 447.488 423.656L454.428 419.649C455.902 418.798 458.293 418.798 459.768 419.649L484.786 434.094C486.26 434.945 486.26 436.325 484.786 437.176L477.846 441.183C476.371 442.033 473.98 442.033 472.506 441.181Z" fill="#507FC6"/>
<path d="M305.981 326.36L292.355 318.493C290.882 317.642 290.882 316.262 292.355 315.41L299.296 311.404C300.77 310.553 303.16 310.553 304.635 311.404L318.261 319.271C319.735 320.122 319.735 321.502 318.261 322.353L311.321 326.36C309.846 327.211 307.455 327.211 305.981 326.36Z" fill="#507FC6"/>
<path d="M328.817 339.544L315.191 331.677C313.717 330.826 313.717 329.446 315.191 328.595L322.132 324.588C323.606 323.737 325.996 323.737 327.47 324.588L341.096 332.455C342.57 333.307 342.57 334.687 341.096 335.538L334.156 339.544C332.682 340.396 330.291 340.396 328.817 339.544Z" fill="#507FC6"/>
<path d="M351.657 352.73L338.031 344.863C336.557 344.012 336.557 342.632 338.031 341.781L344.971 337.774C346.445 336.923 348.836 336.923 350.311 337.774L363.936 345.641C365.411 346.493 365.411 347.872 363.936 348.724L356.995 352.73C355.521 353.582 353.131 353.582 351.657 352.73Z" fill="#507FC6"/>
<path d="M374.497 365.915L360.871 358.049C359.397 357.198 359.397 355.818 360.871 354.967L367.811 350.96C369.285 350.109 371.676 350.109 373.15 350.96L386.776 358.827C388.249 359.678 388.249 361.058 386.776 361.91L379.835 365.916C378.361 366.766 375.971 366.766 374.497 365.915Z" fill="#507FC6"/>
<path d="M397.329 379.101L383.703 371.234C382.229 370.382 382.229 369.002 383.703 368.151L390.643 364.145C392.117 363.293 394.508 363.293 395.983 364.145L409.609 372.01C411.083 372.862 411.083 374.242 409.609 375.093L402.669 379.099C401.195 379.952 398.804 379.952 397.329 379.101Z" fill="#507FC6"/>
<path d="M420.169 392.285L406.543 384.418C405.069 383.567 405.069 382.187 406.543 381.336L413.483 377.329C414.957 376.478 417.348 376.478 418.822 377.329L432.447 385.196C433.921 386.047 433.921 387.427 432.447 388.279L425.507 392.285C424.033 393.137 421.644 393.137 420.169 392.285Z" fill="#507FC6"/>
<path d="M443.009 405.471L429.383 397.604C427.909 396.753 427.909 395.373 429.383 394.522L436.323 390.515C437.797 389.664 440.187 389.664 441.661 390.515L455.287 398.382C456.761 399.233 456.761 400.613 455.287 401.465L448.347 405.471C446.873 406.322 444.483 406.322 443.009 405.471Z" fill="#507FC6"/>
<path d="M488.681 431.842L452.372 410.877C450.898 410.026 450.896 408.646 452.372 407.795L459.312 403.788C460.786 402.937 463.176 402.937 464.651 403.788L500.961 424.753C502.435 425.604 502.435 426.984 500.961 427.835L494.021 431.842C492.545 432.693 490.155 432.693 488.681 431.842Z" fill="#507FC6"/>
<path d="M273.634 345.039L260.008 337.174C258.534 336.322 258.534 334.942 260.008 334.091L266.948 330.085C268.422 329.233 270.812 329.233 272.286 330.085L285.912 337.95C287.386 338.802 287.386 340.182 285.912 341.033L278.972 345.039C277.498 345.891 275.108 345.891 273.634 345.039Z" fill="#507FC6"/>
<path d="M296.474 358.224L282.848 350.357C281.374 349.506 281.374 348.126 282.848 347.274L289.788 343.268C291.262 342.417 293.652 342.417 295.126 343.268L308.752 351.134C310.226 351.985 310.226 353.365 308.752 354.216L301.812 358.223C300.338 359.075 297.947 359.075 296.474 358.224Z" fill="#507FC6"/>
<path d="M387.818 410.965L305.681 363.543C304.205 362.692 304.205 361.312 305.681 360.46L312.621 356.454C314.095 355.603 316.485 355.603 317.961 356.454L400.098 403.876C401.572 404.727 401.572 406.107 400.098 406.958L393.158 410.965C391.683 411.816 389.292 411.816 387.818 410.965Z" fill="#507FC6"/>
<path d="M410.657 424.151L397.031 416.284C395.557 415.432 395.557 414.052 397.031 413.201L403.971 409.195C405.445 408.343 407.836 408.343 409.311 409.195L422.936 417.062C424.41 417.913 424.41 419.293 422.936 420.144L415.995 424.151C414.521 425.002 412.131 425.002 410.657 424.151Z" fill="#507FC6"/>
<path d="M433.497 437.335L419.871 429.468C418.397 428.617 418.397 427.237 419.871 426.386L426.811 422.379C428.285 421.528 430.676 421.528 432.15 422.379L445.776 430.246C447.249 431.097 447.249 432.477 445.776 433.329L438.835 437.335C437.361 438.186 434.971 438.186 433.497 437.335Z" fill="#507FC6"/>
<path d="M456.333 450.521L442.707 442.654C441.233 441.803 441.233 440.423 442.707 439.572L449.647 435.565C451.121 434.714 453.512 434.714 454.987 435.565L468.611 443.432C470.085 444.283 470.085 445.663 468.611 446.514L461.671 450.521C460.197 451.372 457.807 451.372 456.333 450.521Z" fill="#507FC6"/>
<path d="M512.297 445.507V443.089C512.297 442.531 512.636 441.883 513.054 441.641L526.701 433.762C527.12 433.521 527.458 433.776 527.458 434.335V436.753C527.458 437.311 527.119 437.959 526.701 438.201L513.054 446.08C512.636 446.321 512.297 446.065 512.297 445.507Z" fill="#1E3358"/>
<path d="M492.113 457.159V454.741C492.113 454.183 492.453 453.534 492.871 453.293L506.517 445.414C506.935 445.172 507.274 445.428 507.274 445.987V448.405C507.274 448.962 506.935 449.611 506.517 449.853L492.871 457.732C492.453 457.973 492.113 457.717 492.113 457.159Z" fill="#1E3358"/>
<path d="M384.807 275.122C382.885 270.453 379.758 243.148 402.707 237.487C425.654 231.827 442.578 234.827 460.965 244.801C479.352 254.775 491.437 270.074 492.05 285.372C492.662 300.67 488.531 313.368 470.478 316.428C452.427 319.488 407.908 293.328 397.658 286.749C387.407 280.172 385.878 277.724 384.807 275.122Z" fill="#BADCF2"/>
<path d="M417.696 239.172C419.074 243.302 417.696 247.127 416.473 251.732C415.797 254.277 414.331 264.567 423.204 268.85C432.078 273.134 453.139 270.073 455.771 261.812C458.403 253.551 452.118 246.208 455.636 222.495C457.72 208.459 417.696 239.172 417.696 239.172Z" fill="#CFA58B"/>
<path d="M432.843 185.628C418.06 185.628 402.399 192.818 404.082 221.885C405.764 250.952 415.585 251.718 418.401 251.718C421.217 251.718 439.268 252.788 450.283 237.337C461.298 221.885 461.145 185.628 432.843 185.628Z" fill="#DFBD9D"/>
<path d="M440.341 210.258C437.575 210.112 429.364 216.014 420.452 216.071C417.032 216.093 392.762 204.654 396.587 193.029C397.718 189.592 401.789 191.958 405.307 189.357C412.989 183.68 418.993 170.622 436.668 172.777C461.758 175.837 466.5 198.172 466.042 205.669C465.582 213.165 462.829 226.933 461.453 228.311C460.075 229.688 457.934 234.582 455.792 235.195C453.65 235.807 454.262 229.841 455.639 224.333C457.017 218.825 453.039 216.071 448.296 216.378C443.554 216.682 443.248 210.41 440.341 210.258Z" fill="#2065BF"/>
<path d="M449.214 224.638C450.32 221.898 453.957 212.399 457.781 214.236C461.605 216.071 461.605 221.732 459.77 224.638C457.934 227.546 454.262 233.053 451.356 232.135C448.449 231.216 448.312 226.873 449.214 224.638Z" fill="#DFBD9D"/>
<path d="M229.888 478.374C229.83 478.703 229.78 479.031 229.736 479.357C229.392 482.023 228.896 484.68 229.114 487.38C229.212 488.59 229.448 489.791 229.447 491.005C229.445 492.219 229.175 493.487 228.388 494.41C227.941 493.171 227.819 491.817 228.035 490.518C227.183 493.242 226.518 496.025 226.05 498.841C225.804 498.915 225.56 498.737 225.372 498.562C224.443 497.696 223.677 496.654 223.133 495.507C222.871 494.955 222.657 494.367 222.625 493.757C222.591 493.102 222.77 492.453 222.995 491.836C223.62 490.114 224.993 488.349 224.919 486.517C224.884 485.643 225.069 485.18 224.789 483.642C224.366 481.333 223.959 479.019 223.551 476.707C223.091 474.107 222.036 467.97 224.04 465.662C225.153 464.382 226.337 463.955 227.876 464.666C229.426 465.383 229.825 467.054 230.105 468.738C230.52 471.254 230.316 475.911 229.888 478.374Z" fill="#E8BF98"/>
<path d="M234.039 438.331C234.238 439.185 234.2 440.071 234.156 440.945C233.726 449.474 232.786 458.073 229.802 466.194C229.48 467.07 229.122 467.959 228.466 468.669C227.811 469.379 226.793 469.886 225.785 469.745C224.784 469.605 223.995 468.857 223.612 468.012C223.229 467.168 223.182 466.232 223.153 465.318C222.906 457.466 223.692 449.555 225.904 441.941C226.422 440.155 227.089 438.285 228.631 437.067C229.491 436.388 230.931 435.759 232.105 436.005C233.224 436.24 233.817 437.382 234.039 438.331Z" fill="#E8BF98"/>
<path d="M281.9 423.157C282.067 422.868 282.227 422.577 282.379 422.285C283.616 419.9 284.994 417.573 285.714 414.962C286.037 413.792 286.226 412.583 286.644 411.442C287.062 410.303 287.75 409.203 288.807 408.607C288.802 409.924 288.452 411.237 287.803 412.384C289.538 410.117 291.117 407.731 292.523 405.246C292.779 405.261 292.947 405.513 293.063 405.741C293.64 406.873 294.001 408.114 294.119 409.38C294.177 409.988 294.177 410.613 293.997 411.197C293.804 411.825 293.413 412.372 292.99 412.876C291.813 414.281 289.917 415.466 289.359 417.211C289.093 418.043 288.76 418.416 288.497 419.957C288.101 422.272 287.69 424.584 287.281 426.896C286.822 429.496 285.708 435.622 283.034 437.103C281.55 437.925 280.291 437.918 279.089 436.723C277.879 435.519 278.077 433.811 278.392 432.134C278.864 429.627 280.652 425.323 281.9 423.157Z" fill="#E8BF98"/>
<path d="M283.111 437.011C283.025 437.11 282.931 437.206 282.833 437.294C282.141 437.911 281.261 438.234 280.397 438.533C275.292 440.298 270.017 441.609 264.642 442.304C262.199 442.618 259.734 442.809 257.256 442.855C255.397 442.89 253.414 442.81 251.794 441.699C250.888 441.08 249.861 439.892 249.747 438.698C249.639 437.563 250.553 436.657 251.393 436.163C252.148 435.717 253.006 435.49 253.853 435.273C262.125 433.149 270.615 431.489 279.256 431.925C280.19 431.972 281.144 432.05 282.017 432.464C282.891 432.879 283.678 433.7 283.842 434.703C283.982 435.559 283.649 436.4 283.111 437.011Z" fill="#E8BF98"/>
<path d="M246.177 434.264C243.827 436.798 240.072 437.937 236.709 437.134C235.751 436.904 234.815 436.529 233.828 436.485C235.192 435.605 235.887 433.977 236.198 432.383C236.548 430.605 236.501 428.741 236.024 426.989C235.929 426.639 235.13 425.133 235.498 424.858C235.811 424.627 237.568 425.388 238.074 425.376C238.634 425.364 239.16 425.196 239.678 424.978C239.764 424.941 239.849 424.904 239.935 424.864L239.938 424.862C240.518 424.599 241.084 424.299 241.682 424.107C241.808 424.065 241.942 424.03 242.069 424.065C242.176 424.095 242.263 424.171 242.347 424.246C243.12 424.944 243.896 425.641 244.672 426.338C244.415 427.102 244.218 427.889 244.088 428.687C244.077 428.75 244.067 428.812 244.058 428.878C243.945 429.632 243.889 430.397 243.891 431.161C243.891 431.379 243.898 431.598 243.921 431.816C243.947 432.097 244 432.373 244.097 432.636C244.419 433.507 245.255 434.162 246.177 434.264Z" fill="#D1A37E"/>
<path d="M235.286 439.9C235.513 440.977 235.513 442.087 235.512 443.186C235.51 444.056 235.51 444.927 235.509 445.796C235.508 446.583 235.508 447.373 235.439 448.158C235.371 448.931 235.236 449.696 235.102 450.459C234.873 451.766 234.643 453.074 234.414 454.381C229.631 454.713 224.749 453.403 220.773 450.723C221.253 448.679 221.878 446.668 222.643 444.711C223.391 442.797 224.292 440.907 225.654 439.366C226.989 437.856 229.084 436.574 231.079 436.131C233.278 435.645 234.897 438.063 235.286 439.9Z" fill="#57A9F2"/>
<path d="M249.048 426.932C248.619 427.899 247.964 428.914 246.926 429.123C246.591 429.19 245.694 429.123 244.742 428.986C244.512 428.956 244.278 428.918 244.051 428.879C243.093 428.714 242.208 428.499 241.925 428.299C241.295 427.857 240.174 426.009 240.072 425.752C240.045 425.686 240.009 425.609 239.968 425.528C239.889 425.366 239.782 425.178 239.671 424.979C239.327 424.37 238.914 423.652 238.914 423.205C238.914 419.963 240.285 419.111 241.489 417.526C242.695 415.945 244.444 414.83 246.319 414.171C247.333 413.814 248.566 413.534 249.629 413.844C250.578 414.12 250.455 414.811 250.503 415.663C250.727 419.531 250.636 423.345 249.048 426.932Z" fill="#E8BF98"/>
<path d="M241.527 427.934C242.153 427.412 242.762 426.859 243.245 426.201C244.407 424.618 244.735 422.572 245.708 420.867C246.334 419.768 247.23 418.824 248.292 418.137C249.176 417.567 250.178 417.17 250.965 416.473C252.165 415.41 252.716 413.75 252.71 412.149C252.705 410.547 252.197 408.987 251.56 407.517C250.952 408.193 249.996 408.423 249.095 408.544C246.607 408.878 244.076 408.655 241.576 408.889C239.075 409.122 236.472 409.91 234.842 411.818C233.114 413.842 232.815 416.696 232.766 419.356C232.741 420.698 232.761 422.052 233.027 423.368C233.374 425.08 234.142 426.705 235.245 428.06C237.079 430.314 239.534 429.598 241.527 427.934Z" fill="#2F5483"/>
<path d="M246.307 420.285C246.105 419.961 245.848 419.654 245.502 419.495C245.156 419.334 244.705 419.354 244.434 419.621C244.224 419.829 244.153 420.149 244.182 420.443C244.211 420.738 244.325 421.016 244.439 421.289C244.836 422.243 245.242 423.213 245.903 424.007C246.017 424.145 246.182 424.29 246.354 424.238C246.456 424.206 246.524 424.114 246.581 424.024C246.581 423.787 246.914 423.353 246.981 423.094C247.074 422.736 247.104 422.367 247.08 421.998C247.057 422.004 247.115 422.068 247.04 422.06C246.673 421.64 246.631 420.804 246.307 420.285Z" fill="#E8BF98"/>
<path d="M231.771 548.869C231.676 549.578 231.583 550.314 231.803 550.994C232.244 552.36 233.852 553.064 235.282 552.938C236.712 552.814 238 552.06 239.226 551.314C241.231 550.095 243.235 548.839 244.956 547.242C245.604 546.64 246.22 545.975 246.577 545.167C246.934 544.357 246.998 543.378 246.559 542.61C245.878 541.418 244.234 541.121 242.904 541.463C241.573 541.803 240.423 542.621 239.178 543.199C237.482 543.986 236.486 544.582 234.748 545.253C232.673 546.053 232.051 546.779 231.771 548.869Z" fill="#57A9F2"/>
<path d="M229.482 482.621C229.12 487.059 229.91 491.497 230.557 495.902C231.238 500.532 231.762 505.183 232.129 509.847C232.243 511.283 232.341 512.729 232.192 514.163C231.952 516.48 231.074 518.68 230.604 520.962C229.807 524.835 230.197 528.841 230.589 532.776C230.849 535.382 231.11 537.986 231.369 540.592C231.616 543.062 231.867 545.553 232.618 547.92C234.825 548.725 236.06 547.831 236.838 547.078C237.244 540.238 238.349 533.44 240.13 526.824C240.687 524.751 241.312 522.692 241.671 520.576C242.077 518.186 242.141 515.754 242.303 513.336C242.921 504.102 244.972 494.896 244.144 485.679C243.824 482.115 243.077 478.604 242.331 475.104C242.263 474.787 242.186 474.451 241.957 474.22C241.701 473.962 241.315 473.894 240.956 473.839C239.062 473.552 237.169 473.263 235.274 472.975C234.125 472.8 232.611 472.246 231.697 473.216C230.799 474.169 230.62 476.306 230.328 477.532C229.936 479.206 229.62 480.903 229.482 482.621Z" fill="#2953AC"/>
<path d="M250.604 552.632C250.478 553.376 250.354 554.15 250.555 554.877C250.968 556.368 252.668 557.2 254.213 557.137C255.759 557.074 257.186 556.333 258.553 555.607C260.688 554.475 262.826 553.34 264.855 552.03C266.038 551.266 267.231 550.386 267.826 549.111C268.422 547.835 268.185 546.067 266.965 545.364C265.642 544.601 264.014 545.379 262.587 545.925C261.052 546.513 259.426 546.819 257.812 547.123C256.174 547.432 253.367 547.406 251.939 548.233C250.7 548.955 250.835 551.262 250.604 552.632Z" fill="#57A9F2"/>
<path d="M240.517 490.842C241.451 492.24 242.575 493.507 243.457 494.939C244.662 496.893 245.38 499.102 246.089 501.286C248.029 507.267 249.989 513.356 250.091 519.642C250.161 524.044 249.316 528.413 249.203 532.814C249.128 535.742 249.378 538.666 249.627 541.585C249.883 544.579 250.139 547.574 250.395 550.568C252.831 550.799 255.334 550.276 257.476 549.092C257.065 541.685 257.853 534.255 259.127 526.947C259.742 523.418 260.473 519.901 260.791 516.331C261.376 509.783 260.564 503.198 259.754 496.673C258.749 488.577 257.724 480.397 254.898 472.743C255.089 473.262 241.306 474.593 240.118 474.711C235.722 475.151 236.922 480.453 237.578 483.638C238.106 486.193 239.065 488.667 240.517 490.842Z" fill="#2953AC"/>
<path d="M230.987 454.239C230.521 453.881 229.37 453.992 228.787 453.879C228.463 453.816 228.027 453.713 227.776 453.474C227.391 453.107 227.577 452.672 227.674 452.14C228.079 449.932 228.077 447.54 227.976 445.263C227.942 444.492 227.801 443.744 227.802 442.962C227.804 442.425 227.95 442.066 228.079 441.583C228.89 442.458 228.685 444.532 229.004 445.664C229.338 446.852 229.709 448.049 229.941 449.256C230.109 450.13 230 451.056 230.189 451.94C230.295 452.442 230.56 453.687 230.987 454.239Z" fill="#3A7FD8"/>
<path d="M237.369 509.539C237.807 511.022 238.31 512.496 238.52 514.028C238.763 515.795 238.609 517.59 238.455 519.367C238.28 521.384 238.105 523.401 237.93 525.418C237.478 530.635 237.091 535.866 236.245 541.032C235.905 543.105 236.615 544.776 236.835 547.105C238.864 540.528 239.79 534.352 241.046 527.584C242.46 519.959 242.873 512.191 243.283 504.448C243.402 502.213 243.519 499.977 243.638 497.741C243.698 496.607 243.742 495.402 243.182 494.415C242.623 493.431 241.574 492.854 240.614 492.253C238.136 490.702 236.544 488.469 234.375 486.666C233.602 487.696 234.315 490.384 234.416 491.623C234.58 493.641 234.771 495.658 235.017 497.669C235.511 501.674 236.224 505.662 237.369 509.539Z" fill="#153A88"/>
<path d="M255.668 459.163C255.817 457.786 256.03 456.41 256.022 455.025C256.008 452.522 255.277 450.085 254.552 447.688C253.577 444.466 252.602 441.244 251.628 438.02C251.271 436.84 250.91 435.651 250.312 434.572C248.743 434.837 247.112 434.733 245.588 434.271L245.813 434.425C243.706 436.203 240.911 437.134 238.159 436.999C238.16 436.994 238.161 436.99 238.163 436.984C237.861 436.837 237.352 436.883 236.976 436.717C236.647 436.571 236.29 436.373 235.984 436.181C235.51 435.882 234.955 435.224 235.205 434.628C234.323 435.272 233.69 435.486 232.605 435.537C231.837 435.572 230.897 435.638 230.286 436.163C229.24 437.061 228.669 438.435 228.436 439.797C228.415 439.86 228.392 439.922 228.374 439.988C228.034 441.16 228.133 442.411 228.25 443.626C228.492 446.171 228.794 448.718 229.415 451.198C229.804 452.752 230.319 454.277 230.606 455.853C231.763 462.201 229.16 468.798 230.378 475.135C231.149 475.078 231.788 475.68 232.395 476.16C234.453 477.789 237.17 478.36 239.794 478.424C242.419 478.488 245.034 478.095 247.659 478.03C250.649 477.955 253.988 478.191 256.242 476.227C255.54 470.566 255.057 464.833 255.668 459.163Z" fill="#57A9F2"/>
<path d="M249.931 436.767C249.108 436.281 247.984 436.75 247.449 437.541C246.914 438.332 246.826 439.338 246.807 440.293C246.687 446.032 248.39 451.649 248.862 457.37C248.961 458.578 249.004 459.813 248.701 460.988C248.409 462.126 247.804 463.158 247.428 464.271C246.691 466.456 246.867 468.845 247.277 471.114C247.688 473.384 248.325 475.621 248.491 477.923C251.328 477.768 254.143 477.188 256.809 476.204C256.974 476.143 257.154 476.069 257.241 475.915C257.329 475.757 257.294 475.56 257.259 475.382C256.17 469.99 256.235 464.432 256.598 458.944C256.69 457.551 256.801 456.151 256.695 454.76C256.597 453.478 256.316 452.218 256.033 450.965C255.35 447.932 254.587 444.767 252.536 442.43C251.785 441.575 250.876 440.852 250.239 439.908C249.602 438.964 249.281 437.682 249.84 436.69C250.097 437.079 250.355 437.468 250.612 437.858" fill="#3A7FD8"/>
<path d="M249.538 435.079C250.458 434.476 251.494 434.074 252.518 433.677C253.329 433.362 254.141 433.047 254.952 432.733C255.687 432.448 256.422 432.162 257.179 431.943C257.925 431.726 258.686 431.574 259.447 431.422C260.749 431.162 262.049 430.901 263.35 430.641C265.394 434.98 265.942 440.003 264.886 444.68C262.806 444.975 260.705 445.121 258.605 445.117C256.55 445.113 254.461 444.96 252.533 444.249C250.64 443.552 248.687 442.064 247.552 440.365C246.3 438.492 247.967 436.106 249.538 435.079Z" fill="#57A9F2"/>
<path d="M244.216 431.891C244.35 432.028 244.272 431.979 244.18 431.893C244.18 431.893 244.204 431.893 244.216 431.891Z" fill="#B0B0B0"/>
<path d="M159.19 230.006C159.78 230.72 160.667 231.109 161.518 231.475C162.491 231.891 163.462 232.307 164.435 232.723C162.962 237.687 160.521 242.361 157.287 246.404C154.798 244.107 152.452 241.616 150.69 238.725C148.928 235.834 147.46 233.14 147.493 229.754C148.263 230.155 149.57 229.184 150.148 228.538C150.727 227.89 150.967 227.011 151.106 226.155C151.524 223.603 151.217 220.993 150.909 218.425C152.125 219.96 153.819 221.109 155.695 221.67C157.146 222.105 159.816 222.694 159.119 224.791C158.549 226.507 157.857 228.393 159.19 230.006Z" fill="#DFB180"/>
<path d="M163.592 212.404C164.866 214.662 164.921 217.463 164.208 219.956C163.494 222.45 162.076 224.682 160.52 226.757C159.786 227.735 158.87 228.769 157.649 228.844C156.551 228.912 155.574 228.169 154.809 227.381C150.109 222.539 149.757 215.161 152.444 211.457C155.272 207.56 161.304 208.348 163.592 212.404Z" fill="#E6C49E"/>
<path d="M165.307 212.997C164.243 211.614 162.37 210.973 160.643 211.214C158.915 211.456 157.357 212.5 156.295 213.884C155.234 215.269 154.64 216.969 154.38 218.694C154.265 219.452 163.127 219.001 163.904 218.865C165.348 218.612 166.604 218.737 166.514 217.071C166.435 215.649 166.2 214.157 165.307 212.997Z" fill="#57A9F2"/>
<path d="M163.666 209.509C162.603 208.083 161.069 207.039 159.397 206.431C156.062 205.218 151.903 205.922 149.69 208.695C148.328 210.401 147.831 212.649 147.724 214.831C147.576 217.819 148.092 220.838 149.223 223.608C149.445 224.151 149.86 224.783 150.438 224.681C150.885 224.601 151.122 224.12 151.272 223.691C151.617 222.706 151.865 221.686 152.013 220.652C152.146 219.721 152.241 218.685 152.937 218.052C153.481 217.555 154.266 217.438 154.912 217.082C155.964 216.501 156.553 215.352 157.419 214.52C158.404 213.572 159.782 213.046 161.147 213.094C161.965 213.123 162.697 213.37 163.423 213.725C163.939 213.977 164.517 214.48 164.987 213.826C165.723 212.799 164.269 210.319 163.666 209.509Z" fill="#57A9F2"/>
<path d="M156.693 203.868C156.359 202.961 155.377 202.447 154.423 202.294C152.077 201.916 149.57 203.444 148.83 205.701C148.535 206.602 148.537 207.692 149.18 208.389C149.831 209.097 150.927 209.18 151.874 209.011C153.925 208.643 157.681 206.548 156.693 203.868Z" fill="#57A9F2"/>
<path d="M153.194 220.644C153.528 218.622 151.964 216.696 151.04 217.203C150.63 217.428 150.587 217.993 150.624 218.46C150.761 220.207 151.287 221.922 152.152 223.446C152.488 222.629 152.823 221.811 153.16 220.994" fill="#E6C49E"/>
<path d="M143.219 234.54C143.362 235.352 143.299 236.185 143.233 237.007C142.581 245.025 141.496 253.089 138.689 260.628C138.386 261.441 138.052 262.266 137.472 262.91C136.892 263.555 136.01 263.993 135.159 263.823C134.313 263.655 133.668 262.92 133.372 262.111C133.074 261.301 133.065 260.417 133.072 259.556C133.125 252.152 134.057 244.729 136.192 237.638C136.692 235.975 137.321 234.24 138.672 233.149C139.426 232.54 140.67 232.002 141.658 232.277C142.598 232.54 143.063 233.64 143.219 234.54Z" fill="#E6C49E"/>
<path d="M168.532 239.781C168.831 240.346 168.986 240.977 169.134 241.599C170.577 247.675 171.71 253.891 171.445 260.131C171.416 260.805 171.368 261.493 171.094 262.109C170.82 262.724 170.274 263.261 169.604 263.339C168.94 263.417 168.287 263.03 167.873 262.504C167.459 261.977 167.241 261.327 167.039 260.689C165.303 255.208 164.21 249.504 164.085 243.757C164.054 242.409 164.103 240.977 164.839 239.847C165.249 239.218 166.039 238.522 166.835 238.487C167.594 238.453 168.201 239.153 168.532 239.781Z" fill="#E6C49E"/>
<path d="M142.647 247.17C139.488 247.456 136.323 246.837 133.211 246.221C133.251 244.858 133.345 243.496 133.49 242.14C133.524 241.401 133.618 240.665 133.771 239.941C133.813 239.665 133.856 239.388 133.902 239.112C133.924 239.119 133.946 239.127 133.968 239.133C134.516 237.125 135.503 235.236 136.87 233.667C140.514 230.967 144.863 229.633 149.371 229.129C151.273 233.822 154.128 237.685 156.947 241.893C156.798 241.671 158.849 238.103 159.042 237.64C159.67 236.142 160.058 234.563 160.661 233.064C161.032 232.145 161.034 231.211 161.034 231.211C161.034 231.211 165.612 232.837 166.942 233.834C168.697 235.15 169.813 237.176 170.424 239.283C170.447 239.366 170.467 239.449 170.489 239.533C170.447 239.588 171.596 244.098 171.596 246.354C171.601 246.793 171.574 247.28 171.265 247.59C171.249 247.606 171.232 247.618 171.216 247.632C170.81 248.106 170.062 248.187 169.412 248.212C166.187 248.329 166.902 248.29 166.011 248.379C165.997 248.289 165.984 248.199 165.969 248.11C165.924 248.076 165.882 248.04 165.845 247.999C165.599 248.641 165.369 249.288 165.157 249.938C165.059 250.207 164.784 250.746 164.734 250.743C163.059 256.031 162.981 261.812 164.51 267.143C157.075 267.893 142.154 266.671 142.154 266.671L141.108 266.185C141.108 266.185 141.561 264.816 142.136 264.267C143.26 263.194 143.444 261.49 143.516 259.938C143.743 255.067 143.538 250.177 142.916 245.34C142.803 246.265 142.685 247.17 142.647 247.17Z" fill="#CEE8F8"/>
<path d="M167.142 239.877C167.539 242.169 167.92 244.468 168.097 246.786C168.125 247.137 168.142 247.511 167.973 247.82C167.695 248.332 165.695 248.405 165.695 248.405C165.695 248.405 166.191 246.645 166.327 246.016C166.766 243.996 167.039 241.94 167.142 239.877Z" fill="#A54750"/>
<path d="M160.534 249.481C156.336 249.592 152.148 249.1 147.977 248.609C149.252 249.867 150.962 250.678 152.744 250.867C154.371 251.04 156.024 250.712 157.645 250.921C158.986 251.095 160.284 251.632 161.635 251.588C162.857 251.548 164.053 251.004 164.888 250.111C165.459 249.502 166.374 248.106 166.046 247.238C164.721 249.053 163.099 249.414 160.534 249.481Z" fill="#78ABCA"/>
<path d="M142.626 246.892C143.111 243.62 143.596 240.35 144.081 237.078C143.683 241.111 143.773 245.192 144.351 249.203C144.752 251.988 145.388 254.75 145.456 257.562C145.523 260.374 144.965 263.316 143.226 265.526C142.966 265.856 142.671 266.176 142.29 266.352C141.908 266.529 141.421 266.531 141.098 266.264C142.636 264.94 142.902 262.69 142.992 260.663C143.213 255.708 143.018 250.746 142.825 245.79" fill="#78ABCA"/>
<path d="M143.381 259.47C140.241 266.222 137.366 273.239 136.61 280.648C135.801 288.582 137.459 296.537 139.106 304.339C139.459 306.01 139.794 306.753 141.73 307.424C143.831 308.153 146.088 308.426 148.303 308.219C149.215 302.978 151.73 298.18 153.685 293.232C157.8 282.828 159.488 271.473 158.578 260.321C158.586 260.396 162.896 260.372 163.287 260.396C160.09 260.648 156.637 260.107 153.427 259.953C150.079 259.792 146.729 259.63 143.381 259.47Z" fill="#3F6ECB"/>
<path d="M161.368 308.672C158.209 308.978 155.025 309.02 151.861 308.798C150.422 305.192 150.239 301.188 150.669 297.329C151.097 293.469 152.111 289.704 153.004 285.925C154.97 277.599 156.357 269.137 157.152 260.618C157.156 260.571 162.695 260.156 163.133 260.404C163.708 260.731 163.866 261.826 164.049 262.394C165.63 267.292 166.299 272.443 166.344 277.589C166.436 288.122 163.903 298.41 161.368 308.672Z" fill="#3F6ECB"/>
<path d="M132.883 352.486C133.001 351.631 133.591 350.931 134.117 350.247C136.533 347.102 138.037 343.265 138.402 339.316C139.616 339.724 140.615 339.352 141.789 339.415C141.773 340.907 141.865 342.258 142.165 343.735C142.536 345.565 142.891 347.15 142.416 348.941C142.207 349.17 142.011 349.411 141.834 349.666C140.178 351.282 139.672 352.229 138.785 354.349C138.518 354.557 138.236 354.746 137.934 354.906C136.915 355.446 135.665 355.638 134.597 355.204C133.529 354.769 132.725 353.628 132.883 352.486Z" fill="#2953AC"/>
<path d="M158.056 346.876C159.252 348.423 160.904 349.637 161.78 351.385C162.13 352.083 162.251 353.102 161.575 353.491C161.154 353.733 160.627 353.596 160.166 353.444C157.4 352.533 154.735 351.31 152.241 349.804C151.623 349.431 150.961 348.965 150.821 348.256C150.751 347.9 150.826 347.532 150.902 347.176C151.424 344.73 151.946 342.285 152.469 339.838C152.555 339.433 154.949 339.713 155.247 339.791C156.268 340.061 155.906 340.766 156 341.692C156.191 343.565 156.905 345.385 158.056 346.876Z" fill="#2953AC"/>
<path d="M147.434 312.524C147.024 314.58 146.614 316.635 146.204 318.691C144.052 329.479 142.721 335.393 142.538 341.709C142.273 341.748 142.008 341.792 141.744 341.839C140.758 341.786 139.764 341.805 138.781 341.871C138.197 341.838 137.613 341.811 137.031 341.782C138.253 332.282 135.122 322.998 136.639 313.721C137.151 310.586 138.186 307.565 139.215 304.561C139.526 303.655 139.86 302.711 140.561 302.059C141.219 301.446 142.134 301.167 143.033 301.137C145.685 301.049 148.894 303.698 148.615 306.518C148.415 308.52 147.827 310.55 147.434 312.524Z" fill="#3F6ECB"/>
<path d="M156.633 341.785C154.987 341.846 153.339 341.907 151.693 341.967C151.36 334.403 148.89 326.891 149.902 319.387C150.283 316.562 151.151 313.825 151.679 311.024C152.206 308.222 152.379 305.257 151.395 302.581C151.569 303.056 155.738 302.961 156.294 302.963C157.141 302.967 157.99 302.94 158.836 302.881C159.398 302.842 160.58 302.472 161.093 302.72C162.03 303.175 161.543 305.962 161.49 306.825C161.385 308.516 161.157 310.195 160.878 311.863C160.106 316.444 157.708 326.402 156.633 341.785Z" fill="#3F6ECB"/>
<path d="M178.365 260.395C181.62 261.885 184.769 263.932 188.339 264.173C190.209 264.3 192.127 263.919 193.941 264.387C192.738 264.774 191.533 265.16 190.329 265.548C191.897 266.838 193.879 267.617 195.905 267.739C196.507 267.775 197.246 267.839 197.485 268.392C195.973 269.745 193.82 270.377 191.83 269.975C190.252 269.657 188.869 268.748 187.427 268.034C182.481 265.589 176.758 265.419 171.412 264.053C170.451 263.808 169.481 263.514 168.666 262.95C167.85 262.386 167.2 261.506 167.136 260.517C166.88 256.526 173.494 258.596 175.442 259.238C176.438 259.567 177.412 259.959 178.365 260.395Z" fill="#E6C49E"/>
<path d="M156.239 272.141C156.23 274.285 155.623 276.483 155.221 278.575C154.86 280.452 154.693 282.336 154.342 284.199C153.408 289.157 151.243 293.934 150.511 298.929C150.215 300.959 150.146 302.612 150.878 304.458C150.848 302.436 151.833 300.06 152.515 298.155C153.253 296.096 154.134 294.139 154.757 292.036C156.027 287.751 156.965 283.365 156.967 278.859C156.969 276.61 156.191 274.32 156.239 272.141Z" fill="#2D49B9"/>
<path d="M152.493 309.215C154.541 310.807 152.366 314.804 151.813 316.675C151.054 319.241 150.75 321.783 150.514 324.445C150.399 325.737 150.144 327.284 150.409 328.532C150.421 327.442 149.939 326.26 149.776 325.185C149.587 323.946 149.546 322.743 149.681 321.512C149.995 318.621 150.807 315.844 151.567 313.004C151.935 311.629 152.072 310.213 152.493 309.215Z" fill="#2D49B9"/>
<path d="M139.269 304.424C142.099 305.766 138.489 311.906 137.994 313.879C137.25 316.845 136.97 320.14 137.083 323.179C137.144 324.822 137.059 326.445 137.088 328.117C135.687 321.819 135.952 314.726 137.617 308.552C137.967 307.247 138.387 305.503 139.269 304.424Z" fill="#2D49B9"/>
<path d="M196.363 267.885L177.775 256.992L153.397 267.595L151.169 267.483L151.113 268.599L151.134 268.6L169.593 279.919L196.363 267.885Z" fill="#2065BF"/>
<path d="M169.643 278.862L151.164 267.531L177.823 255.934L196.413 266.829L169.643 278.862Z" fill="#79C3F2"/>
<path d="M207.44 249.585L206.635 248.918L179.97 260.974L168.699 279.368L169.597 279.919L171.843 278.452L171.223 278.16L195.565 267.217L205.297 251.13L205.635 251.519L207.44 249.585Z" fill="#2065BF"/>
<path d="M169.594 279.919L180.769 261.642L207.436 249.585L196.364 267.885L169.594 279.919Z" fill="#79C3F2"/>
<path d="M175.851 264.515L170.332 267.342C169.711 267.66 168.796 267.653 168.289 267.324L164.597 264.937C164.089 264.609 164.182 264.085 164.804 263.767L170.322 260.941C170.943 260.624 171.859 260.63 172.365 260.959L176.057 263.346C176.564 263.673 176.471 264.198 175.851 264.515Z" fill="#2065BF"/>
<path d="M147.262 261.369C151.344 263.237 155.291 265.804 159.769 266.107C162.114 266.265 164.519 265.787 166.795 266.376C165.284 266.861 163.775 267.346 162.266 267.831C164.23 269.449 166.716 270.426 169.257 270.578C170.011 270.624 170.938 270.704 171.237 271.397C169.342 273.094 166.642 273.887 164.148 273.383C162.169 272.982 160.435 271.842 158.626 270.948C152.423 267.882 145.248 267.668 138.545 265.957C137.34 265.649 136.125 265.282 135.103 264.574C134.08 263.867 133.264 262.763 133.185 261.522C132.864 256.518 141.156 259.114 143.6 259.92C144.846 260.334 146.068 260.822 147.262 261.369Z" fill="#E6C49E"/>
<path d="M107.913 477.943L104.836 479.719V447.748L107.913 445.971V477.943Z" fill="#2D49B9"/>
<path d="M104.838 479.719L101.762 477.943V445.971L104.838 447.748V479.719Z" fill="#1E317D"/>
<path d="M83.1943 463.877L80.1172 465.654V433.682L83.1943 431.906V463.877Z" fill="#2D49B9"/>
<path d="M80.1188 465.654L77.043 463.877V431.906L80.1188 433.682V465.654Z" fill="#1E317D"/>
<path d="M128.697 465.954L125.621 467.729V435.76L128.697 433.983V465.954Z" fill="#2D49B9"/>
<path d="M125.62 467.729L122.543 465.954V433.983L125.62 435.76V467.729Z" fill="#1E317D"/>
<path d="M104.84 452.256L80.9805 438.48L104.84 424.704L128.702 438.48L104.84 452.256Z" fill="#1E317D"/>
<path d="M77.043 431.906V436.21L82.5562 439.392L87.3998 436.403L81.7377 431.34L80.9778 400.792L77.043 398.626V431.906Z" fill="#1E317D"/>
<path d="M104.84 447.846L80.9805 434.07L104.84 420.294L128.702 434.071L104.84 447.846Z" fill="#3F6ECB"/>
<path d="M100.904 418.13L77.043 431.906V398.626L100.904 384.852V418.13Z" fill="#1E317D"/>
<path d="M104.842 420.294L80.9805 434.071V400.792L104.842 387.016V420.294Z" fill="#2D49B9"/>
<path d="M128.701 434.071V438.48L104.84 452.256V447.846L128.701 434.071Z" fill="#2D49B9"/>
<path d="M100.904 384.852L104.839 387.016L80.9778 400.792L77.043 398.626L100.904 384.852Z" fill="#3F6ECB"/>
<path d="M100.151 373.634C100.517 373.835 101.656 374.717 102.863 375.281C104.786 375.983 106.034 374.98 107.042 377.587C107.307 377.322 107.788 377.276 108.113 377.47C109.034 378.006 108.271 378.893 107.914 379.915C107.546 380.023 107.35 380.299 107.35 381.903C107.35 383.559 107.292 384.488 107.743 386.073C107.801 387.082 107.732 387.247 107.64 387.535C107.442 388.149 105.59 390.396 102.069 390.505C100.617 390.565 99.1366 389.889 98.5765 389.262C98.0126 388.625 97.7541 387.906 97.7789 385.142C97.8102 380.27 96.8023 371.745 100.151 373.634Z" fill="#D1A37E"/>
<path d="M129.937 433.167C131.273 433.167 132.312 433.442 133.435 434.57C133.644 434.778 133.978 435.228 133.927 435.162C134.764 436.239 135.163 440.599 135.116 440.233C135.116 440.333 135.103 440.429 135.076 440.519C135.079 440.835 134.67 445.836 134.298 448.235C134.132 449.524 133.499 459.376 133.522 458.91C132.867 472.141 132.291 466.477 135.675 477.801C136.102 479.224 136.991 480.3 135.549 480.818C135.227 480.932 133.562 481.193 132.547 481.193C131.383 481.193 130.452 480.997 128.902 478.589C125.824 473.815 124.158 472.202 124.869 470.311C125.735 468.039 126.412 468.785 126.403 465.969C126.384 463.287 124.812 457.867 124.469 455.26C123.911 451.389 124.529 450.329 125.333 448.129C126.337 445.382 126.97 442.911 125.821 440.135C124.845 437.852 120.84 433.167 129.937 433.167Z" fill="#D1A37E"/>
<path d="M114.427 428.167C116.828 428.167 119.118 429.317 125.399 430.23C138.208 431.972 136.774 429.708 146.63 442.447L146.624 442.442C150.19 446.379 151.576 451.569 158.121 455.141C158.222 455.196 163.632 458.381 163.92 458.598C164.731 459.202 165.056 459.518 165.249 460.009C165.488 460.618 165.338 461.304 164.582 461.954C163.06 463.27 161.117 463.205 159.817 463.176C157.406 463.127 156.249 462.968 154.04 462.025L154.099 462.048C153.732 461.89 149.164 459.638 148.254 458.49C145.713 455.312 149.001 454.109 144.859 450.861L144.908 450.89C136.33 444.514 136.518 444.734 135.166 442.351C133.752 439.848 133.285 439.429 132.556 439.059C131.696 438.775 128.509 438.112 126.312 438.112C116.183 438.112 114.164 439.065 112.262 436.963C110.399 434.916 109.802 430.126 112.016 428.648C112.55 428.291 113.829 428.167 114.427 428.167Z" fill="#E8BF98"/>
<path d="M122.733 442.782C122.734 442.78 122.736 442.779 122.737 442.776C122.724 442.801 122.724 442.801 122.733 442.782Z" fill="#F4F4F4"/>
<path d="M94.2881 422.869C94.4069 420.629 93.9186 418.479 96.1471 418.479C96.8769 418.489 98.7491 418.966 98.3835 418.882C101.912 419.692 100.707 419.516 104.232 419.516C107.99 419.516 109.355 418.348 112.808 416.901C114.743 416.023 114.785 415.726 115.396 414.957C115.461 414.876 115.652 414.656 115.643 414.667C115.9 414.301 116.214 413.693 117.097 413.693C118.081 413.693 117.594 414.201 121.198 415.759C132.374 420.348 128.054 418.149 134.509 424.928C135.475 425.94 136.546 427.947 137.116 429.158C137.329 429.443 137.59 429.87 137.967 430.368C138.124 430.575 139.026 431.687 139.026 431.938C139.026 432.013 139.004 432.081 138.973 432.144C138.987 432.299 138.958 432.459 138.877 432.597C138.393 433.423 137.546 432.664 137.036 432.413C135.408 431.832 133.861 432.231 132.381 432.714C128.467 434.012 126.877 436.345 126.344 436.99C125.026 438.587 122.865 442.535 122.733 442.785C121.879 444.292 118.175 444.067 116.524 443.836C116.357 443.836 115.327 443.621 115.161 443.595C100.462 441.507 93.5478 436.957 94.2881 422.869ZM138.26 430.784C138.311 430.845 138.328 430.868 138.26 430.784V430.784Z" fill="#F4F4F4"/>
<path d="M107.426 380.704C107.436 380.608 107.44 380.594 107.426 380.704V380.704Z" fill="#1C1C1C"/>
<path d="M103.778 423.538C103.763 423.535 103.772 423.538 103.778 423.538V423.538Z" fill="#1C1C1C"/>
<path d="M103.788 423.539C103.777 423.537 103.781 423.537 103.788 423.539V423.539Z" fill="#1C1C1C"/>
<path d="M83.9288 396.158L83.9249 396.257C84.1951 394.037 85.7983 388.932 88.7619 386.722L88.6522 386.817C90.2619 385.551 92.2672 384.603 92.2672 384.603C93.5258 384.039 94.3313 383.209 95.1942 384.402C95.4579 384.767 95.6185 385.305 97.4267 386.795L98.6304 387.607C100.219 388.54 101.309 388.896 103.475 388.979C105.148 389.052 105.056 388.969 106.264 387.033C107.015 385.807 106.78 384.786 106.78 383.56C106.414 382.36 106.351 382.224 106.065 381.788C105.373 380.737 105.556 379.645 107.017 379.41L107.068 379.402C107.058 379.402 107.046 379.406 107.035 379.41C107.131 379.398 107.226 379.391 107.324 379.391C108.74 379.391 111.327 379.944 111.7 380.01C113.46 380.317 114.383 380.844 115.758 381.912L115.695 381.872C116.024 382.132 116.222 382.41 116.222 382.41C118.535 385.373 116.508 381.773 122.176 394.898L122.062 394.649C123.475 397.84 123.168 398.25 124.13 400.713C125.159 402.715 125.528 403.044 124.357 404.054C124.083 404.292 123.728 404.567 123.278 404.903C121.704 406.136 121.169 406.242 120.394 406.437C120.347 406.447 120.298 406.463 120.251 406.473C119.651 406.616 119.054 406.656 118.591 406.283C117.837 409.646 117.574 406.532 116.813 412.471C116.677 413.48 116.713 413.993 116.531 415.117C116.425 415.984 116.242 416.079 116.07 417.075C116.033 417.591 116.527 419.391 111.968 420.717C107.156 422.107 101.868 422.381 98.9111 421.939L99.0129 421.945C98.1708 421.835 96.9567 421.598 96.1838 421.29C94.7386 420.689 95.4123 420.888 93.4905 414.242C93.4905 414.242 92.2646 410.268 92.1184 409.779C92.0962 412.107 91.9421 415.616 91.9421 415.622C91.9421 418.831 92.1106 419.743 90.8768 420.163C90.5074 420.291 90.0139 420.372 89.3467 420.459L89.3911 420.445C88.2096 420.606 86.1887 420.309 85.3949 419.757C85.216 419.633 85.0581 419.519 84.9197 419.402C83.7081 418.407 83.9105 417.397 83.9353 409.368C83.951 404.922 83.3217 400.356 83.9288 396.158Z" fill="#57A9F2"/>
<path d="M111.195 370.977V370.973C111.322 370.954 111.261 370.961 111.195 370.977Z" fill="#D3C2FC"/>
<path d="M109.023 380.942C109.035 380.926 109.038 380.923 109.023 380.942V380.942Z" fill="#D3C2FC"/>
<path d="M109.016 380.947C109.021 380.941 109.021 380.941 109.016 380.947V380.947Z" fill="#D3C2FC"/>
<path d="M148.774 457.087C149.744 457.782 150.925 458.103 152.079 458.411C153.066 458.675 154.071 458.94 155.091 458.9C156.43 458.847 157.688 458.275 158.903 457.709C159.292 457.527 159.703 457.326 159.923 456.957C160.142 456.587 160.049 456.005 159.641 455.872C160.419 456.721 161.621 457.026 162.765 457.155C163.909 457.285 165.087 457.283 166.166 457.688C166.736 457.902 167.3 458.269 167.508 458.842C167.684 459.326 167.573 459.87 167.388 460.35C166.825 461.819 165.606 462.973 164.205 463.688C162.805 464.404 161.231 464.716 159.664 464.854C159.106 464.904 158.517 464.927 158.015 464.676C157.568 464.453 157.249 464.043 156.893 463.692C156.034 462.842 154.908 462.303 153.746 461.975C152.584 461.646 151.377 461.516 150.176 461.387C151.113 462.345 151.925 463.426 152.583 464.594C152.332 464.776 151.972 464.739 151.703 464.586C151.433 464.434 151.233 464.186 151.039 463.944C150.199 462.896 149.36 461.847 148.522 460.799C147.715 459.793 146.892 458.756 146.494 457.529C146.354 457.099 146.007 454.266 146.892 454.386C147.245 454.435 147.437 455.488 147.578 455.749C147.862 456.278 148.284 456.738 148.774 457.087Z" fill="#57A9F2"/>
<path d="M124.199 472.391C123.883 471.523 123.644 470.57 123.904 469.685C124.139 468.88 125.059 467.998 125.941 468.311C124.648 471.521 127.696 474.465 129.87 476.522C130.681 477.289 131.743 478.027 132.827 477.759C133.766 477.527 134.383 476.572 134.523 475.616C134.662 474.659 134.339 473.729 134.101 472.792C134.164 472.904 134.228 473.032 134.292 473.172C134.375 473.249 134.454 473.464 134.519 473.72C134.679 474.136 134.844 474.619 135.018 475.152C135.635 476.757 136.271 478.39 137.126 479.929C137.672 480.909 138.387 481.796 138.862 482.813C138.98 483.062 139.071 483.378 138.95 483.608C138.96 483.722 138.96 483.835 138.933 483.953C138.802 484.513 138.224 484.847 137.673 485.015C136.418 485.4 135.046 485.271 133.802 484.853C132.558 484.437 131.423 483.746 130.339 483.007C129.704 482.574 129.07 482.108 128.641 481.471C128.268 480.917 128.084 480.293 127.99 479.638C127.146 478.321 126.517 476.845 126.037 475.356C125.969 476.578 125.902 477.801 125.834 479.023C125.191 478.702 124.914 477.918 124.887 477.199C124.859 476.48 125.02 475.762 124.973 475.044C124.91 474.118 124.515 473.259 124.199 472.391Z" fill="#57A9F2"/>
<path d="M104.418 362.622C105.451 362.622 106.737 363.164 108.249 363.901C116.463 367.884 110.452 379.28 108.52 381.675C107.117 383.585 106.169 384.354 104.493 382.794C102.308 380.753 100.41 378.203 99.3056 376.31C97.4165 373.093 97.1946 366.764 101.342 363.75C102.123 363.188 103.368 362.622 104.418 362.622Z" fill="#E8BF98"/>
<path d="M107.184 353.101C111.627 354.495 112.934 356.62 114.359 361.152C114.769 362.419 114.949 362.631 115.192 363.508C115.812 365.78 116.015 366.02 116.53 366.742C120.046 371.697 115.628 377.992 116.395 386.424C116.46 386.79 116.674 387.573 116.652 387.488C117.913 392.298 117.647 393.652 116.5 397.228C116.371 397.631 116.117 398.606 115.157 398.606C114.284 398.606 113.897 398.026 113.667 397.183C112.542 393.27 110.725 391.573 110.149 388.444C109.448 384.692 109.189 386.334 108.756 382.747L108.772 382.803C108.551 381.124 108.802 381.241 109.03 380.933C110.722 378.822 112.28 371.977 112.149 371.506C112.049 371.139 111.525 370.755 110.847 371.099C106.931 371.864 102.594 371.089 102.228 370.992C102.268 373.331 101.693 373.372 100.48 375.513C97.0362 381.714 102.691 392.329 102.206 398.772C102.09 400.26 102.444 401.636 101.004 402.105C98.7674 402.814 97.6264 401.384 96.8117 400.594C94.937 398.768 93.5192 396.105 93.2646 394.53C92.8612 392.033 93.0413 392.238 92.3154 390.36L92.3128 390.362C91.1587 387.726 89.1613 383.142 88.7069 379.703L88.7435 379.92C88.1913 376.489 88.7905 374.886 90.147 371.766C93.1758 364.836 91.5347 361.632 94.3351 357.94C94.6145 357.573 96.4958 355.342 98.6995 354.206C101.296 352.864 104.967 352.403 107.184 353.101Z" fill="#1E3358"/>
<path d="M144.759 427.073L125.36 416.976L101.188 428.968H98.9258V430.102H98.9467L118.236 440.635L144.759 427.073Z" fill="#2065BF"/>
<path d="M118.236 439.561L98.9258 429.016L125.36 415.902L144.759 425.999L118.236 439.561Z" fill="#79C3F2"/>
<path d="M155.052 407.958L154.203 407.322L127.786 420.902L117.297 440.123L118.237 440.635L120.438 439.033L119.794 438.768L143.911 426.436L152.959 409.633L153.322 410.01L155.052 407.958Z" fill="#3A7FD8"/>
<path d="M118.238 440.635L128.636 421.538L155.053 407.958L144.762 427.073L118.238 440.635Z" fill="#79C3F2"/>
<path d="M123.794 424.702L118.343 427.849C117.73 428.203 116.801 428.242 116.27 427.935L112.406 425.704C111.874 425.397 111.941 424.862 112.554 424.507L118.005 421.36C118.619 421.006 119.547 420.967 120.078 421.274L123.943 423.505C124.474 423.812 124.407 424.349 123.794 424.702Z" fill="#3A7FD8"/>
<path d="M85.3171 423.958L85.2545 423.838C85.5978 424.713 85.8772 425.452 86.7871 426.162L86.7219 426.118C88.5261 427.567 88.8512 427.68 97.2092 427.618C98.3764 427.607 101.224 427.559 104.11 427.845H104.08C104.941 427.962 106.905 429.081 107.717 429.378C107.725 429.381 107.732 429.385 107.732 429.385C107.772 429.404 107.772 429.4 107.86 429.436C107.86 429.436 108.832 429.879 110.056 430.077C112.006 430.327 116.25 430.439 115.339 428.746C115.138 428.376 114.75 427.209 113.472 426.326C110.87 424.552 111.343 424.552 105.898 423.816C105.887 423.812 105.869 423.808 105.869 423.808C105.777 423.798 103.937 423.563 103.926 423.559C103.894 423.555 103.82 423.544 103.788 423.54C102.55 423.368 102.258 423.368 101.515 423.262C99.2903 422.962 94.5773 421.919 92.1477 421.7C91.0314 421.6 90.8669 421.728 90.8774 420.163C90.5079 420.291 90.0144 420.372 89.3473 420.459L89.3917 420.445C88.2102 420.606 86.1892 420.309 85.3955 419.757C85.2166 419.633 85.0586 419.519 84.9202 419.402C84.8628 421.572 84.7505 422.725 85.3171 423.958Z" fill="#E8BF98"/>
<path d="M121.591 423.325C121.839 422.856 122.07 422.501 122.14 422.355C122.604 421.367 122.879 419.106 122.875 418.641C122.86 417.352 123.559 417.151 124.368 414.587C124.547 414.031 125.294 410.049 125.334 409.684L125.326 409.783C125.403 409.245 125.44 408.776 125.44 408.776C125.655 406.639 125.067 405.464 124.356 404.055C124.082 404.293 123.727 404.568 123.277 404.904C121.704 406.138 121.168 406.244 120.393 406.438C120.346 406.448 120.298 406.464 120.251 406.475C120.419 407.108 120.521 407.806 120.521 408.6C120.547 408.969 120.561 409.351 120.561 409.738C120.561 412.549 119.906 415.762 118.878 418.656L118.692 419.117C116.761 423.687 119.985 426.388 121.591 423.325Z" fill="#E8BF98"/>
<path d="M313.943 472.516C314.281 472.466 314.615 472.41 314.946 472.346C317.644 471.824 320.384 471.452 322.935 470.372C324.079 469.887 325.169 469.273 326.348 468.884C327.527 468.495 328.846 468.35 329.996 468.817C328.936 469.649 327.661 470.203 326.33 470.411C329.249 470.364 332.164 470.113 335.05 469.664C335.201 469.878 335.104 470.173 334.996 470.412C334.454 471.593 333.688 472.671 332.749 473.569C332.297 474.001 331.796 474.398 331.214 474.625C330.587 474.869 329.9 474.903 329.228 474.884C327.355 474.83 325.199 474.064 323.446 474.726C322.61 475.04 322.1 475.009 320.696 475.777C318.589 476.93 316.474 478.068 314.361 479.208C311.983 480.49 306.363 483.486 303.479 482.282C301.877 481.614 301.083 480.601 301.279 478.877C301.476 477.142 302.971 476.217 304.517 475.405C306.826 474.189 311.414 472.89 313.943 472.516Z" fill="#E8BF98"/>
<path d="M312.095 449.754C312.3 450.627 312.261 451.533 312.216 452.427C311.776 461.151 310.815 469.946 307.763 478.253C307.434 479.149 307.067 480.059 306.397 480.786C305.726 481.512 304.685 482.03 303.654 481.887C302.631 481.744 301.824 480.978 301.432 480.115C301.041 479.251 300.991 478.294 300.962 477.359C300.71 469.329 301.513 461.237 303.776 453.448C304.307 451.622 304.987 449.711 306.566 448.464C307.446 447.769 308.918 447.126 310.118 447.378C311.262 447.614 311.868 448.784 312.095 449.754Z" fill="#E8BF98"/>
<path d="M340.957 466.754C341.064 466.43 341.165 466.105 341.255 465.782C341.997 463.135 342.893 460.519 343.072 457.754C343.152 456.515 343.09 455.264 343.272 454.036C343.453 452.807 343.913 451.564 344.847 450.746C345.116 452.066 345.039 453.455 344.628 454.737C345.894 452.106 346.978 449.388 347.87 446.607C348.13 446.568 348.35 446.786 348.515 446.991C349.328 448.004 349.947 449.173 350.329 450.414C350.513 451.012 350.644 451.638 350.585 452.26C350.523 452.929 350.245 453.559 349.927 454.151C349.039 455.801 347.389 457.384 347.193 459.249C347.099 460.138 346.844 460.58 346.9 462.177C346.986 464.578 347.054 466.979 347.127 469.38C347.208 472.08 347.366 478.447 344.998 480.486C343.682 481.618 342.42 481.874 340.967 480.926C339.505 479.971 339.347 478.221 339.315 476.475C339.264 473.865 340.158 469.183 340.957 466.754Z" fill="#E8BF98"/>
<path d="M313.369 451.358C313.601 452.459 313.601 453.595 313.6 454.72C313.598 455.609 313.598 456.499 313.597 457.388C313.596 458.194 313.596 459.001 313.525 459.804C313.456 460.593 313.319 461.377 313.181 462.157C312.947 463.494 312.712 464.831 312.478 466.168C307.586 466.506 302.593 465.168 298.527 462.426C299.018 460.335 299.657 458.279 300.439 456.277C301.204 454.319 302.125 452.386 303.517 450.811C304.883 449.265 307.028 447.955 309.067 447.503C311.315 447.007 312.97 449.479 313.369 451.358Z" fill="#96BDEF"/>
<path d="M324.505 445.595C322.1 448.187 318.26 449.351 314.822 448.53C313.841 448.295 312.884 447.912 311.875 447.867C313.271 446.966 313.981 445.302 314.298 443.672C314.656 441.853 314.609 439.946 314.121 438.155C314.024 437.798 313.207 436.258 313.583 435.976C313.902 435.739 315.7 436.518 316.216 436.506C316.789 436.495 317.327 436.321 317.857 436.099C317.944 436.061 318.032 436.023 318.121 435.983L318.123 435.98C318.715 435.713 319.296 435.404 319.907 435.209C320.035 435.166 320.172 435.13 320.302 435.166C320.411 435.197 320.501 435.274 320.586 435.351C321.377 436.066 322.17 436.779 322.964 437.492C322.702 438.274 322.499 439.08 322.368 439.894C322.356 439.958 322.347 440.022 322.336 440.089C322.22 440.86 322.164 441.642 322.167 442.424C322.167 442.648 322.173 442.872 322.198 443.094C322.224 443.381 322.277 443.662 322.378 443.932C322.707 444.82 323.562 445.491 324.505 445.595Z" fill="#D1A37E"/>
<path d="M327.448 438.095C327.009 439.083 326.34 440.123 325.278 440.335C324.935 440.405 324.018 440.335 323.044 440.196C322.809 440.166 322.57 440.127 322.338 440.087C321.358 439.919 320.453 439.698 320.164 439.495C319.519 439.042 318.373 437.153 318.27 436.889C318.241 436.821 318.206 436.743 318.163 436.659C318.082 436.493 317.974 436.301 317.86 436.098C317.508 435.475 317.086 434.741 317.086 434.283C317.086 430.967 318.488 430.095 319.72 428.475C320.954 426.857 322.743 425.717 324.662 425.042C325.7 424.678 326.96 424.391 328.047 424.708C329.019 424.99 328.893 425.697 328.943 426.567C329.166 430.526 329.073 434.427 327.448 438.095Z" fill="#E8BF98"/>
<path d="M309.773 562.814C309.677 563.538 309.581 564.292 309.806 564.988C310.256 566.385 311.903 567.104 313.365 566.976C314.827 566.848 316.144 566.076 317.399 565.314C319.451 564.067 321.499 562.783 323.259 561.148C323.923 560.533 324.553 559.852 324.917 559.025C325.283 558.198 325.347 557.195 324.898 556.41C324.201 555.191 322.519 554.888 321.159 555.237C319.798 555.585 318.622 556.422 317.348 557.013C315.614 557.819 314.593 558.427 312.816 559.114C310.698 559.934 310.06 560.677 309.773 562.814Z" fill="#6FA4F4"/>
<path d="M307.429 495.054C307.059 499.594 307.867 504.133 308.529 508.638C309.225 513.372 309.761 518.131 310.138 522.901C310.254 524.37 310.355 525.85 310.202 527.315C309.955 529.685 309.059 531.936 308.579 534.27C307.763 538.231 308.161 542.329 308.563 546.352C308.83 549.017 309.096 551.682 309.361 554.348C309.613 556.874 309.87 559.422 310.638 561.843C312.895 562.666 314.16 561.753 314.955 560.981C315.37 553.986 316.501 547.033 318.321 540.265C318.891 538.145 319.53 536.038 319.898 533.874C320.313 531.43 320.38 528.943 320.544 526.469C321.176 517.025 323.273 507.608 322.427 498.18C322.1 494.533 321.335 490.943 320.573 487.363C320.504 487.038 320.425 486.695 320.192 486.46C319.931 486.196 319.535 486.127 319.167 486.071C317.229 485.776 315.293 485.482 313.356 485.187C312.181 485.008 310.633 484.443 309.698 485.435C308.779 486.41 308.596 488.596 308.297 489.849C307.892 491.561 307.57 493.298 307.429 495.054Z" fill="#3F6ECB"/>
<path d="M329.037 566.663C328.909 567.424 328.782 568.215 328.987 568.96C329.409 570.486 331.146 571.336 332.729 571.272C334.31 571.208 335.769 570.45 337.168 569.708C339.35 568.55 341.538 567.391 343.614 566.05C344.824 565.27 346.045 564.369 346.654 563.065C347.262 561.759 347.02 559.952 345.774 559.233C344.421 558.453 342.755 559.248 341.297 559.807C339.726 560.408 338.063 560.722 336.412 561.033C334.737 561.349 331.867 561.323 330.406 562.169C329.135 562.901 329.272 565.262 329.037 566.663Z" fill="#6FA4F4"/>
<path d="M318.722 503.463C319.678 504.893 320.826 506.189 321.729 507.653C322.96 509.653 323.696 511.911 324.421 514.145C326.405 520.261 328.409 526.49 328.513 532.92C328.587 537.423 327.721 541.89 327.606 546.392C327.529 549.387 327.785 552.378 328.04 555.363C328.301 558.426 328.563 561.488 328.824 564.55C331.316 564.787 333.877 564.253 336.066 563.041C335.646 555.465 336.452 547.864 337.755 540.39C338.385 536.78 339.131 533.182 339.456 529.533C340.054 522.835 339.224 516.101 338.396 509.427C337.369 501.146 336.321 492.779 333.429 484.952C333.625 485.482 319.526 486.844 318.312 486.965C313.816 487.416 315.043 492.837 315.714 496.096C316.254 498.707 317.235 501.239 318.722 503.463Z" fill="#3F6ECB"/>
<path d="M308.968 466.024C308.492 465.659 307.315 465.772 306.717 465.656C306.386 465.592 305.939 465.488 305.683 465.242C305.29 464.866 305.48 464.423 305.579 463.878C305.993 461.62 305.99 459.174 305.888 456.845C305.853 456.055 305.71 455.29 305.711 454.491C305.711 453.942 305.862 453.575 305.993 453.081C306.823 453.976 306.613 456.098 306.938 457.255C307.28 458.471 307.659 459.695 307.896 460.929C308.069 461.825 307.956 462.771 308.15 463.674C308.261 464.186 308.532 465.46 308.968 466.024Z" fill="#6FA4F4"/>
<path d="M315.496 522.585C315.944 524.102 316.459 525.61 316.673 527.177C316.921 528.984 316.765 530.819 316.607 532.637C316.428 534.699 316.249 536.763 316.07 538.826C315.608 544.162 315.211 549.512 314.347 554.798C314 556.918 314.725 558.628 314.95 561.01C317.026 554.282 317.974 547.965 319.257 541.042C320.704 533.244 321.125 525.297 321.544 517.377C321.666 515.09 321.786 512.804 321.907 510.517C321.969 509.358 322.014 508.125 321.441 507.116C320.869 506.109 319.796 505.519 318.816 504.904C316.282 503.317 314.652 501.034 312.434 499.19C311.643 500.244 312.373 502.993 312.476 504.259C312.644 506.324 312.839 508.386 313.091 510.443C313.596 514.542 314.325 518.622 315.496 522.585Z" fill="#2F5483"/>
<path d="M339.047 459.754L322.36 457.836C321.507 457.738 321.295 457.014 321.885 456.217L337.659 434.942C338.25 434.146 339.419 433.581 340.272 433.679L356.959 435.596C357.812 435.694 358.024 436.419 357.434 437.215L341.66 458.49C341.071 459.287 339.901 459.852 339.047 459.754Z" fill="#F2A71D"/>
<path d="M324.006 455.721L338.769 435.811C339.104 435.359 339.767 435.038 340.252 435.094L355.046 436.794C355.53 436.85 355.65 437.261 355.315 437.713L340.552 457.623C340.216 458.075 339.553 458.396 339.069 458.34L324.275 456.64C323.792 456.584 323.671 456.173 324.006 455.721Z" fill="#C4DFF8"/>
<path d="M334.217 471.061C334.368 469.653 334.586 468.245 334.579 466.829C334.564 464.269 333.816 461.775 333.075 459.324C332.077 456.028 331.08 452.733 330.082 449.436C329.718 448.23 329.347 447.013 328.738 445.91C327.132 446.18 325.465 446.075 323.906 445.602L324.134 445.76C321.98 447.579 319.12 448.53 316.306 448.393C316.308 448.388 316.309 448.383 316.31 448.378C316.002 448.229 315.481 448.276 315.096 448.105C314.761 447.956 314.395 447.752 314.082 447.555C313.597 447.25 313.029 446.576 313.285 445.968C312.383 446.627 311.736 446.845 310.625 446.897C309.84 446.934 308.878 447 308.253 447.537C307.183 448.455 306.598 449.861 306.361 451.254C306.339 451.319 306.315 451.382 306.297 451.448C305.95 452.648 306.051 453.926 306.17 455.169C306.418 457.772 306.726 460.378 307.362 462.913C307.76 464.502 308.286 466.061 308.58 467.673C309.763 474.167 307.101 480.914 308.346 487.396C309.136 487.339 309.789 487.952 310.409 488.443C312.515 490.11 315.293 490.694 317.979 490.759C320.664 490.824 323.338 490.424 326.022 490.357C329.08 490.28 332.495 490.523 334.801 488.512C334.086 482.724 333.593 476.862 334.217 471.061Z" fill="#96BDEF"/>
<path d="M328.351 448.153C327.508 447.657 326.36 448.136 325.811 448.945C325.264 449.755 325.174 450.782 325.155 451.76C325.032 457.63 326.775 463.374 327.257 469.226C327.358 470.463 327.403 471.726 327.092 472.927C326.792 474.09 326.176 475.145 325.79 476.283C325.036 478.518 325.216 480.962 325.636 483.284C326.057 485.606 326.708 487.893 326.878 490.247C329.78 490.089 332.658 489.495 335.385 488.49C335.555 488.427 335.739 488.352 335.827 488.194C335.919 488.032 335.882 487.831 335.846 487.648C334.732 482.133 334.799 476.449 335.169 470.835C335.263 469.41 335.377 467.979 335.267 466.555C335.167 465.244 334.88 463.955 334.591 462.672C333.893 459.57 333.111 456.334 331.014 453.943C330.245 453.068 329.315 452.328 328.665 451.362C328.014 450.396 327.685 449.085 328.257 448.071C328.52 448.469 328.784 448.867 329.048 449.265" fill="#6FA4F4"/>
<path d="M319.572 438.928C320.152 438.445 320.716 437.933 321.162 437.324C322.238 435.857 322.542 433.963 323.443 432.383C324.024 431.366 324.852 430.492 325.836 429.856C326.655 429.329 327.583 428.96 328.311 428.314C329.422 427.331 330.57 425.655 330.565 424.172C330.559 422.689 328.46 420.425 327.082 419.876C317.058 415.884 313.629 421.767 312.12 423.535C310.521 425.408 310.351 427.498 310.305 429.96C310.282 431.205 310.83 433.758 311.286 434.915C311.958 436.62 312.735 437.79 313.757 439.044C315.456 441.133 317.727 440.47 319.572 438.928Z" fill="#1E3358"/>
<path d="M340.373 480.874C340.251 480.817 340.131 480.75 340.018 480.678C339.22 480.166 338.659 479.388 338.126 478.62C334.981 474.08 332.235 469.245 330.069 464.142C329.085 461.822 328.22 459.447 327.491 457.019C326.944 455.196 326.475 453.222 327.123 451.319C327.482 450.256 328.368 448.915 329.515 448.476C330.602 448.055 331.746 448.707 332.466 449.399C333.113 450.02 333.572 450.801 334.02 451.576C338.392 459.139 342.368 467.043 344.322 475.674C344.533 476.606 344.719 477.567 344.552 478.542C344.385 479.516 343.792 480.518 342.849 480.957C342.044 481.33 341.123 481.234 340.373 480.874Z" fill="#E8BF98"/>
<path d="M333.022 447.273C333.869 448.013 334.551 448.922 335.226 449.823C335.758 450.534 336.292 451.247 336.825 451.959C337.308 452.604 337.792 453.25 338.217 453.934C338.636 454.608 338.995 455.316 339.355 456.023C339.97 457.233 340.585 458.443 341.2 459.652C337.491 462.86 332.693 464.785 327.796 465.035C326.933 463.067 326.21 461.04 325.634 458.969C325.071 456.943 324.647 454.845 324.814 452.748C324.98 450.692 325.907 448.357 327.267 446.772C328.767 445.025 331.576 446.008 333.022 447.273Z" fill="#96BDEF"/>
<path d="M322.502 443.167C322.639 443.309 322.558 443.257 322.465 443.17C322.477 443.168 322.491 443.169 322.502 443.167Z" fill="#E27D26"/>
<path d="M324.641 431.295C324.434 430.963 324.171 430.65 323.817 430.485C323.464 430.321 323.003 430.34 322.725 430.615C322.509 430.827 322.437 431.154 322.467 431.455C322.497 431.757 322.615 432.041 322.731 432.321C323.137 433.296 323.552 434.288 324.227 435.102C324.345 435.243 324.513 435.393 324.689 435.338C324.793 435.307 324.863 435.211 324.922 435.119C324.922 434.877 325.261 434.432 325.33 434.168C325.426 433.803 325.456 433.424 325.432 433.047C325.408 433.053 325.468 433.119 325.391 433.111C325.016 432.682 324.974 431.827 324.641 431.295Z" fill="#E8BF98"/>
<path d="M368.135 158.23L329.768 136.079C327.432 134.73 325.31 134.53 323.7 135.271L323.692 135.259L323.501 135.365C323.413 135.41 323.327 135.457 323.242 135.509L318.508 138.136C318.508 138.136 319.825 140.413 319.967 140.413C320.001 140.413 320.312 140.26 320.757 140.032C320.709 140.446 320.675 140.873 320.675 141.33V158.514C320.675 164.311 324.748 171.366 329.768 174.264L355.272 188.989L358.919 197.508L357.344 198.054L358.161 210.235L363.173 207.443L365.907 195.129L367.883 196.27L369.326 199.965L374.522 197.074V197.07C376.192 196.131 377.228 194.087 377.228 191.164V173.98C377.228 168.176 373.156 161.128 368.135 158.23Z" fill="#94CFF1"/>
<path d="M315.664 144.121V161.305C315.664 167.102 319.737 174.157 324.757 177.055L350.261 191.78L358.163 210.234L360.897 197.922L363.124 199.208C368.144 202.106 372.217 199.755 372.217 193.958V176.773C372.217 170.97 368.144 163.922 363.124 161.023L324.757 138.873C319.737 135.973 315.664 138.318 315.664 144.121Z" fill="url(#paint0_linear_1247_7272)"/>
<path d="M290.779 265.664L246.684 240.205V154.803L290.779 180.261V265.664Z" fill="#75A6EE"/>
<path d="M287.917 183.603L249.543 161.449V160.039L287.917 182.193V183.603Z" fill="#567ED3"/>
<path d="M287.917 188.504L249.543 166.349V164.94L287.917 187.094V188.504Z" fill="#567ED3"/>
<path d="M287.917 193.407L249.543 171.252V169.842L287.917 191.995V193.407Z" fill="#567ED3"/>
<path d="M287.917 198.308L249.543 176.153V174.743L287.917 196.898V198.308Z" fill="#567ED3"/>
<path d="M287.917 203.209L249.543 181.054V179.644L287.917 201.799V203.209Z" fill="#567ED3"/>
<path d="M287.917 203.209L249.543 181.054V179.644L287.917 201.799V203.209Z" fill="#567ED3"/>
<path d="M287.917 208.111L249.543 185.956V184.546L287.917 206.7V208.111Z" fill="#567ED3"/>
<path d="M287.917 213.012L249.543 190.857V189.447L287.917 211.602V213.012Z" fill="#567ED3"/>
<path d="M287.917 217.913L249.543 195.758V194.348L287.917 216.503V217.913Z" fill="#567ED3"/>
<path d="M287.917 222.814L249.543 200.66V199.25L287.917 221.404V222.814Z" fill="#567ED3"/>
<path d="M287.917 239.835L249.543 217.68V216.27L287.917 238.425V239.835Z" fill="#567ED3"/>
<path d="M287.917 244.736L249.543 222.583V221.171L287.917 243.326V244.736Z" fill="#567ED3"/>
<path d="M287.917 249.638L249.543 227.484V226.074L287.917 248.227V249.638Z" fill="#567ED3"/>
<path d="M287.917 254.539L249.543 232.385V230.975L287.917 253.129V254.539Z" fill="#567ED3"/>
<path d="M287.917 259.44L249.543 237.287V235.876L287.917 258.03V259.44Z" fill="#567ED3"/>
<path d="M200.539 177.786L202.194 176.78L201.767 176.004L200.129 177.06L200.539 177.786Z" fill="#94CFF1"/>
<path d="M202.8 141.052V175.415C202.8 176.77 201.849 177.32 200.675 176.642L180.43 164.954C179.256 164.276 178.305 162.627 178.305 161.272V137.04L189.201 130.745L200.675 137.37C201.849 138.048 202.8 139.697 202.8 141.052Z" fill="#94CFF1"/>
<path d="M201.168 142.045V176.408C201.168 177.763 200.216 178.313 199.042 177.635L178.797 165.947C177.624 165.269 176.672 163.621 176.672 162.265V138.033L187.568 131.738L199.042 138.362C200.216 139.041 201.168 140.69 201.168 142.045Z" fill="#093B9E"/>
<path d="M188.095 132.042V142.22C188.095 143.575 187.143 144.125 185.97 143.448L177.195 138.382L187.566 131.74L188.095 132.042Z" fill="#94CFF1"/>
<path d="M187.568 131.742V141.869C187.568 143.224 186.616 143.774 185.442 143.096L176.668 138.031L187.568 131.742Z" fill="#3777C4"/>
<path d="M180.52 145.32L197.524 155.136" stroke="#3777C4" stroke-width="0.6665" stroke-miterlimit="10" stroke-linecap="round"/>
<path d="M180.52 149.371L197.524 159.188" stroke="#3777C4" stroke-width="0.6665" stroke-miterlimit="10" stroke-linecap="round"/>
<path d="M180.52 153.423L197.524 163.239" stroke="#3777C4" stroke-width="0.6665" stroke-miterlimit="10" stroke-linecap="round"/>
<path d="M180.52 157.474L197.524 167.292" stroke="#3777C4" stroke-width="0.6665" stroke-miterlimit="10" stroke-linecap="round"/>
<path d="M282.091 118.246L231.074 88.7922V51.8574L282.091 81.3115V118.246Z" fill="#3A7FD8"/>
<path d="M279.989 119.493L228.973 90.039V53.1042L279.989 82.5583V119.493Z" fill="#BADCF2"/>
<path d="M277.964 83.7267V115.986L230.996 88.8692V56.6108L277.964 83.7267Z" fill="#2065BF"/>
<path d="M277.966 106.013V115.986L241.684 95.0392L250.11 90.1787L264.143 82.0726L277.966 106.013Z" fill="#79C3F2"/>
<path d="M258.53 104.765L230.996 88.8692V85.625L243.358 78.4889L250.108 90.1787L258.53 104.765Z" fill="#57A9F2"/>
<path d="M246.785 74.3778C246.785 72.8282 247.873 72.2002 249.215 72.9757C250.557 73.7512 251.644 75.6337 251.644 77.1834C251.644 78.7331 250.557 79.361 249.215 78.5856C247.873 77.8101 246.785 75.9262 246.785 74.3778Z" fill="#79C3F2"/>
<path d="M228.973 53.1042L231.076 51.8574L282.092 81.3115L279.989 82.5583L228.973 53.1042Z" fill="#3A7FD8"/>
<path d="M279.988 119.493L282.092 118.246V81.3115L279.988 82.5583V119.493Z" fill="#57A9F2"/>
<defs>
<linearGradient id="paint0_linear_1247_7272" x1="315.664" y1="173.932" x2="372.217" y2="173.932" gradientUnits="userSpaceOnUse">
<stop stop-color="#3F6FEA"/>
<stop offset="0.0666667" stop-color="#3F70EA"/>
<stop offset="0.133333" stop-color="#3E72E9"/>
<stop offset="0.2" stop-color="#3D77E9"/>
<stop offset="0.266667" stop-color="#3C7DE7"/>
<stop offset="0.333333" stop-color="#3B85E6"/>
<stop offset="0.4" stop-color="#398FE4"/>
<stop offset="0.466667" stop-color="#3799E2"/>
<stop offset="0.533333" stop-color="#34A4E1"/>
<stop offset="0.6" stop-color="#32AFDF"/>
<stop offset="0.666667" stop-color="#30B8DD"/>
<stop offset="0.733333" stop-color="#2FC1DC"/>
<stop offset="0.8" stop-color="#2EC7DA"/>
<stop offset="0.866667" stop-color="#2DCBDA"/>
<stop offset="0.933333" stop-color="#2CCED9"/>
<stop offset="1" stop-color="#2CCFD9"/>
</linearGradient>
</defs>
</svg>
