<svg width="991" height="783" viewBox="0 0 991 783" fill="none" xmlns="http://www.w3.org/2000/svg">
<path d="M356.306 774.612L12.766 576.273C8.88471 574.032 5.66163 570.81 3.42071 566.929C1.17979 563.048 0 558.646 0 554.164C0 549.683 1.17979 545.28 3.42071 541.399C5.66163 537.519 8.88471 534.296 12.766 532.056L570.612 209.985C577.779 205.846 585.91 203.667 594.187 203.667C602.464 203.667 610.595 205.846 617.762 209.985L982.264 420.431C984.805 421.897 986.914 424.006 988.381 426.546C989.848 429.086 990.62 431.968 990.62 434.901C990.62 437.834 989.848 440.715 988.381 443.255C986.914 445.795 984.805 447.905 982.264 449.371L418.916 774.612C409.398 780.107 398.601 783 387.611 783C376.62 783 365.824 780.107 356.306 774.612Z" fill="url(#paint0_linear_1248_7759)"/>
<path d="M990.579 393.306L990.607 393.274V375.518L981.949 379.303L617.763 169.043C610.596 164.904 602.465 162.725 594.188 162.725C585.912 162.725 577.781 164.904 570.613 169.043L12.7673 491.114C10.3377 492.526 8.15742 494.329 6.31434 496.45L0.00390625 494.78V514.178L0.0672135 514.23C0.202431 518.541 1.44092 522.746 3.66437 526.442C5.88782 530.138 9.02197 533.203 12.7673 535.342L356.307 733.682C365.827 739.179 376.625 742.073 387.618 742.073C398.61 742.073 409.409 739.179 418.929 733.682L982.277 408.44C984.921 406.927 987.095 404.713 988.56 402.042C990.025 399.372 990.724 396.348 990.579 393.306Z" fill="#84A7DC"/>
<path d="M356.306 715.229L12.766 516.889C8.88471 514.649 5.66163 511.426 3.42071 507.546C1.17979 503.665 0 499.262 0 494.781C0 490.3 1.17979 485.897 3.42071 482.016C5.66163 478.135 8.88471 474.913 12.766 472.673L570.612 150.602C577.779 146.463 585.91 144.284 594.187 144.284C602.464 144.284 610.595 146.463 617.762 150.602L982.264 361.048C984.805 362.514 986.914 364.623 988.381 367.163C989.848 369.703 990.62 372.585 990.62 375.518C990.62 378.451 989.848 381.332 988.381 383.872C986.914 386.412 984.805 388.521 982.264 389.987L418.916 715.229C409.398 720.724 398.601 723.617 387.611 723.617C376.62 723.617 365.824 720.724 356.306 715.229Z" fill="#94CFF1"/>
<path d="M365.429 696.78L44.4231 511.449C40.7976 509.355 37.7871 506.344 35.694 502.719C33.6009 499.093 32.499 494.98 32.499 490.794C32.499 486.607 33.6009 482.494 35.694 478.869C37.7871 475.243 40.7976 472.232 44.4231 470.138L565.673 169.192C572.371 165.325 579.968 163.289 587.702 163.289C595.436 163.289 603.034 165.325 609.731 169.192L950.322 365.834C952.695 367.203 954.666 369.174 956.037 371.547C957.407 373.92 958.129 376.613 958.129 379.353C958.129 382.094 957.407 384.786 956.037 387.159C954.666 389.532 952.695 391.503 950.322 392.873L423.941 696.78C415.046 701.915 404.956 704.619 394.685 704.619C384.414 704.619 374.324 701.915 365.429 696.78Z" fill="#0068C7"/>
<path d="M388.185 669.682L90.8729 498.041C87.5146 496.102 84.7258 493.313 82.7869 489.955C80.8479 486.597 79.8271 482.787 79.8271 478.909C79.8271 475.031 80.8479 471.222 82.7869 467.864C84.7258 464.505 87.5146 461.717 90.8729 459.778L573.631 181.073C579.834 177.492 586.87 175.607 594.033 175.607C601.195 175.607 608.232 177.492 614.435 181.073L929.875 363.181C932.073 364.45 933.899 366.275 935.168 368.473C936.437 370.672 937.105 373.165 937.105 375.703C937.105 378.242 936.437 380.735 935.168 382.933C933.899 385.131 932.073 386.956 929.875 388.225L442.362 669.702C434.125 674.454 424.781 676.954 415.271 676.951C405.761 676.947 396.419 674.44 388.185 669.682Z" fill="url(#paint1_linear_1248_7759)"/>
<path d="M743.295 111.997C748.35 111.482 772.986 115.924 776.094 114.515C779.202 113.105 780.528 97.2737 779.966 89.3876C779.404 81.5015 779.087 73.0929 777.222 70.0327C775.853 67.788 768.184 66.723 767.868 72.7762C767.551 78.8293 769.451 105.694 769.451 105.694C765.334 105.413 744.862 104.451 744.862 104.451C743.71 103.434 743.948 101.589 741.66 99.7361C739.372 97.8834 738.457 97.0956 738.243 96.9649C736.83 96.7472 735.999 98.988 739.506 101.961C736.668 102.286 730.088 104.028 728.025 104.249C725.963 104.471 727.396 113.893 729.791 114.515C734.425 114.716 739.044 113.855 743.295 111.997Z" fill="#FFD2A9"/>
<path d="M779.966 89.3861C779.404 81.504 779.087 73.0874 777.223 70.0312C776.974 69.6764 776.647 69.3827 776.269 69.1721C777.502 75.0006 778.186 80.9319 778.311 86.8881C778.878 94.7702 777.52 110.606 774.44 112.015C771.36 113.424 746.696 108.979 741.64 109.493C737.391 111.354 732.771 112.215 728.137 112.011C728.061 112.011 727.998 111.892 727.927 111.857C728.406 113.223 729.039 114.315 729.787 114.509C734.422 114.713 739.041 113.853 743.291 111.995C748.351 111.481 772.983 115.922 776.094 114.513C779.206 113.104 780.528 97.2722 779.966 89.3861Z" fill="#E8B688"/>
<path d="M737.121 98.7709C737.196 99.0303 737.298 99.2812 737.426 99.5194L737.822 99.456C737.557 99.2183 737.347 98.9966 737.121 98.7709Z" fill="#D27250"/>
<path d="M789.446 32.8158C797.633 34.427 802.882 36.6875 806.639 45.6386C810.396 54.5896 808.171 55.706 810.392 60.3696C812.613 65.0331 815.871 67.3768 816.002 72.3373C816.133 77.2977 812.835 83.1965 816.002 89.693C819.169 96.1895 825.4 100.524 821.616 108.616C817.831 116.708 816.394 120.362 820.428 130.279C824.462 140.196 817.494 160.335 801.995 152.156C786.496 143.977 782.427 140.189 783.484 111.613C784.541 83.0381 787.934 76.122 785.067 67.7687C782.201 59.4155 780.036 55.7654 781.184 50.5437C783.382 44.3908 786.148 38.4558 789.446 32.8158Z" fill="black"/>
<path d="M815.969 89.6917C812.802 83.1952 816.1 77.2965 815.969 72.336C815.838 67.3755 812.576 65.0279 810.359 60.3683C808.142 55.7087 810.359 54.5883 806.606 45.6373C805.555 42.5551 803.702 39.8085 801.238 37.68C798.773 35.5516 795.786 34.1181 792.584 33.5271C794.847 34.5405 796.877 36.009 798.548 37.8411C800.219 39.6733 801.494 41.8299 802.295 44.1765C806.052 53.1275 803.831 54.2439 806.052 58.9075C808.273 63.571 811.531 65.9186 811.662 70.8752C811.792 75.8317 808.495 81.7344 811.662 88.2309C814.829 94.7274 821.056 99.0624 817.272 107.154C813.487 115.246 812.054 118.9 816.084 128.817C819.683 137.638 814.54 154.499 802.453 152.369C817.596 159.847 824.394 140.096 820.391 130.278C816.345 120.361 817.782 116.707 821.579 108.615C825.375 100.523 819.136 96.1883 815.969 89.6917Z" fill="#242424"/>
<path d="M798.944 281.36C800.297 284.502 800.772 287.953 800.318 291.344C799.526 293.561 789.506 296.467 783.979 299.99C778.453 303.513 773.552 301.443 774.28 299.27C775.61 295.311 785.591 285.457 791.196 281.653L798.944 281.36Z" fill="#F6F5FB"/>
<path d="M780.507 270.14C781.857 273.282 782.33 276.731 781.877 280.121C781.085 282.337 771.065 285.243 765.539 288.771C760.012 292.298 755.111 290.22 755.843 288.046C757.17 284.087 766.988 275.022 772.589 271.217L780.507 270.14Z" fill="#F6F5FB"/>
<path d="M768.802 127.543C766.359 142.496 765.376 157.65 765.868 172.793C766.969 195.149 773.208 216.958 773.161 227.085C772.559 236.812 772.416 266.852 772.005 270.981C771.593 275.11 779.352 275.684 781.704 273.246C782.892 270.502 784.036 239.342 786.712 224.924C789.496 204.999 790.984 184.914 791.166 164.796C790.849 155.627 783.763 129.812 783.763 129.812L768.802 127.543Z" fill="#005CEB"/>
<path d="M791.165 164.758C790.848 155.589 783.762 129.773 783.762 129.773L768.805 127.504L768.698 128.13L779.538 129.773C779.538 129.773 786.624 155.589 786.945 164.758C786.76 184.875 785.27 204.96 782.487 224.885C779.811 239.303 778.659 270.464 777.479 273.207C776.837 273.791 776.049 274.191 775.199 274.367C776.299 274.691 777.459 274.754 778.588 274.553C779.716 274.352 780.783 273.891 781.703 273.207C782.891 270.464 784.035 239.303 786.707 224.885C789.495 204.96 790.984 184.875 791.165 164.758Z" fill="#0043AD"/>
<path d="M805.075 136.011C822.585 152.27 802.133 208.529 802.272 217.524C802.272 225.046 806.362 228.356 806.35 235.98C806.326 253.562 802.462 264.833 799.307 281.868C797.89 285.969 791.033 285.403 791.033 281.302C791.033 277.2 791.033 243.205 787.723 227.35C783.288 205.891 781.302 183.998 781.805 162.092C781.805 162.092 771.682 153.137 772.014 142.444C771.889 137.109 772.906 131.81 774.999 126.901C782.999 129.67 791.269 131.588 799.671 132.622L805.075 136.011Z" fill="#005CEB"/>
<path d="M805.077 136.011L799.673 132.622C791.271 131.588 783.001 129.67 775.001 126.901C774.751 127.418 774.526 127.946 774.328 128.485C780.685 130.564 787.249 131.946 793.905 132.606L799.309 135.995C816.819 152.254 796.367 208.518 796.502 217.508C796.502 225.03 800.595 228.34 800.583 235.965C800.56 253.546 796.696 264.817 793.541 281.852C793.273 282.594 792.782 283.234 792.135 283.685C792.698 284.126 793.355 284.432 794.055 284.579C794.755 284.727 795.48 284.711 796.173 284.534C796.866 284.357 797.509 284.023 798.053 283.558C798.597 283.093 799.026 282.509 799.309 281.852C802.476 264.829 806.328 253.546 806.351 235.965C806.351 228.34 802.274 225.03 802.274 217.508C802.135 208.533 822.587 152.27 805.077 136.011Z" fill="#0043AD"/>
<path d="M792.115 131.596C786.333 130.331 780.62 128.764 775.001 126.901C775.001 126.901 774.938 127.024 774.835 127.249C780.496 129.066 786.268 130.518 792.115 131.596Z" fill="#0054A6"/>
<path d="M805.921 79.245C799.39 74.9639 792.601 71.0901 785.592 67.6455C780.093 65.4958 773.462 68.1799 768.248 78.1801C763.034 88.1802 754.519 106.288 765.996 111.704C765.996 111.704 769.824 114.044 765.996 127.452C763.351 133.945 788.165 146.53 805.347 136.114C799.032 107.99 823.387 91.7947 805.921 79.245Z" fill="#94CFF1"/>
<path d="M805.919 79.2388C799.387 74.9577 792.598 71.0839 785.59 67.6393C784.177 67.0894 782.658 66.8656 781.146 66.9849C779.635 67.1042 778.17 67.5634 776.86 68.3281C777.978 68.3498 779.084 68.5613 780.13 68.9536C787.137 72.399 793.925 76.2729 800.455 80.5531C817.926 93.1107 793.567 109.307 799.881 137.422C798.237 138.392 796.493 139.18 794.679 139.774C798.449 139.299 802.08 138.051 805.345 136.108C799.03 107.984 823.385 91.7884 805.919 79.2388Z" fill="#94CFF1"/>
<path d="M769.82 47.1177C769.82 47.1177 768.96 66.7102 776.225 73.6422C777.472 74.8893 790.96 72.8504 796.601 60.3879C800.43 58.2897 802.722 48.7052 800.956 43.7606C799.607 40.1076 796.915 37.1064 793.43 35.3683C789.945 33.6302 785.929 33.286 782.199 34.4057C779.128 35.1018 776.324 36.6729 774.127 38.9289C771.93 41.1849 770.434 44.0292 769.82 47.1177Z" fill="#FFD2A9"/>
<path d="M798.059 58.6276C797.889 59.0038 797.687 59.3404 797.505 59.6969C798.019 59.2146 798.467 58.6674 798.84 58.0691C798.599 58.2808 798.337 58.4679 798.059 58.6276Z" fill="#FFE13E"/>
<path d="M779.291 77.8531C779.291 80.8301 792.066 79.8326 792.066 74.5158V58.6803H779.291V77.8531Z" fill="#FFD2A9"/>
<path d="M800.104 87.738C800.401 86.2727 801.211 84.9617 802.389 84.0412C803.567 83.1208 805.036 82.6516 806.529 82.7181C807.812 82.8569 809.005 83.442 809.9 84.3711C810.795 85.3003 811.336 86.5144 811.426 87.8013C811.822 90.0856 810.777 99.6305 806.822 100.311C803.089 100.953 798.473 96.6653 800.104 87.738Z" fill="#71B4DB"/>
<path d="M796.605 60.3704C795.527 59.9243 794.581 59.2074 793.861 58.2892C793.14 57.3711 792.669 56.2825 792.492 55.1288C792.492 55.1288 779.538 59.8201 777.179 47.5436C777.179 47.5436 777.836 52.7218 769.792 50.5563C767.646 46.4985 771.411 32.6305 786.316 32.6305C801.221 32.6305 801.985 44.1746 801.985 47.603C801.985 51.0314 802.25 57.2706 796.605 60.3704Z" fill="black"/>
<path d="M795.775 58.7476C797.612 56.6731 800.427 56.7681 800.427 59.4641C800.326 60.2428 800.06 60.9911 799.647 61.6589C799.234 62.3268 798.684 62.8989 798.032 63.3369C797.381 63.775 796.643 64.0689 795.869 64.1991C795.094 64.3293 794.301 64.2928 793.542 64.092" fill="#FFD2A9"/>
<path d="M776.527 129.572C781.582 129.057 806.218 133.499 809.33 132.09C812.442 130.68 813.764 114.845 813.202 106.963C812.64 99.0807 812.889 89.607 810.201 86.5429C809.422 85.8836 808.475 85.4525 807.466 85.297C806.457 85.1414 805.425 85.2675 804.483 85.6615C803.541 86.0554 802.727 86.7018 802.129 87.5293C801.531 88.3569 801.174 89.3335 801.096 90.3513C800.783 96.4084 802.659 123.269 802.659 123.269C798.542 122.988 778.071 122.026 778.071 122.026C776.919 121.009 777.152 119.16 774.868 117.311C772.584 115.463 771.665 114.671 771.451 114.54C770.034 114.322 769.203 116.563 772.714 119.532C769.876 119.861 763.292 121.603 761.234 121.821C759.175 122.038 760.604 131.464 762.999 132.09C767.642 132.296 772.269 131.435 776.527 129.572Z" fill="#FFD2A9"/>
<path d="M813.197 106.958C812.635 99.0763 812.884 89.6027 810.2 86.5385C809.731 86.0894 809.154 85.7678 808.526 85.6043C810.196 89.6423 810.085 97.5799 810.572 104.365C811.134 112.251 809.781 128.087 806.701 129.496C803.621 130.906 778.953 126.46 773.897 126.975C769.893 128.714 765.571 129.6 761.205 129.576C761.68 130.87 762.294 131.895 763.018 132.081C767.652 132.285 772.272 131.425 776.522 129.568C781.577 129.053 806.214 133.495 809.325 132.085C812.437 130.676 813.763 114.849 813.197 106.958Z" fill="#E8B688"/>
<path d="M448.419 268.111C448.113 270.977 448.072 273.864 448.296 276.737C448.795 278.234 475.422 287.114 481.155 285.364C486.887 283.614 463.779 266.86 459.654 264.607C455.529 262.355 448.419 268.111 448.419 268.111Z" fill="#004BA3"/>
<path d="M448.297 271.444C448.262 271.297 448.236 271.147 448.217 270.997C448.023 272.907 448.049 274.833 448.297 276.737C448.795 278.234 475.423 287.114 481.155 285.36C482.941 284.817 481.947 282.826 479.572 280.277C471.717 280.57 448.76 272.834 448.297 271.444Z" fill="#00346F"/>
<path d="M382.076 308.677C382.249 317.409 381.307 326.127 379.273 334.62C377.832 339.109 374.791 343.167 371.775 342.87C368.497 342.546 365.923 337.842 366.022 332.181C366.208 321.302 366.418 310.803 370.148 307.711C373.877 304.62 382.076 308.677 382.076 308.677Z" fill="#004BA3"/>
<path d="M369.157 332.179C369.347 321.3 369.552 310.801 373.286 307.709C374.029 307.15 374.91 306.802 375.835 306.703C374.871 306.471 373.869 306.441 372.892 306.614C371.915 306.787 370.984 307.16 370.158 307.709C366.409 310.809 366.219 321.3 366.033 332.179C365.934 337.836 368.507 342.543 371.785 342.868C372.424 342.899 373.06 342.763 373.63 342.472C372.044 341.302 370.795 339.734 370.01 337.927C369.224 336.119 368.93 334.136 369.157 332.179Z" fill="#00346F"/>
<path d="M388.411 162.098C388.411 162.098 381.431 198.785 376.792 230.131C372.128 261.628 369.606 302.369 367.908 310.496C366.21 318.624 380.359 319.432 381.657 311.118C382.956 302.804 396.174 239.585 399.599 230.139C401.729 224.264 406.891 208.761 411.107 192.165C413.681 182.472 415.599 172.616 416.848 162.664C418.304 150.158 388.411 162.098 388.411 162.098Z" fill="#00BEFD"/>
<path d="M372.44 313.803C374.138 305.684 376.66 264.943 381.324 233.438C385.964 202.092 392.939 165.405 392.939 165.405C392.939 165.405 408.64 159.158 416.72 160.484C414.428 151.711 388.414 162.095 388.414 162.095C388.414 162.095 381.439 198.782 376.795 230.128C372.131 261.625 369.61 302.366 367.911 310.494C367.736 311.227 367.724 311.99 367.877 312.728C368.029 313.467 368.341 314.163 368.792 314.767C369.243 315.371 369.822 315.869 370.486 316.225C371.151 316.581 371.885 316.787 372.638 316.828C372.279 315.861 372.21 314.809 372.44 313.803Z" fill="#0096C1"/>
<path d="M411.416 184.407C411.416 184.407 411.812 191.727 426.42 219.847C441.1 248.101 443.443 264.654 448.194 271.455C448.8 273.921 462.41 271.605 461.801 266.728C457.984 259.23 446.266 225.061 443.507 215.401C440.747 205.741 437.077 184.918 429.86 163.904C423.708 152.922 411.416 184.407 411.416 184.407Z" fill="#00BEFD"/>
<path d="M454.637 271.172C449.887 264.37 447.547 247.814 432.863 219.564C418.251 191.456 417.859 184.12 417.859 184.12C417.859 184.12 423.798 168.934 429.479 163.34C423.224 154.175 411.41 184.409 411.41 184.409C411.41 184.409 411.806 191.733 426.41 219.853C441.094 248.107 443.434 264.659 448.184 271.461C448.485 272.688 452.009 272.728 455.393 271.857C455.222 271.811 455.064 271.725 454.932 271.606C454.801 271.487 454.7 271.338 454.637 271.172Z" fill="#0096C1"/>
<path d="M417.863 116.242C418.615 121.151 420.682 138.234 425.544 145.957C430.405 153.681 447.899 161.397 450.591 161.579L460.041 157.272C456.874 155.213 440.389 149.932 435.465 141.175C430.54 132.418 433.113 122.691 431.355 111.286C429.597 99.88 417.863 116.242 417.863 116.242Z" fill="#FFD2A9"/>
<path d="M453.778 159.704C451.086 159.538 433.588 151.787 428.734 144.079C423.881 136.371 421.806 119.272 421.05 114.363C422.911 111.812 425.047 109.474 427.42 107.392C423.386 108.54 417.863 116.24 417.863 116.24C418.615 121.149 420.682 138.231 425.544 145.955C430.405 153.679 447.899 161.395 450.591 161.577L460.041 157.27C459.93 157.198 459.772 157.111 459.645 157.032L453.778 159.704Z" fill="#EEBC8F"/>
<path d="M418.361 82.9601C414.252 83.7004 405.578 91.7251 415.831 115.158C415.831 115.158 428.27 116.626 431.988 110.514C432.296 104.271 428.519 81.1311 418.361 82.9601Z" fill="#B1C9FF"/>
<path d="M380.161 101.113C388.435 95.4318 403.518 84.4855 412.453 82.4863C418.039 83.1197 427.77 86.1403 429.116 105.57C430.462 125.001 428.507 152.364 430.466 164.336C427.458 175.983 400.996 186.11 386.265 168.964C383.098 161.897 387.259 145.809 385.078 131.988C383.237 120.385 378.134 118.306 376.942 109.134C376.56 107.628 376.666 106.04 377.244 104.599C377.823 103.157 378.844 101.936 380.161 101.113Z" fill="#007BFF"/>
<path d="M394.053 168.964C390.886 161.897 395.042 145.809 392.865 131.988C391.02 120.385 385.917 118.306 384.726 109.134C384.346 107.626 384.456 106.037 385.038 104.595C385.62 103.154 386.644 101.935 387.964 101.113C395.288 96.0811 407.952 86.944 416.951 83.5275C415.505 82.9996 414 82.6499 412.469 82.4863C403.554 84.4657 388.451 95.4318 380.177 101.113C378.857 101.935 377.833 103.154 377.251 104.595C376.669 106.037 376.559 107.626 376.938 109.134C378.126 118.306 383.237 120.385 385.078 131.988C387.275 145.809 383.126 161.897 386.266 168.964C389.182 172.352 392.912 174.944 397.105 176.495C401.298 178.046 405.817 178.506 410.237 177.832C403.928 176.988 398.159 173.827 394.053 168.964Z" fill="#005BCC"/>
<path d="M399.692 79.2383V94.3929C399.692 98.5102 414.863 102.117 414.863 88.4546V71.1741H399.692V79.2383Z" fill="#FFD2A9"/>
<path d="M399.692 79.2424V84.389C402.464 89.2782 408.006 94.1001 413.845 93.5934C414.554 91.9719 414.901 90.2158 414.863 88.4468V71.1663H399.692V79.2424Z" fill="#EDBF94"/>
<path d="M423.561 60.8305C424.57 68.0317 423.561 86.7295 415.643 89.6512C407.725 92.5728 399.708 84.3819 397.602 78.0674C393.83 73.3991 391.905 67.5067 392.195 61.5114C392.195 50.1099 402.78 47.9167 409.962 49.6625C417.143 51.4084 422.785 55.3435 423.561 60.8305Z" fill="#FFD2A9"/>
<path d="M423.886 52.4244C422.378 53.2518 411.42 49.6532 407.315 46.7118C403.32 43.8574 387.223 49.285 390.636 57.6304C387.469 58.624 387.14 68.9686 390.945 74.7683C394.872 80.7581 399.694 81.2768 399.694 86.8034C399.694 86.8034 402.58 80.865 396.527 72.2426C396.527 72.2426 403.91 80.9086 400.604 70.9876C401.161 69.7555 401.436 68.415 401.41 67.0633C401.384 65.7115 401.057 64.3825 400.454 63.1728C403.823 65.8688 413.122 63.632 418.641 61.8426C424.16 60.0532 424.868 57.3097 423.886 52.4244Z" fill="black"/>
<path d="M393.665 74.7701C389.861 68.9704 390.205 58.6258 393.353 57.6322C390.779 51.3336 399.311 46.7017 405.372 46.0326C399.687 45.2408 387.636 50.3003 390.637 57.6322C387.47 58.6258 387.141 68.9704 390.946 74.7701C394.873 80.7599 399.695 81.2786 399.695 86.8052C400.284 85.188 400.486 83.4551 400.285 81.7457C397.809 79.6914 395.587 77.3497 393.665 74.7701Z" fill="black"/>
<path d="M396.989 71.9564C395.034 69.6959 391.87 70.0522 393.304 74.2605C394.737 78.4688 399.78 79.8029 400.782 78.3025" fill="#FFD2A9"/>
<path d="M376.701 132.402C377.453 137.311 378.716 154.453 383.578 162.177C388.439 169.901 408.519 177.332 411.215 177.498L418.891 173.428C415.724 171.374 397.877 165.217 392.948 156.464C388.02 147.711 391.963 138.851 390.205 127.446C388.447 116.04 376.701 132.402 376.701 132.402Z" fill="#FFD2A9"/>
<path d="M387.707 161.306C382.845 153.582 381.586 136.44 380.83 131.531C382.955 128.581 385.488 125.947 388.352 123.708C384.52 121.531 376.717 132.418 376.717 132.418C377.469 137.327 378.732 154.469 383.593 162.193C388.455 169.916 408.534 177.347 411.23 177.514L413.606 176.251C407.893 174.608 391.974 168.064 387.707 161.306Z" fill="#EDBC8F"/>
<path d="M381.405 101.12C377.241 101.401 367.727 108.413 375.317 132.839C375.317 132.839 387.514 135.681 391.888 130.016C392.886 123.844 391.702 100.431 381.405 101.12Z" fill="#B1C9FF"/>
<path d="M379.644 132.844C372.997 111.466 379.461 103.421 383.971 101.569C383.159 101.233 382.283 101.083 381.405 101.129C377.241 101.41 367.727 108.421 375.317 132.848C378.178 133.45 381.108 133.657 384.026 133.465C382.553 133.358 381.089 133.15 379.644 132.844Z" fill="#5487DB"/>
<path d="M122.193 493.512L590.263 223.409C596.656 219.719 603.906 217.777 611.287 217.777C618.668 217.777 625.919 219.719 632.311 223.409L851.732 350.094C853.683 351.219 855.303 352.838 856.429 354.789C857.556 356.739 858.149 358.952 858.149 361.204C858.149 363.457 857.556 365.669 856.429 367.62C855.303 369.57 853.683 371.189 851.732 372.315L379.354 644.904C373.438 648.319 366.727 650.117 359.896 650.117C353.065 650.117 346.354 648.319 340.438 644.904L122.193 518.904C119.961 517.62 118.107 515.77 116.818 513.541C115.529 511.312 114.851 508.783 114.851 506.208C114.851 503.633 115.529 501.104 116.818 498.875C118.107 496.646 119.961 494.796 122.193 493.512Z" fill="white" fill-opacity="0.47"/>
<path d="M846.739 333.991H841.557C841.557 333.991 840.235 340.903 839.645 344.478L627.845 222.188C621.646 218.609 614.614 216.725 607.456 216.725C600.299 216.725 593.267 218.609 587.068 222.188L135.629 482.682C134.944 480.632 134.287 478.724 134.287 478.724L126.286 475.517V495.664H126.342C126.202 498.257 126.785 500.838 128.026 503.119C129.267 505.401 131.116 507.293 133.369 508.585L344.911 630.721C350.646 634.032 357.15 635.775 363.771 635.775C370.393 635.775 376.897 634.032 382.632 630.721L840.512 366.521C842.494 365.383 844.119 363.714 845.204 361.703C846.289 359.691 846.79 357.417 846.652 355.135H846.727L846.739 333.991Z" fill="#2953AC"/>
<path d="M133.377 462.617L587.065 200.809C593.264 197.23 600.295 195.346 607.453 195.346C614.611 195.346 621.642 197.23 627.841 200.809L840.512 323.601C842.402 324.693 843.972 326.263 845.063 328.154C846.154 330.044 846.728 332.189 846.728 334.371C846.728 336.554 846.154 338.698 845.063 340.589C843.972 342.479 842.402 344.049 840.512 345.141L382.64 609.361C376.906 612.674 370.402 614.418 363.78 614.418C357.158 614.418 350.653 612.674 344.92 609.361L133.377 487.23C131.216 485.983 129.422 484.189 128.175 482.029C126.927 479.869 126.271 477.418 126.271 474.924C126.271 472.429 126.927 469.978 128.175 467.818C129.422 465.658 131.216 463.864 133.377 462.617Z" fill="#B6E6FF"/>
<path d="M163.116 452.19L569.46 217.591C575.372 214.177 582.08 212.38 588.908 212.38C595.735 212.38 602.443 214.177 608.356 217.591L811.331 334.774C813.133 335.817 814.629 337.316 815.668 339.12C816.708 340.923 817.255 342.969 817.255 345.051C817.255 347.133 816.708 349.178 815.668 350.982C814.629 352.786 813.133 354.285 811.331 355.328L401.001 592.239C395.528 595.396 389.321 597.058 383.002 597.058C376.684 597.058 370.477 595.396 365.003 592.239L163.1 475.678C161.04 474.486 159.33 472.773 158.142 470.711C156.953 468.648 156.328 466.31 156.33 463.929C156.332 461.549 156.96 459.212 158.151 457.151C159.342 455.09 161.054 453.379 163.116 452.19Z" fill="#3777C4"/>
<path d="M253.22 538.075C256.953 538.119 259.95 540.086 259.926 542.474C259.902 544.861 256.85 546.757 253.121 546.714C249.392 546.67 246.391 544.702 246.391 542.315C246.391 539.928 249.486 538.048 253.22 538.075Z" fill="#007CB7"/>
<path d="M588.946 214.885L804.868 339.51L732.816 381.011L517.033 256.417L588.946 214.885Z" fill="#D3F6FF"/>
<path d="M517.033 256.414V262.946L732.832 387.517V381.012L517.033 256.414Z" fill="#55D8EA"/>
<path d="M732.831 381.009L804.883 339.512V345.981L732.831 387.518V381.009Z" fill="#00ACCE"/>
<path d="M710.817 468.512C710.817 468.512 696.636 465.345 694.375 465.425C692.115 465.504 688.809 467.25 689.942 468.9C698.089 474.225 706.605 478.964 715.425 483.081C717.037 483.438 718.72 483.29 720.245 482.657C721.77 482.024 723.063 480.936 723.948 479.542C724.74 477.254 723.929 471.07 721.72 470.072C718.142 469.211 714.492 468.688 710.817 468.512Z" fill="#D0E9FF"/>
<path d="M721.718 470.07C721.667 470.046 721.572 470.026 721.512 470.003C722.321 472.255 722.494 474.686 722.011 477.03C721.127 478.425 719.834 479.513 718.309 480.146C716.783 480.78 715.1 480.927 713.488 480.569C705.385 476.706 697.485 472.433 689.817 467.766C689.737 467.949 689.705 468.149 689.726 468.348C689.747 468.547 689.819 468.736 689.936 468.898C698.086 474.222 706.603 478.961 715.424 483.079C717.036 483.436 718.719 483.288 720.244 482.655C721.769 482.021 723.062 480.934 723.947 479.54C724.731 477.251 723.927 471.068 721.718 470.07Z" fill="#85C6EB"/>
<path d="M721.645 469.087C722.563 472.947 715.057 477.84 710.686 472.555C710.29 471.981 710.556 457.436 710.556 457.436H721.641C721.641 457.436 721.581 466.046 721.645 469.087Z" fill="#FFD2A9"/>
<path d="M686.349 482.957C686.349 482.957 672.173 479.79 669.912 479.869C667.652 479.948 664.346 481.694 665.474 483.345C673.624 488.668 682.141 493.407 690.962 497.525C692.574 497.883 694.257 497.735 695.782 497.102C697.308 496.469 698.6 495.381 699.485 493.986C700.277 491.698 699.465 485.51 697.256 484.517C693.677 483.657 690.026 483.135 686.349 482.957Z" fill="#D0E9FF"/>
<path d="M697.534 484.731C698.14 486.761 698.226 488.911 697.783 490.982C696.899 492.377 695.606 493.466 694.081 494.099C692.556 494.733 690.872 494.88 689.26 494.522C681.174 490.667 673.289 486.403 665.637 481.746C665.433 481.952 665.305 482.221 665.275 482.509C665.246 482.798 665.316 483.087 665.475 483.33C673.626 488.651 682.143 493.388 690.962 497.507C692.574 497.864 694.258 497.717 695.783 497.083C697.308 496.45 698.601 495.362 699.486 493.967C699.864 492.379 699.885 490.727 699.548 489.13C699.21 487.533 698.523 486.03 697.534 484.731Z" fill="#85C6EB"/>
<path d="M697.202 483.527C698.117 487.387 690.611 492.28 686.24 486.995C685.844 486.421 686.109 471.872 686.109 471.872H697.194C697.194 471.872 697.115 480.487 697.202 483.527Z" fill="#FFD2A9"/>
<path d="M703.035 241.266C701.848 244.591 693.574 249.797 690.395 246.167C687.216 242.536 687.754 221.44 687.754 221.44C688.055 219.393 696.404 210.873 709.334 216.151C711.357 216.841 713.214 217.947 714.784 219.398C716.354 220.848 717.604 222.611 718.452 224.574C719.3 226.536 719.728 228.654 719.709 230.792C719.69 232.929 719.224 235.039 718.341 236.986C717.672 238.326 716.731 239.511 715.576 240.465C714.422 241.419 713.08 242.12 711.638 242.523C710.196 242.927 708.685 243.023 707.203 242.806C705.722 242.59 704.302 242.065 703.035 241.266Z" fill="#FFD2A9"/>
<path d="M705.513 241.623C705.407 241.886 705.274 242.136 705.117 242.372C706.173 242.786 707.296 243.003 708.431 243.013C707.388 242.715 706.402 242.246 705.513 241.623Z" fill="#FFCCB8"/>
<path d="M703.497 379.106C703.497 379.106 709.067 431.521 708.643 458.014C709.316 462.44 722.618 464.293 722.895 454.899C723.263 441.62 726.193 394.244 727.076 380.262C727.959 366.279 733.216 346.635 730.029 327.296L711.921 335.507C711.921 335.507 702.661 367.051 703.497 379.106Z" fill="#2953AC"/>
<path d="M730.013 327.296L724.966 329.584C727.298 348.052 722.555 366.552 721.712 379.894C720.829 393.88 717.899 441.256 717.531 454.534C717.581 456.111 717.048 457.65 716.035 458.858C715.021 460.066 713.597 460.858 712.036 461.082C716.201 462.519 722.697 461.439 722.879 454.899C723.248 441.62 726.177 394.244 727.06 380.262C727.943 366.279 733.2 346.635 730.013 327.296Z" fill="#093B9E"/>
<path d="M687.132 335.52C682.088 354.888 680.063 374.918 681.13 394.903C683.129 426.681 685.065 460.934 684.645 469.219C684.226 477.505 698.323 476.124 698.323 467.707C698.323 459.291 699.448 405.347 701.368 395.489C703.288 385.632 716.447 355.505 715.315 331.692C714.82 319.099 687.132 335.52 687.132 335.52Z" fill="#2953AC"/>
<path d="M715.315 331.672C715.168 327.986 712.658 326.83 709.218 326.984C709.985 327.861 710.408 328.987 710.405 330.151C711.538 353.96 698.386 384.087 696.462 393.949C694.538 403.81 693.418 457.75 693.418 466.167C693.341 468.048 692.542 469.828 691.188 471.136C689.834 472.444 688.028 473.181 686.146 473.194C687.243 474.009 688.538 474.515 689.897 474.659C691.256 474.804 692.629 474.581 693.873 474.016C695.116 473.45 696.186 472.561 696.97 471.442C697.754 470.323 698.224 469.014 698.331 467.651C698.331 459.235 699.455 405.291 701.375 395.433C703.295 385.576 716.447 355.48 715.315 331.672Z" fill="#093B9E"/>
<path d="M712.207 252.435C713.533 251.105 715.165 250.121 716.96 249.569C718.754 249.017 720.657 248.913 722.5 249.267C729.543 250.111 736.329 259.6 733.866 272.292C731.459 284.715 726.934 305.911 731.942 330.092C732.18 331.118 732.019 332.197 731.491 333.109C723.672 345.844 701.067 351.83 687.631 341.612C686.636 340.883 685.875 339.88 685.439 338.726C685.003 337.572 684.912 336.317 685.176 335.112C688.632 320.535 684.582 290.004 685.113 283.092C685.707 275.317 686.498 266.73 694.147 261.647C699.883 258.048 705.927 254.965 712.207 252.435Z" fill="#005CEB"/>
<path d="M724.578 249.835C726.287 252.39 727.457 255.267 728.014 258.291C728.572 261.314 728.506 264.419 727.82 267.416C725.413 279.835 720.884 301.031 725.896 325.216C726.133 326.242 725.971 327.32 725.445 328.232C718.37 339.753 699.225 345.703 685.686 339.187C686.129 340.136 686.791 340.968 687.618 341.613C701.054 351.831 723.643 345.845 731.478 333.11C732.006 332.198 732.167 331.119 731.929 330.093C726.921 305.924 731.446 284.728 733.853 272.293C736.07 260.864 730.785 252.099 724.578 249.835Z" fill="#0043AD"/>
<path d="M701.484 242.324L702.403 257.989C702.403 261.077 716.932 256.762 716.738 251.806L714.521 237.819L703.198 239.842L700.625 241.596L701.484 242.324Z" fill="#FFD2A9"/>
<path d="M695.324 225.293C697.85 226.694 701.619 229.062 704.897 230.724C701.306 228.788 697.422 226.31 695.324 225.293Z" fill="#0071D9"/>
<path d="M715.661 216.137C710.546 215.666 701.658 209.875 696.876 209.265C691.214 208.544 684.631 208.742 684.152 216.486C683.673 224.229 697.489 219.546 698.875 220.734C695.039 222.594 693.673 224.499 693.899 226.276C693.844 227.649 694.143 229.012 694.767 230.236C695.391 231.459 696.319 232.502 697.462 233.264C698.237 234.125 698.908 235.075 699.461 236.094C704.029 250.39 711.773 248.208 714.505 249.95C717.391 245.113 717.537 241.538 719.398 238.47C720.774 235.287 721.035 231.732 720.138 228.382C722.038 223.572 719.928 216.529 715.661 216.137Z" fill="black"/>
<path d="M715.658 216.135C710.543 215.664 701.655 209.872 696.873 209.263C694.93 208.981 692.959 208.941 691.006 209.144C691.402 209.183 691.829 209.211 692.229 209.263C697.016 209.872 705.903 215.664 711.018 216.135C712.224 216.485 713.349 217.072 714.327 217.861C715.305 218.649 716.116 219.625 716.713 220.73C717.31 221.835 717.682 223.048 717.806 224.298C717.93 225.548 717.804 226.811 717.435 228.012C717.874 231.295 717.637 234.634 716.739 237.822C716.089 240.989 713.627 249.386 714.518 249.96C717.4 245.122 717.55 241.547 719.411 238.479C720.787 235.296 721.048 231.742 720.151 228.392C722.036 223.574 719.926 216.527 715.658 216.135Z" fill="black"/>
<path d="M696.69 234.149C698.356 231.35 703.574 232.126 699.572 239.153C699.287 239.777 698.781 240.274 698.151 240.547C697.522 240.82 696.813 240.849 696.163 240.63" fill="#FFD2A9"/>
<path d="M684.661 468.928C684.051 468.235 683.742 472.155 683.841 474.439C683.94 476.723 688.735 478.156 693.137 476.917C694.628 476.612 696.016 475.93 697.169 474.938C698.322 473.945 699.202 472.673 699.725 471.244C700.141 469.56 699.956 467.783 699.202 466.22C698.485 465.567 698.343 465.634 698.343 465.634C696.914 467.241 695.147 468.511 693.169 469.352C691.799 469.876 690.335 470.11 688.87 470.037C687.405 469.964 685.972 469.586 684.661 468.928Z" fill="#F6F5FB"/>
<path d="M699.179 466.22C698.463 465.567 698.316 465.634 698.316 465.634C698.316 465.634 698.063 465.927 697.64 466.343C697.777 467.381 697.747 468.434 697.548 469.463C697.025 470.887 696.147 472.156 694.998 473.147C693.849 474.139 692.467 474.822 690.981 475.132C688.688 475.79 686.248 475.725 683.993 474.946C684.737 476.925 689.076 478.053 693.134 476.925C694.625 476.62 696.013 475.938 697.166 474.945C698.319 473.952 699.199 472.681 699.722 471.252C700.134 469.563 699.942 467.783 699.179 466.22Z" fill="#E1E1E1"/>
<path d="M708.994 456.526C708.384 455.833 708.075 459.756 708.17 462.036C708.265 464.317 713.063 465.758 717.466 464.515C718.957 464.209 720.345 463.528 721.499 462.535C722.652 461.542 723.533 460.271 724.057 458.842C724.469 457.157 724.285 455.382 723.535 453.818C722.818 453.165 722.672 453.232 722.672 453.232C721.245 454.839 719.479 456.109 717.501 456.949C716.132 457.474 714.668 457.708 713.203 457.635C711.738 457.562 710.304 457.184 708.994 456.526Z" fill="#F6F5FB"/>
<path d="M723.534 453.826C722.818 453.172 722.671 453.24 722.671 453.24C722.671 453.24 722.426 453.521 722.014 453.929C722.326 455.267 722.351 456.657 722.085 458.006C721.563 459.435 720.683 460.707 719.53 461.7C718.377 462.693 716.989 463.374 715.498 463.679C713.512 464.24 711.415 464.281 709.409 463.798C711.893 465.097 714.79 465.358 717.466 464.522C718.957 464.217 720.345 463.535 721.498 462.542C722.652 461.55 723.533 460.278 724.057 458.849C724.469 457.165 724.284 455.389 723.534 453.826Z" fill="#E1E1E1"/>
<path d="M472.263 141.685L689.566 267.11L617.051 308.876L399.891 183.486L472.263 141.685Z" fill="#30C2DD"/>
<path d="M399.891 183.485V190.06L617.075 315.426V308.878L399.891 183.485Z" fill="#3777C4"/>
<path d="M617.077 308.875L689.568 267.108V273.621L617.077 315.423V308.875Z" fill="#2953AC"/>
<path d="M571.52 470.528C548.226 470.259 529.057 457.57 529.228 442.685L529.156 436.521L613.48 437.998L613.536 444.035C613.377 458.901 594.81 470.777 571.52 470.528Z" fill="#94CFF1"/>
<path d="M571.629 410.561C594.923 410.83 613.665 423.115 613.495 437.996C613.324 452.877 594.302 464.726 571.008 464.461C547.714 464.196 528.973 451.907 529.147 437.022C529.321 422.137 548.347 410.292 571.629 410.561Z" fill="#2953AC"/>
<path d="M491.063 424.096C467.773 423.827 448.6 411.138 448.774 396.253L448.703 390.089L533.027 391.566L533.083 397.603C532.905 412.488 514.357 424.365 491.063 424.096Z" fill="#55D8EA"/>
<path d="M491.175 364.129C514.469 364.398 533.211 376.682 533.041 391.564C532.87 406.445 513.848 418.294 490.554 418.029C467.26 417.764 448.518 405.475 448.693 390.59C448.867 375.704 467.885 363.86 491.175 364.129Z" fill="#D3F6FF"/>
<path d="M413.656 377.664C390.362 377.395 371.193 364.706 371.363 349.825L371.292 343.657L455.616 345.138L455.676 351.175C455.513 366.056 436.95 377.933 413.656 377.664Z" fill="#94CFF1"/>
<path d="M413.768 317.697C437.058 317.966 455.804 330.25 455.629 345.136C455.455 360.021 436.437 371.866 413.147 371.597C389.857 371.328 371.111 359.043 371.281 344.162C371.452 329.28 390.474 317.432 413.768 317.697Z" fill="#30C2DD"/>
<path d="M678.989 278.861C678.989 278.861 672.144 293.905 667.627 296.854C662.148 300.417 638.371 302.864 638.371 302.864L630.058 307.67C630.058 307.67 656.875 313.442 668.74 310.014C680.482 306.621 688.784 291.878 691.23 287.448C693.677 283.018 678.989 278.861 678.989 278.861Z" fill="#FFD2A9"/>
<path d="M689.884 283.856C689.884 283.88 689.884 283.908 689.856 283.936C687.414 288.35 679.108 303.089 667.366 306.501C658.894 308.948 642.821 306.711 634.329 305.227L630.062 307.689C630.062 307.689 656.879 313.461 668.744 310.033C680.486 306.64 688.788 291.897 691.234 287.467C691.927 286.212 691.218 284.981 689.884 283.856Z" fill="#E8B688"/>
<path d="M700.007 263.799C694.092 259.899 685.331 264.709 677.588 278.502C678.675 281.431 680.394 284.084 682.623 286.274C684.851 288.463 687.534 290.135 690.482 291.17C697.632 288.059 707.568 268.775 700.007 263.799Z" fill="#00BEFD"/>
<path d="M700.008 263.798C699.04 263.189 697.948 262.803 696.813 262.67C701.785 268.965 692.692 285.952 686.021 288.854C685.882 288.807 685.779 288.735 685.625 288.684C687.117 289.728 688.744 290.563 690.463 291.166C697.628 288.059 707.569 268.779 700.008 263.798Z" fill="#009AD0"/>
<path d="M341.712 335.044L557.633 459.67L485.582 501.171L269.799 376.557L341.712 335.044Z" fill="#D3F6FF"/>
<path d="M269.799 376.558V383.09L485.601 507.657V501.152L269.799 376.558Z" fill="#55D8EA"/>
<path d="M485.6 501.173L557.631 459.672V466.14L485.6 507.677V501.173Z" fill="#00ACCE"/>
<path d="M246.64 416.51L462.561 541.136L390.509 582.637L174.73 458.043L246.64 416.51Z" fill="#D3F6FF"/>
<path d="M174.727 458.04V464.572L390.529 589.142V582.638L174.727 458.04Z" fill="#55D8EA"/>
<path d="M390.527 582.639L462.559 541.138V547.607L390.527 589.147V582.639Z" fill="#00ACCE"/>
<path d="M334.039 504.798C334.039 504.798 331.992 512.169 334.039 514.544C335.994 515.97 338.305 516.83 340.717 517.028C343.13 517.227 345.55 516.756 347.712 515.669C355.831 511.675 363.638 507.079 371.07 501.919C372.946 498.685 360.82 496.417 347.712 500.668C343.241 502.317 338.675 503.696 334.039 504.798Z" fill="#2953AC"/>
<path d="M369.726 499.608C362.435 504.391 354.876 508.753 347.086 512.672C344.923 513.759 342.503 514.229 340.091 514.031C337.678 513.832 335.368 512.973 333.412 511.548C333.31 511.394 333.222 511.231 333.15 511.061C333.053 512.289 333.364 513.516 334.037 514.548C335.993 515.974 338.304 516.834 340.716 517.032C343.128 517.231 345.549 516.76 347.711 515.673C355.829 511.679 363.637 507.083 371.069 501.924C371.603 501.037 371.041 500.233 369.726 499.608Z" fill="#94CFF1"/>
<path d="M259.351 417.801C259.351 417.801 249.814 436.511 253.353 448.763C256.892 461.016 251.952 481.139 251.952 481.139C251.952 481.139 183.689 524.647 180.438 526.896C181.191 528.646 194.797 527.145 192.442 537.898C192.442 537.898 274.787 508.574 284.066 491.84C289.791 481.488 286.358 431.154 286.358 431.154L259.351 417.801Z" fill="#005CEB"/>
<path d="M258.702 486.634C258.702 486.634 263.642 466.511 260.099 454.258C256.556 442.006 266.101 423.296 266.101 423.296L286.493 433.379C286.41 431.958 286.354 431.154 286.354 431.154L259.351 417.801C259.351 417.801 249.81 436.511 253.349 448.763C256.888 461.016 251.948 481.139 251.948 481.139C251.948 481.139 183.685 524.647 180.435 526.896C180.922 528.028 186.769 527.818 190.205 530.419C203.958 521.524 258.702 486.634 258.702 486.634Z" fill="#004FBD"/>
<path d="M268.759 432.406C268.759 432.406 257.674 466.623 289.575 464.659C318.015 462.909 331.008 455.158 331.008 455.158C331.008 455.158 333.554 503.06 334.255 506.382C335.427 507.362 336.808 508.06 338.292 508.422C339.777 508.784 341.324 508.8 342.816 508.47C344.308 508.139 345.704 507.471 346.896 506.516C348.089 505.561 349.046 504.344 349.694 502.961C349.445 499.711 357.133 437.853 350.696 429.013C344.322 420.26 315.743 420.874 296.337 435.577L268.759 432.406Z" fill="#005CEB"/>
<path d="M341.756 502.887C341.055 499.553 338.51 451.659 338.51 451.659C338.51 451.659 325.517 459.41 297.076 461.16C272.222 462.688 273.465 442.248 275.223 433.151L268.758 432.407C268.758 432.407 257.673 466.623 289.574 464.66C318.014 462.91 331.007 455.158 331.007 455.158C331.007 455.158 333.553 503.061 334.254 506.382C336.295 508.075 338.92 508.897 341.562 508.669C344.203 508.442 346.65 507.184 348.371 505.167C347.169 505.297 345.952 505.16 344.809 504.766C343.665 504.372 342.623 503.73 341.756 502.887Z" fill="#004FBD"/>
<path d="M310.624 427.729C307.653 428.887 304.776 430.273 302.018 431.874L303.854 432.084C306.005 430.473 308.267 429.018 310.624 427.729Z" fill="#004FBD"/>
<path d="M311.705 366.259C308.474 363.761 292.999 354.065 287.374 355.538C281.226 357.145 274.998 358.65 265.085 376.584C256.376 392.328 253.901 404.157 255.026 428.223C256.902 433.584 269.092 438.912 283.102 441.921C294.805 444.419 304.219 443.196 307.105 436.592C307.105 428.18 312.98 415.733 314.844 410.701C316.709 405.67 325.078 390.82 324.346 382.138C323.613 373.456 317.968 371.097 311.705 366.259Z" fill="#CEE8F8"/>
<path d="M262.517 430.222C261.393 406.156 263.871 394.327 272.576 378.578C282.474 360.648 288.717 359.14 294.865 357.537C295.283 357.438 295.711 357.39 296.14 357.394C293.449 355.955 290.406 355.309 287.363 355.53C281.215 357.137 274.987 358.641 265.074 376.571C256.365 392.319 253.891 404.149 255.015 428.215C256.816 433.361 268.135 438.508 281.436 441.536C271.599 438.492 263.978 434.355 262.517 430.222Z" fill="#A6C9EC"/>
<path d="M332.791 336.418C332.791 336.418 332.059 353.097 319.699 360.31C317.383 359.914 317.324 358.964 312.082 353.659C312.082 353.659 300.237 351.929 296.872 347.479C293.507 343.029 297.941 328.476 303.032 323.813C305.896 320.949 309.709 319.233 313.752 318.99C317.795 318.747 321.786 319.994 324.972 322.495C333.167 328.722 333.25 333.801 332.791 336.418Z" fill="#FFD2A9"/>
<path d="M293.727 356.469C291.807 361.853 305.307 367.111 307.065 362.186L313.055 352.162L298.347 346.912C296.636 350.012 295.093 353.202 293.727 356.469Z" fill="#FFD2A9"/>
<path d="M374.98 443.745C373.109 443.773 371.269 444.233 369.604 445.087C362.082 440.918 346.999 433.503 344.326 429.014C339.986 419.991 336.184 410.719 332.941 401.246C332.941 401.246 316.666 402.775 318.788 409.71C320.909 416.646 329.33 441.112 345.993 447.225C362.656 453.337 389.564 455.143 389.564 455.143C396.69 455.974 396.033 457.466 396.92 456.405L374.98 443.745Z" fill="#FFD2A9"/>
<path d="M349.492 444.479C332.829 438.366 324.412 413.892 322.29 406.96C322.117 406.442 322.062 405.892 322.13 405.349C322.199 404.807 322.389 404.287 322.686 403.829C319.955 405.12 317.936 406.996 318.787 409.716C320.909 416.648 329.325 441.118 345.988 447.23C362.651 453.343 389.56 455.148 389.56 455.148C396.686 455.979 396.029 457.472 396.915 456.411L389.437 452.096C375.879 451.055 362.481 448.501 349.492 444.479Z" fill="#E4B68C"/>
<path d="M315.564 374.081C325.041 370.355 334.103 383.637 340.9 405.356C334.168 409.942 326.655 413.262 318.731 415.15C309.625 408.642 303.469 378.827 315.564 374.081Z" fill="#CEE8F8"/>
<path d="M185.651 525.804C184.586 525.489 183.468 525.392 182.365 525.517C181.261 525.643 180.194 525.99 179.227 526.536C178.26 527.083 177.413 527.819 176.736 528.699C176.059 529.58 175.566 530.588 175.287 531.663C173.513 537.313 174.063 567.008 180.968 567.036C187.872 567.064 191.918 548.065 192.718 542.693C193.517 537.321 194.234 528.971 185.651 525.804Z" fill="#2953AC"/>
<path d="M185.652 525.807C184.331 525.402 182.928 525.347 181.579 525.647C180.231 525.948 178.984 526.594 177.96 527.522C179.63 526.828 181.493 526.752 183.213 527.308C191.796 530.475 191.08 538.824 190.28 544.196C189.627 548.599 186.788 562.138 181.986 566.873C188.269 565.155 191.958 547.795 192.719 542.696C193.518 537.316 194.235 528.974 185.652 525.807Z" fill="#F6F5FB"/>
<path d="M319.525 344.755C322.098 342.672 324.022 339.895 325.068 336.754C325.068 336.754 333.069 338.496 335.939 335.729C338.809 332.962 340.143 325.04 335.017 322.597C329.89 320.155 318.445 317.981 314.316 315.008C310.187 312.035 297.269 316.034 294.806 327.11C292.344 338.187 293.92 346.703 295.697 348.857C297.475 351.01 299.114 354.399 298.599 355.527C305.883 351.319 309.62 355.132 314.316 351.01C319.011 346.889 319.525 344.755 319.525 344.755Z" fill="black"/>
<path d="M302.653 353.862C302.05 352.562 301.289 351.342 300.388 350.228C298.615 348.074 297.035 339.539 299.497 328.482C300.373 324.935 302.356 321.759 305.158 319.416C307.961 317.072 311.438 315.683 315.084 315.449C314.834 315.303 314.533 315.16 314.319 315.01C310.198 312.033 297.273 316.035 294.81 327.112C292.348 338.189 293.923 346.705 295.701 348.858C297.478 351.012 299.117 354.401 298.607 355.529C299.872 354.79 301.234 354.229 302.653 353.862Z" fill="#222222"/>
<path d="M321.35 342.903C319.818 340.222 312.546 343.271 317.597 350.448C319.652 352.907 321.976 351.636 321.35 350.448" fill="#FFD2A9"/>
<path d="M933.033 113.115V63.9698C933.034 62.5438 932.658 61.1428 931.945 59.9078C931.232 58.6729 930.207 57.6475 928.972 56.9349L831.306 0.548498C830.65 0.166938 829.901 -0.0223932 829.142 0.00210992C828.384 0.026613 827.648 0.263976 827.019 0.687073V0.663333L824.893 1.80746L825.003 2.15981L825.74 1.9856C825.356 2.62385 825.155 3.355 825.158 4.09963V55.0267C825.158 56.2689 825.485 57.4892 826.107 58.5649C826.728 59.6406 827.621 60.5339 828.697 61.155L835.031 64.8012V77.4696L849.169 72.9525L925.864 117.248C926.562 117.649 927.351 117.864 928.156 117.874V118.602L930.603 117.264L930.67 117.229L930.733 117.193C931.439 116.772 932.022 116.175 932.425 115.46C932.829 114.745 933.038 113.936 933.033 113.115Z" fill="#9CE2FF"/>
<path d="M930.654 65.262C930.654 63.8361 930.278 62.4353 929.565 61.2004C928.852 59.9655 927.827 58.94 926.592 58.2271L828.93 1.84074C828.306 1.4803 827.598 1.29079 826.877 1.29128C826.156 1.29176 825.448 1.48224 824.824 1.84352C824.2 2.20481 823.683 2.72415 823.324 3.34919C822.965 3.97422 822.776 4.68289 822.778 5.40377V56.3308C822.777 57.5728 823.104 58.7931 823.724 59.8689C824.345 60.9448 825.238 61.8381 826.314 62.4591L832.648 66.1092V78.7777L846.785 74.2566L923.5 118.549C924.227 118.968 925.051 119.19 925.89 119.19C926.729 119.19 927.553 118.97 928.28 118.55C929.006 118.131 929.61 117.528 930.029 116.801C930.449 116.075 930.67 115.25 930.67 114.412L930.654 65.262Z" fill="#3777C4"/>
<path d="M264.738 130.463V79.9002C264.738 78.4325 265.125 76.9907 265.859 75.7197C266.592 74.4487 267.648 73.3932 268.919 72.6594L369.407 14.6499C370.083 14.2589 370.855 14.0654 371.635 14.0913C372.416 14.1171 373.173 14.3614 373.821 14.7963V14.7726L376.007 15.9603L375.896 16.3245L375.136 16.1463C375.531 16.8037 375.737 17.5569 375.733 18.3237V70.7155C375.733 71.9934 375.397 73.2486 374.757 74.355C374.118 75.4613 373.198 76.3799 372.091 77.0181L365.595 80.7711V93.8156L351.038 89.1402L272.114 134.707C271.39 135.122 270.572 135.344 269.738 135.352V136.1L267.221 134.727L267.149 134.687L267.082 134.651C266.362 134.216 265.768 133.601 265.357 132.867C264.946 132.133 264.733 131.304 264.738 130.463Z" fill="#9CE2FF"/>
<path d="M267.187 81.2214C267.186 79.7536 267.572 78.3117 268.306 77.0406C269.04 75.7695 270.096 74.7141 271.367 73.9806L371.84 15.9711C372.482 15.5996 373.21 15.4038 373.952 15.4034C374.693 15.4031 375.422 15.5982 376.064 15.9691C376.706 16.34 377.24 16.8736 377.61 17.5161C377.98 18.1587 378.175 18.8875 378.174 19.6291V72.017C378.174 73.2955 377.838 74.5516 377.198 75.6587C376.559 76.7658 375.639 77.685 374.532 78.3235L368.035 82.0765V95.121L353.49 90.4733L274.566 136.04C273.819 136.471 272.971 136.699 272.108 136.699C271.245 136.699 270.397 136.472 269.65 136.041C268.903 135.609 268.282 134.989 267.85 134.242C267.418 133.495 267.191 132.647 267.191 131.784L267.187 81.2214Z" fill="#94CFF1"/>
<defs>
<linearGradient id="paint0_linear_1248_7759" x1="991" y1="317" x2="-249" y2="627" gradientUnits="userSpaceOnUse">
<stop stop-color="#EBEBEB"/>
<stop offset="1" stop-color="white" stop-opacity="0"/>
</linearGradient>
<linearGradient id="paint1_linear_1248_7759" x1="79.8272" y1="426.279" x2="937.105" y2="426.279" gradientUnits="userSpaceOnUse">
<stop stop-color="#3F6FEA"/>
<stop offset="0.0666667" stop-color="#3F70EA"/>
<stop offset="0.133333" stop-color="#3E72E9"/>
<stop offset="0.2" stop-color="#3D77E9"/>
<stop offset="0.266667" stop-color="#3C7DE7"/>
<stop offset="0.333333" stop-color="#3B85E6"/>
<stop offset="0.4" stop-color="#398FE4"/>
<stop offset="0.466667" stop-color="#3799E2"/>
<stop offset="0.533333" stop-color="#34A4E1"/>
<stop offset="0.6" stop-color="#32AFDF"/>
<stop offset="0.666667" stop-color="#30B8DD"/>
<stop offset="0.733333" stop-color="#2FC1DC"/>
<stop offset="0.8" stop-color="#2EC7DA"/>
<stop offset="0.866667" stop-color="#2DCBDA"/>
<stop offset="0.933333" stop-color="#2CCED9"/>
<stop offset="1" stop-color="#2CCFD9"/>
</linearGradient>
</defs>
</svg>
