<svg width="810" height="782" viewBox="0 0 810 782" fill="none" xmlns="http://www.w3.org/2000/svg">
<path d="M695.074 621.972L810 555.652L687.699 485.413L627.687 519.901L441.265 412.815L188.951 557.843L114.188 514.887L0 580.533L121.563 651.466L218.746 595.385L360.054 677.843L319.259 701.312L458.775 782L605.161 697.499L564.45 674.367L675.267 610.427L695.074 621.972Z" fill="#94CFF1" fill-opacity="0.23"/>
<path d="M503.532 451.516L477.108 436.621L480.732 434.536L369.073 369.796L307.227 405.505L419.308 469.992L465.518 443.321L491.458 458.658L503.532 451.516Z" fill="#CDE9F9"/>
<path d="M632.344 473.089L658.135 458.194L558.487 403.061L533.285 417.598L434.016 362.001L391.577 386.439L657.566 537.408L701.754 511.979L632.344 473.089Z" fill="#E6F4FC"/>
<path d="M778.308 507.893V213.139L414.925 3.37109V298.125L545.907 373.757L545.802 373.693V415.891L499.233 442.794L582.256 490.66L638.433 458.237L591.696 432.387L591.865 400.28L778.308 507.893Z" fill="#94CFF1"/>
<path d="M414.925 3.37078L420.783 0L785.283 209.494L784.988 503.889L778.308 507.892V213.139L414.925 3.37078Z" fill="#3C6FEB"/>
<path d="M778.308 213.139L785.283 209.494L784.988 503.89L778.308 507.892V213.139Z" fill="#3777C4"/>
<path d="M778.308 233.195L414.925 23.4272V3.37109L778.308 213.139V233.195Z" fill="#0149B0"/>
<path d="M430.497 22.3951C430.497 24.249 429.022 24.86 427.189 23.8066C426.259 23.2566 425.473 22.4947 424.895 21.583C424.316 20.6713 423.961 19.6357 423.859 18.5608C423.859 16.728 425.334 16.0959 427.189 17.1493C428.111 17.7055 428.89 18.4695 429.465 19.3803C430.039 20.2911 430.392 21.3235 430.497 22.3951Z" fill="#94CFF1"/>
<path d="M443.962 30.1685C443.962 32.0014 442.487 32.6334 440.633 31.58C439.707 31.0262 438.923 30.2632 438.345 29.3523C437.767 28.4414 437.41 27.4078 437.303 26.3343C437.303 24.5014 438.799 23.8694 440.633 24.9227C441.56 25.4753 442.344 26.2379 442.922 27.1491C443.501 28.0603 443.857 29.0945 443.962 30.1685Z" fill="#3777C4"/>
<path d="M457.427 37.9212C457.427 39.7541 455.931 40.3861 454.097 39.3327C453.173 38.7776 452.39 38.0143 451.812 37.1037C451.234 36.193 450.877 35.16 450.768 34.0869C450.768 32.2541 452.264 31.6221 454.097 32.6754C455.023 33.2293 455.807 33.9922 456.385 34.9031C456.963 35.8141 457.32 36.8477 457.427 37.9212Z" fill="#30C2DD"/>
<path d="M610.134 395.603L423.354 287.801V43.6516L610.134 151.474V395.603Z" fill="#C3DCFD"/>
<path d="M769.268 487.457L670.483 430.449V186.32L769.268 243.329V487.457Z" fill="white"/>
<path d="M499.275 155.203L432.73 116.797V60.168L499.275 98.5738V155.203Z" fill="white"/>
<path d="M755.845 303.307L683.906 261.783V205.154L755.845 246.678V303.307Z" fill="#30C2DD"/>
<path d="M755.845 469.402L683.906 427.878V343.124L755.845 384.648V469.402Z" fill="#093B9E"/>
<path d="M755.845 307.647L683.906 266.102V261.783L755.845 303.307V307.647Z" fill="#C3DCFD"/>
<path d="M755.845 324.986L683.906 283.462V281.882L755.845 323.406V324.986Z" fill="#C3DCFD"/>
<path d="M755.845 335.772L683.906 294.227V292.668L755.845 334.192V335.772Z" fill="#C3DCFD"/>
<path d="M755.845 346.558L683.906 305.013V303.454L755.845 344.978V346.558Z" fill="#C3DCFD"/>
<path d="M755.845 357.345L683.906 315.8V314.241L755.845 355.765V357.345Z" fill="#C3DCFD"/>
<path d="M755.845 368.131L683.906 326.587V325.028L755.845 366.551V368.131Z" fill="#C3DCFD"/>
<path d="M755.845 462.113L683.906 420.568V419.009L755.845 460.533V462.113Z" fill="white"/>
<path d="M659.505 424.108L606.763 393.665V149.516L659.505 179.979V424.108Z" fill="white"/>
<path d="M600.715 289.108L432.73 192.155V135.526L600.715 232.478V289.108Z" fill="#017BD4"/>
<path d="M653.078 282.619L612.178 259.002V239.094L653.078 262.71V282.619Z" fill="#017BD4"/>
<path d="M600.715 370.976L432.73 274.024V217.395L600.715 314.368V370.976Z" fill="#017BD4"/>
<path d="M529.134 127.247L505.786 114.585V111.235L529.134 123.897V127.247Z" fill="white"/>
<path d="M586.28 175.302L505.786 129.67V126.32L586.28 171.952V175.302Z" fill="white"/>
<path d="M586.28 190.364L505.786 144.733V141.383L586.28 187.015V190.364Z" fill="white"/>
<path d="M586.281 205.428L505.787 159.796V156.446L586.281 202.078V205.428Z" fill="white"/>
<path d="M731.847 417.644C736.822 413.902 735.491 403.738 728.873 394.942C722.255 386.146 712.857 382.048 707.881 385.79C702.906 389.532 704.237 399.696 710.855 408.492C717.473 417.289 726.871 421.386 731.847 417.644Z" fill="white"/>
<path d="M715.324 399.859V392.759L721.477 399.859L727.63 406.979H721.477H715.324V399.859Z" fill="#C3DCFD"/>
<path d="M628.593 181.285C628.593 185.814 624.905 187.373 620.375 184.761C618.092 183.396 616.161 181.515 614.737 179.268C613.313 177.021 612.437 174.472 612.178 171.825C612.178 167.275 615.844 165.737 620.375 168.349C622.661 169.713 624.595 171.594 626.022 173.84C627.449 176.087 628.33 178.636 628.593 181.285Z" fill="#C3DCFD"/>
<path d="M653.079 196.222L633.124 184.698V183.139L653.079 194.641V196.222Z" fill="#C3DCFD"/>
<path d="M628.593 206.25C628.593 210.779 624.905 212.317 620.375 209.705C618.092 208.34 616.161 206.459 614.737 204.212C613.313 201.965 612.437 199.416 612.178 196.769C612.178 192.24 615.844 190.681 620.375 193.293C622.663 194.659 624.599 196.543 626.026 198.793C627.454 201.044 628.333 203.598 628.593 206.25Z" fill="#C3DCFD"/>
<path d="M653.078 221.165L633.123 209.641V208.082L653.078 219.585V221.165Z" fill="#C3DCFD"/>
<path d="M628.593 231.194C628.593 235.723 624.905 237.282 620.375 234.649C618.092 233.284 616.161 231.403 614.737 229.156C613.313 226.909 612.437 224.36 612.178 221.713C612.178 217.184 615.844 215.625 620.375 218.237C622.66 219.607 624.593 221.492 626.02 223.741C627.447 225.991 628.328 228.543 628.593 231.194Z" fill="#C3DCFD"/>
<path d="M653.079 246.109L633.124 234.606V233.026L653.079 244.55V246.109Z" fill="#C3DCFD"/>
<path d="M647.368 392.043C647.368 400.196 640.772 402.977 632.617 398.363C624.463 393.75 617.867 383.258 617.867 375.189C617.867 367.121 624.463 364.276 632.617 368.975C640.772 373.673 647.368 383.911 647.368 392.043Z" fill="#C3DCFD"/>
<path d="M653.078 291.804L612.178 268.188V266.629L653.078 290.245V291.804Z" fill="#C3DCFD"/>
<path d="M653.078 301.895L612.178 278.279V276.72L653.078 300.336V301.895Z" fill="#C3DCFD"/>
<path d="M653.078 311.987L612.178 288.371V286.812L653.078 310.407V311.987Z" fill="#C3DCFD"/>
<path d="M653.078 345.231L612.178 321.615V301.706L653.078 325.323V345.231Z" fill="#017BD4"/>
<path d="M653.078 354.417L612.178 330.8V329.241L653.078 352.858V354.417Z" fill="#C3DCFD"/>
<path d="M653.078 364.508L612.178 340.891V339.332L653.078 362.949V364.508Z" fill="#C3DCFD"/>
<path d="M653.078 374.599L612.178 350.982V349.402L653.078 373.019V374.599Z" fill="#C3DCFD"/>
<path d="M579.475 233.153L476.623 173.764V172.205L579.475 231.573V233.153Z" fill="#C3DCFD"/>
<path d="M579.475 243.939L476.623 184.55V182.991L579.475 242.38V243.939Z" fill="#C3DCFD"/>
<path d="M579.475 254.725L476.623 195.336V193.777L579.475 253.145V254.725Z" fill="#C3DCFD"/>
<path d="M579.475 265.512L476.623 206.123V204.564L579.475 263.932V265.512Z" fill="#C3DCFD"/>
<path d="M579.475 315.021L476.623 255.653V254.094L579.475 313.462V315.021Z" fill="#C3DCFD"/>
<path d="M579.475 325.807L476.623 266.439V264.859L579.475 324.248V325.807Z" fill="#C3DCFD"/>
<path d="M579.475 336.593L476.623 277.226V275.646L579.475 335.034V336.593Z" fill="#C3DCFD"/>
<path d="M579.475 347.38L476.623 288.012V286.432L579.475 345.821V347.38Z" fill="#C3DCFD"/>
<path d="M499.233 442.794V446.481L582.172 494.43L638.433 462.113V458.237L582.256 490.659L499.233 442.794Z" fill="#3777C4"/>
<path d="M598.966 436.39V463.777L623.915 450.273L598.966 436.39Z" fill="#2953AC"/>
<g style="mix-blend-mode:hard-light" opacity="0.3">
<path d="M414.925 229.634L439.663 243.939V111.952L414.925 97.668V229.634Z" fill="#08263F"/>
</g>
<path d="M423.122 245.898L353.711 205.849V73.8623L423.122 113.932V245.898Z" fill="#9DCFE5"/>
<path d="M386.393 121.454L357.335 104.684V80.5618L386.393 97.3314V121.454Z" fill="white"/>
<path d="M374.467 206.903L357.336 197.023V181.833L374.467 191.714V206.903Z" fill="white"/>
<path d="M396.993 219.901L379.84 209.999V194.81L396.993 204.711V219.901Z" fill="white"/>
<path d="M419.497 232.9L402.345 222.998V207.809L419.497 217.71V232.9Z" fill="white"/>
<path d="M419.498 125.414L390.418 108.623V107.76L419.498 124.55V125.414Z" fill="white"/>
<path d="M419.498 119.683L390.418 102.914V100.28L419.498 117.071V119.683Z" fill="white"/>
<path d="M419.498 129.206L390.418 112.416V111.552L419.498 128.321V129.206Z" fill="white"/>
<path d="M419.498 132.978L390.418 116.208V115.323L419.498 132.114V132.978Z" fill="white"/>
<path d="M419.498 136.77L390.418 120V119.115L419.498 135.906V136.77Z" fill="white"/>
<path d="M419.498 140.561L390.418 123.771V122.907L419.498 139.698V140.561Z" fill="white"/>
<path d="M419.497 202.731L357.335 166.833V165.969L419.497 201.846V202.731Z" fill="white"/>
<path d="M419.497 206.524L357.335 170.625V169.761L419.497 205.639V206.524Z" fill="white"/>
<path d="M419.498 197.296L357.336 161.418V113.258L419.498 149.157V197.296Z" fill="white"/>
<path d="M353.711 73.8625L356.155 72.9355L425.629 113.048V245.814L423.121 245.899V113.933L353.711 73.8625Z" fill="#0149B0"/>
<path d="M423.122 113.933L425.63 113.048V245.814L423.122 245.899V113.933Z" fill="#3069BF"/>
<g style="mix-blend-mode:hard-light" opacity="0.3">
<path d="M778.308 331.411L740.21 309.417V401.924L778.308 423.918V331.411Z" fill="#08263F"/>
</g>
<path d="M789.265 459.037L719.855 418.967V326.46L789.265 366.53V459.037Z" fill="#9DCFE5"/>
<path d="M785.641 393.159L723.458 357.26V333.159L785.641 369.037V393.159Z" fill="white"/>
<path d="M785.641 406.6L723.458 370.722V361.432L785.641 397.309V406.6Z" fill="white"/>
<path d="M785.641 439.086L723.458 403.187V401.586L785.641 437.464V439.086Z" fill="white"/>
<path d="M785.641 445.659L723.458 409.761V408.159L785.641 444.037V445.659Z" fill="white"/>
<path d="M785.641 452.232L723.458 416.355V414.732L785.641 450.61V452.232Z" fill="white"/>
<path d="M741.938 404.852L723.458 394.171V375.716L741.938 386.376V404.852Z" fill="white"/>
<path d="M785.641 415.301L746.553 392.738V389.03L785.641 411.593V415.301Z" fill="white"/>
<path d="M785.641 422.675L746.553 400.112V396.425L785.641 418.988V422.675Z" fill="white"/>
<path d="M785.641 430.07L746.553 407.507V403.799L785.641 426.362V430.07Z" fill="white"/>
<path d="M719.855 326.46L722.278 325.533L791.773 365.645V458.953L789.265 459.037V366.53L719.855 326.46Z" fill="#0149B0"/>
<path d="M789.266 366.53L791.773 365.646V458.953L789.266 459.037V366.53Z" fill="#3069BF"/>
<path d="M739.072 393.96C739.072 397.478 736.228 398.679 732.751 396.657C730.985 395.597 729.493 394.137 728.395 392.395C727.297 390.654 726.624 388.678 726.429 386.629C726.429 383.11 729.274 381.909 732.751 383.932C734.512 384.997 736 386.458 737.098 388.199C738.195 389.939 738.871 391.912 739.072 393.96Z" fill="#3777C4"/>
<path d="M490.847 448.482L421.436 408.412V276.446L490.847 316.516V448.482Z" fill="#0149B0"/>
<path d="M486.675 431.713L425.608 396.467V284.283L486.675 319.55V431.713Z" fill="white"/>
<path d="M482.502 391.916L429.78 362.127V349.255L482.502 379.044V391.916Z" fill="#94CFF1"/>
<path d="M482.502 370.132L429.78 339.711V338.974L482.502 369.395V370.132Z" fill="#94CFF1"/>
<path d="M482.502 373.356L429.78 342.914V342.177L482.502 372.619V373.356Z" fill="#94CFF1"/>
<path d="M482.502 399.458L429.78 369.037V368.3L482.502 398.721V399.458Z" fill="#C3DCFD"/>
<path d="M482.502 402.682L429.78 372.24V371.502L482.502 401.945V402.682Z" fill="#C3DCFD"/>
<path d="M482.502 408.118L429.78 377.696V376.959L482.502 407.38V408.118Z" fill="#C3DCFD"/>
<path d="M482.502 411.341L429.78 380.899V380.161L482.502 410.603V411.341Z" fill="#C3DCFD"/>
<path d="M482.502 365.54L429.78 335.098V294.27L482.502 324.712V365.54Z" fill="#017BD4"/>
<path d="M421.436 276.446L423.88 275.498L493.354 315.61V447.092L490.847 448.482V316.516L421.436 276.446Z" fill="#08263F"/>
<path d="M490.847 316.516L493.354 315.61V447.092L490.847 448.482V316.516Z" fill="#2B4B64"/>
<path d="M591.506 467.738L598.966 463.777V404.367L591.865 400.28L591.506 467.738Z" fill="#3777C4"/>
<path d="M591.865 400.28L545.802 373.693V384.669L591.865 402.534V400.28Z" fill="#94CFF1"/>
<path d="M582.256 490.659L582.172 494.43L499.233 446.481V442.794L582.256 490.659Z" fill="#3777C4"/>
<path d="M360.854 449.156L360.875 476.375L248.773 411.698V384.669L360.854 449.156Z" fill="#6AB4DE"/>
<path d="M248.773 384.67L310.619 348.981L422.279 413.722L360.854 449.157L248.773 384.67Z" fill="#94CFF1"/>
<path d="M330.153 493.988V521.207L218.051 456.509V429.501L330.153 493.988Z" fill="#6AB4DE"/>
<path d="M218.051 429.501L249.195 411.53L360.854 476.27L330.153 493.988L218.051 429.501Z" fill="#94CFF1"/>
<path d="M360.854 449.156V476.27L330.153 493.987V521.206L360.854 503.594L360.876 503.552V503.594L422.279 468.264V413.721L360.854 449.156Z" fill="#3777C4"/>
<path d="M230.041 133.083L229.535 132.219L366.565 53.1318L419.75 83.827L419.245 84.6908L366.565 54.2905L230.041 133.083Z" fill="#093B9E" fill-opacity="0.35"/>
<path d="M230.041 141.13L229.535 140.245L366.565 61.1582L419.75 91.8534L419.245 92.7382L366.565 62.3169L230.041 141.13Z" fill="#093B9E" fill-opacity="0.35"/>
<path d="M230.041 149.157L229.535 148.294L366.565 69.1855L419.75 99.9018L419.245 100.766L366.565 70.3653L230.041 149.157Z" fill="#093B9E" fill-opacity="0.35"/>
<path d="M153.234 600.736L62.6045 548.426L162.59 491.038L252.63 542.801L153.234 600.736Z" fill="#C3DCFD"/>
<path d="M62.6045 548.426L153.234 600.736L252.63 542.801L252.461 549.859L152.939 607.941L62.6045 555.125V548.426Z" fill="#699FD9"/>
<path d="M55.7981 592.331L30.8701 577.942L58.3688 562.162L83.1282 576.404L55.7981 592.331Z" fill="#C3DCFD"/>
<path d="M30.8701 577.941L55.7981 592.33L83.1282 576.403L83.065 582.997L55.7138 598.966L30.8701 584.451V577.941Z" fill="#699FD9"/>
<path d="M90.925 613.756L65.9971 599.367L93.4958 583.588L118.255 597.829L90.925 613.756Z" fill="#C3DCFD"/>
<path d="M65.9971 599.367L90.925 613.756L118.255 597.829L118.192 604.423L90.8407 620.392L65.9971 605.877V599.367Z" fill="#699FD9"/>
<path d="M87.0054 540.652L158.902 498.812L225.531 536.902L154.498 578.236L87.0054 540.652Z" fill="#017BD4"/>
<path d="M87.0054 540.715V547.625L154.498 586.579V578.299L87.0054 540.715Z" fill="#092F7C"/>
<path d="M154.499 578.299L225.532 536.965V546.087L154.499 586.578V578.299Z" fill="#093B9E"/>
<path d="M212.319 535.238L150.453 570.294L100.196 541.832L162.084 506.755L212.319 535.238Z" fill="#C3DCFD"/>
<path d="M195.04 530.751L173.842 542.759L172.156 541.811L193.354 529.803L195.04 530.751Z" fill="white"/>
<path d="M186.254 525.779L165.056 537.787L144.026 525.863L165.224 513.854L186.254 525.779Z" fill="white"/>
<path d="M200.962 534.121L179.763 546.129L178.099 545.181L199.297 533.173L200.962 534.121Z" fill="white"/>
<path d="M143.415 542.885C145.185 540.547 144.3 537.66 140.802 535.68C138.319 534.409 135.575 533.73 132.785 533.698C129.996 533.665 127.236 534.278 124.724 535.49C120.383 537.934 120.51 542.021 125.082 544.592C128.989 546.565 133.469 547.087 137.725 546.066C133.005 550.28 134.08 556.052 140.823 559.865L148.135 564.079L175.022 548.847L167.71 544.634C163.978 542.75 159.908 541.626 155.738 541.325C151.567 541.025 147.379 541.555 143.415 542.885Z" fill="#017BD4"/>
<path d="M87.0054 523.777L158.902 481.937L225.531 520.027L154.498 561.361L87.0054 523.777Z" fill="#017BD4"/>
<path d="M87.0054 523.84V530.729L154.498 569.704V561.424L87.0054 523.84Z" fill="#092F7C"/>
<path d="M154.499 561.424L225.532 520.09V529.212L154.499 569.704V561.424Z" fill="#093B9E"/>
<path d="M212.319 518.342L150.453 553.419L100.196 524.957L162.084 489.88L212.319 518.342Z" fill="#C3DCFD"/>
<path d="M195.04 513.855L173.842 525.884L172.156 524.936L193.354 512.928L195.04 513.855Z" fill="white"/>
<path d="M186.254 508.883L165.056 520.891L144.026 508.988L165.224 496.979L186.254 508.883Z" fill="white"/>
<path d="M200.962 517.225L179.763 529.234L178.099 528.285L199.297 516.277L200.962 517.225Z" fill="white"/>
<path d="M143.415 525.989C145.185 523.651 144.3 520.786 140.802 518.805C138.32 517.531 135.577 516.849 132.788 516.812C129.998 516.776 127.238 517.386 124.724 518.595C120.383 521.059 120.51 525.147 125.082 527.717C128.992 529.679 133.469 530.201 137.725 529.191C133.005 533.405 134.08 539.177 140.823 542.991L148.135 547.204L175.022 531.951L167.71 527.738C163.978 525.854 159.908 524.73 155.738 524.43C151.567 524.129 147.379 524.659 143.415 525.989Z" fill="#017BD4"/>
<path d="M87.0054 506.881L158.902 465.062L225.531 503.131L154.498 544.465L87.0054 506.881Z" fill="#017BD4"/>
<path d="M87.0054 506.966V513.855L154.498 552.808V544.55L87.0054 506.966Z" fill="#092F7C"/>
<path d="M154.499 544.55L225.532 503.194V512.338L154.499 552.808V544.55Z" fill="#093B9E"/>
<path d="M212.319 501.467L150.453 536.544L100.196 508.061L162.084 473.005L212.319 501.467Z" fill="#C3DCFD"/>
<path d="M195.041 496.979L173.842 508.988L172.157 508.061L193.355 496.031L195.041 496.979Z" fill="white"/>
<path d="M186.254 492.007L165.056 504.016L144.026 492.112L165.224 480.083L186.254 492.007Z" fill="white"/>
<path d="M200.962 500.35L179.763 512.359L178.099 511.41L199.297 499.402L200.962 500.35Z" fill="white"/>
<path d="M143.415 509.115C145.185 506.776 144.3 503.89 140.802 501.91C138.319 500.639 135.575 499.96 132.785 499.927C129.996 499.894 127.236 500.508 124.724 501.72C120.383 504.185 120.51 508.251 125.082 510.821C128.99 512.791 133.466 513.32 137.725 512.317C133.005 516.53 134.08 522.282 140.823 526.116L148.135 530.329L175.022 515.077L167.71 510.863C163.978 508.98 159.908 507.855 155.738 507.555C151.567 507.255 147.379 507.785 143.415 509.115Z" fill="#017BD4"/>
<path d="M87.0054 490.006L158.902 448.188L225.531 486.256L154.498 527.59L87.0054 490.006Z" fill="#017BD4"/>
<path d="M87.0054 490.069V496.979L154.498 535.933V527.654L87.0054 490.069Z" fill="#092F7C"/>
<path d="M154.499 527.654L225.532 486.319V495.463L154.499 535.933V527.654Z" fill="#093B9E"/>
<path d="M212.319 484.592L150.453 519.648L100.196 491.186L162.084 456.108L212.319 484.592Z" fill="#94CFF1"/>
<path d="M195.041 480.105L173.842 492.113L172.157 491.165L193.355 479.156L195.041 480.105Z" fill="white"/>
<path d="M186.254 475.132L165.056 487.141L144.026 475.216L165.224 463.208L186.254 475.132Z" fill="white"/>
<path d="M200.962 483.475L179.763 495.484L178.099 494.536L199.297 482.527L200.962 483.475Z" fill="white"/>
<path d="M143.415 492.24C145.185 489.901 144.3 487.015 140.802 485.035C138.319 483.764 135.575 483.085 132.785 483.052C129.996 483.019 127.236 483.633 124.724 484.845C120.383 487.31 120.51 491.376 125.082 493.946C128.989 495.919 133.469 496.442 137.725 495.421C133.005 499.634 134.08 505.407 140.823 509.241L148.135 513.454L175.022 498.223L167.71 494.009C163.979 492.122 159.91 490.994 155.74 490.69C151.569 490.387 147.38 490.913 143.415 492.24Z" fill="#017BD4"/>
<path d="M710.014 584.388L787.285 539.809L702.049 490.891L625.264 535.027L710.014 584.388Z" fill="#30C2DD"/>
<path d="M709.509 578.279L776.665 539.515L702.597 497.001L635.863 535.365L709.509 578.279Z" fill="#F0EEED"/>
<path d="M787.285 539.809L710.014 584.388L625.264 535.027L625.411 541.031L710.246 590.54L787.285 545.519V539.809Z" fill="#014694"/>
<path d="M635.863 535.364L655.396 524.135L688.837 520.996L691.703 537.64H735.111L739.325 561.067L709.509 578.279L635.863 535.364Z" fill="#093B9E"/>
<path d="M787.284 539.81L710.014 584.388L710.246 590.54L787.284 545.519V539.81Z" fill="#3069BF"/>
<path d="M482.186 640.28L635.968 551.523L466.34 454.171L313.506 542.001L482.186 640.28Z" fill="#F6F5FB"/>
<path d="M635.968 551.522L482.186 640.279L313.506 542L313.822 553.966L482.671 652.541L635.968 562.92V551.522Z" fill="url(#paint0_linear_1251_9367)"/>
<path d="M482.186 640.279L482.671 652.541L313.822 553.966L313.506 542L482.186 640.279Z" fill="url(#paint1_linear_1251_9367)"/>
<path d="M62.499 339.037L235.225 239.325V86.0811L62.499 185.793V339.037Z" fill="#017BD4"/>
<path d="M73.0981 245.435L225.679 157.352V104.726L73.0981 192.808V245.435Z" fill="#9DCFE5"/>
<path d="M173.042 262.078L225.679 231.699V179.072L173.042 209.451V262.078Z" fill="white"/>
<path d="M73.0981 319.761L167.394 265.344V212.718L73.0981 267.135V319.761Z" fill="white"/>
<path d="M73.0981 256.98L225.679 168.918V165.737L73.0981 253.799V256.98Z" fill="#9DCFE5"/>
<path d="M77.502 270.842L162.99 221.502V220.596L77.502 269.936V270.842Z" fill="#9DCFE5"/>
<path d="M77.502 278.427L162.99 229.066V228.16L77.502 277.521V278.427Z" fill="#9DCFE5"/>
<path d="M77.502 285.99L162.99 236.65V235.744L77.502 285.084V285.99Z" fill="#9DCFE5"/>
<path d="M77.502 293.552L162.99 244.213V243.307L77.502 292.646V293.552Z" fill="#9DCFE5"/>
<path d="M77.502 301.137L162.99 251.776V250.87L77.502 300.21V301.137Z" fill="#9DCFE5"/>
<path d="M77.502 308.701L162.99 259.361V258.455L77.502 307.795V308.701Z" fill="#9DCFE5"/>
<path d="M62.499 185.793L235.225 86.0816V77.1279L62.499 176.84V185.793Z" fill="#093B9E"/>
<path d="M181.576 230.836C181.576 240.674 189.541 244.024 199.36 238.357C209.18 232.689 217.145 220.133 217.145 210.316C217.145 200.499 209.18 197.128 199.36 202.795C189.541 208.462 181.576 221.018 181.576 230.836Z" fill="#30C2DD"/>
<path d="M187.265 229.276C186.675 235.954 191.479 237.703 198.264 233.279C205.049 228.855 210.907 219.796 211.455 213.117C212.003 206.439 207.241 204.69 200.456 209.114C193.671 213.539 187.876 222.598 187.265 229.276Z" fill="white"/>
<path d="M235.224 77.1276L229.472 75.7793L56.999 174.67V336.741L62.4988 339.037V176.84L235.224 77.1276Z" fill="#D2EFFF"/>
<path d="M56.999 174.67L62.4988 176.84V339.038L56.999 336.741V174.67Z" fill="#C3DCFD"/>
<path d="M494.197 543.264V535.849L491.121 536.881L489.603 533.742L473.462 533.847C470.877 531.309 467.947 529.146 464.76 527.422L468.974 518.405V510.989L466.024 517.436L461.536 515.961L454.097 513.517L442.866 520.196C438.245 519.472 433.572 519.133 428.896 519.184L420.762 511.074L412.565 512.38L404.347 513.686L404.621 523.019C400.756 524.275 397.039 525.95 393.537 528.012L377.923 525.589L374.214 529.381L369.452 526.684V534.1L381.084 540.61C379.872 543.13 379.287 545.905 379.377 548.7L368.504 552.323L365.427 546.003V553.398L367.724 558.159L370 562.92L386.12 562.794C388.711 565.341 391.647 567.512 394.843 569.241L393.663 571.832L390.734 570.863V578.257L398.152 580.701L405.59 583.145L416.779 576.467C421.428 577.197 426.129 577.543 430.834 577.499L438.926 585.673L447.144 584.388L455.362 583.082V575.666H455.13V573.728C459.009 572.463 462.739 570.782 466.256 568.714L481.849 571.137L486.063 566.923L490.278 562.71V555.125L485.621 559.908L478.667 556.01C479.88 553.483 480.466 550.701 480.374 547.899L494.197 543.264ZM437.303 564.079C422.3 566.46 406.749 561.34 402.556 552.639C398.362 543.939 407.128 534.985 422.131 532.604C437.135 530.224 452.707 535.343 456.9 544.023C461.093 552.703 452.391 561.698 437.387 564.079H437.303Z" fill="#719AC2"/>
<path d="M417.917 548.068V548.51C417.937 549.082 418.081 549.642 418.338 550.153C420.087 553.819 426.767 555.968 433.089 554.978C438.251 554.156 441.665 551.459 441.77 548.51V540.926H417.917V548.068Z" fill="#719AC2"/>
<path d="M473.462 526.453C470.872 523.914 467.943 521.744 464.76 520.006L468.974 510.989L461.472 508.546L454.034 506.102L442.803 512.801C438.183 512.07 433.51 511.725 428.832 511.769L420.698 503.679L412.501 504.985L404.283 506.27L404.557 515.624C400.692 516.881 396.976 518.555 393.474 520.617L377.838 518.258L373.624 522.471L369.41 526.685L381.041 533.215C379.795 535.77 379.195 538.591 379.292 541.432L365.343 546.088L367.64 550.849L369.915 555.589L386.035 555.484C388.632 558.025 391.568 560.194 394.759 561.93L390.734 570.926L398.152 573.37L405.59 575.814L416.779 569.135C421.428 569.866 426.129 570.211 430.834 570.168L438.925 578.236L447.143 576.93L455.362 575.624L455.066 566.312C458.949 565.057 462.68 563.375 466.192 561.298L481.786 563.721L486 559.507L490.214 555.294L478.604 548.763C479.817 546.244 480.402 543.468 480.311 540.673L494.26 536.017L491.963 531.256L489.666 526.495L473.462 526.453ZM437.387 556.663C422.384 559.044 406.833 553.925 402.64 545.245C398.447 536.565 407.212 527.569 422.216 525.189C437.219 522.808 452.791 527.928 456.984 536.628C461.177 545.329 452.39 554.283 437.387 556.663Z" fill="#97B9DE"/>
<path d="M441.265 539.114C443.035 542.78 439.326 546.572 433.005 547.541C426.683 548.51 420.109 546.382 418.254 542.737C416.4 539.093 420.172 535.28 426.493 534.311C432.815 533.341 439.495 535.448 441.265 539.114Z" fill="#97B9DE"/>
<path d="M585.648 544.718V539.451L583.541 540.189L582.467 537.956H571.003C569.166 536.155 567.088 534.617 564.829 533.384L567.758 527.064V521.797L565.651 526.369L562.469 525.315L557.201 523.588L549.215 528.328C545.933 527.81 542.613 527.57 539.29 527.611L533.517 521.86L527.68 522.787L521.864 523.714L522.054 530.329C519.316 531.236 516.681 532.43 514.194 533.89L503.089 532.162L500.455 534.859L497.147 532.984V538.251L505.386 542.885C504.536 544.673 504.125 546.637 504.185 548.616L496.451 551.207L494.344 546.677V551.965L495.967 555.357L497.589 558.728H509.052C510.894 560.539 512.979 562.084 515.247 563.321L514.405 565.132L512.297 564.458V569.704L517.565 571.453L522.833 573.18L530.798 568.44C534.095 568.955 537.429 569.202 540.765 569.177L546.518 574.908L552.355 573.981L558.192 573.054V567.808H558.023V566.418C560.783 565.532 563.434 564.338 565.925 562.857L576.988 564.585L579.959 561.53L582.951 558.496V553.229L579.474 556.537L574.544 553.756C575.397 551.962 575.816 549.991 575.766 548.005L585.648 544.718ZM545.296 559.465C534.76 561.151 523.592 557.527 520.621 551.354C517.65 545.182 523.866 538.714 534.528 537.113C545.19 535.512 556.232 539.072 559.203 545.245C562.174 551.418 555.958 557.801 545.296 559.486V559.465Z" fill="#719AC2"/>
<path d="M531.473 548.131V548.447C531.499 548.851 531.607 549.245 531.789 549.606C533.032 552.218 537.689 553.819 542.178 553.019C545.865 552.45 548.288 550.533 548.352 548.447V543.054H531.494L531.473 548.131Z" fill="#719AC2"/>
<path d="M570.92 532.773C569.082 530.973 567.004 529.434 564.746 528.202L567.675 521.881L562.386 520.154L557.118 518.405L549.131 523.166C545.849 522.652 542.529 522.406 539.207 522.429L533.433 516.678L527.596 517.605L521.78 518.532L521.97 525.168C519.229 526.059 516.594 527.246 514.11 528.707L503.005 526.98L500.034 530.034L497.063 533.005L505.302 537.64C504.455 539.436 504.044 541.406 504.101 543.391L494.197 546.699L495.82 550.07L497.442 553.44H508.905C510.743 555.251 512.829 556.79 515.1 558.012L512.172 564.332L517.439 566.06L522.707 567.787L530.673 563.047C533.968 563.573 537.302 563.819 540.64 563.784L546.392 569.515L552.229 568.588L558.066 567.682L557.855 561.067C560.612 560.166 563.262 558.965 565.757 557.485L576.82 559.213L579.791 556.179L582.783 553.124L574.523 548.511C575.377 546.716 575.796 544.746 575.745 542.759L585.649 539.452L584.005 536.081L582.383 532.689L570.92 532.773ZM545.296 554.241C534.76 555.926 523.592 552.282 520.621 546.109C517.65 539.936 523.866 533.468 534.529 531.888C545.191 530.308 556.233 533.827 559.204 539.999C562.175 546.172 555.959 552.555 545.296 554.241Z" fill="#97B9DE"/>
<path d="M548.056 541.768C549.3 544.381 546.687 547.056 542.177 547.773C537.668 548.489 533.032 546.951 531.789 544.36C530.546 541.769 533.159 539.072 537.647 538.356C542.135 537.639 546.792 539.177 548.056 541.768Z" fill="#97B9DE"/>
<path d="M527.933 501.151V498.033L526.647 498.476L525.994 497.148H519.188C518.095 496.071 516.853 495.156 515.5 494.431L517.249 490.618V487.479L516.006 490.196L514.11 489.585L510.97 488.553L506.229 491.376C504.269 491.078 502.29 490.93 500.308 490.934L496.873 487.521L493.417 488.068L489.94 488.616L490.067 492.577C488.431 493.096 486.862 493.803 485.389 494.684L478.772 493.651L477.213 495.252L475.232 494.136V497.275L480.142 500.035C479.637 501.1 479.392 502.269 479.426 503.448L474.832 504.986L473.525 502.289V505.407L474.495 507.514L475.464 509.62H482.27C483.377 510.681 484.617 511.595 485.958 512.338L485.473 513.434L484.23 513.012V516.151L487.37 517.184L490.509 518.216L495.229 515.393C497.195 515.702 499.182 515.85 501.172 515.835L504.585 519.248L508.062 518.679L511.539 518.132V515.014V514.044C513.176 513.512 514.751 512.805 516.238 511.938L522.812 512.97L524.582 511.158L526.352 509.346V506.207L524.393 508.314L521.464 506.671C521.968 505.606 522.214 504.436 522.18 503.258L527.933 501.151ZM503.932 509.957C497.61 510.969 491.015 508.799 489.182 505.133C487.348 501.467 491.12 497.654 497.463 496.706C503.806 495.758 510.38 497.865 512.213 501.53C514.046 505.196 510.275 508.946 503.932 509.957Z" fill="#719AC2"/>
<path d="M495.714 503.194V503.384C495.727 503.626 495.792 503.863 495.904 504.079C496.641 505.617 499.401 506.523 502.078 506.186C504.185 505.848 505.702 504.711 505.765 503.468V500.266H495.714V503.194Z" fill="#719AC2"/>
<path d="M519.188 494.051C518.089 492.981 516.848 492.066 515.5 491.334L517.249 487.52L514.11 486.488L510.97 485.456L506.229 488.3C504.272 487.981 502.29 487.833 500.308 487.857L496.873 484.55L493.417 485.098L489.94 485.645L490.067 489.585C488.438 490.122 486.871 490.829 485.389 491.692L478.772 490.68L477.002 492.471L475.232 494.283L480.142 497.043C479.637 498.115 479.392 499.292 479.426 500.477L473.525 502.436L474.495 504.437L475.464 506.544H482.27C483.371 507.618 484.611 508.54 485.958 509.283L484.23 513.075L487.37 514.107L490.509 515.14L495.229 512.317C497.194 512.636 499.182 512.784 501.172 512.759L504.585 516.172L508.062 515.624L511.539 515.076L511.412 511.137C513.053 510.613 514.629 509.906 516.111 509.03L522.686 510.062L524.456 508.251L526.226 506.439L521.337 503.7C521.842 502.627 522.087 501.451 522.054 500.266L527.933 498.307L526.963 496.2L525.994 494.093L519.188 494.051ZM503.932 506.818C497.61 507.829 491.015 505.68 489.182 501.994C487.348 498.307 491.12 494.536 497.463 493.567C503.806 492.598 510.38 494.725 512.213 498.412C514.046 502.099 510.275 505.828 503.932 506.818Z" fill="#97B9DE"/>
<path d="M505.576 499.402C506.313 500.961 504.754 502.562 502.078 502.984C499.402 503.405 496.641 502.499 495.904 500.877C495.166 499.255 496.704 497.738 499.381 497.317C502.057 496.895 504.817 497.864 505.576 499.402Z" fill="#97B9DE"/>
<path d="M459.07 738.369L363.636 683.278L468.89 622.878L563.713 677.379L459.07 738.369Z" fill="#014694"/>
<path d="M363.636 683.278L459.07 738.369L563.712 677.379L563.544 702.639L458.754 763.797L363.636 708.179V683.278Z" fill="#006EB0"/>
<path d="M459.07 738.369L458.754 763.797L563.544 702.639L563.713 677.379L459.07 738.369Z" fill="#017BD4"/>
<path d="M563.671 685.301L458.965 746.27L363.636 690.757V695.308L458.754 750.841L563.629 689.872L563.671 685.301Z" fill="#94CFF1"/>
<path d="M459.66 674.43L376.469 626.417L468.236 573.749L550.88 621.256L459.66 674.43Z" fill="#014694"/>
<path d="M376.469 626.417L459.66 674.43L550.88 621.256L550.733 678.243L459.386 731.565L376.469 683.089V626.417Z" fill="#006EB0"/>
<path d="M388.101 629.282L467.436 583.44L539.733 625.574L539.628 622.583L467.267 580.343L388.101 626.501V629.282Z" fill="#242663"/>
<path d="M459.66 674.43L459.386 731.565L550.732 678.243L550.88 621.256L459.66 674.43Z" fill="#017BD4"/>
<path d="M459.534 701.038L459.471 713.384L550.733 660.104L550.88 647.801L459.534 701.038Z" fill="#94CFF1"/>
<path d="M459.534 701.038L459.471 713.426L376.469 664.908V652.688L459.534 701.038Z" fill="#94CFF1"/>
<path d="M505.555 621.108C506.06 629.43 496.409 637.246 480.268 640.259C459.744 644.072 436.523 638.594 428.39 628.04C426.597 625.831 425.629 623.068 425.65 620.224V628.988H425.756C426.095 631.234 427.026 633.35 428.453 635.118C436.587 645.652 459.808 651.13 480.332 647.316C495.967 644.409 505.618 636.972 505.618 628.903V621.024L505.555 621.108Z" fill="#30C2DD"/>
<path d="M502.773 614.22C510.886 624.753 500.834 636.425 480.289 640.259C459.744 644.093 436.544 638.594 428.411 628.04C420.277 617.485 430.349 605.814 450.894 602C471.439 598.187 494.66 603.644 502.773 614.22Z" fill="#94CFF1"/>
<path d="M503.974 616.032C503.623 615.396 503.221 614.79 502.773 614.22C494.66 603.686 471.418 598.188 450.894 602.001C430.37 605.814 420.298 617.464 428.411 628.04C428.706 628.398 429.001 628.777 429.338 629.114C443.709 621.235 472.366 608.7 503.974 616.032Z" fill="#3777C4"/>
<path d="M449.398 605.961C470.47 602.169 494.134 607.583 502.583 618.054C502.31 617.611 502.036 617.169 501.698 616.726C493.818 606.193 471.229 600.715 451.274 604.549C445.902 605.474 440.732 607.327 435.997 610.027C440.272 608.106 444.776 606.739 449.398 605.961Z" fill="#30C2DD"/>
<path fill-rule="evenodd" clip-rule="evenodd" d="M240.868 568.407L241.087 572.873C239.655 575.038 239.678 577.514 240.539 580.176L241.191 584.214L240.562 586.609C240.718 588.224 241.521 588.375 242.56 587.958L241.596 589.202L239.147 591.968L236.634 593.102C235.583 593.831 235.86 594.213 236.611 594.473C236.108 595.301 236.484 595.764 237.292 596.053L239.493 594.826C239.383 595.867 239.932 596.654 240.908 595.937L244.836 592.5C246.39 590.44 247.608 588.27 248.261 585.921C248.4 581.987 247.915 578.179 246.632 574.54L246.99 568.997L240.868 568.407Z" fill="#FFD2A9"/>
<path fill-rule="evenodd" clip-rule="evenodd" d="M232.886 530.156L241.904 578.869C244.48 579.113 248.769 578.308 250.372 574.403C247.293 558.155 245.14 539.403 244.659 525.521C243.959 518.699 237.951 510.373 231.104 511.866L232.886 530.156Z" fill="#CEE8F8"/>
<path fill-rule="evenodd" clip-rule="evenodd" d="M241.903 578.869L241.846 578.782C241.857 578.765 241.863 578.748 241.874 578.73L241.903 578.869Z" fill="#C97C66"/>
<path fill-rule="evenodd" clip-rule="evenodd" d="M241.907 578.867L241.878 578.728C242.075 578.381 242.259 578.017 242.421 577.652C243.39 577.155 244.008 576.489 244.158 575.674C244.192 575.523 243.863 575.263 243.286 574.921C243.581 573.44 243.598 571.907 243.356 570.385C243.159 569.105 242.963 567.879 242.796 566.74C242.375 563.8 242.323 557.1 242.409 550.238L242.657 552.107L247.458 577.722L241.907 578.867Z" fill="#A6C9EC"/>
<path fill-rule="evenodd" clip-rule="evenodd" d="M204.646 666.101C203.568 667.524 203.574 670.822 203.825 674.542C204.829 678.309 208.395 678.02 211.436 678.495C217.312 679.409 220.228 683.829 228.044 683.818C232.689 683.806 235.793 682.811 236.757 679.872C236.905 678.512 236.112 677.135 234.469 675.741C234.469 675.741 223.828 670.967 223.549 670.781C223.275 670.596 218.511 667.113 218.414 666.743C218.322 666.378 216.577 658.208 216.577 658.208H205.114L204.646 666.101Z" fill="#172035"/>
<path fill-rule="evenodd" clip-rule="evenodd" d="M199.046 683.908C197.984 687.292 197.771 688.277 198.218 690.787C198.722 692.118 199.23 692.714 199.772 694.548C200.432 696.822 200.326 700.606 203.701 702.874C207.72 706.051 215.495 706.201 217.948 702.811C217.948 701.162 216.847 697.511 214.813 694.559L210.867 687.217L211.118 680.338L199.772 677.843L199.046 683.908Z" fill="#172035"/>
<path fill-rule="evenodd" clip-rule="evenodd" d="M218.01 578.397V624.409C214.316 637.746 207.192 650.267 206.057 663.599C206.057 669.211 217.431 670.45 220.304 666.839C221.429 656.517 230.153 642.508 235.447 626.209C238.952 609.77 241.854 592.724 240.885 578.999L218.01 578.397Z" fill="#5385F4"/>
<path fill-rule="evenodd" clip-rule="evenodd" d="M240.546 580.174C240.873 584.861 234.461 597.192 227.138 602.746C226.806 612.739 225.517 630.057 223.832 641.346C218.532 657.639 213.708 673.262 212.579 683.573C210.671 685.98 204.964 686.917 201.383 685.587C201.096 685.482 200.873 685.396 200.672 685.28L200.426 685.158C199.165 684.458 198.334 683.365 198.334 681.849C198.415 668.743 200.821 655.493 204.523 642.144L203.411 582.917L203.377 581.262L240.546 580.174Z" fill="#4070EA"/>
<path fill-rule="evenodd" clip-rule="evenodd" d="M201.383 685.586C201.25 685.517 201.011 685.413 200.673 685.28L200.429 685.158C199.169 684.458 198.332 683.364 198.332 681.848C198.415 668.743 200.823 655.492 204.524 642.144L203.436 584.224C204.984 585.775 207.22 587.042 210.338 587.656C210.338 587.656 210.338 587.656 210.349 587.661C206.016 602.439 209.462 622.592 211.304 643.405C204.318 651.899 202.837 668.725 201.383 685.586Z" fill="#2D56C1"/>
<path fill-rule="evenodd" clip-rule="evenodd" d="M243.287 574.922C243.103 575.86 242.816 576.785 242.419 577.653C241.569 579.574 240.218 581.263 238.454 582.508C231.397 587.49 221.525 589.468 213.445 588.462C211.371 587.947 209.29 587.421 207.319 586.703C206.693 586.483 206.118 586.211 205.59 585.887C202.13 583.873 200.084 579.939 200.355 575.848L200.378 575.604C200.458 574.754 200.504 573.881 200.567 573.001C200.613 572.11 200.636 571.207 200.653 570.305L199.544 555.775L197.544 529.594C203.63 522.992 210.652 517.281 218.577 512.391L234.46 513.138C240.597 517.5 241.988 522.963 242.931 530.311C242.931 530.311 241.77 559.6 242.793 566.741C242.965 567.881 243.155 569.113 243.356 570.386C243.597 571.907 243.574 573.441 243.287 574.922Z" fill="#CEE8F8"/>
<path fill-rule="evenodd" clip-rule="evenodd" d="M225.889 526.479L225.358 531.373L228.319 536.09C229.186 543.166 231.617 558.187 231.332 563.66L234.652 570.043L236.929 562.156C235.565 553.505 232.119 539.868 230.601 534.197V528.174L227.304 525.952L225.889 526.479Z" fill="#093B9E"/>
<path fill-rule="evenodd" clip-rule="evenodd" d="M220.41 510.569L213.187 515.95C209.301 526.614 217.972 531.33 223.532 537.521L227.224 528.211L235.53 530.121L232.955 514.678L220.41 510.569Z" fill="white"/>
<path fill-rule="evenodd" clip-rule="evenodd" d="M203.441 584.223C201.725 582.505 200.845 580.428 200.51 578.484C200.889 580.653 201.923 582.661 203.441 584.206V584.223Z" fill="#CAC9C9"/>
<path fill-rule="evenodd" clip-rule="evenodd" d="M210.339 587.658C207.218 587.045 204.985 585.777 203.438 584.227V584.209C204.07 584.858 204.791 585.424 205.589 585.887C206.115 586.211 206.697 586.483 207.318 586.703C208.299 587.061 209.308 587.374 210.339 587.658Z" fill="#131415"/>
<path fill-rule="evenodd" clip-rule="evenodd" d="M242.423 577.651C242.82 576.777 243.108 575.857 243.292 574.92C243.867 575.261 244.194 575.521 244.166 575.672C244.01 576.488 243.395 577.153 242.423 577.651Z" fill="#BDDEF5"/>
<path fill-rule="evenodd" clip-rule="evenodd" d="M210.346 587.658C210.34 587.658 210.34 587.658 210.34 587.658C209.312 587.374 208.301 587.062 207.318 586.704C206.692 586.483 206.118 586.211 205.589 585.887C204.791 585.424 204.067 584.858 203.435 584.209C201.918 582.664 200.884 580.656 200.505 578.487C200.344 577.561 200.304 576.664 200.356 575.849C200.448 574.923 200.528 573.968 200.568 573.002C200.609 572.11 200.649 571.225 200.649 570.305L199.54 555.776L210.708 546.588C210.708 546.588 209.139 549.573 207.554 555.435C207.284 556.459 218.698 560.619 223.874 564.42C230.147 569.009 240.275 573.17 243.285 574.923C243.102 575.86 242.814 576.785 242.418 577.654C241.166 578.29 239.333 578.631 237.104 578.631C233.675 578.631 229.332 577.81 224.862 575.999C222.857 576.335 220.841 576.444 218.945 576.444C217.188 576.444 215.539 576.351 214.091 576.253C212.655 576.161 211.42 576.068 210.484 576.068C209.381 576.068 208.708 576.201 208.64 576.624C208.209 579.233 210.208 584.696 210.346 587.658Z" fill="#A6C9EC"/>
<path fill-rule="evenodd" clip-rule="evenodd" d="M219.52 509.871L216.176 515.75C213.496 522.89 221.985 528.833 227.214 527.97L232.478 518.452L219.52 509.871Z" fill="#FFD2A9"/>
<path fill-rule="evenodd" clip-rule="evenodd" d="M226.328 530.473L227.222 528.21L228.936 528.604C228.195 529.484 227.307 530.259 226.328 530.473Z" fill="#4F82CB"/>
<path fill-rule="evenodd" clip-rule="evenodd" d="M225.805 530.532C224.592 530.526 223.227 529.6 221.765 526.95C223.221 527.661 224.751 528.055 226.145 528.055C226.507 528.055 226.858 528.026 227.21 527.974L228.842 525.024L230.49 526.505C230.071 527.095 229.556 527.882 228.932 528.605L227.221 528.211L226.326 530.474C226.156 530.509 225.98 530.532 225.805 530.532Z" fill="white"/>
<path fill-rule="evenodd" clip-rule="evenodd" d="M226.14 528.055C224.754 528.055 223.221 527.662 221.768 526.95C220.359 523.965 219.85 520.696 220.037 517.201L228.838 525.023L227.209 527.975C226.853 528.027 226.502 528.055 226.14 528.055Z" fill="#E3AF7F"/>
<path fill-rule="evenodd" clip-rule="evenodd" d="M219.814 515.55C220.358 520.398 221.817 525.021 227.146 528.407C228.765 529.534 230.551 529.292 231.741 528.297L236.085 522.366C237.825 520.56 238.998 518.426 239.759 516.047L233.143 502.416H222.882L218.012 509.133L219.814 515.55Z" fill="#FFD2A9"/>
<path fill-rule="evenodd" clip-rule="evenodd" d="M217.235 514.377L221.305 515.239C222.573 514.076 224.381 513.972 225.725 514.909C227.297 516.015 229.645 517.328 232.406 517.826C231.396 518.433 230.076 518.676 227.573 518.422C231.476 519.758 232.699 519.943 236.493 518.074C235.925 519.11 235.563 519.405 234.042 520.354C239.116 519.434 241.59 516.408 242.291 512.693C242.503 511.895 242.566 511.061 242.509 510.235C242.228 506.461 236.028 498.055 228.732 498.002C228.503 497.996 228.267 498.002 228.026 498.02C219.037 498.627 214.732 505.339 216.437 515.28L217.235 514.377Z" fill="#172035"/>
<path fill-rule="evenodd" clip-rule="evenodd" d="M218.871 509.925C218.215 509.769 217.458 510 217.088 510.555C216.819 510.96 216.763 511.47 216.774 511.955C216.791 512.985 217.037 514.009 217.492 514.941C217.671 515.335 217.907 515.722 218.232 516.006C218.563 516.29 219.011 516.475 219.438 516.411C220.985 516.191 220.699 514.223 220.84 513.13C221.008 511.84 220.211 510.237 218.871 509.925Z" fill="#FFD2A9"/>
<path fill-rule="evenodd" clip-rule="evenodd" d="M197.549 529.59C193.213 538.171 190.145 546.179 187.511 554.644C185.769 560.222 188.611 566.239 194.07 568.317C201.818 571.257 210.469 573.316 221.026 574.392C223.879 573.681 226.129 564.863 224.077 562.259L204.909 557.104L209.696 547.822C216.142 537.141 204.525 522.774 197.549 529.59Z" fill="#CEE8F8"/>
<path fill-rule="evenodd" clip-rule="evenodd" d="M222.272 571.246C220.121 570.818 221.428 563.729 223.566 563.944L225.977 564.708C228.179 563.949 230.595 563.313 233.144 562.769L238.982 564.314L241.987 565.894L243.334 566.298C245.109 566.57 244.918 568.07 243.271 568.451L240.693 568.301L237.178 566.97L235.629 567.698L241.531 572.206L247.097 571.83C249.062 571.848 249.051 573.3 247.721 573.711L245.444 574.393L244.166 575.666L242.82 576.569L241.074 577.321C238.433 577.368 235.849 576.789 233.531 576.118L227.485 572.582L222.272 571.246Z" fill="#FFD2A9"/>
<path fill-rule="evenodd" clip-rule="evenodd" d="M237.939 569.458L243.438 564.411H252.733L253.308 565.436L246.289 571.887L241.533 572.205L237.939 569.458Z" fill="#5773C2"/>
<path fill-rule="evenodd" clip-rule="evenodd" d="M238.067 569.56L243.547 564.642H252.678L253.096 565.388L243.988 565.446L238.706 570.046L238.067 569.56Z" fill="#7293D3"/>
<path fill-rule="evenodd" clip-rule="evenodd" d="M338.675 197.672C331.995 197.111 328.426 201.746 326.017 208.342C325.259 212.386 326.92 218.149 329.028 221.679L337.235 225.272C340.016 225.938 342.49 227.083 344.483 226.609C349.582 225.382 349.527 216.477 349.618 209.366C348.91 203.25 346.561 198.384 338.675 197.672Z" fill="#FFD2A9"/>
<path fill-rule="evenodd" clip-rule="evenodd" d="M342.295 237.138L344.483 224.745L330.399 219.763L326.017 231.393L342.295 237.138Z" fill="#FFD2A9"/>
<path fill-rule="evenodd" clip-rule="evenodd" d="M345.617 401.951L342.41 408.037C340.733 410.598 340.698 413.38 341.752 416.312C344.147 419.531 348.935 419.003 354.055 417.954C360.585 415.996 363.923 414.449 367.953 413.234C374.002 411.185 372.928 406.315 366.413 405.853L355.797 405.135L352.313 404.824L352.007 401.339L345.617 401.951Z" fill="#172035"/>
<path fill-rule="evenodd" clip-rule="evenodd" d="M307.901 386.457L304.408 388.711C302.721 391.855 302.621 395.349 303.73 397.544C306.456 399.336 309.337 399.391 314.115 396.72C320.003 391.809 322.432 392 324.791 388.646C327.527 384.408 323.496 382.586 320.143 383.068L313.437 383.997L307.901 386.457Z" fill="#172035"/>
<path fill-rule="evenodd" clip-rule="evenodd" d="M340.724 284.266L337.029 309.602C336.166 312.52 335.227 315.487 334.269 318.409C331.398 327.101 328.26 335.316 325.691 340.191C325.053 341.406 324.451 342.406 323.904 343.159L321.233 348.29C320.977 350.374 320.631 352.443 320.239 354.481C318.187 365.151 314.733 375.078 313.438 383.996L314.974 383.785C319.06 384.623 319.692 385.889 317.494 388.153C315.024 389.835 313.032 391.392 310.567 391.794C307.013 392.411 304.273 391.608 304.413 389.127C305.046 372.974 303.866 358.011 306.767 346.668C307.621 343.314 308.835 340.277 310.567 337.62L312.464 332.875C312.364 331.55 312.284 330.214 312.234 328.863C311.822 319.986 312.274 310.637 313.032 302.738C312.54 292.46 315.325 283.874 319.999 276.267L327.186 278.933L333.435 281.393L340.724 284.266Z" fill="#FFD2A9"/>
<path fill-rule="evenodd" clip-rule="evenodd" d="M359.481 409.438L349.342 411.697C346.054 412.315 342.972 410.507 342.365 408.414C345.075 388.018 336.964 375.585 342.365 357.936V350.957L340.317 340.618L336.412 320.789L334.268 318.409L328.622 312.173L332.311 281.393H353.031L356.931 304.782C359.872 316.275 361.268 327.523 360.434 338.399C360.143 342.089 359.591 345.719 358.773 349.315L357.89 357.444L357.543 360.602C355.44 373.025 354.22 386.456 353.638 399.436C353.518 402.223 355.495 404.703 358.246 405.135C363.341 405.908 364.907 407.655 359.481 409.438Z" fill="#FFD2A9"/>
<path fill-rule="evenodd" clip-rule="evenodd" d="M362.874 255.064C362.874 259.381 359.968 263.061 355.877 264.442C354.743 264.834 353.518 265.039 352.243 265.039C350.085 265.039 348.072 264.437 346.39 263.391C343.509 261.614 341.612 258.542 341.612 255.064C341.612 249.544 346.37 245.071 352.243 245.071C354.672 245.071 356.911 245.836 358.698 247.114C359.817 247.93 360.756 248.931 361.463 250.088C362.362 251.547 362.874 253.247 362.874 255.064Z" fill="#8B50AB"/>
<path fill-rule="evenodd" clip-rule="evenodd" d="M360.208 348.768C354.054 353.418 317.744 355.883 308.107 336.592L310.978 304.17C312.554 292.195 312.494 288.052 318.648 278.331C319.064 277.663 319.521 276.991 319.998 276.268C323.17 266.989 316.128 259.497 313.548 245.842C313.227 244.17 312.981 242.423 312.825 240.559C312.373 236.798 313.161 233.703 314.743 231.209C316.675 228.148 320.224 226.499 323.818 226.887C333.149 227.893 342.409 231.429 350.877 236.492L353.914 238.447L358.697 247.115L359.209 251.072L359.796 255.701C358.321 258.618 356.971 261.529 355.876 264.443C353.793 270.077 352.704 275.72 353.643 281.394C355.088 285.853 356.363 290.252 357.447 294.625C361.965 312.691 363.3 330.21 360.208 348.768Z" fill="#3777C4"/>
<path fill-rule="evenodd" clip-rule="evenodd" d="M328.621 222.5C325.745 218.727 324.179 214.527 324.621 209.678C325.384 203.18 329.028 196.44 336.717 196.029C347.896 195.433 353.296 204.176 349.512 214.33C345.928 217.918 343.323 221.638 341.129 223.837C335.483 228.073 331.497 227.036 328.621 222.5Z" fill="#172035"/>
<path fill-rule="evenodd" clip-rule="evenodd" d="M329.952 219.764C329.952 219.764 324.1 225.932 322.774 231.735C320.285 242.608 328.888 255.991 328.888 255.991C328.888 255.991 335.75 241.121 334.229 234.813C332.798 228.894 333.953 219.764 333.953 219.764H329.952Z" fill="#172035"/>
<path fill-rule="evenodd" clip-rule="evenodd" d="M346.666 214.602C344.925 215.627 345.181 221.117 345.181 221.117L347.234 222.552L348.263 216.448C348.263 216.448 348.664 213.428 346.666 214.602Z" fill="#FFD2A9"/>
<path fill-rule="evenodd" clip-rule="evenodd" d="M358.336 294.624C357.954 294.238 357.563 293.861 357.171 293.5C356.343 290.286 355.425 287.053 354.406 283.794C354.441 283.824 354.476 283.844 354.511 283.869C355.851 287.484 357.447 291.059 358.336 294.624Z" fill="#4371C0"/>
<path fill-rule="evenodd" clip-rule="evenodd" d="M354.512 283.87C354.477 283.844 354.442 283.824 354.407 283.794C354.161 282.996 353.905 282.198 353.644 281.394C353.91 282.218 354.206 283.046 354.512 283.87Z" fill="#1A1212"/>
<path fill-rule="evenodd" clip-rule="evenodd" d="M355.877 264.442C356.971 261.527 358.321 258.617 359.797 255.7L359.21 251.071L361.464 250.088C362.362 251.546 362.874 253.247 362.874 255.064C362.874 259.38 359.968 263.06 355.877 264.442Z" fill="#70161D"/>
<path fill-rule="evenodd" clip-rule="evenodd" d="M357.172 293.499C345.697 283.055 328.285 284.336 318.648 278.33C319.065 277.662 319.521 276.99 319.998 276.267C320.56 274.615 320.801 273.023 320.801 271.436C320.811 264.131 315.672 257.066 313.548 245.841C318.693 258.577 328.883 266.229 337.827 266.229C340.919 266.229 343.855 265.315 346.39 263.39C349.05 261.382 351.254 258.264 352.735 253.913L359.21 251.071L359.797 255.7C358.321 258.617 356.971 261.527 355.877 264.442C354.672 267.706 353.794 270.969 353.457 274.243C353.352 275.232 353.302 276.226 353.302 277.216C353.302 278.601 353.412 279.997 353.643 281.393C353.904 282.197 354.16 282.995 354.406 283.793C355.425 287.052 356.343 290.286 357.172 293.499Z" fill="#1D5AA4"/>
<path fill-rule="evenodd" clip-rule="evenodd" d="M364.545 245.934L356.454 247.485L355.164 243.868L357.9 240.252L362.337 241.507L364.545 245.934Z" fill="#FFD2A9"/>
<path fill-rule="evenodd" clip-rule="evenodd" d="M352.303 257.969L367.918 232.354L384.316 240.298L368.691 265.913L352.303 257.969Z" fill="#7293D3"/>
<path fill-rule="evenodd" clip-rule="evenodd" d="M369.514 262.875L354.657 255.677L368.244 233.453L383.102 240.651L369.514 262.875Z" fill="white"/>
<path fill-rule="evenodd" clip-rule="evenodd" d="M368.441 238.956L365.479 238.407C364.43 240.657 362.678 241.739 360.776 242.208L359.23 242.728C358.623 241.259 358.156 240.611 357.9 240.252C358.166 238.215 359.346 236.353 360.515 236.005L365.037 235.189L370.549 237.174C370.704 238.395 370.222 238.951 368.441 238.956Z" fill="#FFD2A9"/>
<path fill-rule="evenodd" clip-rule="evenodd" d="M370.192 261.991L369.861 261.979C369.354 261.875 369.028 261.372 369.138 260.863L373.982 238.291C374.097 237.782 374.594 237.452 375.101 237.562C375.613 237.672 375.934 238.176 375.824 238.679L370.98 261.256C370.89 261.65 370.569 261.939 370.192 261.991Z" fill="#7293D3"/>
<path fill-rule="evenodd" clip-rule="evenodd" d="M380.366 250.984C380.492 251.859 379.914 252.489 379.924 253.108C379.924 253.351 379.985 253.803 380.02 254.219C380.055 254.508 380.075 254.78 380.065 254.954C380.015 256.418 376.722 258.558 375.648 259.219L371.366 261.255L366.277 265.782L365.248 264.05L362.768 260.26L366.578 255.636C366.287 253.137 366.231 251.071 366.924 249.185L368.902 246.796L372.546 245.019L372.179 246.593C372.225 246.564 373.705 245.563 375.161 244.816C375.854 244.458 377.093 244.238 377.61 244.869C377.866 245.169 377.751 245.829 377.957 246.165C378.203 246.547 379.116 246.94 379.302 247.357C379.483 247.756 379.191 248.757 379.357 249.162C379.543 249.637 380.23 250.053 380.366 250.984Z" fill="#FFD2A9"/>
<path fill-rule="evenodd" clip-rule="evenodd" d="M380.02 254.219C380.055 254.508 380.075 254.78 380.065 254.954C380.015 256.418 376.722 258.558 375.648 259.219L371.367 261.255L366.277 265.782L365.248 264.05C367.426 262.673 369.409 260.376 370.564 258.698C374.308 258.674 378.675 257.141 380.02 254.219Z" fill="#FFD2A9"/>
<path fill-rule="evenodd" clip-rule="evenodd" d="M353.914 238.447C358.969 240.889 359.626 244.708 359.626 253.433L360.088 262.419L366.578 255.637C370.754 255.371 371.788 256.1 371.366 261.256C368.982 268.459 364.239 278.863 359.486 283.272C356.494 286.048 351.595 282.9 349.648 275.328L346.35 255.799C344.453 244.968 345.998 236.462 353.914 238.447Z" fill="#FFD2A9"/>
<path d="M697.924 694.657C697.924 694.657 712.343 694.247 709.173 699.173C708.454 700.372 707.432 701.359 706.211 702.035C704.99 702.711 703.613 703.051 702.219 703.022C700.072 703.022 696.186 701.893 695.266 702.509C694.346 703.125 689.488 706.204 686.778 703.074C686.446 702.535 686.225 701.935 686.128 701.309C686.032 700.683 686.061 700.044 686.216 699.43C689.733 697.016 693.726 695.388 697.924 694.657Z" fill="#5BB0FF"/>
<path d="M709.173 699.172C708.454 700.371 707.432 701.358 706.211 702.034C704.991 702.71 703.614 703.05 702.22 703.021C700.072 703.021 696.187 701.892 695.266 702.508C694.346 703.124 689.489 706.203 686.779 703.072C686.402 702.544 686.172 701.924 686.114 701.276C688.006 703.945 692.71 703.175 694.039 702.303C695.671 701.285 697.611 700.885 699.51 701.174C702.273 701.59 705.091 700.929 707.384 699.326C707.833 698.935 708.159 698.421 708.322 697.847C708.486 697.273 708.479 696.663 708.304 696.093C709.582 696.811 710.094 697.53 709.173 699.172Z" fill="#3D93FF"/>
<path d="M718.273 703.892C728.499 702.558 739.032 704.2 735.095 709.383C734.042 710.707 732.691 711.76 731.153 712.456C729.615 713.153 727.934 713.471 726.249 713.386C723.325 712.91 720.366 712.686 717.404 712.719C716.228 713.335 710.144 716.568 706.616 713.181C706.058 712.46 705.649 711.636 705.412 710.754C705.175 709.873 705.115 708.954 705.235 708.049C709.344 706.002 713.741 704.6 718.273 703.892Z" fill="#5BB0FF"/>
<path d="M687.546 587.859C685.243 593.501 684.084 599.548 684.137 605.646C684.19 611.744 685.453 617.77 687.853 623.372C687.853 623.372 693.886 640.821 692.556 646.62C688.837 655.545 686.908 665.119 686.881 674.794C685.769 682.989 685.41 691.269 685.807 699.53C685.807 701.891 695.471 703.944 697.005 697.939C700.89 682.544 710.4 650.674 708.611 632.147C706.821 613.621 705.799 596.224 705.799 596.224C699.271 594.537 693.091 591.705 687.546 587.859Z" fill="#223A7A"/>
<path d="M696.697 596.482C695.559 602.306 695.635 608.304 696.92 614.098C698.204 619.892 700.67 625.357 704.162 630.147C704.162 630.147 713.16 649.905 711.933 656.526C708.914 665.308 706.957 674.423 706.105 683.674C704.622 697.017 703.702 700.353 704.775 708.923C705.133 712.105 717.302 712.362 717.967 707.897C720.472 692.501 732.027 658.989 730.289 640.463C728.55 621.936 724.818 601.1 724.818 601.1C724.818 601.1 704.98 600.946 696.697 596.482Z" fill="#2C4481"/>
<path d="M735.096 709.384C734.043 710.708 732.692 711.761 731.154 712.457C729.616 713.153 727.935 713.472 726.25 713.387C723.327 712.91 720.367 712.687 717.405 712.72C716.229 713.336 710.145 716.569 706.617 713.182C706.062 712.515 705.676 711.722 705.492 710.873C706.929 711.973 708.615 712.698 710.399 712.985C712.184 713.271 714.011 713.11 715.718 712.515C717.859 711.411 720.293 711.016 722.671 711.386C726.113 711.907 729.629 711.237 732.642 709.487C733.276 708.993 733.767 708.337 734.064 707.588C734.36 706.839 734.452 706.024 734.329 705.227C734.699 705.406 735.022 705.669 735.271 705.996C735.521 706.324 735.689 706.705 735.764 707.11C735.839 707.515 735.817 707.933 735.701 708.328C735.585 708.723 735.378 709.085 735.096 709.384Z" fill="#3D93FF"/>
<path d="M730.544 640.461C732.283 658.987 720.727 692.396 718.222 707.895C718.222 709.383 716.535 710.307 714.643 710.82C717.609 696.143 725.227 658.987 726.301 653.855C727.63 647.491 728.09 619.933 720.779 617.931C713.467 615.93 703.855 603.203 703.855 603.203C703.855 603.203 705.184 601.663 707.025 599.661C712.997 600.606 719.028 601.121 725.073 601.201C725.073 601.201 728.55 621.934 730.544 640.461Z" fill="#223A7A"/>
<path d="M716.69 491.891C716.69 491.891 718.428 482.91 723.49 481.627C728.552 480.344 729.625 481.114 728.143 483.167C726.66 485.22 723.03 490.865 723.95 490.762C724.87 490.66 727.12 489.223 727.273 490.198C727.427 491.173 721.24 495.33 721.24 495.33H715.718L716.69 491.891Z" fill="#FFD2A9"/>
<path d="M687.086 535.358C686.198 536.059 685.466 536.94 684.937 537.942C684.409 538.945 684.096 540.048 684.019 541.18C683.942 542.312 684.102 543.447 684.49 544.513C684.877 545.579 685.483 546.551 686.268 547.367C692.404 554.244 703.703 539.515 703.703 539.515C708.464 534.358 712.791 528.814 716.639 522.939C719.532 513.944 721.687 504.727 723.081 495.38C721.915 494.552 720.59 493.977 719.19 493.695C717.789 493.412 716.346 493.426 714.952 493.738C713.104 501.903 710.361 509.838 706.771 517.396C700.586 523.786 694.011 529.785 687.086 535.358Z" fill="#3777C4"/>
<path d="M725.075 554.399C725.075 554.399 727.171 544.597 710.759 538.695C694.346 532.793 684.274 532.999 684.069 542.185C684.754 550.874 686.313 559.471 688.722 567.845C689.832 570.315 690.377 573.003 690.315 575.712C690.253 578.421 689.586 581.081 688.364 583.497C684.478 592.94 679.008 600.792 704.265 605.924C708.713 606.848 728.347 608.644 725.944 598.072C723.236 583.664 722.942 568.904 725.075 554.399Z" fill="#3777C4"/>
<path d="M709.532 528.174C709.054 530.054 708.953 532.012 709.234 533.932C709.515 535.852 710.172 537.698 711.168 539.361C712.958 541.671 703.09 543.056 697.21 540.029C697.21 540.029 699.358 529.097 694.96 524.941L709.532 528.174Z" fill="#FFD2A9"/>
<path d="M709.072 532.896C706.822 532.528 704.625 531.891 702.527 530.997H702.272L700.942 532.947L700.175 531.818C700.416 532.901 700.883 533.92 701.544 534.808C702.206 535.696 703.048 536.433 704.014 536.972C704.98 537.51 706.048 537.836 707.149 537.93C708.25 538.024 709.359 537.882 710.401 537.515C709.748 536.044 709.3 534.49 709.072 532.896Z" fill="#EBB685"/>
<path d="M710.758 501.898C710.758 501.898 716.434 503.181 717.763 512.162C719.092 521.143 719.399 530.073 715.258 533.665C711.116 537.258 698.078 533.665 693.068 523.401C688.057 513.137 695.522 497.074 710.758 501.898Z" fill="#FFD2A9"/>
<path d="M719.603 510.675C719.961 511.958 718.58 512.318 715.922 513.395C712.189 514.935 707.485 515.089 707.076 517.604C706.667 520.118 710.042 527.868 701.963 530.998C695.675 533.153 701.35 543.263 695.214 534.385C693.22 531.511 687.289 518.527 692.249 507.853C693.524 505.486 695.438 503.528 697.771 502.202C700.104 500.877 702.762 500.239 705.44 500.36C708.556 500.467 711.569 501.507 714.093 503.345C716.616 505.183 718.535 507.735 719.603 510.675Z" fill="#3A2528"/>
<path d="M704.214 526.072C706.055 527.817 708.458 528.228 709.634 526.945C710.81 525.662 710.247 523.147 708.458 521.351C706.668 519.554 704.214 519.195 703.038 520.478C701.862 521.761 702.373 524.276 704.214 526.072Z" fill="#FFD2A9"/>
<path d="M699.151 534.435C699.151 534.435 700.174 542.595 701.452 548.804C702.261 556.365 700.456 563.975 696.339 570.359C691.689 558.958 690.863 546.348 693.987 534.435H699.151Z" fill="#3A2528"/>
<path d="M693.17 533.308C693.17 534.129 694.704 534.796 696.647 534.848C698.59 534.899 700.175 534.181 700.175 533.308C700.175 532.436 698.59 531.82 696.698 531.82C694.806 531.82 693.17 532.641 693.17 533.308Z" fill="#AECFFF"/>
<path d="M768.174 536.694C768.174 536.694 775.332 531.049 774.054 525.969C772.776 520.888 771.753 520.272 770.577 522.53C769.401 524.788 766.18 530.793 765.771 529.715C765.362 528.637 765.771 526.174 764.749 526.482C763.726 526.79 762.959 534.18 762.959 534.18L765.567 539.312L768.174 536.694Z" fill="#FFD2A9"/>
<path d="M715.206 543.569C714.098 543.48 712.984 543.637 711.943 544.028C710.903 544.42 709.961 545.037 709.185 545.836C708.409 546.635 707.818 547.595 707.453 548.649C707.089 549.703 706.96 550.824 707.076 551.934C707.536 561.274 725.431 558.041 725.431 558.041C732.338 557.484 739.181 556.317 745.883 554.551C753.724 549.868 761.133 544.492 768.021 538.488C768.021 538.488 766.436 533.048 762.909 531.714C756.394 536.525 749.342 540.555 741.895 543.722C733.004 544.252 724.089 544.201 715.206 543.569Z" fill="#3777C4"/>
<defs>
<linearGradient id="paint0_linear_1251_9367" x1="313.506" y1="597.27" x2="635.968" y2="597.27" gradientUnits="userSpaceOnUse">
<stop stop-color="#3F6FEA"/>
<stop offset="0.0666667" stop-color="#3F70EA"/>
<stop offset="0.133333" stop-color="#3E72E9"/>
<stop offset="0.2" stop-color="#3D77E9"/>
<stop offset="0.266667" stop-color="#3C7DE7"/>
<stop offset="0.333333" stop-color="#3B85E6"/>
<stop offset="0.4" stop-color="#398FE4"/>
<stop offset="0.466667" stop-color="#3799E2"/>
<stop offset="0.533333" stop-color="#34A4E1"/>
<stop offset="0.6" stop-color="#32AFDF"/>
<stop offset="0.666667" stop-color="#30B8DD"/>
<stop offset="0.733333" stop-color="#2FC1DC"/>
<stop offset="0.8" stop-color="#2EC7DA"/>
<stop offset="0.866667" stop-color="#2DCBDA"/>
<stop offset="0.933333" stop-color="#2CCED9"/>
<stop offset="1" stop-color="#2CCFD9"/>
</linearGradient>
<linearGradient id="paint1_linear_1251_9367" x1="313.506" y1="597.27" x2="482.671" y2="597.27" gradientUnits="userSpaceOnUse">
<stop stop-color="#3F6FEA"/>
<stop offset="0.0666667" stop-color="#3F70EA"/>
<stop offset="0.133333" stop-color="#3E72E9"/>
<stop offset="0.2" stop-color="#3D77E9"/>
<stop offset="0.266667" stop-color="#3C7DE7"/>
<stop offset="0.333333" stop-color="#3B85E6"/>
<stop offset="0.4" stop-color="#398FE4"/>
<stop offset="0.466667" stop-color="#3799E2"/>
<stop offset="0.533333" stop-color="#34A4E1"/>
<stop offset="0.6" stop-color="#32AFDF"/>
<stop offset="0.666667" stop-color="#30B8DD"/>
<stop offset="0.733333" stop-color="#2FC1DC"/>
<stop offset="0.8" stop-color="#2EC7DA"/>
<stop offset="0.866667" stop-color="#2DCBDA"/>
<stop offset="0.933333" stop-color="#2CCED9"/>
<stop offset="1" stop-color="#2CCFD9"/>
</linearGradient>
</defs>
</svg>
