<svg width="854" height="736" viewBox="0 0 854 736" fill="none" xmlns="http://www.w3.org/2000/svg">
<path d="M186.332 638.794L223.407 616.208" stroke="#A6A6DD" stroke-width="0.5" stroke-miterlimit="10"/>
<path d="M443.369 506.67L365.472 459.195C363.806 458.182 361.894 457.645 359.944 457.645C357.994 457.645 356.081 458.182 354.415 459.195L174.546 568.846C173.06 569.751 171.832 571.023 170.978 572.541C170.125 574.058 169.675 575.769 169.672 577.51C169.669 579.251 170.113 580.964 170.961 582.484C171.81 584.004 173.034 585.281 174.516 586.191L350.176 694.058C355.323 697.218 364.244 699.245 377.168 689.294" stroke="#A6A6DD" stroke-width="0.5" stroke-miterlimit="10"/>
<path d="M475.013 689.723L511.015 711.692C511.895 712.228 512.904 712.511 513.933 712.511C514.962 712.511 515.971 712.228 516.851 711.692L664.958 621.873C666.095 621.178 667.035 620.204 667.687 619.042C668.34 617.88 668.683 616.569 668.685 615.236C668.687 613.903 668.347 612.592 667.698 611.428C667.048 610.265 666.111 609.287 664.977 608.59L497.961 506.678" stroke="#A6A6DD" stroke-width="0.5" stroke-miterlimit="10"/>
<path d="M295.907 494.845L204.583 438.943C202.029 437.388 199.097 436.565 196.108 436.565C193.119 436.565 190.187 437.388 187.633 438.943L4.32839 549.443C3.32149 550.05 2.48692 550.905 1.90426 551.927C1.3216 552.949 1.01035 554.104 1.00025 555.281C0.990159 556.457 1.28156 557.617 1.8466 558.649C2.41163 559.681 3.2314 560.551 4.22773 561.175L184.577 674.164" stroke="#A6A6DD" stroke-width="0.5" stroke-miterlimit="10"/>
<path opacity="0.2" d="M123.368 128.983L124.958 163.321C125.075 163.85 125.295 164.351 125.606 164.795C125.916 165.238 126.311 165.616 126.767 165.907C126.806 165.928 126.852 165.964 126.891 165.985L140.284 173.787L167.944 189.896C168.128 190.031 168.351 190.104 168.58 190.104C168.808 190.104 169.031 190.031 169.216 189.896C169.361 189.773 169.469 189.61 169.526 189.428C169.583 189.245 169.587 189.051 169.538 188.866L168.15 155.489C167.991 154.799 167.693 154.147 167.275 153.575C166.857 153.003 166.327 152.522 165.718 152.162L124.565 128.193C124.444 128.112 124.306 128.062 124.162 128.047C124.019 128.032 123.873 128.052 123.739 128.106C123.687 128.13 123.64 128.162 123.597 128.2C123.491 128.297 123.414 128.421 123.373 128.559C123.333 128.697 123.331 128.844 123.368 128.983Z" fill="url(#paint0_linear_1247_6989)"/>
<path d="M133.353 124.866L134.954 159.205C135.193 160.272 135.845 161.202 136.766 161.79C136.805 161.811 136.848 161.85 136.889 161.868L150.282 169.671L177.942 185.78C178.126 185.915 178.349 185.988 178.578 185.988C178.807 185.988 179.029 185.915 179.214 185.78C179.359 185.656 179.467 185.493 179.524 185.31C179.581 185.127 179.585 184.932 179.536 184.747L178.146 151.37C177.986 150.68 177.688 150.03 177.271 149.458C176.853 148.886 176.324 148.405 175.716 148.043L134.549 124.069C134.429 123.989 134.291 123.939 134.148 123.924C134.004 123.91 133.859 123.93 133.726 123.985C133.674 124.007 133.626 124.038 133.584 124.076C133.476 124.173 133.397 124.299 133.356 124.438C133.315 124.578 133.314 124.726 133.353 124.866Z" fill="#EBF9FF"/>
<path opacity="0.4" d="M192.054 276.948L186.335 310.474C186.333 310.965 186.451 311.45 186.678 311.886C186.906 312.322 187.235 312.696 187.639 312.977C187.675 312.995 187.712 313.032 187.749 313.05L199.826 320.52L224.76 335.938C224.954 336.066 225.182 336.133 225.414 336.129C225.647 336.126 225.873 336.053 226.063 335.919C226.232 335.811 226.371 335.661 226.468 335.485C226.564 335.308 226.614 335.111 226.615 334.91L232.333 302.323C232.331 301.679 232.166 301.045 231.854 300.482C231.542 299.918 231.093 299.442 230.549 299.098L193.44 276.158C193.318 276.079 193.179 276.032 193.035 276.018C192.891 276.005 192.746 276.027 192.612 276.082C192.553 276.107 192.498 276.138 192.447 276.176C192.323 276.262 192.222 276.378 192.153 276.513C192.085 276.647 192.05 276.797 192.054 276.948Z" fill="white"/>
<path opacity="0.2" d="M620.777 149.946L621.186 184.046C621.393 185.119 622.017 186.065 622.92 186.678C622.959 186.698 623.003 186.737 623.042 186.758L636.263 194.984L663.568 211.97C663.75 212.111 663.972 212.191 664.202 212.199C664.432 212.207 664.658 212.142 664.849 212.013C665 211.898 665.114 211.741 665.178 211.562C665.242 211.383 665.254 211.189 665.211 211.004L664.97 177.865C664.831 177.171 664.552 176.513 664.151 175.931C663.75 175.348 663.235 174.853 662.637 174.476L622.01 149.204C621.891 149.12 621.754 149.065 621.61 149.045C621.466 149.025 621.319 149.039 621.182 149.087C621.129 149.109 621.08 149.138 621.036 149.174C620.925 149.266 620.842 149.387 620.796 149.523C620.751 149.659 620.744 149.806 620.777 149.946Z" fill="url(#paint1_linear_1247_6989)"/>
<path opacity="0.2" d="M556.102 92.2681L556.331 126.33C556.534 127.402 557.153 128.35 558.053 128.966C558.092 128.986 558.136 129.025 558.175 129.046L571.369 137.338L598.617 154.453C598.798 154.595 599.02 154.676 599.25 154.685C599.48 154.695 599.707 154.632 599.9 154.505C600.051 154.39 600.166 154.234 600.231 154.055C600.296 153.877 600.308 153.683 600.266 153.498L600.202 120.398C600.066 119.704 599.79 119.045 599.391 118.461C598.993 117.877 598.479 117.38 597.882 117.002L557.34 91.5329C557.221 91.4482 557.084 91.393 556.94 91.3719C556.796 91.3508 556.649 91.3644 556.512 91.4115C556.458 91.4322 556.409 91.4616 556.365 91.4986C556.254 91.5894 556.17 91.7097 556.124 91.8457C556.077 91.9817 556.07 92.128 556.102 92.2681Z" fill="url(#paint2_linear_1247_6989)"/>
<path opacity="0.2" d="M581.261 98.8331L581.628 119.658C581.757 120.312 582.14 120.889 582.693 121.261C582.719 121.274 582.744 121.297 582.769 121.311L590.85 126.288L607.549 136.561C607.66 136.646 607.796 136.694 607.936 136.698C608.076 136.702 608.213 136.661 608.329 136.582C608.42 136.51 608.49 136.414 608.528 136.304C608.566 136.195 608.571 136.076 608.544 135.963L608.283 115.725C608.197 115.302 608.025 114.902 607.779 114.547C607.533 114.193 607.217 113.892 606.851 113.664L582.016 98.3774C581.944 98.3266 581.86 98.294 581.773 98.2825C581.685 98.2709 581.596 98.2807 581.513 98.311C581.481 98.3231 581.45 98.3409 581.424 98.3637C581.356 98.419 581.305 98.4923 581.276 98.5753C581.247 98.6582 581.242 98.7475 581.261 98.8331Z" fill="url(#paint3_linear_1247_6989)"/>
<path opacity="0.2" d="M716.635 319.803L716.552 340.526C716.671 341.181 717.043 341.762 717.588 342.143C717.611 342.155 717.639 342.18 717.662 342.193L725.668 347.328L742.217 357.929C742.328 358.015 742.463 358.064 742.603 358.071C742.742 358.078 742.881 358.042 743 357.968C743.093 357.9 743.164 357.806 743.204 357.697C743.245 357.589 743.253 357.472 743.228 357.359L743.405 337.222C743.326 336.797 743.162 336.394 742.922 336.035C742.682 335.677 742.371 335.372 742.009 335.138L717.387 319.363C717.315 319.311 717.232 319.276 717.144 319.263C717.056 319.249 716.966 319.257 716.882 319.285C716.85 319.297 716.82 319.314 716.792 319.335C716.724 319.39 716.673 319.463 716.645 319.546C716.617 319.629 716.614 319.718 716.635 319.803Z" fill="url(#paint4_linear_1247_6989)"/>
<path opacity="0.2" d="M686.718 540.531L686.589 569.449C686.753 570.362 687.272 571.174 688.033 571.705C688.067 571.723 688.101 571.755 688.136 571.773L699.317 578.946L722.406 593.752C722.56 593.874 722.748 593.945 722.944 593.955C723.14 593.966 723.334 593.915 723.5 593.809C723.63 593.714 723.73 593.582 723.787 593.431C723.844 593.28 723.857 593.115 723.822 592.957L724.083 564.855C723.973 564.264 723.744 563.701 723.41 563.201C723.075 562.702 722.643 562.275 722.139 561.949L687.781 539.917C687.681 539.844 687.565 539.795 687.442 539.776C687.32 539.757 687.194 539.768 687.077 539.807C687.032 539.825 686.989 539.849 686.951 539.878C686.854 539.954 686.781 540.056 686.74 540.171C686.699 540.287 686.691 540.411 686.718 540.531Z" fill="url(#paint5_linear_1247_6989)"/>
<path d="M249.47 6.43242L249.731 66.2192C250.084 68.1023 251.167 69.7691 252.744 70.8545C252.815 70.8888 252.89 70.9598 252.959 70.9964L276.108 85.6076L323.915 115.771C324.234 116.02 324.623 116.163 325.027 116.18C325.431 116.198 325.83 116.088 326.169 115.867L333.717 110.921C334.057 110.689 334.319 110.359 334.468 109.975C334.618 109.591 334.648 109.171 334.554 108.77L334.666 51.2026C334.423 49.8995 333.911 48.6616 333.163 47.568C332.415 46.4745 331.446 45.5494 330.32 44.852L260.052 0.478018C259.667 0.202224 259.213 0.0388709 258.74 0.00612077C258.268 -0.0266294 257.795 0.0725044 257.376 0.292512L250.186 4.93237C250.093 4.96864 250.006 5.01884 249.928 5.08123C249.733 5.24129 249.587 5.45266 249.506 5.69144C249.426 5.93022 249.413 6.18689 249.47 6.43242Z" fill="#94CFF1"/>
<path d="M249.471 6.43087L249.731 66.2176C250.084 68.1008 251.167 69.7675 252.744 70.8529C252.815 70.8873 252.89 70.9583 252.959 70.9949L276.108 85.6061L323.916 115.77C324.234 116.019 324.623 116.162 325.027 116.179C325.431 116.196 325.83 116.087 326.169 115.866C326.435 115.664 326.637 115.391 326.752 115.077C326.867 114.764 326.889 114.424 326.816 114.098L326.841 56.0013C326.605 54.7823 326.123 53.6243 325.425 52.5975C324.728 51.5708 323.829 50.6968 322.783 50.0285L251.644 5.14152C251.436 4.99224 251.196 4.8948 250.944 4.85735C250.691 4.8199 250.433 4.84353 250.191 4.92624C250.098 4.96252 250.011 5.01271 249.933 5.07511C249.736 5.23502 249.589 5.44691 249.507 5.68663C249.426 5.92635 249.413 6.18424 249.471 6.43087Z" fill="url(#paint6_linear_1247_6989)"/>
<path d="M275.256 41.3687C276.141 46.636 281.388 53.7035 286.977 57.157C292.565 60.6106 296.378 59.1426 295.493 53.8752C294.607 48.6079 289.362 41.5405 283.772 38.0869C278.181 34.6333 274.37 36.1013 275.256 41.3687Z" fill="white"/>
<path d="M265.462 65.4067L311.261 93.7108C309.214 81.802 297.406 65.8991 284.754 58.0783C278.452 54.185 273.12 53.0514 269.627 54.3957C266.134 55.74 264.464 59.4684 265.462 65.4067Z" fill="white"/>
<path d="M541.539 181.134L588.015 191.376L588.157 229.246C588.144 230.602 586.773 231.227 585.52 230.453L505.738 181.363C505.081 180.957 504.514 180.42 504.074 179.786C503.633 179.151 503.328 178.432 503.176 177.674L503.38 139.321L541.539 181.134Z" fill="url(#paint7_linear_1247_6989)"/>
<path d="M587.96 179.056L588.008 189.048L542.392 178.987L503.379 136.23L503.43 127.315C503.226 126.169 504.317 125.501 505.388 126.147L585.403 175.385C586.057 175.789 586.622 176.323 587.062 176.954C587.502 177.586 587.808 178.301 587.96 179.056Z" fill="url(#paint8_linear_1247_6989)"/>
<path style="mix-blend-mode:multiply" opacity="0.3" d="M320.427 411.315C320.07 411.74 319.644 412.103 319.167 412.386L272.158 441.098C271.399 441.557 270.528 441.8 269.641 441.8C268.754 441.8 267.884 441.557 267.125 441.098L189.327 393.644C188.608 393.221 188.011 392.617 187.597 391.892C187.183 391.167 186.965 390.346 186.965 389.511C186.965 388.676 187.183 387.855 187.597 387.131C188.011 386.406 188.608 385.802 189.327 385.379L208.731 373.545L236.364 356.695C237.123 356.235 237.993 355.993 238.88 355.993C239.767 355.993 240.637 356.235 241.396 356.695L319.169 404.121C319.756 404.483 320.26 404.966 320.647 405.537C321.034 406.108 321.295 406.755 321.414 407.435C321.533 408.115 321.507 408.812 321.336 409.481C321.166 410.149 320.857 410.775 320.427 411.315Z" fill="#94CFF1"/>
<path d="M625.439 310.425L289.228 101.74C286.769 100.093 283.773 99.4511 280.856 99.9464L280.696 99.9716C280.584 99.9968 280.467 100.024 280.364 100.054L274.247 102.317L275.707 103.599C274.854 104.694 274.252 105.963 273.944 107.317C273.635 108.67 273.627 110.075 273.92 111.432L274.298 329.276C275.357 334.741 277.536 339.928 280.698 344.508C283.86 349.087 287.936 352.961 292.668 355.885L628.887 564.575C629.453 564.921 630.043 565.227 630.652 565.491C631.11 566.513 631.68 567.768 631.68 567.768L637.533 566.318L637.606 566.3L637.835 566.245V566.226C640.009 565.608 641.854 564.161 642.974 562.196C644.095 560.232 644.402 557.906 643.83 555.717L643.81 337.028C642.748 331.564 640.568 326.379 637.406 321.801C634.245 317.223 630.17 313.349 625.439 310.425Z" fill="#EBF9FF"/>
<path d="M623.446 565.911L316.516 375.393L313.771 373.698L307.343 369.691L287.259 357.232C282.521 354.31 278.439 350.436 275.27 345.856C272.101 341.276 269.913 336.089 268.845 330.621L268.685 236.61L268.663 222.64L268.479 112.781C268.479 103.323 274.884 99.2693 283.439 103.918L619.672 312.62C624.396 315.551 628.464 319.428 631.62 324.007C634.777 328.587 636.955 333.77 638.017 339.232L638.04 357.415L638.383 557.071L638.406 557.094C639.915 565.957 631.543 570.927 623.446 565.911Z" fill="#2953AC"/>
<path style="mix-blend-mode:screen" d="M291.545 346.046C288.892 344.406 286.607 342.235 284.831 339.67C283.056 337.105 281.828 334.2 281.226 331.137L283.285 127.483C282.48 122.775 286.926 120.141 291.204 122.795L614.549 323.486C617.192 325.133 619.47 327.306 621.241 329.87C623.011 332.434 624.237 335.335 624.842 338.393L624.638 541.316C624.638 546.84 619.085 549.352 613.942 546.16L291.545 346.046Z" fill="url(#paint9_linear_1247_6989)"/>
<path style="mix-blend-mode:multiply" opacity="0.5" d="M638.044 357.425L638.392 557.071L408.119 414.126C406.103 412.886 404.365 411.241 403.015 409.295C401.665 407.349 400.731 405.144 400.273 402.82L401.705 218.021C401.09 214.434 404.466 212.435 407.705 214.457L638.044 357.425Z" fill="url(#paint10_linear_1247_6989)"/>
<path d="M401.13 401.116C399.116 399.871 397.381 398.223 396.033 396.275C394.685 394.327 393.753 392.121 393.296 389.796L394.714 204.994C394.103 201.42 397.48 199.418 400.725 201.433L646.219 353.806C648.226 355.057 649.955 356.707 651.299 358.654C652.643 360.601 653.574 362.803 654.033 365.124L654.019 549.374C654.019 553.57 649.803 555.477 645.899 553.052L401.13 401.116Z" fill="#C7F1FF"/>
<path opacity="0.2" d="M412.515 396.793C410.686 395.661 409.11 394.164 407.886 392.395C406.661 390.626 405.815 388.624 405.398 386.512L406.661 224.401C406.105 221.154 409.177 219.335 412.121 221.165L635.079 359.552C636.901 360.689 638.47 362.188 639.69 363.956C640.909 365.724 641.754 367.725 642.17 369.833L642.186 531.442C642.186 535.251 638.357 536.982 634.811 534.781L412.515 396.793Z" fill="url(#paint11_linear_1247_6989)"/>
<g style="mix-blend-mode:soft-light">
<path d="M292.343 228.047C291.62 227.599 290.996 227.006 290.512 226.306C290.027 225.606 289.692 224.813 289.527 223.978L290.037 157.563C289.809 156.278 291.032 155.559 292.199 156.283L380.428 211.045C381.15 211.495 381.772 212.088 382.255 212.788C382.738 213.488 383.073 214.28 383.237 215.115V281.332C383.237 282.841 381.723 283.526 380.318 282.656L292.343 228.047Z" fill="white"/>
</g>
<g style="mix-blend-mode:soft-light">
<path d="M297.256 224.94C296.714 224.605 296.248 224.162 295.885 223.638C295.523 223.115 295.272 222.522 295.149 221.896L295.497 197.955C295.332 196.993 296.24 196.455 297.114 196.996L309.429 204.603C309.969 204.94 310.435 205.384 310.796 205.908C311.158 206.432 311.408 207.025 311.532 207.649L311.564 231.442C311.564 232.569 310.42 233.082 309.377 232.431L297.256 224.94Z" fill="white"/>
</g>
<g style="mix-blend-mode:soft-light">
<path d="M319.581 238.666C319.039 238.331 318.572 237.887 318.209 237.363C317.846 236.839 317.595 236.246 317.472 235.62L317.893 195.542C317.728 194.58 318.636 194.042 319.51 194.583L331.819 202.179C332.359 202.516 332.824 202.96 333.185 203.484C333.547 204.008 333.797 204.6 333.921 205.225L333.88 245.165C333.88 246.294 332.736 246.807 331.696 246.155L319.581 238.666Z" fill="white"/>
</g>
<g style="mix-blend-mode:soft-light">
<path d="M341.904 252.395C341.363 252.061 340.896 251.617 340.534 251.094C340.171 250.57 339.92 249.977 339.797 249.352L340.095 229.528C339.93 228.566 340.838 228.028 341.712 228.571L354.028 236.179C354.567 236.515 355.032 236.959 355.394 237.482C355.755 238.006 356.006 238.598 356.13 239.222L356.212 258.897C356.212 260.026 355.068 260.539 354.025 259.887L341.904 252.395Z" fill="white"/>
</g>
<g style="mix-blend-mode:soft-light">
<path d="M364.231 266.126C363.689 265.791 363.222 265.347 362.859 264.823C362.496 264.299 362.245 263.705 362.122 263.08L362.504 213.365C362.339 212.403 363.247 211.867 364.121 212.408L376.439 220.016C376.979 220.352 377.444 220.796 377.805 221.32C378.167 221.844 378.416 222.437 378.539 223.062V272.627C378.539 273.754 377.395 274.267 376.355 273.614L364.231 266.126Z" fill="white"/>
</g>
<g style="mix-blend-mode:soft-light">
<path d="M292.1 314.951C291.376 314.503 290.752 313.911 290.267 313.211C289.782 312.51 289.447 311.717 289.282 310.881L289.795 244.467C289.566 243.182 290.787 242.463 291.954 243.189L380.183 297.951C380.904 298.4 381.526 298.992 382.009 299.692C382.492 300.391 382.827 301.182 382.992 302.016V368.236C382.992 369.743 381.478 370.43 380.073 369.557L292.1 314.951Z" fill="white"/>
</g>
<g style="mix-blend-mode:multiply" opacity="0.52">
<path d="M313.91 257.541L313.773 373.698L307.345 369.69L287.261 357.232C282.523 354.309 278.441 350.436 275.272 345.856C272.103 341.276 269.915 336.088 268.848 330.62L268.687 236.609L268.665 222.639L308.58 247.671C310.228 248.732 311.581 250.194 312.513 251.92C313.445 253.646 313.926 255.579 313.91 257.541Z" fill="#293B6D"/>
</g>
<path d="M294.813 248.673L219.556 201.471C218.812 201.001 217.958 200.735 217.079 200.702C216.2 200.669 215.328 200.868 214.551 201.281L209.319 203.848L211.849 204.535C211.689 205.04 211.604 205.567 211.598 206.097L209.768 361.727C209.749 362.53 209.826 363.332 209.996 364.118C210.265 365.698 210.861 367.204 211.747 368.539C212.632 369.875 213.786 371.01 215.136 371.872L290.897 419.658L292.168 422.963L297.169 420.412L297.322 420.332H297.292C297.439 420.261 297.573 420.168 297.69 420.054C298.409 419.521 298.992 418.824 299.39 418.021C299.787 417.218 299.989 416.331 299.978 415.435L300.156 258.546C300.175 256.582 299.695 254.645 298.76 252.918C297.825 251.19 296.467 249.73 294.813 248.673Z" fill="#EBF9FF"/>
<path d="M209.647 374.649L286.506 423.157C287.341 423.64 288.29 423.888 289.254 423.876C290.218 423.864 291.161 423.593 291.984 423.09C292.807 422.587 293.48 421.872 293.931 421.019C294.382 420.166 294.595 419.207 294.548 418.243L294.827 261.207C294.847 259.242 294.368 257.305 293.434 255.576C292.501 253.848 291.144 252.386 289.491 251.327L214.183 204.109C213.379 203.63 212.462 203.375 211.526 203.369C210.59 203.364 209.67 203.608 208.86 204.077C208.05 204.547 207.38 205.224 206.918 206.039C206.457 206.854 206.221 207.777 206.235 208.714L204.293 364.486C204.244 366.497 204.71 368.487 205.648 370.266C206.585 372.045 207.962 373.554 209.647 374.649Z" fill="#2953AC"/>
<path style="mix-blend-mode:screen" d="M211.259 357.194L212.785 226.17C212.77 225.267 212.996 224.377 213.44 223.591C213.883 222.805 214.528 222.151 215.308 221.698C216.088 221.244 216.974 221.006 217.876 221.01C218.777 221.013 219.662 221.257 220.439 221.716L284.716 262.034C285.758 262.703 286.613 263.626 287.201 264.716C287.789 265.806 288.09 267.029 288.076 268.268L287.735 400.112C287.778 401.037 287.571 401.957 287.136 402.774C286.702 403.591 286.055 404.277 285.265 404.758C284.474 405.239 283.569 405.498 282.644 405.507C281.719 405.517 280.809 405.278 280.008 404.814L214.635 363.591C213.573 362.903 212.705 361.953 212.114 360.833C211.523 359.714 211.228 358.461 211.259 357.194Z" fill="url(#paint12_linear_1247_6989)"/>
<path d="M245.181 389.179C245.165 391.208 244.156 392.868 242.928 392.882C241.699 392.896 240.716 391.263 240.734 389.234C240.752 387.205 241.759 385.547 242.987 385.533C244.216 385.519 245.197 387.15 245.181 389.179Z" fill="#2E2EB0"/>
<g style="mix-blend-mode:soft-light">
<path d="M275.047 378.905L221.207 345.228C220.618 344.849 220.136 344.326 219.806 343.708C219.477 343.09 219.311 342.397 219.325 341.697L220.121 250.134C220.11 249.716 220.211 249.303 220.413 248.938C220.615 248.572 220.911 248.267 221.27 248.055C221.629 247.842 222.038 247.729 222.455 247.727C222.872 247.725 223.283 247.835 223.643 248.045L279.594 282.975C280.18 283.35 280.661 283.869 280.99 284.482C281.319 285.095 281.487 285.782 281.477 286.479L281.051 375.282C281.079 375.998 280.914 376.709 280.574 377.339C280.234 377.97 279.731 378.498 279.117 378.868C278.504 379.238 277.803 379.437 277.087 379.443C276.371 379.45 275.666 379.264 275.047 378.905Z" fill="white"/>
</g>
<path d="M228.325 275.232L272.935 303.087" stroke="#F7F8FF" stroke-width="0.445" stroke-linecap="round" stroke-linejoin="round"/>
<path d="M228.271 282.346L272.899 310.215" stroke="#F7F8FF" stroke-width="0.445" stroke-linecap="round" stroke-linejoin="round"/>
<path d="M228.212 289.46L272.859 317.345" stroke="#F7F8FF" stroke-width="0.445" stroke-linecap="round" stroke-linejoin="round"/>
<path d="M228.154 296.58L272.819 324.479" stroke="#F7F8FF" stroke-width="0.445" stroke-linecap="round" stroke-linejoin="round"/>
<path d="M228.099 303.708L272.782 331.621" stroke="#F7F8FF" stroke-width="0.445" stroke-linecap="round" stroke-linejoin="round"/>
<path d="M228.042 310.843L272.743 338.773" stroke="#F7F8FF" stroke-width="0.445" stroke-linecap="round" stroke-linejoin="round"/>
<path d="M227.985 317.981L272.702 345.926" stroke="#F7F8FF" stroke-width="0.445" stroke-linecap="round" stroke-linejoin="round"/>
<path d="M227.927 325.124L272.665 353.082" stroke="#F7F8FF" stroke-width="0.445" stroke-linecap="round" stroke-linejoin="round"/>
<path d="M103.945 47.3879V44.91C103.945 44.8158 103.926 44.7226 103.89 44.6356C103.854 44.5487 103.802 44.4696 103.735 44.4031C103.669 44.3365 103.59 44.2837 103.503 44.2477C103.416 44.2117 103.323 44.1931 103.229 44.1931C103.135 44.1931 103.042 44.2117 102.955 44.2477C102.868 44.2837 102.789 44.3365 102.723 44.4031C102.656 44.4696 102.603 44.5487 102.567 44.6356C102.532 44.7226 102.513 44.8158 102.513 44.91V46.4535L101.221 45.613C101.142 45.5616 101.054 45.5262 100.961 45.5089C100.869 45.4916 100.774 45.4927 100.681 45.5122C100.589 45.5317 100.502 45.5691 100.424 45.6223C100.347 45.6756 100.28 45.7436 100.229 45.8226C100.178 45.9015 100.142 45.9898 100.125 46.0824C100.108 46.1751 100.109 46.2702 100.128 46.3624C100.148 46.4546 100.185 46.542 100.238 46.6197C100.291 46.6975 100.359 46.7639 100.438 46.8154L102.513 48.1665V50.6468C102.513 50.7409 102.532 50.8341 102.567 50.9211C102.603 51.0081 102.656 51.0871 102.723 51.1537C102.789 51.2202 102.868 51.273 102.955 51.309C103.042 51.3451 103.135 51.3636 103.229 51.3636C103.323 51.3636 103.416 51.3451 103.503 51.309C103.59 51.273 103.669 51.2202 103.735 51.1537C103.802 51.0871 103.854 51.0081 103.89 50.9211C103.926 50.8341 103.945 50.7409 103.945 50.6468V49.0987L105.242 49.9414C105.321 49.9962 105.409 50.0346 105.503 50.0543C105.597 50.0741 105.694 50.0748 105.788 50.0564C105.882 50.0381 105.971 50.0011 106.05 49.9475C106.13 49.8939 106.198 49.825 106.25 49.7447C106.303 49.6644 106.338 49.5743 106.355 49.48C106.372 49.3856 106.37 49.2887 106.349 49.1952C106.328 49.1016 106.288 49.0133 106.233 48.9353C106.177 48.8574 106.106 48.7914 106.024 48.7414L103.945 47.3879Z" fill="#C7F1FF"/>
<path d="M171.305 227.182V224.704C171.305 224.514 171.23 224.332 171.096 224.197C170.961 224.063 170.779 223.987 170.589 223.987C170.399 223.987 170.217 224.063 170.083 224.197C169.949 224.332 169.873 224.514 169.873 224.704V226.248L168.581 225.407C168.502 225.349 168.413 225.308 168.318 225.287C168.222 225.265 168.124 225.262 168.028 225.28C167.932 225.297 167.841 225.334 167.759 225.388C167.678 225.442 167.609 225.512 167.555 225.594C167.502 225.676 167.466 225.768 167.449 225.864C167.432 225.96 167.435 226.059 167.458 226.154C167.48 226.249 167.522 226.338 167.58 226.416C167.638 226.495 167.712 226.56 167.796 226.609L169.873 227.961V230.441C169.873 230.631 169.949 230.813 170.083 230.948C170.217 231.082 170.399 231.158 170.589 231.158C170.779 231.158 170.961 231.082 171.096 230.948C171.23 230.813 171.305 230.631 171.305 230.441V228.893L172.6 229.735C172.717 229.811 172.852 229.851 172.991 229.852C173.146 229.853 173.297 229.803 173.421 229.711C173.545 229.618 173.636 229.488 173.68 229.339C173.725 229.191 173.719 229.032 173.666 228.887C173.612 228.741 173.512 228.617 173.382 228.533L171.305 227.182Z" fill="#C7F1FF"/>
<path d="M380.287 10.9839V8.50822C380.287 8.31811 380.211 8.13579 380.077 8.00136C379.943 7.86693 379.76 7.79141 379.571 7.79141C379.381 7.79141 379.199 7.86693 379.064 8.00136C378.93 8.13579 378.855 8.31811 378.855 8.50822V10.0518L377.562 9.21131C377.483 9.15974 377.395 9.12417 377.303 9.10667C377.211 9.08917 377.116 9.09008 377.023 9.10933C376.931 9.12857 376.844 9.16579 376.766 9.21884C376.689 9.2719 376.622 9.33978 376.571 9.41857C376.519 9.49737 376.484 9.58554 376.466 9.67807C376.449 9.77061 376.45 9.86569 376.469 9.95788C376.488 10.0501 376.525 10.1376 376.578 10.2154C376.631 10.2932 376.699 10.3598 376.778 10.4113L378.855 11.7625V14.2428C378.855 14.4329 378.93 14.6152 379.064 14.7496C379.199 14.8841 379.381 14.9596 379.571 14.9596C379.76 14.9596 379.943 14.8841 380.077 14.7496C380.211 14.6152 380.287 14.4329 380.287 14.2428V12.6946L381.581 13.5397C381.698 13.6142 381.834 13.6539 381.972 13.6542C382.127 13.6541 382.277 13.6041 382.4 13.5118C382.524 13.4195 382.614 13.2897 382.658 13.1417C382.702 12.9938 382.697 12.8356 382.644 12.6906C382.591 12.5457 382.493 12.4218 382.364 12.3374L380.287 10.9839Z" fill="#C7F1FF"/>
<path d="M662.522 277.435V274.957C662.522 274.767 662.447 274.585 662.312 274.45C662.178 274.316 661.996 274.24 661.806 274.24C661.616 274.24 661.434 274.316 661.3 274.45C661.166 274.585 661.09 274.767 661.09 274.957V276.501L659.798 275.66C659.719 275.609 659.631 275.574 659.538 275.556C659.446 275.539 659.351 275.54 659.259 275.56C659.167 275.579 659.079 275.616 659.001 275.67C658.924 275.723 658.858 275.791 658.806 275.87C658.755 275.949 658.719 276.037 658.702 276.13C658.685 276.222 658.686 276.318 658.705 276.41C658.725 276.502 658.762 276.589 658.815 276.667C658.869 276.745 658.937 276.811 659.015 276.863L661.09 278.214V280.694C661.09 280.884 661.166 281.067 661.3 281.201C661.434 281.335 661.616 281.411 661.806 281.411C661.996 281.411 662.178 281.335 662.312 281.201C662.447 281.067 662.522 280.884 662.522 280.694V279.146L663.817 279.989C663.934 280.064 664.071 280.105 664.21 280.106C664.364 280.105 664.514 280.056 664.638 279.963C664.762 279.871 664.852 279.741 664.896 279.593C664.94 279.445 664.935 279.287 664.882 279.142C664.829 278.997 664.73 278.873 664.601 278.789L662.522 277.435Z" fill="#C7F1FF"/>
<path d="M589.437 79.9574V77.4817C589.437 77.2916 589.361 77.1093 589.227 76.9749C589.093 76.8404 588.911 76.7649 588.721 76.7649C588.531 76.7649 588.349 76.8404 588.215 76.9749C588.08 77.1093 588.005 77.2916 588.005 77.4817V79.0253L586.713 78.1848C586.634 78.13 586.545 78.0916 586.451 78.0719C586.358 78.0521 586.261 78.0514 586.167 78.0698C586.073 78.0881 585.983 78.1252 585.904 78.1787C585.825 78.2323 585.757 78.3013 585.704 78.3816C585.652 78.4619 585.616 78.5519 585.599 78.6462C585.582 78.7406 585.584 78.8375 585.605 78.931C585.627 79.0246 585.666 79.1129 585.722 79.1909C585.778 79.2688 585.849 79.3348 585.93 79.3848L588.005 80.736V83.2163C588.005 83.4064 588.08 83.5887 588.215 83.7231C588.349 83.8575 588.531 83.9331 588.721 83.9331C588.911 83.9331 589.093 83.8575 589.227 83.7231C589.361 83.5887 589.437 83.4064 589.437 83.2163V81.6704L590.734 82.5132C590.813 82.5646 590.901 82.6 590.993 82.6173C591.086 82.6346 591.181 82.6335 591.273 82.614C591.365 82.5946 591.453 82.5571 591.53 82.5039C591.608 82.4506 591.674 82.3826 591.725 82.3036C591.777 82.2247 591.812 82.1364 591.83 82.0438C591.847 81.9511 591.846 81.856 591.826 81.7639C591.807 81.6717 591.769 81.5842 591.716 81.5065C591.663 81.4288 591.595 81.3623 591.516 81.3109L589.437 79.9574Z" fill="#C7F1FF"/>
<path d="M729.082 490.269L727.005 488.918V486.44C727.005 486.25 726.93 486.067 726.795 485.933C726.661 485.799 726.479 485.723 726.289 485.723C726.099 485.723 725.917 485.799 725.783 485.933C725.648 486.067 725.573 486.25 725.573 486.44V487.986L724.281 487.143C724.202 487.085 724.112 487.044 724.017 487.022C723.922 487 723.824 486.998 723.728 487.016C723.632 487.033 723.54 487.07 723.459 487.124C723.378 487.178 723.308 487.248 723.255 487.33C723.202 487.412 723.166 487.503 723.149 487.6C723.132 487.696 723.135 487.794 723.158 487.889C723.18 487.984 723.222 488.074 723.28 488.152C723.338 488.231 723.412 488.296 723.496 488.345L725.573 489.696V492.177C725.573 492.367 725.648 492.549 725.783 492.684C725.917 492.818 726.099 492.894 726.289 492.894C726.479 492.894 726.661 492.818 726.795 492.684C726.93 492.549 727.005 492.367 727.005 492.177V490.629L728.3 491.471C728.416 491.546 728.552 491.587 728.691 491.588C728.846 491.589 728.996 491.539 729.121 491.447C729.245 491.354 729.336 491.224 729.38 491.075C729.424 490.927 729.419 490.768 729.365 490.622C729.311 490.477 729.212 490.353 729.082 490.269Z" fill="#C7F1FF"/>
<path d="M700.46 442.443V439.965C700.46 439.775 700.385 439.593 700.251 439.458C700.116 439.324 699.934 439.248 699.744 439.248C699.554 439.248 699.372 439.324 699.238 439.458C699.104 439.593 699.028 439.775 699.028 439.965V441.511L697.736 440.668C697.577 440.576 697.388 440.548 697.21 440.591C697.031 440.633 696.875 440.743 696.774 440.897C696.674 441.051 696.636 441.238 696.669 441.419C696.702 441.6 696.803 441.762 696.951 441.871L699.028 443.222V445.702C699.028 445.892 699.104 446.075 699.238 446.209C699.372 446.343 699.554 446.419 699.744 446.419C699.934 446.419 700.116 446.343 700.251 446.209C700.385 446.075 700.46 445.892 700.46 445.702V444.154L701.755 444.997C701.834 445.048 701.922 445.084 702.014 445.101C702.107 445.119 702.202 445.118 702.294 445.099C702.386 445.08 702.473 445.042 702.551 444.989C702.629 444.936 702.695 444.868 702.747 444.789C702.798 444.711 702.834 444.623 702.851 444.53C702.869 444.437 702.868 444.342 702.848 444.25C702.829 444.158 702.792 444.07 702.739 443.993C702.686 443.915 702.618 443.848 702.54 443.797L700.46 442.443Z" fill="#C7F1FF"/>
<path d="M754.443 423.148C754.442 424.104 754.201 425.045 753.741 425.883C753.398 426.47 752.844 426.903 752.192 427.094C751.459 427.26 750.695 427.218 749.985 426.973C749.062 426.682 748.182 426.27 747.368 425.748C746.032 424.935 744.817 423.938 743.758 422.786C742.951 421.92 742.243 420.966 741.647 419.942C741.391 420.1 741.123 420.256 740.849 420.4C740.51 420.564 740.132 420.63 739.758 420.59C739.173 420.533 738.601 420.387 738.06 420.157C737.149 419.772 736.274 419.305 735.446 418.763C734.15 417.961 732.982 416.969 731.98 415.82C731.009 414.709 730.186 413.478 729.53 412.156C728.891 410.864 728.404 409.502 728.078 408.097C727.759 406.746 727.596 405.363 727.593 403.975C727.57 402.775 727.734 401.579 728.078 400.43C728.315 399.55 728.823 398.767 729.53 398.192C730.243 397.692 731.118 397.479 731.98 397.595C733.226 397.778 734.412 398.249 735.446 398.969C736.641 399.679 737.706 400.588 738.596 401.657C739.221 402.432 739.789 403.252 740.293 404.11V403.673C740.271 403.531 740.297 403.387 740.367 403.262C740.437 403.138 740.547 403.04 740.679 402.986C740.836 402.942 741 402.936 741.159 402.969C741.318 403.001 741.467 403.07 741.594 403.171L743.145 404.142C743.521 404.389 743.835 404.72 744.06 405.109C744.295 405.453 744.429 405.856 744.449 406.272V416.592C744.447 417.619 744.706 418.631 745.199 419.532C745.706 420.466 746.45 421.249 747.357 421.802C747.78 422.105 748.269 422.303 748.784 422.381C748.944 422.4 749.106 422.386 749.26 422.34C749.415 422.294 749.559 422.218 749.683 422.115C749.916 421.906 750.092 421.64 750.193 421.344C750.306 421.018 750.362 420.676 750.36 420.331C750.394 419.963 750.426 419.232 750.461 418.135C750.485 416.882 750.435 415.629 750.312 414.382C749.958 410.32 748.528 406.426 746.169 403.103C743.484 399.454 740.098 396.378 736.21 394.056C734.742 393.117 733.162 392.366 731.507 391.821C730.203 391.361 728.807 391.221 727.437 391.414C726.268 391.604 725.213 392.227 724.48 393.159C723.607 394.381 723.103 395.828 723.027 397.329C722.993 397.73 722.961 398.27 722.929 398.946C722.897 399.622 722.881 400.341 722.881 401.103C722.881 401.866 722.881 402.606 722.904 403.327C722.912 403.94 722.953 404.551 723.027 405.159C723.22 407.191 723.709 409.183 724.48 411.072C725.255 412.987 726.248 414.805 727.437 416.493C728.627 418.192 729.991 419.763 731.507 421.179C732.954 422.543 734.529 423.764 736.21 424.827C737.533 425.653 738.672 426.308 739.625 426.792C740.447 427.216 741.298 427.583 742.171 427.889C742.82 428.119 743.496 428.269 744.182 428.336C744.771 428.381 745.364 428.373 745.952 428.31C746.307 428.31 746.59 428.299 746.801 428.299C747.107 428.335 747.398 428.451 747.647 428.633L749.779 429.966C750.159 430.213 750.481 430.539 750.724 430.921C750.981 431.275 751.109 431.707 751.087 432.144C751.097 432.256 751.069 432.367 751.007 432.461C750.946 432.555 750.855 432.626 750.749 432.662C749.991 432.931 749.2 433.097 748.397 433.156C747.364 433.218 746.327 433.124 745.321 432.879C743.946 432.55 742.606 432.086 741.322 431.494C739.554 430.688 737.846 429.757 736.21 428.709C733.947 427.282 731.835 425.628 729.908 423.771C727.908 421.859 726.105 419.75 724.528 417.476C722.97 415.244 721.665 412.845 720.639 410.323C719.658 407.916 719.053 405.372 718.848 402.78C718.816 402.305 718.792 401.684 718.775 400.918C718.759 400.148 718.752 399.349 718.752 398.527C718.752 397.705 718.752 396.924 718.775 396.191C718.798 395.458 718.816 394.89 718.848 394.494C718.886 392.598 719.493 390.756 720.591 389.211C721.546 387.978 722.917 387.137 724.448 386.847C726.254 386.551 728.105 386.688 729.848 387.248C732.093 387.922 734.231 388.908 736.201 390.179C738.83 391.81 741.295 393.692 743.562 395.799C745.659 397.744 747.544 399.906 749.186 402.248C750.713 404.43 751.95 406.801 752.867 409.302C753.745 411.698 754.276 414.208 754.443 416.754C754.475 417.421 754.498 418.096 754.516 418.786C754.535 419.475 754.532 420.105 754.516 420.677C754.5 421.25 754.484 421.754 754.468 422.196C754.452 422.638 754.443 422.954 754.443 423.148ZM731.713 406.536C731.719 407.275 731.791 408.012 731.93 408.739C732.084 409.553 732.328 410.348 732.657 411.109C733.001 411.909 733.441 412.664 733.968 413.358C734.52 414.083 735.201 414.698 735.977 415.174C737.654 416.224 738.793 416.403 739.394 415.71C740.111 414.578 740.428 413.237 740.293 411.904C740.296 411.042 740.23 410.182 740.096 409.332C739.969 408.527 739.733 407.744 739.394 407.003C739.052 406.254 738.603 405.56 738.06 404.942C737.456 404.26 736.754 403.672 735.977 403.199C735.393 402.768 734.693 402.524 733.968 402.498C733.468 402.523 732.997 402.743 732.657 403.112C732.291 403.536 732.04 404.048 731.93 404.598C731.785 405.234 731.712 405.884 731.713 406.536Z" fill="#C7F1FF"/>
<path d="M478.889 81.2681C480.142 82.0146 481.191 83.0583 481.945 84.3072C482.597 85.3799 482.978 86.5949 483.057 87.8478C483.075 88.1249 483.084 88.3607 483.084 88.5508V89.6066C483.084 89.7783 483.084 89.9822 483.057 90.2203C483.094 90.6446 483.009 91.0707 482.812 91.4482C482.615 91.8256 482.314 92.1387 481.945 92.3502C481.259 92.664 480.241 92.4006 478.889 91.5555C477.64 90.8112 476.592 89.7727 475.835 88.5302C475.184 87.4626 474.802 86.252 474.724 85.0034C474.705 84.7469 474.689 84.527 474.683 84.3507C474.676 84.1743 474.667 83.998 474.667 83.8263C474.667 83.6545 474.667 83.4781 474.683 83.2926C474.699 83.1071 474.705 82.8896 474.724 82.6331C474.687 82.2067 474.773 81.7789 474.969 81.399C475.166 81.0192 475.466 80.703 475.835 80.4872C476.522 80.165 477.54 80.4254 478.889 81.2681ZM490.42 89.1692C490.542 89.0834 490.685 89.0341 490.834 89.0272C491.056 89.0454 491.268 89.1246 491.447 89.2562L492.531 89.9432C492.73 90.0628 492.902 90.2227 493.035 90.4127C493.146 90.5682 493.209 90.753 493.215 90.944C493.214 90.9874 493.205 91.0301 493.188 91.07C493.169 91.1157 493.139 91.1559 493.101 91.1868L479.003 100.941C478.881 101.024 478.738 101.072 478.59 101.08C478.368 101.061 478.156 100.982 477.976 100.851L476.892 100.164C476.697 100.047 476.527 99.8914 476.394 99.7062C476.28 99.5518 476.215 99.3666 476.208 99.1749C476.209 99.1315 476.219 99.0887 476.236 99.0489C476.255 99.0036 476.285 98.9635 476.323 98.9321L490.42 89.1692ZM480.861 86.5584C480.809 85.9548 480.633 85.3685 480.344 84.8362C480.006 84.2085 479.503 83.6857 478.889 83.3247C478.226 82.9079 477.745 82.8048 477.437 83.0155C477.273 83.1427 477.141 83.3061 477.052 83.4928C476.962 83.6796 476.917 83.8847 476.92 84.0919C476.901 84.3209 476.888 84.5248 476.876 84.6805C476.865 84.8362 476.863 84.9851 476.863 85.1385C476.863 85.2919 476.862 85.4408 476.876 85.6194C476.89 85.7981 476.901 86.0248 476.92 86.3065C476.97 86.9059 477.147 87.488 477.437 88.0149C477.779 88.6349 478.28 89.152 478.889 89.5127C479.555 89.9272 480.033 90.0371 480.344 89.8356C480.508 89.7118 480.641 89.5507 480.731 89.3656C480.821 89.1804 480.865 88.9765 480.861 88.7707C480.879 88.5165 480.888 88.3127 480.888 88.134V87.2042C480.888 87.0332 480.879 86.8179 480.861 86.5584ZM490.734 98.6779C491.986 99.4246 493.035 100.469 493.787 101.719C494.439 102.791 494.822 104.005 494.904 105.257C494.922 105.537 494.929 105.771 494.929 105.963V107.019C494.929 107.19 494.929 107.394 494.904 107.63C494.94 108.055 494.854 108.482 494.657 108.859C494.459 109.237 494.157 109.551 493.787 109.762C493.101 110.075 492.083 109.81 490.734 108.965C489.485 108.222 488.437 107.184 487.68 105.942C487.028 104.875 486.647 103.664 486.568 102.415C486.55 102.157 486.534 101.937 486.527 101.76C486.52 101.584 486.511 101.41 486.511 101.238C486.511 101.067 486.511 100.888 486.527 100.702C486.543 100.517 486.55 100.299 486.568 100.043C486.533 99.6166 486.618 99.189 486.815 98.8094C487.011 98.4297 487.311 98.1134 487.68 97.897C488.366 97.5733 489.384 97.8336 490.734 98.6779ZM492.705 103.968C492.653 103.365 492.477 102.778 492.188 102.246C491.85 101.62 491.347 101.098 490.734 100.737C490.069 100.32 489.584 100.216 489.279 100.425C489.116 100.554 488.985 100.717 488.896 100.905C488.807 101.092 488.762 101.297 488.764 101.504C488.746 101.733 488.73 101.937 488.721 102.093C488.711 102.248 488.707 102.397 488.707 102.551C488.707 102.704 488.707 102.853 488.721 103.029C488.734 103.206 488.746 103.437 488.764 103.716C488.815 104.315 488.99 104.896 489.279 105.422C489.621 106.043 490.123 106.561 490.734 106.92C491.399 107.337 491.877 107.445 492.188 107.243C492.353 107.12 492.486 106.959 492.576 106.775C492.666 106.59 492.71 106.386 492.705 106.18C492.724 105.925 492.733 105.712 492.733 105.541V104.625C492.733 104.44 492.724 104.229 492.705 103.968Z" fill="#C7F1FF"/>
<path d="M199.377 53.4768L202.28 55.2929C202.541 55.4611 202.759 55.6886 202.916 55.9571C203.076 56.195 203.167 56.4722 203.181 56.7586V57.8281C203.193 57.923 203.173 58.019 203.125 58.1016C203.077 58.1842 203.004 58.249 202.916 58.2861C202.807 58.3164 202.693 58.3206 202.583 58.2983C202.472 58.276 202.368 58.2279 202.28 58.1579L198.943 56.0693L198.108 61.1603L201.413 63.2214C201.672 63.3907 201.889 63.6171 202.047 63.8833C202.206 64.1214 202.298 64.3985 202.312 64.6848V65.7543C202.326 65.8509 202.307 65.9494 202.259 66.0343C202.211 66.1192 202.136 66.1859 202.047 66.2238C201.938 66.2541 201.825 66.2582 201.714 66.2359C201.604 66.2136 201.501 66.1655 201.413 66.0956L197.673 63.7573L197.106 67.3116C197.093 67.3865 197.06 67.4563 197.01 67.5133C196.96 67.5703 196.895 67.6123 196.822 67.6346C196.726 67.6507 196.627 67.6464 196.533 67.6219C196.438 67.5975 196.35 67.5534 196.273 67.4926L194.834 66.5948C194.623 66.4557 194.446 66.27 194.317 66.0521C194.182 65.8598 194.103 65.6339 194.089 65.3994V65.3307L194.658 61.8771L190.083 59.0167L189.511 62.571C189.499 62.6455 189.466 62.715 189.417 62.7723C189.368 62.8296 189.304 62.8724 189.232 62.8962C189.135 62.9112 189.036 62.906 188.94 62.8808C188.845 62.8555 188.756 62.8109 188.679 62.7497L187.245 61.8519C187.031 61.7154 186.853 61.5302 186.725 61.3114C186.595 61.1178 186.521 60.892 186.51 60.6587V60.5923L187.078 57.1365L184.138 55.3044C183.878 55.1355 183.661 54.908 183.505 54.6402C183.342 54.4027 183.249 54.1242 183.237 53.8364V52.7692C183.226 52.6741 183.246 52.5779 183.294 52.4952C183.342 52.4125 183.416 52.3479 183.505 52.3111C183.613 52.2818 183.727 52.2783 183.837 52.3009C183.947 52.3236 184.05 52.3718 184.138 52.4417L187.51 54.5509L188.345 49.4576L185.005 47.369C184.746 47.1994 184.529 46.9721 184.372 46.7048C184.21 46.4675 184.117 46.1901 184.104 45.9033V44.8315C184.093 44.7364 184.113 44.6404 184.161 44.5578C184.21 44.4752 184.283 44.4105 184.372 44.3735C184.48 44.3443 184.594 44.3409 184.704 44.3635C184.814 44.3862 184.917 44.4343 185.005 44.504L188.779 46.8629L189.379 43.3291C189.396 43.2593 189.43 43.1943 189.476 43.1392C189.522 43.084 189.581 43.0402 189.646 43.0108C189.738 42.9847 189.835 42.9817 189.929 43.0021C190.022 43.0225 190.109 43.0656 190.182 43.1276L191.616 44.0254C191.829 44.1628 192.006 44.3488 192.133 44.5681C192.268 44.7602 192.347 44.9862 192.362 45.2208V45.3216L191.797 48.7431L196.372 51.6058L196.973 48.0698C196.991 48 197.024 47.9352 197.071 47.8801C197.117 47.825 197.175 47.781 197.241 47.7514C197.332 47.7265 197.429 47.7241 197.522 47.7445C197.614 47.7648 197.701 47.8073 197.774 47.8682L199.21 48.766C199.42 48.905 199.596 49.0897 199.725 49.3065C199.861 49.499 199.94 49.726 199.954 49.9614V50.0622L199.377 53.4768ZM190.529 56.4311L195.104 59.2915L195.939 54.1982L191.364 51.3378L190.529 56.4311Z" fill="#C7F1FF"/>
<path d="M736.717 241.063L680.757 207.155C680.176 206.798 679.528 206.565 678.853 206.471C678.178 206.377 677.49 206.424 676.834 206.608C676.633 206.663 672.438 208.184 672.438 208.184L673.762 208.775C672.996 209.816 672.59 211.079 672.604 212.372L672.993 244.574C672.997 246.715 673.535 248.821 674.558 250.701C675.581 252.58 677.057 254.174 678.852 255.338L734.462 290.322C734.768 290.499 735.092 290.646 735.427 290.76L735.152 292.319L739.524 290.808L739.464 290.783C740.557 290.363 741.494 289.618 742.149 288.647C742.804 287.676 743.145 286.526 743.124 285.355L742.914 252.184C742.915 249.955 742.347 247.763 741.262 245.816C740.177 243.869 738.613 242.233 736.717 241.063Z" fill="#2B2268"/>
<path style="mix-blend-mode:screen" d="M736.717 241.063L680.757 207.155C680.176 206.798 679.528 206.565 678.853 206.471C678.178 206.377 677.49 206.424 676.834 206.608C676.633 206.663 672.438 208.184 672.438 208.184L673.762 208.775C672.996 209.816 672.59 211.079 672.604 212.372L672.993 244.574C672.997 246.715 673.535 248.821 674.558 250.701C675.581 252.58 677.057 254.174 678.852 255.338L734.462 290.322C734.768 290.499 735.092 290.646 735.427 290.76L735.152 292.319L739.524 290.808L739.464 290.783C740.557 290.363 741.494 289.618 742.149 288.647C742.804 287.676 743.145 286.526 743.124 285.355L742.914 252.184C742.915 249.955 742.347 247.763 741.262 245.816C740.177 243.869 738.613 242.233 736.717 241.063Z" fill="url(#paint13_linear_1247_6989)"/>
<path d="M732.582 242.535L676.725 208.641C675.859 208.167 674.881 207.935 673.895 207.969C672.909 208.003 671.949 208.302 671.118 208.834C670.286 209.366 669.613 210.113 669.168 210.995C668.724 211.877 668.524 212.863 668.591 213.849L668.984 246.016C668.989 248.153 669.527 250.254 670.548 252.13C671.57 254.006 673.042 255.597 674.833 256.759L675.789 257.362L675.892 266.025L688.661 265.471L730.338 291.723C731.205 292.268 732.203 292.566 733.227 292.587C734.25 292.607 735.259 292.349 736.147 291.839C737.035 291.33 737.768 290.589 738.268 289.694C738.768 288.8 739.016 287.787 738.985 286.763L738.77 253.629C738.767 251.405 738.198 249.219 737.115 247.277C736.032 245.336 734.472 243.704 732.582 242.535Z" fill="#C7F1FF"/>
<path d="M679.275 219.047L729.38 249.652" stroke="white" stroke-width="0.348" stroke-linecap="round" stroke-linejoin="round"/>
<path d="M679.36 226.641L729.435 257.407" stroke="white" stroke-width="0.348" stroke-linecap="round" stroke-linejoin="round"/>
<path d="M679.448 234.223L729.491 265.147" stroke="white" stroke-width="0.348" stroke-linecap="round" stroke-linejoin="round"/>
<path d="M679.535 241.795L729.547 272.88" stroke="white" stroke-width="0.348" stroke-linecap="round" stroke-linejoin="round"/>
<path d="M679.62 249.361L729.603 280.603" stroke="white" stroke-width="0.348" stroke-linecap="round" stroke-linejoin="round"/>
<path d="M260.054 144.34L204.432 109.628C203.854 109.263 203.207 109.02 202.531 108.915C201.855 108.809 201.165 108.844 200.503 109.017C200.301 109.069 196.067 110.514 196.067 110.514L197.387 111.126C196.602 112.148 196.174 113.4 196.168 114.689L196.051 146.777C196.026 148.913 196.537 151.022 197.536 152.91C198.535 154.798 199.99 156.405 201.77 157.584L257.021 193.365C257.327 193.548 257.649 193.701 257.984 193.823L257.682 195.374L262.092 193.938L262.033 193.913C263.133 193.518 264.085 192.792 264.758 191.835C265.432 190.878 265.793 189.736 265.793 188.565L266.107 155.518C266.139 153.292 265.6 151.095 264.54 149.137C263.48 147.18 261.935 145.528 260.054 144.34Z" fill="#2B2268"/>
<path style="mix-blend-mode:screen" d="M260.054 144.34L204.432 109.628C203.854 109.263 203.207 109.02 202.531 108.915C201.855 108.809 201.165 108.844 200.503 109.017C200.301 109.069 196.067 110.514 196.067 110.514L197.387 111.126C196.602 112.148 196.174 113.4 196.168 114.689L196.051 146.777C196.026 148.913 196.537 151.022 197.536 152.91C198.535 154.798 199.99 156.405 201.77 157.584L257.021 193.365C257.327 193.548 257.649 193.701 257.984 193.823L257.682 195.374L262.092 193.938L262.033 193.913C263.133 193.518 264.085 192.792 264.758 191.835C265.432 190.878 265.793 189.736 265.793 188.565L266.107 155.518C266.139 153.292 265.6 151.095 264.54 149.137C263.48 147.18 261.935 145.528 260.054 144.34Z" fill="url(#paint14_linear_1247_6989)"/>
<path d="M255.878 145.74L200.36 111.051C199.502 110.564 198.53 110.316 197.544 110.332C196.558 110.349 195.595 110.63 194.754 111.145C193.913 111.661 193.226 112.393 192.763 113.265C192.301 114.137 192.08 115.117 192.125 116.103L192.013 148.165C191.987 150.299 192.494 152.405 193.49 154.291C194.485 156.178 195.936 157.785 197.711 158.966L198.662 159.582L198.628 168.216L211.451 167.874L252.854 194.724C253.713 195.284 254.707 195.6 255.732 195.639C256.756 195.677 257.771 195.437 258.669 194.944C259.568 194.45 260.316 193.722 260.833 192.836C261.351 191.95 261.619 190.941 261.608 189.915L261.915 156.902C261.947 154.68 261.408 152.487 260.351 150.533C259.294 148.578 257.754 146.928 255.878 145.74Z" fill="#94CFF1"/>
<path d="M202.757 121.452L252.555 152.777" stroke="white" stroke-width="0.348" stroke-linecap="round" stroke-linejoin="round"/>
<path d="M202.725 129.016L252.489 160.499" stroke="white" stroke-width="0.348" stroke-linecap="round" stroke-linejoin="round"/>
<path d="M202.692 136.571L252.423 168.212" stroke="white" stroke-width="0.348" stroke-linecap="round" stroke-linejoin="round"/>
<path d="M202.659 144.117L252.358 175.916" stroke="white" stroke-width="0.348" stroke-linecap="round" stroke-linejoin="round"/>
<path d="M202.627 151.654L252.295 183.611" stroke="white" stroke-width="0.348" stroke-linecap="round" stroke-linejoin="round"/>
<g style="mix-blend-mode:screen">
<path d="M411.195 71.3964L411.767 67.8489C398.017 60.6967 384.133 65.971 377.316 80.6211C370.385 95.5071 372.149 116.98 381.756 134.644C386.086 142.777 392.434 149.659 400.188 154.627L400.417 157.082L406.694 160.614L415.352 158.241C415.089 156.952 414.844 155.635 414.549 154.325C411.664 141.553 408.672 128.792 405.955 115.999C405.311 113.004 405.176 109.921 405.557 106.88C407.27 94.9575 409.283 83.2021 411.195 71.3964Z" fill="url(#paint15_linear_1247_6989)"/>
<path d="M410.215 116.795L401.559 119.167L403.474 121.398L409.769 141.954L410.912 160.532L419.57 158.159C429.747 155.107 436.365 147.277 439.506 133.959L410.215 116.795Z" fill="url(#paint16_linear_1247_6989)"/>
<path d="M416.039 70.4326L407.381 72.8052L407.42 73.2083L413.068 88.8432L409.636 110.075L426.138 119.747L431.703 130.455L440.361 128.083C443.163 107.064 431.614 79.7284 416.039 70.4326Z" fill="url(#paint17_linear_1247_6989)"/>
</g>
<g opacity="0.2">
<path d="M411.195 71.3964L411.767 67.8489C398.017 60.6967 384.133 65.971 377.316 80.6211C370.385 95.5071 372.149 116.98 381.756 134.644C386.086 142.777 392.434 149.659 400.188 154.627L400.417 157.082L406.694 160.614L415.352 158.241C415.089 156.952 414.844 155.635 414.549 154.325C411.664 141.553 408.672 128.792 405.955 115.999C405.311 113.004 405.176 109.921 405.557 106.88C407.27 94.9575 409.283 83.2021 411.195 71.3964Z" fill="url(#paint18_linear_1247_6989)"/>
<path d="M410.215 116.795L401.559 119.167L403.474 121.398L409.769 141.954L410.912 160.532L419.57 158.159C429.747 155.107 436.365 147.277 439.506 133.959L410.215 116.795Z" fill="url(#paint19_linear_1247_6989)"/>
<path d="M416.039 70.4326L407.381 72.8052L407.42 73.2083L413.068 88.8432L409.636 110.075L426.138 119.747L431.703 130.455L440.361 128.083C443.163 107.064 431.614 79.7284 416.039 70.4326Z" fill="url(#paint20_linear_1247_6989)"/>
</g>
<path d="M406.686 160.609C396.482 163.009 381.458 152.392 373.093 137.02C363.486 119.356 361.72 97.893 368.653 82.9979C375.47 68.3409 389.352 63.0735 403.104 70.2257L402.532 73.7731C400.625 85.5858 398.614 97.3411 396.892 109.257C396.512 112.297 396.647 115.381 397.292 118.376C400.007 131.169 402.999 143.93 405.883 156.702C406.181 158.003 406.423 159.32 406.686 160.609Z" fill="url(#paint21_linear_1247_6989)"/>
<path d="M410.908 160.535C407.742 146.526 404.704 133.083 401.562 119.17L430.841 136.346C427.705 149.652 421.087 157.482 410.908 160.535Z" fill="url(#paint22_linear_1247_6989)"/>
<path d="M407.382 72.8081C422.958 82.1039 434.509 109.439 431.71 130.458L400.987 112.451C403.125 99.1953 405.257 85.9811 407.382 72.8081Z" fill="url(#paint23_linear_1247_6989)"/>
<path d="M556.95 390.644C553.693 422.344 532.376 441.486 508.355 435.144C483.422 428.558 462.471 396.468 462.43 361.401C462.384 323.495 486.375 299.13 514.872 309.438C542.175 319.31 560.45 356.576 556.95 390.644Z" fill="url(#paint24_linear_1247_6989)"/>
<path d="M492.41 335.679L492.433 401.931C492.434 402.232 492.511 402.528 492.659 402.79C492.807 403.052 493.02 403.271 493.277 403.427C493.534 403.583 493.827 403.67 494.128 403.679C494.428 403.689 494.726 403.621 494.993 403.481L533.689 383.241C533.922 383.119 534.124 382.947 534.28 382.737C534.437 382.527 534.545 382.284 534.595 382.026C534.646 381.769 534.638 381.504 534.572 381.25C534.506 380.996 534.385 380.76 534.216 380.559L495.498 334.534C495.266 334.258 494.955 334.061 494.607 333.969C494.258 333.877 493.89 333.895 493.552 334.02C493.215 334.145 492.924 334.372 492.719 334.669C492.515 334.966 492.407 335.318 492.41 335.679Z" fill="white"/>
<path d="M495.846 676.717C495.428 677.215 494.93 677.639 494.373 677.972L431.198 716.32C429.447 717.329 427.442 717.81 425.424 717.705C423.407 717.6 421.462 716.914 419.825 715.73L315.369 651.896C314.527 651.402 313.829 650.695 313.344 649.848C312.859 649 312.604 648.04 312.604 647.063C312.604 646.086 312.859 645.126 313.344 644.278C313.829 643.43 314.527 642.724 315.369 642.229L380.838 602.539C381.726 601.999 382.746 601.714 383.785 601.714C384.824 601.714 385.844 601.999 386.732 602.539L494.373 668.303C495.06 668.726 495.649 669.29 496.102 669.958C496.555 670.626 496.861 671.383 497 672.178C497.14 672.973 497.109 673.789 496.91 674.571C496.711 675.354 496.348 676.085 495.846 676.717Z" stroke="#A6A6DD" stroke-width="0.5" stroke-miterlimit="10"/>
<path style="mix-blend-mode:multiply" opacity="0.3" d="M487.99 665.863C487.608 666.317 487.152 666.705 486.642 667.008L426.858 703.3C426.045 703.792 425.114 704.052 424.164 704.052C423.215 704.052 422.283 703.792 421.471 703.3L323.11 643.186C322.6 642.882 322.145 642.495 321.763 642.041C321.304 641.463 320.973 640.795 320.792 640.081C320.61 639.366 320.582 638.621 320.709 637.894C320.837 637.168 321.116 636.477 321.53 635.867C321.944 635.256 322.483 634.741 323.11 634.355L382.923 598.093C383.735 597.601 384.667 597.34 385.616 597.34C386.566 597.34 387.497 597.601 388.31 598.093L486.652 658.177C487.278 658.564 487.816 659.08 488.228 659.691C488.641 660.301 488.92 660.992 489.047 661.719C489.173 662.445 489.144 663.19 488.962 663.904C488.78 664.619 488.448 665.286 487.99 665.863Z" fill="url(#paint25_linear_1247_6989)"/>
<path d="M489.119 657.717L489.085 651.579L486.285 652.825L388.3 592.958C387.487 592.466 386.556 592.206 385.606 592.206C384.657 592.206 383.725 592.466 382.913 592.958L324.713 628.243L320.625 627.217V633.803C320.648 634.934 321.041 636.027 321.744 636.913C322.125 637.368 322.581 637.755 323.091 638.058L421.452 698.172C422.264 698.664 423.196 698.925 424.145 698.925C425.095 698.925 426.026 698.664 426.839 698.172L486.623 661.883C487.133 661.579 487.589 661.192 487.971 660.738C488.655 659.876 489.049 658.819 489.094 657.719L489.119 657.717Z" fill="#3777C4"/>
<path d="M487.99 654.298C487.608 654.752 487.153 655.139 486.643 655.443L426.858 691.732C426.045 692.224 425.114 692.485 424.164 692.485C423.215 692.485 422.283 692.224 421.471 691.732L323.111 631.62C322.601 631.316 322.146 630.929 321.763 630.475C321.305 629.898 320.973 629.23 320.792 628.515C320.61 627.8 320.582 627.054 320.709 626.328C320.837 625.601 321.116 624.91 321.53 624.3C321.944 623.689 322.483 623.174 323.111 622.787L382.923 586.525C383.735 586.033 384.667 585.773 385.616 585.773C386.566 585.773 387.497 586.033 388.31 586.525L486.652 646.612C487.278 646.999 487.816 647.515 488.229 648.126C488.641 648.736 488.92 649.427 489.047 650.153C489.173 650.88 489.144 651.625 488.962 652.339C488.78 653.053 488.449 653.721 487.99 654.298Z" fill="#282081"/>
<path style="mix-blend-mode:screen" d="M487.99 654.298C487.608 654.752 487.153 655.139 486.643 655.443L426.858 691.732C426.045 692.224 425.114 692.485 424.164 692.485C423.215 692.485 422.283 692.224 421.471 691.732L323.111 631.62C322.601 631.316 322.146 630.929 321.763 630.475C321.305 629.898 320.973 629.23 320.792 628.515C320.61 627.8 320.582 627.054 320.709 626.328C320.837 625.601 321.116 624.91 321.53 624.3C321.944 623.689 322.483 623.174 323.111 622.787L382.923 586.525C383.735 586.033 384.667 585.773 385.616 585.773C386.566 585.773 387.497 586.033 388.31 586.525L486.652 646.612C487.278 646.999 487.816 647.515 488.229 648.126C488.641 648.736 488.92 649.427 489.047 650.153C489.173 650.88 489.144 651.625 488.962 652.339C488.78 653.053 488.449 653.721 487.99 654.298Z" fill="#F6F5FB"/>
<path d="M368.252 649.252V649.38C368.254 649.43 368.262 649.48 368.275 649.529C368.301 649.59 368.315 649.655 368.316 649.721C368.545 650.555 369.538 652.589 373.164 653.356C378.8 654.544 382.522 651.237 384.992 649.437C387.547 647.576 389.905 645.844 390.393 645.544C393.318 643.813 396.99 642.892 400.835 640.593C402.406 639.585 403.784 638.303 404.904 636.809C405.743 635.68 406.183 634.303 406.155 632.896L406.087 631.446L381.705 641.651L368.339 646.653L368.252 649.252Z" fill="#18144C"/>
<path d="M382.81 630.986C386.422 630.745 390.018 630.301 393.58 629.656C396.535 629.15 398.527 627.989 400.417 627.675C401.464 627.371 402.587 627.469 403.567 627.949C404.547 628.428 405.313 629.255 405.717 630.27C406.552 632.292 406.746 634.456 400.785 638.539C394.824 642.623 390.213 643.049 385.439 646.898C382.533 649.277 378.912 650.605 375.159 650.67C373.908 650.899 372.619 650.78 371.431 650.326C370.243 649.873 369.202 649.102 368.42 648.098C366.618 644.727 368.484 638.338 368.484 638.338C368.524 637.938 368.656 637.554 368.869 637.214C369.083 636.874 369.372 636.588 369.715 636.38" fill="white"/>
<path d="M369.131 626.099C369.447 628.586 369.589 631.091 369.556 633.597C369.387 636.325 368.268 638.221 369.206 639.339C370.269 640.289 371.558 640.95 372.95 641.258C374.342 641.566 375.789 641.51 377.153 641.095C380.121 640.159 382.921 638.757 385.45 636.941C386.982 636.004 389.896 634.955 390.322 633.893C390.747 632.83 389.258 630.746 385.77 630.934C382.281 631.122 381.046 630.274 381.3 624.395" fill="#FFCEB3"/>
<path d="M412.855 638.306C412.934 639.632 413.276 640.93 413.86 642.123C415.383 643.873 420.82 644.7 424.579 643.072C428.337 641.443 429.915 639.568 433.321 639.249C436.417 639.04 439.452 638.285 442.286 637.019C444.764 635.991 446.926 634.323 448.551 632.186C449.01 631.56 449.269 630.808 449.292 630.031C449.316 629.255 449.104 628.489 448.684 627.835C447.931 627.189 440.561 629.686 440.561 629.686L432.2 631.834" fill="#18144C"/>
<path d="M413.155 625.582C412.59 627.74 412.227 629.946 412.071 632.171C411.892 634.353 412.098 636.549 412.679 638.659C413.137 639.575 415.246 642.745 422.14 641.765C426.56 641.135 426.505 638.526 431.558 637.787C435.053 637.452 438.496 636.699 441.812 635.544C447.558 632.879 447.943 630.953 448.656 629.118C449.37 627.284 446.662 622.706 440.65 624.485C438.763 625.248 436.689 625.419 434.703 624.975C431.718 624.847 428.754 624.422 425.853 623.707C423.732 623.178 413.155 625.582 413.155 625.582Z" fill="white"/>
<path d="M406.098 477.264C405.29 482.341 403.998 489.782 402.545 497.935C401.093 506.088 399.409 514.919 397.925 522.898C395.308 536.936 393.142 548.318 393.142 548.318C381.574 551.717 369.036 550.551 368.519 544.954C368.133 540.555 366.614 510.989 366.003 498.533C365.781 495.242 364.995 492.013 363.677 488.99C358.571 476.536 362.545 463.111 362.545 463.111L406.098 477.264Z" fill="#2B2268"/>
<path d="M402.542 497.935C401.056 506.054 399.406 514.919 397.922 522.898C397.922 522.898 393.461 494.01 391.265 489.835C389.373 485.619 388.745 480.944 389.456 476.378C389.456 476.378 398.212 490.171 402.542 497.935Z" fill="#1F1B56"/>
<path d="M389.692 473.342C388.96 479.068 390.288 484.866 393.436 489.701C396.577 494.536 405.102 541.917 406.628 544.974C408.154 548.031 425.614 548.155 430.875 540.996C436.136 533.837 435.352 469.932 435.352 469.932" fill="#2B2268"/>
<path d="M371.411 536.221C368.996 542.939 367.109 549.835 365.766 556.846C361.067 579.061 368.739 628.931 368.739 628.931C368.739 628.931 370.112 630.685 374.826 630.635C378.005 630.265 381.006 628.97 383.457 626.909C383.457 626.909 391.463 566.133 394.016 539.633L371.411 536.221Z" fill="#2B2268"/>
<path d="M473.579 383.798C472.664 384.827 468.567 388.917 468.567 388.917C468.567 388.917 463.926 392.476 463.427 392.81C462.461 393.301 461.468 393.738 460.453 394.118L459.426 391.892L461.732 389.054L463.203 388.388L464.761 387.664C464.761 387.664 465.177 387.302 465.76 386.803C466.675 385.94 467.59 385.188 468.48 384.3C469.926 382.852 472.33 380.459 473.579 380.821C474.942 381.238 474.496 382.74 473.579 383.798Z" fill="#FFCEB3"/>
<path d="M465.76 386.804C465.688 387.486 465.51 388.152 465.232 388.778C464.332 390.324 463.024 391.591 461.453 392.443C460.593 392.972 462.899 388.856 462.899 388.856C462.899 388.856 463.038 388.659 463.203 388.382L464.761 387.658C464.761 387.658 465.179 387.304 465.76 386.804Z" fill="#E29E79"/>
<path d="M442.076 406.175C442.076 406.175 450.692 398.922 451.845 398.263C452.998 397.603 453.877 394.085 455.137 392.382C456.397 390.678 459.463 389.212 461.267 387.3C463.113 385.346 464.33 384.723 464.927 385.493C465.524 386.262 465.131 388.385 463.758 389.924C462.386 391.463 461.174 392.214 461.498 392.546C462.52 392.295 463.451 391.763 464.186 391.01C465.065 390.13 465.979 387.474 466.748 387.309C467.839 387.307 468.891 387.716 469.694 388.454C470.396 390.592 470.466 392.888 469.896 395.066C468.974 397.86 467.267 400.329 464.98 402.177C462.949 403.441 459.906 404.132 457.71 405.342C455.514 406.551 447.776 416 447.776 416" fill="#FFCEB3"/>
<path d="M412.795 616.341C413.147 618.823 413.325 621.326 413.328 623.832C413.198 626.562 412.109 628.474 413.061 629.578C414.012 630.682 416.625 631.797 421.399 630.494C423.407 629.947 426.095 629.324 428.355 628.454C429.966 627.925 431.491 627.161 432.879 626.186C433.643 625.334 432.305 624.856 428.846 624.354C425.205 623.816 424.768 620.353 424.94 614.47" fill="#FFCEB3"/>
<path d="M408.29 539.868C406.393 544.75 405.255 549.894 404.916 555.121C404.229 564.256 411.7 617.198 411.7 617.198C411.7 617.198 415.957 623.058 425.903 618.343C425.903 618.343 433.98 537.91 433.349 530.092C432.717 522.273 408.29 539.868 408.29 539.868Z" fill="#2B2268"/>
<path d="M437.632 472.825C435.135 475.088 432.314 476.964 429.262 478.39C429.134 478.454 429.034 478.486 428.908 478.553C428.72 478.652 428.526 478.738 428.327 478.812C425.193 479.975 423.48 476.384 423.48 476.384C423.245 477.6 422.723 478.742 421.959 479.715C421.195 480.688 420.21 481.465 419.086 481.981C412.23 483.572 405.132 483.825 398.181 482.726C377.34 479.652 361.41 464.633 361.41 464.633C361.41 464.633 363.963 451.014 364.997 439.497C366.03 427.979 368.325 407.794 366.289 390.945C364.23 374.058 356.563 350.54 362.961 343.649L363.155 343.454C365.406 341.123 368.322 339.545 371.503 338.937C374.685 338.328 377.976 338.72 380.926 340.058L388.486 343.39C388.486 343.39 422.704 354.131 427.034 364.87C429.846 371.825 430.749 395.894 431.655 416.955C431.978 424.879 432.341 432.351 432.785 438.335C432.98 441.084 433.206 443.546 433.471 445.55C435.759 463.701 437.632 472.825 437.632 472.825Z" fill="#40B0F8"/>
<g style="mix-blend-mode:color-burn">
<path d="M432.787 438.342C420.185 421.326 408.425 390.853 408.425 390.853L431.657 416.961C431.979 424.885 432.334 432.358 432.787 438.342Z" fill="#52B2B2"/>
</g>
<path d="M457.762 411.01C457.762 411.01 439.895 430.227 435.402 429.872C426.808 429.185 408.424 390.857 408.424 390.857C400.418 374.164 419.472 352.522 427.035 364.879C434.597 377.237 440.249 406.192 440.249 406.192L447.487 401.08C448.625 401.128 449.753 401.313 450.847 401.63C452.893 402.174 454.692 403.399 455.949 405.105C457.206 406.81 457.846 408.892 457.762 411.01Z" fill="#7BC9FB"/>
<path d="M421.658 301.899C421.658 301.899 420.727 329.678 416.889 333.526C413.723 336.444 409.697 338.254 405.415 338.683C404.762 342.355 404.755 346.114 405.395 349.788C405.395 349.788 404.628 351.962 400.671 352.601C396.714 353.24 388.548 352.729 385.48 348.51C382.413 344.292 384.501 341.64 384.501 341.64C384.501 341.64 384.622 341.262 384.796 340.566C386.031 335.621 385.226 333.805 383.767 328.92C381.893 322.657 379.366 311.268 381.708 300.877C385.329 284.725 417.701 280.555 421.658 301.899Z" fill="#FFCEB3"/>
<path d="M422.742 302.019C420.999 288.258 399.701 276.457 383.487 289.749C378.8 293.38 375.37 298.393 373.681 304.08L373.665 304.042C373.665 304.042 373.633 304.211 373.567 304.52C373.363 305.285 373.178 306.048 373.04 306.81C372.146 310.475 370.89 319.688 367.672 326.991C360.874 342.415 357.959 340.228 356.488 347.495C354.583 356.93 359.737 361.103 361.949 366.503C364.161 371.903 362.864 375.419 367.667 381.066C372.471 386.714 401.769 397.92 404.143 378.041C406.517 358.162 412.572 356.214 410.616 347.14C409.997 344.428 408.996 341.819 407.643 339.39C407.635 339.365 407.628 339.34 407.622 339.315C405.861 335.683 405.455 331.54 406.478 327.635C406.778 325.61 408.855 322.624 412.538 319.209C413.3 318.641 413.9 317.884 414.279 317.011C414.658 316.139 414.802 315.183 414.697 314.237C418.494 313.214 424.176 310.282 422.742 302.019Z" fill="#2B2268"/>
<path d="M638.281 472.312L638.555 509.149C638.755 510.217 639.371 511.162 640.266 511.776C640.308 511.796 640.349 511.837 640.388 511.858L653.524 520.13L680.658 537.215C680.839 537.356 681.059 537.437 681.288 537.447C681.517 537.456 681.743 537.393 681.935 537.267L686.212 534.455C686.406 534.324 686.555 534.137 686.639 533.919C686.723 533.701 686.739 533.462 686.683 533.234L686.624 497.655C686.485 496.916 686.194 496.215 685.769 495.595C685.344 494.976 684.794 494.452 684.156 494.057L644.288 468.927C644.07 468.77 643.812 468.677 643.544 468.659C643.277 468.64 643.009 468.697 642.771 468.822L638.697 471.46C638.644 471.48 638.595 471.509 638.551 471.544C638.438 471.634 638.353 471.753 638.306 471.889C638.258 472.025 638.249 472.171 638.281 472.312Z" fill="#2B2268"/>
<path d="M638.28 472.312L638.555 509.149C638.755 510.217 639.37 511.162 640.266 511.776C640.307 511.797 640.348 511.838 640.387 511.859L653.524 520.131L680.657 537.215C680.838 537.357 681.058 537.438 681.287 537.447C681.516 537.456 681.742 537.394 681.934 537.268C682.085 537.154 682.2 536.999 682.266 536.821C682.331 536.643 682.344 536.45 682.302 536.265L682.188 500.385C682.053 499.694 681.779 499.037 681.383 498.455C680.987 497.873 680.476 497.378 679.882 497L639.515 471.579C639.398 471.494 639.262 471.438 639.119 471.417C638.975 471.396 638.829 471.41 638.692 471.458C638.639 471.479 638.59 471.507 638.546 471.543C638.433 471.633 638.349 471.753 638.302 471.889C638.255 472.025 638.248 472.172 638.28 472.312Z" fill="url(#paint26_linear_1247_6989)"/>
<path d="M670.4 514.915C672.063 517.434 674.517 518.579 675.89 517.487C677.262 516.395 677.033 513.477 675.368 510.965C673.703 508.452 671.251 507.3 669.878 508.395C668.506 509.49 668.737 512.405 670.4 514.915Z" fill="white"/>
<path d="M656.868 506.317C658.519 508.836 660.985 509.981 662.358 508.914C663.73 507.847 663.524 504.918 661.87 502.403C660.216 499.889 657.753 498.727 656.38 499.806C655.008 500.885 655.221 503.802 656.868 506.317Z" fill="white"/>
<path d="M643.351 497.721C644.998 500.24 647.468 501.41 648.841 500.336C650.213 499.262 650.026 496.354 648.383 493.837C646.741 491.32 644.277 490.147 642.893 491.222C641.509 492.296 641.706 495.204 643.351 497.721Z" fill="white"/>
<path d="M246.884 698.124C246.484 698.6 246.007 699.006 245.473 699.324L206.012 722.975C204.303 724.024 199.394 727.667 190.986 723.041L75.6799 656.471C74.876 655.997 74.2095 655.32 73.7466 654.509C73.2836 653.698 73.04 652.78 73.04 651.846C73.04 650.912 73.2836 649.994 73.7466 649.182C74.2095 648.371 74.876 647.695 75.6799 647.221L122.673 619.07C123.523 618.554 124.498 618.28 125.493 618.28C126.487 618.28 127.462 618.554 128.312 619.07L245.475 690.065C246.133 690.47 246.698 691.01 247.132 691.65C247.566 692.29 247.859 693.015 247.993 693.777C248.126 694.539 248.096 695.32 247.905 696.07C247.714 696.819 247.366 697.519 246.884 698.124Z" stroke="#A6A6DD" stroke-width="0.5" stroke-miterlimit="10"/>
<path style="mix-blend-mode:multiply" opacity="0.3" d="M232.585 694.603C232.246 695.008 231.841 695.353 231.386 695.622L196.565 716.463C195.841 716.903 195.01 717.136 194.163 717.136C193.316 717.136 192.485 716.903 191.761 716.463L89.7545 657.475C89.3007 657.204 88.8956 656.859 88.5559 656.454C88.1478 655.94 87.8531 655.346 87.6914 654.71C87.5298 654.074 87.5048 653.411 87.6181 652.764C87.7314 652.118 87.9804 651.503 88.3487 650.96C88.717 650.417 89.1961 649.959 89.7545 649.615L127.335 627.172C128.059 626.731 128.89 626.498 129.737 626.498C130.584 626.498 131.415 626.731 132.139 627.172L231.386 687.774C231.943 688.118 232.421 688.576 232.788 689.118C233.155 689.66 233.404 690.274 233.517 690.919C233.63 691.564 233.605 692.226 233.445 692.861C233.284 693.496 232.991 694.09 232.585 694.603Z" fill="#C2E3F6"/>
<path d="M116.505 595.511C120.551 597.542 123.989 600.606 126.471 604.395C128.377 603.224 131.831 601.097 135.164 598.994V636.661H108.682C97.1691 626.511 84.563 605.382 84.563 605.382C84.563 605.382 94.8816 600.133 99.6029 597.043C104.187 594.043 109.826 592.067 116.505 595.511Z" fill="#3777C4"/>
<path d="M194.766 661.981C197.655 659.535 206.638 659.352 212.343 662.634C221.035 667.631 226.557 679.157 224.769 687.667C224.526 689.365 223.9 690.985 222.936 692.402C221.973 693.82 220.698 694.999 219.21 695.848C216.063 697.43 201.171 706.293 201.171 706.293L165.716 679.581C165.716 679.581 189.947 660.717 194.766 661.981Z" fill="#3777C4"/>
<path d="M116.756 635.032L119.327 610.47L123.095 606.751L126.563 604.337C128.491 603.151 131.913 601.042 135.209 598.962C143.032 594.029 151.564 592.293 163.645 599.274C181.978 609.873 196.84 633.342 196.84 651.698C196.911 655.235 196.203 658.744 194.765 661.976L175.944 672.868L116.756 635.032Z" fill="#3777C4"/>
<path d="M192.973 672.774C187.865 669.822 179.067 669.295 175.936 672.868C177.374 669.637 178.083 666.127 178.01 662.59C178.01 644.234 163.142 620.765 144.815 610.168C126.783 599.744 112.143 605.684 111.665 623.346C109.341 617.563 106.283 610.842 97.6753 606.399C86.8534 600.815 76.9121 607.182 76.9121 617.891C76.9121 630.393 82.2418 643.941 94.7313 651.16L188.437 705.324C197.115 710.342 204.151 707.053 205.938 698.55C207.724 690.047 201.665 677.79 192.973 672.774Z" fill="#282081"/>
<g style="mix-blend-mode:screen">
<path d="M192.973 672.774C187.865 669.822 179.067 669.295 175.936 672.868C177.374 669.637 178.083 666.127 178.01 662.59C178.01 644.234 163.142 620.765 144.815 610.168C126.783 599.744 112.143 605.684 111.665 623.346C109.341 617.563 106.283 610.842 97.6753 606.399C86.8534 600.815 76.9121 607.182 76.9121 617.891C76.9121 630.393 82.2418 643.941 94.7313 651.16L188.437 705.324C197.115 710.342 204.151 707.053 205.938 698.55C207.724 690.047 201.665 677.79 192.973 672.774Z" fill="url(#paint27_linear_1247_6989)"/>
</g>
<path d="M71.7151 489.507L50.6888 502.245L30.6348 490.107L51.661 477.369L71.7151 489.507Z" fill="#F0F0FF"/>
<path style="mix-blend-mode:multiply" opacity="0.3" d="M71.7151 522.753L50.6888 535.491L30.6348 523.353L51.661 510.616L71.7151 522.753Z" fill="#94CFF1"/>
<path d="M50.6924 502.245V528.238L71.7186 515.5V489.507L50.6924 502.245Z" fill="#EBEBFC"/>
<path d="M30.6348 490.094L50.6888 502.232V528.225L30.6348 516.087V490.094Z" fill="#94CFF1"/>
<path d="M573.41 613.751L560.182 621.767L547.566 614.124L560.795 606.109L573.41 613.751Z" fill="#F0F0FF"/>
<path style="mix-blend-mode:multiply" opacity="0.3" d="M573.41 634.665L560.182 642.681L547.566 635.038L560.795 627.023L573.41 634.665Z" fill="#94CFF1"/>
<path d="M560.184 621.763V638.115L573.412 630.1V613.748L560.184 621.763Z" fill="#EBEBFC"/>
<path d="M547.566 614.118L560.182 621.76V638.112L547.566 630.47V614.118Z" fill="#093B9E"/>
<path d="M736.093 640.045L722.865 648.06L710.25 640.418L723.478 632.402L736.093 640.045Z" fill="#F0F0FF"/>
<path style="mix-blend-mode:multiply" opacity="0.3" d="M736.093 660.969L722.865 668.985L710.25 661.342L723.478 653.327L736.093 660.969Z" fill="#3777C4" fill-opacity="0.33"/>
<path d="M722.864 648.061V664.413L736.092 656.398V640.046L722.864 648.061Z" fill="#EBEBFC"/>
<path d="M710.25 640.426L722.865 648.068V664.42L710.25 656.778V640.426Z" fill="#3777C4"/>
<path d="M483.149 707.074L469.921 715.09L457.306 707.447L470.534 699.432L483.149 707.074Z" fill="#F0F0FF"/>
<path style="mix-blend-mode:multiply" opacity="0.3" d="M483.149 727.984L469.921 736L457.306 728.358L470.534 720.342L483.149 727.984Z" fill="#94CFF1"/>
<path d="M469.919 715.087V731.438L483.148 723.423V707.071L469.919 715.087Z" fill="#EBEBFC"/>
<path d="M457.306 707.441L469.921 715.084V731.435L457.306 723.793V707.441Z" fill="#30C2DD"/>
<path d="M319.442 435.776L306.214 443.791L293.599 436.149L306.827 428.134L319.442 435.776Z" fill="#F0F0FF"/>
<path style="mix-blend-mode:multiply" opacity="0.3" d="M319.442 456.69L306.214 464.706L293.599 457.064L306.827 449.048L319.442 456.69Z" fill="#C2E4F6"/>
<path d="M306.212 443.774V460.126L319.441 452.11V435.759L306.212 443.774Z" fill="#EBEBFC"/>
<path d="M293.599 436.143L306.214 443.785V460.137L293.599 452.495V436.143Z" fill="#94CFF1"/>
<path d="M309.726 594.927L289.825 606.987L270.839 595.486L290.74 583.426L309.726 594.927Z" fill="#F0F0FF"/>
<path style="mix-blend-mode:multiply" opacity="0.3" d="M309.725 626.402L289.825 638.462L270.839 626.961L290.74 614.901L309.725 626.402Z" fill="#07349A" fill-opacity="0.33"/>
<path d="M289.819 606.985V631.595L309.72 619.535V594.925L289.819 606.985Z" fill="#EBEBFC"/>
<path d="M270.834 595.486L289.82 606.987V631.597L270.834 620.096V595.486Z" fill="#3C6FEB"/>
<path d="M850.903 465.658L854 467.466C853.648 467.299 853.257 467.229 852.869 467.265C852.48 467.3 852.109 467.439 851.792 467.667L848.696 465.887C849.009 465.654 849.38 465.51 849.768 465.47C850.157 465.43 850.549 465.494 850.903 465.658Z" fill="#E58B0A"/>
<mask id="mask0_1247_6989" style="mask-type:luminance" maskUnits="userSpaceOnUse" x="848" y="465" width="6" height="3">
<path d="M850.903 465.658L854 467.466C853.648 467.299 853.257 467.229 852.869 467.265C852.48 467.3 852.109 467.439 851.792 467.667L848.696 465.887C849.009 465.654 849.38 465.51 849.768 465.47C850.157 465.43 850.549 465.494 850.903 465.658Z" fill="white"/>
</mask>
<g mask="url(#mask0_1247_6989)">
<path d="M851.792 467.667L848.696 465.887L849.126 465.657L852.222 467.466L851.792 467.667Z" fill="#E58B0A"/>
<path d="M852.222 467.466L849.125 465.657H849.498L852.566 467.466L852.222 467.609V467.466Z" fill="#E58B0A"/>
<path d="M852.566 467.323L849.499 465.514H849.757L852.853 467.323H852.566Z" fill="#E58B0A"/>
<path d="M852.853 467.265L849.757 465.457H850.015L853.111 467.236L852.853 467.265Z" fill="#E58B0A"/>
<path d="M853.111 467.236L850.015 465.457H850.215L853.283 467.265L853.111 467.236Z" fill="#E58B0A"/>
<path d="M853.283 467.265L850.215 465.457H850.387L853.484 467.265H853.283Z" fill="#E58B0A"/>
<path d="M853.484 467.265L850.388 465.457H850.588L853.656 467.265H853.484Z" fill="#E58B0A"/>
<path d="M853.656 467.323L850.588 465.514H850.731L853.828 467.323C853.801 467.31 853.772 467.303 853.742 467.303C853.712 467.303 853.683 467.31 853.656 467.323Z" fill="#E58B0A"/>
<path d="M853.828 467.38L850.731 465.571H850.903L854 467.351H853.828V467.38Z" fill="#E58B0A"/>
<path d="M854 467.437L850.903 465.657L854 467.466V467.437Z" fill="#E58B0A"/>
</g>
<defs>
<linearGradient id="paint0_linear_1247_6989" x1="123.804" y1="159.631" x2="169.803" y2="159.631" gradientUnits="userSpaceOnUse">
<stop stop-color="#40B0F8"/>
<stop offset="1" stop-color="#696AFA"/>
</linearGradient>
<linearGradient id="paint1_linear_1247_6989" x1="619.911" y1="180.744" x2="665.903" y2="180.744" gradientUnits="userSpaceOnUse">
<stop stop-color="#40B0F8"/>
<stop offset="1" stop-color="#696AFA"/>
</linearGradient>
<linearGradient id="paint2_linear_1247_6989" x1="555.198" y1="122.454" x2="601.219" y2="122.454" gradientUnits="userSpaceOnUse">
<stop stop-color="#40B0F8"/>
<stop offset="1" stop-color="#696AFA"/>
</linearGradient>
<linearGradient id="paint3_linear_1247_6989" x1="582.015" y1="116.182" x2="610.063" y2="116.182" gradientUnits="userSpaceOnUse">
<stop stop-color="#40B0F8"/>
<stop offset="1" stop-color="#696AFA"/>
</linearGradient>
<linearGradient id="paint4_linear_1247_6989" x1="716.069" y1="338.548" x2="744.103" y2="338.548" gradientUnits="userSpaceOnUse">
<stop stop-color="#40B0F8"/>
<stop offset="1" stop-color="#696AFA"/>
</linearGradient>
<linearGradient id="paint5_linear_1247_6989" x1="686.964" y1="566.97" x2="726.145" y2="566.97" gradientUnits="userSpaceOnUse">
<stop stop-color="#40B0F8"/>
<stop offset="1" stop-color="#696AFA"/>
</linearGradient>
<linearGradient id="paint6_linear_1247_6989" x1="249.435" y1="10.9132" x2="340.703" y2="69.2495" gradientUnits="userSpaceOnUse">
<stop stop-color="#548ED2"/>
<stop offset="1" stop-color="#5467FF"/>
</linearGradient>
<linearGradient id="paint7_linear_1247_6989" x1="504.961" y1="129.808" x2="575.686" y2="218.025" gradientUnits="userSpaceOnUse">
<stop stop-color="#82DEFE"/>
<stop offset="1" stop-color="#3262FF"/>
</linearGradient>
<linearGradient id="paint8_linear_1247_6989" x1="521.236" y1="118.506" x2="560.897" y2="221.386" gradientUnits="userSpaceOnUse">
<stop stop-color="#82DEFE"/>
<stop offset="1" stop-color="#3262FF"/>
</linearGradient>
<linearGradient id="paint9_linear_1247_6989" x1="465.404" y1="275.888" x2="465.404" y2="-3.45495" gradientUnits="userSpaceOnUse">
<stop stop-color="#40B0F8"/>
<stop offset="1" stop-color="#696AFA"/>
</linearGradient>
<linearGradient id="paint10_linear_1247_6989" x1="399.32" y1="219.832" x2="651.012" y2="219.832" gradientUnits="userSpaceOnUse">
<stop stop-color="#2F31C9"/>
<stop offset="0.638" stop-color="#2F31C9"/>
</linearGradient>
<linearGradient id="paint11_linear_1247_6989" x1="407.53" y1="212.554" x2="653.078" y2="212.554" gradientUnits="userSpaceOnUse">
<stop stop-color="#40B0F8"/>
<stop offset="1" stop-color="#696AFA"/>
</linearGradient>
<linearGradient id="paint12_linear_1247_6989" x1="257.886" y1="389.087" x2="257.886" y2="203.113" gradientUnits="userSpaceOnUse">
<stop stop-color="#40B0F8"/>
<stop offset="1" stop-color="#696AFA"/>
</linearGradient>
<linearGradient id="paint13_linear_1247_6989" x1="672.862" y1="249.028" x2="743.62" y2="249.028" gradientUnits="userSpaceOnUse">
<stop stop-color="#40B0F8"/>
<stop offset="1" stop-color="#696AFA"/>
</linearGradient>
<linearGradient id="paint14_linear_1247_6989" x1="196.12" y1="152.72" x2="266.809" y2="152.72" gradientUnits="userSpaceOnUse">
<stop stop-color="#40B0F8"/>
<stop offset="1" stop-color="#696AFA"/>
</linearGradient>
<linearGradient id="paint15_linear_1247_6989" x1="374.468" y1="112.361" x2="416.323" y2="112.361" gradientUnits="userSpaceOnUse">
<stop stop-color="#40B0F8"/>
<stop offset="1" stop-color="#696AFA"/>
</linearGradient>
<linearGradient id="paint16_linear_1247_6989" x1="401.407" y1="138.969" x2="437.836" y2="138.969" gradientUnits="userSpaceOnUse">
<stop stop-color="#40B0F8"/>
<stop offset="1" stop-color="#696AFA"/>
</linearGradient>
<linearGradient id="paint17_linear_1247_6989" x1="410.32" y1="102.125" x2="440.481" y2="102.125" gradientUnits="userSpaceOnUse">
<stop stop-color="#40B0F8"/>
<stop offset="1" stop-color="#696AFA"/>
</linearGradient>
<linearGradient id="paint18_linear_1247_6989" x1="373.117" y1="112.649" x2="415.352" y2="112.649" gradientUnits="userSpaceOnUse">
<stop stop-color="#40B0F8"/>
<stop offset="1" stop-color="#696AFA"/>
</linearGradient>
<linearGradient id="paint19_linear_1247_6989" x1="401.559" y1="138.663" x2="439.506" y2="138.663" gradientUnits="userSpaceOnUse">
<stop stop-color="#40B0F8"/>
<stop offset="1" stop-color="#696AFA"/>
</linearGradient>
<linearGradient id="paint20_linear_1247_6989" x1="407.381" y1="100.444" x2="440.782" y2="100.444" gradientUnits="userSpaceOnUse">
<stop stop-color="#40B0F8"/>
<stop offset="1" stop-color="#696AFA"/>
</linearGradient>
<linearGradient id="paint21_linear_1247_6989" x1="330.497" y1="26.313" x2="477.278" y2="65.1456" gradientUnits="userSpaceOnUse">
<stop stop-color="#82DEFE"/>
<stop offset="1" stop-color="#3262FF"/>
</linearGradient>
<linearGradient id="paint22_linear_1247_6989" x1="326.167" y1="29.6154" x2="477.763" y2="128.977" gradientUnits="userSpaceOnUse">
<stop stop-color="#82DEFE"/>
<stop offset="1" stop-color="#3262FF"/>
</linearGradient>
<linearGradient id="paint23_linear_1247_6989" x1="347.017" y1="13.6015" x2="499.73" y2="71.9009" gradientUnits="userSpaceOnUse">
<stop stop-color="#82DEFE"/>
<stop offset="1" stop-color="#3262FF"/>
</linearGradient>
<linearGradient id="paint24_linear_1247_6989" x1="482.179" y1="289.352" x2="612.328" y2="483.949" gradientUnits="userSpaceOnUse">
<stop stop-color="#82DEFE"/>
<stop offset="1" stop-color="#3262FF"/>
</linearGradient>
<linearGradient id="paint25_linear_1247_6989" x1="320.631" y1="650.696" x2="489.124" y2="650.696" gradientUnits="userSpaceOnUse">
<stop stop-color="#2F31C9"/>
<stop offset="0.638" stop-color="#2F31C9"/>
</linearGradient>
<linearGradient id="paint26_linear_1247_6989" x1="638.172" y1="504.758" x2="684.441" y2="504.758" gradientUnits="userSpaceOnUse">
<stop stop-color="#82DEFE"/>
<stop offset="1" stop-color="#3262FF"/>
</linearGradient>
<linearGradient id="paint27_linear_1247_6989" x1="76.9121" y1="656.012" x2="206.251" y2="656.012" gradientUnits="userSpaceOnUse">
<stop stop-color="#3F6FEA"/>
<stop offset="0.0666667" stop-color="#3F70EA"/>
<stop offset="0.133333" stop-color="#3E72E9"/>
<stop offset="0.2" stop-color="#3D77E9"/>
<stop offset="0.266667" stop-color="#3C7DE7"/>
<stop offset="0.333333" stop-color="#3B85E6"/>
<stop offset="0.4" stop-color="#398FE4"/>
<stop offset="0.466667" stop-color="#3799E2"/>
<stop offset="0.533333" stop-color="#34A4E1"/>
<stop offset="0.6" stop-color="#32AFDF"/>
<stop offset="0.666667" stop-color="#30B8DD"/>
<stop offset="0.733333" stop-color="#2FC1DC"/>
<stop offset="0.8" stop-color="#2EC7DA"/>
<stop offset="0.866667" stop-color="#2DCBDA"/>
<stop offset="0.933333" stop-color="#2CCED9"/>
<stop offset="1" stop-color="#2CCFD9"/>
</linearGradient>
</defs>
</svg>
