<svg width="375" height="538" viewBox="0 0 375 538" fill="none" xmlns="http://www.w3.org/2000/svg">
<g opacity="0.4">
<path d="M375 0H0V758.859H375V0Z" fill="#080F1F"/>
<mask id="mask0_561_6160" style="mask-type:luminance" maskUnits="userSpaceOnUse" x="0" y="0" width="375" height="759">
<path d="M375 0H0V758.859H375V0Z" fill="white"/>
</mask>
<g mask="url(#mask0_561_6160)">
<g style="mix-blend-mode:screen">
<path d="M46.9111 587.842L46.764 587.691L-151.479 383.473L183.074 -557.528L183.106 -555.508L194.375 173.06L194.255 173.396L46.9111 587.842ZM-150.217 382.593L46.7828 585.533L193.765 172.095L182.54 -553.369L-150.217 382.593Z" fill="url(#paint0_linear_561_6160)"/>
<path d="M-134.065 335.114L-134.258 337.092L54.1193 566.925L54.3117 564.947L-134.065 335.114Z" fill="url(#paint1_linear_561_6160)"/>
<path d="M-117.371 288.216L-117.592 290.155L61.4642 546.218L61.6853 544.279L-117.371 288.216Z" fill="url(#paint2_linear_561_6160)"/>
<path d="M-100.675 241.314L-100.926 243.207L68.8031 525.535L69.0542 523.642L-100.675 241.314Z" fill="url(#paint3_linear_561_6160)"/>
<path d="M-83.9769 194.416L-84.2588 196.254L76.1473 504.809L76.4292 502.971L-83.9769 194.416Z" fill="url(#paint4_linear_561_6160)"/>
<path d="M-67.2785 147.528L-67.5918 149.301L83.4984 484.034L83.8117 482.26L-67.2785 147.528Z" fill="url(#paint5_linear_561_6160)"/>
<path d="M-50.577 100.639L-50.9219 102.337L90.8372 463.338L91.182 461.64L-50.577 100.639Z" fill="url(#paint6_linear_561_6160)"/>
<path d="M-33.8798 53.758L-34.2559 55.3711L98.1884 442.559L98.5644 440.946L-33.8798 53.758Z" fill="url(#paint7_linear_561_6160)"/>
<path d="M-17.1874 6.87847L-17.5938 8.39648L105.539 421.764L105.946 420.246L-17.1874 6.87847Z" fill="url(#paint8_linear_561_6160)"/>
<path d="M-0.484519 -39.9905L-0.919922 -38.5771L112.878 401.06L113.313 399.647L-0.484519 -39.9905Z" fill="url(#paint9_linear_561_6160)"/>
<path d="M16.2076 -86.8586L15.7451 -85.5576L120.229 380.277L120.691 378.976L16.2076 -86.8586Z" fill="url(#paint10_linear_561_6160)"/>
<path d="M32.8984 -133.73L32.4111 -132.548L127.581 359.486L128.068 358.304L32.8984 -133.73Z" fill="url(#paint11_linear_561_6160)"/>
<path d="M49.6032 -180.577L49.0938 -179.519L134.925 338.774L135.435 337.715L49.6032 -180.577Z" fill="url(#paint12_linear_561_6160)"/>
<path d="M66.2856 -227.455L65.7568 -226.523L142.281 317.962L142.809 317.03L66.2856 -227.455Z" fill="url(#paint13_linear_561_6160)"/>
<path d="M82.9895 -274.29L82.4443 -273.485L149.629 297.246L150.174 296.441L82.9895 -274.29Z" fill="url(#paint14_linear_561_6160)"/>
<path d="M99.67 -321.169L99.1113 -320.49L156.987 276.442L157.546 275.763L99.67 -321.169Z" fill="url(#paint15_linear_561_6160)"/>
<path d="M116.347 -368.06L115.777 -367.504L164.344 255.634L164.914 255.078L116.347 -368.06Z" fill="url(#paint16_linear_561_6160)"/>
<path d="M133.037 -414.926L132.459 -414.488L171.702 234.873L172.28 234.435L133.037 -414.926Z" fill="url(#paint17_linear_561_6160)"/>
<path d="M149.732 -461.763L149.148 -461.439L179.057 214.156L179.641 213.832L149.732 -461.763Z" fill="url(#paint18_linear_561_6160)"/>
<path d="M166.42 -508.618L165.832 -508.402L186.417 193.41L187.004 193.193L166.42 -508.618Z" fill="url(#paint19_linear_561_6160)"/>
<path d="M193.618 154.331L41.9336 580.998L42.301 582.636L193.985 155.968L193.618 154.331Z" fill="url(#paint20_linear_561_6160)"/>
<path d="M193.332 135.814L36.9092 575.812L37.2765 577.449L193.7 137.451L193.332 135.814Z" fill="url(#paint21_linear_561_6160)"/>
<path d="M193.025 116.12L31.5576 570.308L31.925 571.946L193.393 117.758L193.025 116.12Z" fill="url(#paint22_linear_561_6160)"/>
<path d="M192.7 95.0867L25.8506 564.412L26.2179 566.05L193.067 96.7245L192.7 95.0867Z" fill="url(#paint23_linear_561_6160)"/>
<path d="M192.353 72.6756L19.751 558.184L20.1183 559.821L192.721 74.3134L192.353 72.6756Z" fill="url(#paint24_linear_561_6160)"/>
<path d="M191.98 48.56L13.2148 551.404L13.5822 553.042L192.348 50.1979L191.98 48.56Z" fill="url(#paint25_linear_561_6160)"/>
<path d="M191.593 22.8041L6.18262 544.153L6.5499 545.791L191.961 24.4422L191.593 22.8041Z" fill="url(#paint26_linear_561_6160)"/>
<path d="M191.15 -5.12927L-1.36426 536.388L-0.99689 538.026L191.517 -3.49138L191.15 -5.12927Z" fill="url(#paint27_linear_561_6160)"/>
<path d="M190.685 -35.1594L-9.52832 528.015L-9.16096 529.653L191.052 -33.5216L190.685 -35.1594Z" fill="url(#paint28_linear_561_6160)"/>
<path d="M190.181 -67.737L-18.373 518.898L-18.0057 520.536L190.548 -66.0992L190.181 -67.737Z" fill="url(#paint29_linear_561_6160)"/>
<path d="M189.648 -103.075L-28.001 508.924L-27.6337 510.562L190.015 -101.437L189.648 -103.075Z" fill="url(#paint30_linear_561_6160)"/>
<path d="M189.035 -141.76L-38.4746 498.194L-38.1072 499.832L189.402 -140.122L189.035 -141.76Z" fill="url(#paint31_linear_561_6160)"/>
<path d="M188.379 -184.095L-49.9619 486.326L-49.5945 487.964L188.746 -182.457L188.379 -184.095Z" fill="url(#paint32_linear_561_6160)"/>
<path d="M187.659 -230.612L-62.5957 473.321L-62.2283 474.959L188.026 -228.975L187.659 -230.612Z" fill="url(#paint33_linear_561_6160)"/>
<path d="M186.862 -282.043L-76.5605 458.93L-76.1932 460.568L187.229 -280.405L186.862 -282.043Z" fill="url(#paint34_linear_561_6160)"/>
<path d="M185.978 -339.176L-92.0762 442.953L-91.7088 444.591L186.345 -337.539L185.978 -339.176Z" fill="url(#paint35_linear_561_6160)"/>
<path d="M185.012 -402.932L-109.434 425.008L-109.066 426.646L185.379 -401.294L185.012 -402.932Z" fill="url(#paint36_linear_561_6160)"/>
<path d="M183.879 -474.866L-128.921 405L-128.554 406.638L184.247 -473.229L183.879 -474.866Z" fill="url(#paint37_linear_561_6160)"/>
</g>
<g style="mix-blend-mode:screen">
<path d="M327.997 140.436L328.142 140.587L526.386 344.805L191.839 1285.81L191.808 1283.79L180.535 555.218L180.654 554.882L327.997 140.436ZM525.123 345.681L328.124 142.745L181.138 556.183L192.363 1281.65L525.123 345.681Z" fill="url(#paint38_linear_561_6160)"/>
<path d="M320.772 161.28L320.58 163.258L508.957 393.091L509.15 391.114L320.772 161.28Z" fill="url(#paint39_linear_561_6160)"/>
<path d="M313.43 182.008L313.209 183.947L492.265 440.01L492.486 438.071L313.43 182.008Z" fill="url(#paint40_linear_561_6160)"/>
<path d="M306.112 202.773L305.861 204.666L475.59 486.994L475.841 485.101L306.112 202.773Z" fill="url(#paint41_linear_561_6160)"/>
<path d="M298.77 223.522L298.488 225.36L458.894 533.916L459.176 532.078L298.77 223.522Z" fill="url(#paint42_linear_561_6160)"/>
<path d="M291.403 244.209L291.09 245.982L442.18 580.715L442.493 578.942L291.403 244.209Z" fill="url(#paint43_linear_561_6160)"/>
<path d="M284.085 265.033L283.74 266.731L425.499 627.732L425.844 626.034L284.085 265.033Z" fill="url(#paint44_linear_561_6160)"/>
<path d="M276.722 285.731L276.346 287.344L408.79 674.532L409.166 672.919L276.722 285.731Z" fill="url(#paint45_linear_561_6160)"/>
<path d="M269.358 306.395L268.951 307.913L392.084 721.281L392.491 719.763L269.358 306.395Z" fill="url(#paint46_linear_561_6160)"/>
<path d="M262.033 327.269L261.598 328.683L375.395 768.32L375.831 766.907L262.033 327.269Z" fill="url(#paint47_linear_561_6160)"/>
<path d="M254.676 347.974L254.214 349.275L358.697 815.11L359.16 813.809L254.676 347.974Z" fill="url(#paint48_linear_561_6160)"/>
<path d="M247.324 368.68L246.837 369.862L342.007 861.896L342.494 860.714L247.324 368.68Z" fill="url(#paint49_linear_561_6160)"/>
<path d="M239.984 389.571L239.475 390.629L325.306 908.921L325.816 907.863L239.984 389.571Z" fill="url(#paint50_linear_561_6160)"/>
<path d="M232.627 410.252L232.099 411.184L308.622 955.669L309.151 954.737L232.627 410.252Z" fill="url(#paint51_linear_561_6160)"/>
<path d="M225.276 431.131L224.73 431.936L291.915 1002.67L292.46 1001.86L225.276 431.131Z" fill="url(#paint52_linear_561_6160)"/>
<path d="M217.921 451.823L217.362 452.502L275.238 1049.43L275.797 1048.76L217.921 451.823Z" fill="url(#paint53_linear_561_6160)"/>
<path d="M210.57 472.524L210.001 473.08L258.568 1096.22L259.137 1095.66L210.57 472.524Z" fill="url(#paint54_linear_561_6160)"/>
<path d="M203.214 493.307L202.637 493.745L241.88 1143.11L242.458 1142.67L203.214 493.307Z" fill="url(#paint55_linear_561_6160)"/>
<path d="M195.848 514.135L195.265 514.459L225.173 1190.05L225.757 1189.73L195.848 514.135Z" fill="url(#paint56_linear_561_6160)"/>
<path d="M187.065 534.754L186.48 534.963L206.405 1233.49L206.99 1233.29L187.065 534.754Z" fill="url(#paint57_linear_561_6160)"/>
<path d="M332.613 145.713L180.929 572.381L181.296 574.019L332.98 147.351L332.613 145.713Z" fill="url(#paint58_linear_561_6160)"/>
<path d="M337.631 150.809L181.208 590.807L181.575 592.445L337.999 152.447L337.631 150.809Z" fill="url(#paint59_linear_561_6160)"/>
<path d="M342.988 156.399L181.521 610.587L181.888 612.225L343.356 158.037L342.988 156.399Z" fill="url(#paint60_linear_561_6160)"/>
<path d="M348.704 162.317L181.832 631.539L182.199 633.177L349.072 163.955L348.704 162.317Z" fill="url(#paint61_linear_561_6160)"/>
<path d="M354.806 168.6L182.18 654.001L182.547 655.639L355.173 170.238L354.806 168.6Z" fill="url(#paint62_linear_561_6160)"/>
<path d="M361.325 175.216L182.56 678.061L182.927 679.698L361.693 176.854L361.325 175.216Z" fill="url(#paint63_linear_561_6160)"/>
<path d="M368.344 182.423L182.959 703.887L183.326 705.525L368.711 184.061L368.344 182.423Z" fill="url(#paint64_linear_561_6160)"/>
<path d="M375.903 190.217L183.389 731.734L183.756 733.372L376.27 191.855L375.903 190.217Z" fill="url(#paint65_linear_561_6160)"/>
<path d="M384.069 198.643L183.855 761.817L184.223 763.455L384.436 200.281L384.069 198.643Z" fill="url(#paint66_linear_561_6160)"/>
<path d="M392.914 207.756L184.36 794.392L184.728 796.029L393.282 209.394L392.914 207.756Z" fill="url(#paint67_linear_561_6160)"/>
<path d="M402.547 217.805L184.897 829.804L185.265 831.442L402.914 219.443L402.547 217.805Z" fill="url(#paint68_linear_561_6160)"/>
<path d="M413.034 228.61L185.493 868.424L185.86 870.062L413.401 230.248L413.034 228.61Z" fill="url(#paint69_linear_561_6160)"/>
<path d="M424.52 240.426L186.146 910.699L186.514 912.337L424.887 242.064L424.52 240.426Z" fill="url(#paint70_linear_561_6160)"/>
<path d="M435.362 254.738L186.08 956.444L186.446 958.076L435.729 256.37L435.362 254.738Z" fill="url(#paint71_linear_561_6160)"/>
<path d="M451.122 267.862L187.663 1008.67L188.03 1010.31L451.489 269.5L451.122 267.862Z" fill="url(#paint72_linear_561_6160)"/>
<path d="M466.638 283.85L188.546 1065.81L188.913 1067.45L467.006 285.488L466.638 283.85Z" fill="url(#paint73_linear_561_6160)"/>
<path d="M483.98 301.744L189.534 1129.68L189.901 1131.32L484.347 303.382L483.98 301.744Z" fill="url(#paint74_linear_561_6160)"/>
<path d="M503.463 321.631L190.663 1201.5L191.03 1203.13L503.831 323.269L503.463 321.631Z" fill="url(#paint75_linear_561_6160)"/>
</g>
</g>
</g>
<defs>
<linearGradient id="paint0_linear_561_6160" x1="31.025" y1="-13.7196" x2="216.025" y2="57.2829" gradientUnits="userSpaceOnUse">
<stop stop-color="#CCCCCC"/>
<stop offset="1"/>
</linearGradient>
<linearGradient id="paint1_linear_561_6160" x1="-77.6917" y1="269.506" x2="107.311" y2="340.509" gradientUnits="userSpaceOnUse">
<stop stop-color="#CCCCCC"/>
<stop offset="1"/>
</linearGradient>
<linearGradient id="paint2_linear_561_6160" x1="-65.3327" y1="237.318" x2="119.67" y2="308.322" gradientUnits="userSpaceOnUse">
<stop stop-color="#CCCCCC"/>
<stop offset="1"/>
</linearGradient>
<linearGradient id="paint3_linear_561_6160" x1="-52.9719" y1="205.15" x2="132.031" y2="276.155" gradientUnits="userSpaceOnUse">
<stop stop-color="#CCCCCC"/>
<stop offset="1"/>
</linearGradient>
<linearGradient id="paint4_linear_561_6160" x1="-40.6136" y1="172.953" x2="144.389" y2="243.957" gradientUnits="userSpaceOnUse">
<stop stop-color="#CCCCCC"/>
<stop offset="1"/>
</linearGradient>
<linearGradient id="paint5_linear_561_6160" x1="-28.2592" y1="140.739" x2="156.743" y2="211.744" gradientUnits="userSpaceOnUse">
<stop stop-color="#CCCCCC"/>
<stop offset="1"/>
</linearGradient>
<linearGradient id="paint6_linear_561_6160" x1="-15.8949" y1="108.559" x2="169.108" y2="179.564" gradientUnits="userSpaceOnUse">
<stop stop-color="#CCCCCC"/>
<stop offset="1"/>
</linearGradient>
<linearGradient id="paint7_linear_561_6160" x1="-3.54063" y1="76.3444" x2="181.462" y2="147.349" gradientUnits="userSpaceOnUse">
<stop stop-color="#CCCCCC"/>
<stop offset="1"/>
</linearGradient>
<linearGradient id="paint8_linear_561_6160" x1="8.81197" y1="44.1386" x2="193.815" y2="115.143" gradientUnits="userSpaceOnUse">
<stop stop-color="#CCCCCC"/>
<stop offset="1"/>
</linearGradient>
<linearGradient id="paint9_linear_561_6160" x1="21.1739" y1="11.9483" x2="206.176" y2="82.9513" gradientUnits="userSpaceOnUse">
<stop stop-color="#CCCCCC"/>
<stop offset="1"/>
</linearGradient>
<linearGradient id="paint10_linear_561_6160" x1="33.5292" y1="-20.2492" x2="218.532" y2="50.7552" gradientUnits="userSpaceOnUse">
<stop stop-color="#CCCCCC"/>
<stop offset="1"/>
</linearGradient>
<linearGradient id="paint11_linear_561_6160" x1="45.8858" y1="-52.4501" x2="230.888" y2="18.5543" gradientUnits="userSpaceOnUse">
<stop stop-color="#CCCCCC"/>
<stop offset="1"/>
</linearGradient>
<linearGradient id="paint12_linear_561_6160" x1="58.2474" y1="-84.646" x2="243.25" y2="-13.6427" gradientUnits="userSpaceOnUse">
<stop stop-color="#CCCCCC"/>
<stop offset="1"/>
</linearGradient>
<linearGradient id="paint13_linear_561_6160" x1="70.6019" y1="-116.839" x2="255.602" y2="-45.8371" gradientUnits="userSpaceOnUse">
<stop stop-color="#CCCCCC"/>
<stop offset="1"/>
</linearGradient>
<linearGradient id="paint14_linear_561_6160" x1="82.9652" y1="-149.042" x2="267.965" y2="-78.0394" gradientUnits="userSpaceOnUse">
<stop stop-color="#CCCCCC"/>
<stop offset="1"/>
</linearGradient>
<linearGradient id="paint15_linear_561_6160" x1="95.3189" y1="-181.242" x2="280.322" y2="-110.238" gradientUnits="userSpaceOnUse">
<stop stop-color="#CCCCCC"/>
<stop offset="1"/>
</linearGradient>
<linearGradient id="paint16_linear_561_6160" x1="107.674" y1="-213.443" x2="292.677" y2="-142.437" gradientUnits="userSpaceOnUse">
<stop stop-color="#CCCCCC"/>
<stop offset="1"/>
</linearGradient>
<linearGradient id="paint17_linear_561_6160" x1="120.035" y1="-245.636" x2="305.036" y2="-174.633" gradientUnits="userSpaceOnUse">
<stop stop-color="#CCCCCC"/>
<stop offset="1"/>
</linearGradient>
<linearGradient id="paint18_linear_561_6160" x1="132.391" y1="-277.837" x2="317.392" y2="-206.835" gradientUnits="userSpaceOnUse">
<stop stop-color="#CCCCCC"/>
<stop offset="1"/>
</linearGradient>
<linearGradient id="paint19_linear_561_6160" x1="144.752" y1="-310.03" x2="329.753" y2="-239.027" gradientUnits="userSpaceOnUse">
<stop stop-color="#CCCCCC"/>
<stop offset="1"/>
</linearGradient>
<linearGradient id="paint20_linear_561_6160" x1="35.9073" y1="-26.4469" x2="220.912" y2="44.5577" gradientUnits="userSpaceOnUse">
<stop stop-color="#CCCCCC"/>
<stop offset="1"/>
</linearGradient>
<linearGradient id="paint21_linear_561_6160" x1="35.7802" y1="-26.1152" x2="220.782" y2="44.8889" gradientUnits="userSpaceOnUse">
<stop stop-color="#CCCCCC"/>
<stop offset="1"/>
</linearGradient>
<linearGradient id="paint22_linear_561_6160" x1="35.6418" y1="-25.7753" x2="220.649" y2="45.2292" gradientUnits="userSpaceOnUse">
<stop stop-color="#CCCCCC"/>
<stop offset="1"/>
</linearGradient>
<linearGradient id="paint23_linear_561_6160" x1="35.4971" y1="-25.3897" x2="220.496" y2="45.6124" gradientUnits="userSpaceOnUse">
<stop stop-color="#CCCCCC"/>
<stop offset="1"/>
</linearGradient>
<linearGradient id="paint24_linear_561_6160" x1="35.356" y1="-24.9771" x2="220.36" y2="46.0289" gradientUnits="userSpaceOnUse">
<stop stop-color="#CCCCCC"/>
<stop offset="1"/>
</linearGradient>
<linearGradient id="paint25_linear_561_6160" x1="35.1804" y1="-24.5603" x2="220.182" y2="46.4424" gradientUnits="userSpaceOnUse">
<stop stop-color="#CCCCCC"/>
<stop offset="1"/>
</linearGradient>
<linearGradient id="paint26_linear_561_6160" x1="35.0107" y1="-24.0855" x2="220.013" y2="46.9186" gradientUnits="userSpaceOnUse">
<stop stop-color="#CCCCCC"/>
<stop offset="1"/>
</linearGradient>
<linearGradient id="paint27_linear_561_6160" x1="34.8126" y1="-23.6045" x2="219.82" y2="47.4013" gradientUnits="userSpaceOnUse">
<stop stop-color="#CCCCCC"/>
<stop offset="1"/>
</linearGradient>
<linearGradient id="paint28_linear_561_6160" x1="34.6134" y1="-23.055" x2="219.618" y2="47.9496" gradientUnits="userSpaceOnUse">
<stop stop-color="#CCCCCC"/>
<stop offset="1"/>
</linearGradient>
<linearGradient id="paint29_linear_561_6160" x1="34.3886" y1="-22.4752" x2="219.393" y2="48.5294" gradientUnits="userSpaceOnUse">
<stop stop-color="#CCCCCC"/>
<stop offset="1"/>
</linearGradient>
<linearGradient id="paint30_linear_561_6160" x1="34.146" y1="-21.8436" x2="219.15" y2="49.1611" gradientUnits="userSpaceOnUse">
<stop stop-color="#CCCCCC"/>
<stop offset="1"/>
</linearGradient>
<linearGradient id="paint31_linear_561_6160" x1="33.881" y1="-21.1503" x2="218.885" y2="49.8543" gradientUnits="userSpaceOnUse">
<stop stop-color="#CCCCCC"/>
<stop offset="1"/>
</linearGradient>
<linearGradient id="paint32_linear_561_6160" x1="33.5854" y1="-20.3999" x2="218.591" y2="50.6053" gradientUnits="userSpaceOnUse">
<stop stop-color="#CCCCCC"/>
<stop offset="1"/>
</linearGradient>
<linearGradient id="paint33_linear_561_6160" x1="33.267" y1="-19.5636" x2="218.269" y2="51.4394" gradientUnits="userSpaceOnUse">
<stop stop-color="#CCCCCC"/>
<stop offset="1"/>
</linearGradient>
<linearGradient id="paint34_linear_561_6160" x1="32.9137" y1="-18.6514" x2="217.917" y2="52.3519" gradientUnits="userSpaceOnUse">
<stop stop-color="#CCCCCC"/>
<stop offset="1"/>
</linearGradient>
<linearGradient id="paint35_linear_561_6160" x1="32.4064" y1="-17.5188" x2="216.797" y2="53.3028" gradientUnits="userSpaceOnUse">
<stop stop-color="#CCCCCC"/>
<stop offset="1"/>
</linearGradient>
<linearGradient id="paint36_linear_561_6160" x1="32.0863" y1="-16.4852" x2="217.091" y2="54.5198" gradientUnits="userSpaceOnUse">
<stop stop-color="#CCCCCC"/>
<stop offset="1"/>
</linearGradient>
<linearGradient id="paint37_linear_561_6160" x1="31.5941" y1="-15.2012" x2="216.597" y2="55.8033" gradientUnits="userSpaceOnUse">
<stop stop-color="#CCCCCC"/>
<stop offset="1"/>
</linearGradient>
<linearGradient id="paint38_linear_561_6160" x1="343.883" y1="741.997" x2="158.88" y2="670.994" gradientUnits="userSpaceOnUse">
<stop stop-color="#CCCCCC"/>
<stop offset="1"/>
</linearGradient>
<linearGradient id="paint39_linear_561_6160" x1="452.556" y1="458.787" x2="267.553" y2="387.782" gradientUnits="userSpaceOnUse">
<stop stop-color="#CCCCCC"/>
<stop offset="1"/>
</linearGradient>
<linearGradient id="paint40_linear_561_6160" x1="440.206" y1="490.967" x2="255.203" y2="419.962" gradientUnits="userSpaceOnUse">
<stop stop-color="#CCCCCC"/>
<stop offset="1"/>
</linearGradient>
<linearGradient id="paint41_linear_561_6160" x1="427.899" y1="523.116" x2="242.896" y2="452.111" gradientUnits="userSpaceOnUse">
<stop stop-color="#CCCCCC"/>
<stop offset="1"/>
</linearGradient>
<linearGradient id="paint42_linear_561_6160" x1="415.548" y1="555.316" x2="230.545" y2="484.31" gradientUnits="userSpaceOnUse">
<stop stop-color="#CCCCCC"/>
<stop offset="1"/>
</linearGradient>
<linearGradient id="paint43_linear_561_6160" x1="403.148" y1="587.545" x2="218.147" y2="516.544" gradientUnits="userSpaceOnUse">
<stop stop-color="#CCCCCC"/>
<stop offset="1"/>
</linearGradient>
<linearGradient id="paint44_linear_561_6160" x1="390.849" y1="619.719" x2="205.847" y2="548.716" gradientUnits="userSpaceOnUse">
<stop stop-color="#CCCCCC"/>
<stop offset="1"/>
</linearGradient>
<linearGradient id="paint45_linear_561_6160" x1="378.454" y1="651.932" x2="193.451" y2="580.927" gradientUnits="userSpaceOnUse">
<stop stop-color="#CCCCCC"/>
<stop offset="1"/>
</linearGradient>
<linearGradient id="paint46_linear_561_6160" x1="366.049" y1="684.134" x2="181.049" y2="613.132" gradientUnits="userSpaceOnUse">
<stop stop-color="#CCCCCC"/>
<stop offset="1"/>
</linearGradient>
<linearGradient id="paint47_linear_561_6160" x1="353.752" y1="716.329" x2="168.749" y2="645.324" gradientUnits="userSpaceOnUse">
<stop stop-color="#CCCCCC"/>
<stop offset="1"/>
</linearGradient>
<linearGradient id="paint48_linear_561_6160" x1="341.367" y1="748.527" x2="156.364" y2="677.523" gradientUnits="userSpaceOnUse">
<stop stop-color="#CCCCCC"/>
<stop offset="1"/>
</linearGradient>
<linearGradient id="paint49_linear_561_6160" x1="328.987" y1="780.719" x2="143.984" y2="709.716" gradientUnits="userSpaceOnUse">
<stop stop-color="#CCCCCC"/>
<stop offset="1"/>
</linearGradient>
<linearGradient id="paint50_linear_561_6160" x1="316.68" y1="812.929" x2="131.677" y2="741.924" gradientUnits="userSpaceOnUse">
<stop stop-color="#CCCCCC"/>
<stop offset="1"/>
</linearGradient>
<linearGradient id="paint51_linear_561_6160" x1="304.286" y1="845.116" x2="119.286" y2="774.113" gradientUnits="userSpaceOnUse">
<stop stop-color="#CCCCCC"/>
<stop offset="1"/>
</linearGradient>
<linearGradient id="paint52_linear_561_6160" x1="291.97" y1="877.323" x2="106.97" y2="806.321" gradientUnits="userSpaceOnUse">
<stop stop-color="#CCCCCC"/>
<stop offset="1"/>
</linearGradient>
<linearGradient id="paint53_linear_561_6160" x1="279.585" y1="909.514" x2="94.5848" y2="838.511" gradientUnits="userSpaceOnUse">
<stop stop-color="#CCCCCC"/>
<stop offset="1"/>
</linearGradient>
<linearGradient id="paint54_linear_561_6160" x1="267.204" y1="941.706" x2="82.2057" y2="870.705" gradientUnits="userSpaceOnUse">
<stop stop-color="#CCCCCC"/>
<stop offset="1"/>
</linearGradient>
<linearGradient id="paint55_linear_561_6160" x1="254.854" y1="973.907" x2="69.8532" y2="902.903" gradientUnits="userSpaceOnUse">
<stop stop-color="#CCCCCC"/>
<stop offset="1"/>
</linearGradient>
<linearGradient id="paint56_linear_561_6160" x1="242.517" y1="1006.11" x2="57.516" y2="935.11" gradientUnits="userSpaceOnUse">
<stop stop-color="#CCCCCC"/>
<stop offset="1"/>
</linearGradient>
<linearGradient id="paint57_linear_561_6160" x1="228.131" y1="1036.08" x2="43.6228" y2="964.844" gradientUnits="userSpaceOnUse">
<stop stop-color="#CCCCCC"/>
<stop offset="1"/>
</linearGradient>
<linearGradient id="paint58_linear_561_6160" x1="339.032" y1="754.722" x2="154.028" y2="683.717" gradientUnits="userSpaceOnUse">
<stop stop-color="#CCCCCC"/>
<stop offset="1"/>
</linearGradient>
<linearGradient id="paint59_linear_561_6160" x1="339.125" y1="754.398" x2="154.118" y2="683.392" gradientUnits="userSpaceOnUse">
<stop stop-color="#CCCCCC"/>
<stop offset="1"/>
</linearGradient>
<linearGradient id="paint60_linear_561_6160" x1="339.294" y1="754.032" x2="154.292" y2="683.03" gradientUnits="userSpaceOnUse">
<stop stop-color="#CCCCCC"/>
<stop offset="1"/>
</linearGradient>
<linearGradient id="paint61_linear_561_6160" x1="339.433" y1="753.667" x2="154.429" y2="682.663" gradientUnits="userSpaceOnUse">
<stop stop-color="#CCCCCC"/>
<stop offset="1"/>
</linearGradient>
<linearGradient id="paint62_linear_561_6160" x1="339.586" y1="753.259" x2="154.582" y2="682.254" gradientUnits="userSpaceOnUse">
<stop stop-color="#CCCCCC"/>
<stop offset="1"/>
</linearGradient>
<linearGradient id="paint63_linear_561_6160" x1="339.722" y1="752.837" x2="154.721" y2="681.834" gradientUnits="userSpaceOnUse">
<stop stop-color="#CCCCCC"/>
<stop offset="1"/>
</linearGradient>
<linearGradient id="paint64_linear_561_6160" x1="339.89" y1="752.368" x2="154.889" y2="681.365" gradientUnits="userSpaceOnUse">
<stop stop-color="#CCCCCC"/>
<stop offset="1"/>
</linearGradient>
<linearGradient id="paint65_linear_561_6160" x1="340.082" y1="751.871" x2="155.081" y2="680.87" gradientUnits="userSpaceOnUse">
<stop stop-color="#CCCCCC"/>
<stop offset="1"/>
</linearGradient>
<linearGradient id="paint66_linear_561_6160" x1="340.294" y1="751.336" x2="155.292" y2="680.332" gradientUnits="userSpaceOnUse">
<stop stop-color="#CCCCCC"/>
<stop offset="1"/>
</linearGradient>
<linearGradient id="paint67_linear_561_6160" x1="340.522" y1="750.761" x2="155.515" y2="679.755" gradientUnits="userSpaceOnUse">
<stop stop-color="#CCCCCC"/>
<stop offset="1"/>
</linearGradient>
<linearGradient id="paint68_linear_561_6160" x1="340.794" y1="750.117" x2="155.79" y2="679.114" gradientUnits="userSpaceOnUse">
<stop stop-color="#CCCCCC"/>
<stop offset="1"/>
</linearGradient>
<linearGradient id="paint69_linear_561_6160" x1="341.059" y1="749.431" x2="156.052" y2="678.425" gradientUnits="userSpaceOnUse">
<stop stop-color="#CCCCCC"/>
<stop offset="1"/>
</linearGradient>
<linearGradient id="paint70_linear_561_6160" x1="341.341" y1="748.67" x2="156.339" y2="677.667" gradientUnits="userSpaceOnUse">
<stop stop-color="#CCCCCC"/>
<stop offset="1"/>
</linearGradient>
<linearGradient id="paint71_linear_561_6160" x1="340.251" y1="747.623" x2="155.967" y2="676.948" gradientUnits="userSpaceOnUse">
<stop stop-color="#CCCCCC"/>
<stop offset="1"/>
</linearGradient>
<linearGradient id="paint72_linear_561_6160" x1="342.023" y1="746.928" x2="157.016" y2="675.922" gradientUnits="userSpaceOnUse">
<stop stop-color="#CCCCCC"/>
<stop offset="1"/>
</linearGradient>
<linearGradient id="paint73_linear_561_6160" x1="342.415" y1="745.907" x2="157.411" y2="674.903" gradientUnits="userSpaceOnUse">
<stop stop-color="#CCCCCC"/>
<stop offset="1"/>
</linearGradient>
<linearGradient id="paint74_linear_561_6160" x1="342.86" y1="744.767" x2="157.853" y2="673.76" gradientUnits="userSpaceOnUse">
<stop stop-color="#CCCCCC"/>
<stop offset="1"/>
</linearGradient>
<linearGradient id="paint75_linear_561_6160" x1="341.816" y1="738.162" x2="157.425" y2="667.341" gradientUnits="userSpaceOnUse">
<stop stop-color="#CCCCCC"/>
<stop offset="1"/>
</linearGradient>
</defs>
</svg>
